<?xml version="1.0" encoding="utf-8" standalone="no"?>
<!DOCTYPE svg PUBLIC "-//W3C//DTD SVG 1.1//EN"
  "http://www.w3.org/Graphics/SVG/1.1/DTD/svg11.dtd">
<!-- Created with matplotlib (https://matplotlib.org/) -->
<svg height="432pt" version="1.1" viewBox="0 0 864 432" width="864pt" xmlns="http://www.w3.org/2000/svg" xmlns:xlink="http://www.w3.org/1999/xlink">
 <defs>
  <style type="text/css">
*{stroke-linecap:butt;stroke-linejoin:round;}
  </style>
 </defs>
 <g id="figure_1">
  <g id="patch_1">
   <path d="M 0 432 
L 864 432 
L 864 0 
L 0 0 
z
" style="fill:#ffffff;"/>
  </g>
  <g id="axes_1">
   <g id="patch_2">
    <path d="M 39.94 193.52 
L 417.860357 193.52 
L 417.860357 37.968 
L 39.94 37.968 
z
" style="fill:#ffffff;"/>
   </g>
   <g id="matplotlib.axis_1">
    <g id="xtick_1">
     <g id="line2d_1">
      <defs>
       <path d="M 0 0 
L 0 3.5 
" id="m877ab5bf90" style="stroke:#000000;stroke-width:0.8;"/>
      </defs>
      <g>
       <use style="stroke:#000000;stroke-width:0.8;" x="57.118198" xlink:href="#m877ab5bf90" y="193.52"/>
      </g>
     </g>
     <g id="text_1">
      <!-- 0 -->
      <defs>
       <path d="M 31.78125 66.40625 
Q 24.171875 66.40625 20.328125 58.90625 
Q 16.5 51.421875 16.5 36.375 
Q 16.5 21.390625 20.328125 13.890625 
Q 24.171875 6.390625 31.78125 6.390625 
Q 39.453125 6.390625 43.28125 13.890625 
Q 47.125 21.390625 47.125 36.375 
Q 47.125 51.421875 43.28125 58.90625 
Q 39.453125 66.40625 31.78125 66.40625 
z
M 31.78125 74.21875 
Q 44.046875 74.21875 50.515625 64.515625 
Q 56.984375 54.828125 56.984375 36.375 
Q 56.984375 17.96875 50.515625 8.265625 
Q 44.046875 -1.421875 31.78125 -1.421875 
Q 19.53125 -1.421875 13.0625 8.265625 
Q 6.59375 17.96875 6.59375 36.375 
Q 6.59375 54.828125 13.0625 64.515625 
Q 19.53125 74.21875 31.78125 74.21875 
z
" id="DejaVuSans-48"/>
      </defs>
      <g transform="translate(53.936948 208.118437)scale(0.1 -0.1)">
       <use xlink:href="#DejaVuSans-48"/>
      </g>
     </g>
    </g>
    <g id="xtick_2">
     <g id="line2d_2">
      <g>
       <use style="stroke:#000000;stroke-width:0.8;" x="126.525059" xlink:href="#m877ab5bf90" y="193.52"/>
      </g>
     </g>
     <g id="text_2">
      <!-- 20 -->
      <defs>
       <path d="M 19.1875 8.296875 
L 53.609375 8.296875 
L 53.609375 0 
L 7.328125 0 
L 7.328125 8.296875 
Q 12.9375 14.109375 22.625 23.890625 
Q 32.328125 33.6875 34.8125 36.53125 
Q 39.546875 41.84375 41.421875 45.53125 
Q 43.3125 49.21875 43.3125 52.78125 
Q 43.3125 58.59375 39.234375 62.25 
Q 35.15625 65.921875 28.609375 65.921875 
Q 23.96875 65.921875 18.8125 64.3125 
Q 13.671875 62.703125 7.8125 59.421875 
L 7.8125 69.390625 
Q 13.765625 71.78125 18.9375 73 
Q 24.125 74.21875 28.421875 74.21875 
Q 39.75 74.21875 46.484375 68.546875 
Q 53.21875 62.890625 53.21875 53.421875 
Q 53.21875 48.921875 51.53125 44.890625 
Q 49.859375 40.875 45.40625 35.40625 
Q 44.1875 33.984375 37.640625 27.21875 
Q 31.109375 20.453125 19.1875 8.296875 
z
" id="DejaVuSans-50"/>
      </defs>
      <g transform="translate(120.162559 208.118437)scale(0.1 -0.1)">
       <use xlink:href="#DejaVuSans-50"/>
       <use x="63.623047" xlink:href="#DejaVuSans-48"/>
      </g>
     </g>
    </g>
    <g id="xtick_3">
     <g id="line2d_3">
      <g>
       <use style="stroke:#000000;stroke-width:0.8;" x="195.93192" xlink:href="#m877ab5bf90" y="193.52"/>
      </g>
     </g>
     <g id="text_3">
      <!-- 40 -->
      <defs>
       <path d="M 37.796875 64.3125 
L 12.890625 25.390625 
L 37.796875 25.390625 
z
M 35.203125 72.90625 
L 47.609375 72.90625 
L 47.609375 25.390625 
L 58.015625 25.390625 
L 58.015625 17.1875 
L 47.609375 17.1875 
L 47.609375 0 
L 37.796875 0 
L 37.796875 17.1875 
L 4.890625 17.1875 
L 4.890625 26.703125 
z
" id="DejaVuSans-52"/>
      </defs>
      <g transform="translate(189.56942 208.118437)scale(0.1 -0.1)">
       <use xlink:href="#DejaVuSans-52"/>
       <use x="63.623047" xlink:href="#DejaVuSans-48"/>
      </g>
     </g>
    </g>
    <g id="xtick_4">
     <g id="line2d_4">
      <g>
       <use style="stroke:#000000;stroke-width:0.8;" x="265.33878" xlink:href="#m877ab5bf90" y="193.52"/>
      </g>
     </g>
     <g id="text_4">
      <!-- 60 -->
      <defs>
       <path d="M 33.015625 40.375 
Q 26.375 40.375 22.484375 35.828125 
Q 18.609375 31.296875 18.609375 23.390625 
Q 18.609375 15.53125 22.484375 10.953125 
Q 26.375 6.390625 33.015625 6.390625 
Q 39.65625 6.390625 43.53125 10.953125 
Q 47.40625 15.53125 47.40625 23.390625 
Q 47.40625 31.296875 43.53125 35.828125 
Q 39.65625 40.375 33.015625 40.375 
z
M 52.59375 71.296875 
L 52.59375 62.3125 
Q 48.875 64.0625 45.09375 64.984375 
Q 41.3125 65.921875 37.59375 65.921875 
Q 27.828125 65.921875 22.671875 59.328125 
Q 17.53125 52.734375 16.796875 39.40625 
Q 19.671875 43.65625 24.015625 45.921875 
Q 28.375 48.1875 33.59375 48.1875 
Q 44.578125 48.1875 50.953125 41.515625 
Q 57.328125 34.859375 57.328125 23.390625 
Q 57.328125 12.15625 50.6875 5.359375 
Q 44.046875 -1.421875 33.015625 -1.421875 
Q 20.359375 -1.421875 13.671875 8.265625 
Q 6.984375 17.96875 6.984375 36.375 
Q 6.984375 53.65625 15.1875 63.9375 
Q 23.390625 74.21875 37.203125 74.21875 
Q 40.921875 74.21875 44.703125 73.484375 
Q 48.484375 72.75 52.59375 71.296875 
z
" id="DejaVuSans-54"/>
      </defs>
      <g transform="translate(258.97628 208.118437)scale(0.1 -0.1)">
       <use xlink:href="#DejaVuSans-54"/>
       <use x="63.623047" xlink:href="#DejaVuSans-48"/>
      </g>
     </g>
    </g>
    <g id="xtick_5">
     <g id="line2d_5">
      <g>
       <use style="stroke:#000000;stroke-width:0.8;" x="334.745641" xlink:href="#m877ab5bf90" y="193.52"/>
      </g>
     </g>
     <g id="text_5">
      <!-- 80 -->
      <defs>
       <path d="M 31.78125 34.625 
Q 24.75 34.625 20.71875 30.859375 
Q 16.703125 27.09375 16.703125 20.515625 
Q 16.703125 13.921875 20.71875 10.15625 
Q 24.75 6.390625 31.78125 6.390625 
Q 38.8125 6.390625 42.859375 10.171875 
Q 46.921875 13.96875 46.921875 20.515625 
Q 46.921875 27.09375 42.890625 30.859375 
Q 38.875 34.625 31.78125 34.625 
z
M 21.921875 38.8125 
Q 15.578125 40.375 12.03125 44.71875 
Q 8.5 49.078125 8.5 55.328125 
Q 8.5 64.0625 14.71875 69.140625 
Q 20.953125 74.21875 31.78125 74.21875 
Q 42.671875 74.21875 48.875 69.140625 
Q 55.078125 64.0625 55.078125 55.328125 
Q 55.078125 49.078125 51.53125 44.71875 
Q 48 40.375 41.703125 38.8125 
Q 48.828125 37.15625 52.796875 32.3125 
Q 56.78125 27.484375 56.78125 20.515625 
Q 56.78125 9.90625 50.3125 4.234375 
Q 43.84375 -1.421875 31.78125 -1.421875 
Q 19.734375 -1.421875 13.25 4.234375 
Q 6.78125 9.90625 6.78125 20.515625 
Q 6.78125 27.484375 10.78125 32.3125 
Q 14.796875 37.15625 21.921875 38.8125 
z
M 18.3125 54.390625 
Q 18.3125 48.734375 21.84375 45.5625 
Q 25.390625 42.390625 31.78125 42.390625 
Q 38.140625 42.390625 41.71875 45.5625 
Q 45.3125 48.734375 45.3125 54.390625 
Q 45.3125 60.0625 41.71875 63.234375 
Q 38.140625 66.40625 31.78125 66.40625 
Q 25.390625 66.40625 21.84375 63.234375 
Q 18.3125 60.0625 18.3125 54.390625 
z
" id="DejaVuSans-56"/>
      </defs>
      <g transform="translate(328.383141 208.118437)scale(0.1 -0.1)">
       <use xlink:href="#DejaVuSans-56"/>
       <use x="63.623047" xlink:href="#DejaVuSans-48"/>
      </g>
     </g>
    </g>
    <g id="xtick_6">
     <g id="line2d_6">
      <g>
       <use style="stroke:#000000;stroke-width:0.8;" x="404.152502" xlink:href="#m877ab5bf90" y="193.52"/>
      </g>
     </g>
     <g id="text_6">
      <!-- 100 -->
      <defs>
       <path d="M 12.40625 8.296875 
L 28.515625 8.296875 
L 28.515625 63.921875 
L 10.984375 60.40625 
L 10.984375 69.390625 
L 28.421875 72.90625 
L 38.28125 72.90625 
L 38.28125 8.296875 
L 54.390625 8.296875 
L 54.390625 0 
L 12.40625 0 
z
" id="DejaVuSans-49"/>
      </defs>
      <g transform="translate(394.608752 208.118437)scale(0.1 -0.1)">
       <use xlink:href="#DejaVuSans-49"/>
       <use x="63.623047" xlink:href="#DejaVuSans-48"/>
       <use x="127.246094" xlink:href="#DejaVuSans-48"/>
      </g>
     </g>
    </g>
   </g>
   <g id="matplotlib.axis_2">
    <g id="ytick_1">
     <g id="line2d_7">
      <defs>
       <path d="M 0 0 
L -3.5 0 
" id="m16bc39abdd" style="stroke:#000000;stroke-width:0.8;"/>
      </defs>
      <g>
       <use style="stroke:#000000;stroke-width:0.8;" x="39.94" xlink:href="#m16bc39abdd" y="186.449455"/>
      </g>
     </g>
     <g id="text_7">
      <!-- 0.00 -->
      <defs>
       <path d="M 10.6875 12.40625 
L 21 12.40625 
L 21 0 
L 10.6875 0 
z
" id="DejaVuSans-46"/>
      </defs>
      <g transform="translate(10.674375 190.248673)scale(0.1 -0.1)">
       <use xlink:href="#DejaVuSans-48"/>
       <use x="63.623047" xlink:href="#DejaVuSans-46"/>
       <use x="95.410156" xlink:href="#DejaVuSans-48"/>
       <use x="159.033203" xlink:href="#DejaVuSans-48"/>
      </g>
     </g>
    </g>
    <g id="ytick_2">
     <g id="line2d_8">
      <g>
       <use style="stroke:#000000;stroke-width:0.8;" x="39.94" xlink:href="#m16bc39abdd" y="149.587908"/>
      </g>
     </g>
     <g id="text_8">
      <!-- 0.02 -->
      <g transform="translate(10.674375 153.387127)scale(0.1 -0.1)">
       <use xlink:href="#DejaVuSans-48"/>
       <use x="63.623047" xlink:href="#DejaVuSans-46"/>
       <use x="95.410156" xlink:href="#DejaVuSans-48"/>
       <use x="159.033203" xlink:href="#DejaVuSans-50"/>
      </g>
     </g>
    </g>
    <g id="ytick_3">
     <g id="line2d_9">
      <g>
       <use style="stroke:#000000;stroke-width:0.8;" x="39.94" xlink:href="#m16bc39abdd" y="112.726362"/>
      </g>
     </g>
     <g id="text_9">
      <!-- 0.04 -->
      <g transform="translate(10.674375 116.525581)scale(0.1 -0.1)">
       <use xlink:href="#DejaVuSans-48"/>
       <use x="63.623047" xlink:href="#DejaVuSans-46"/>
       <use x="95.410156" xlink:href="#DejaVuSans-48"/>
       <use x="159.033203" xlink:href="#DejaVuSans-52"/>
      </g>
     </g>
    </g>
    <g id="ytick_4">
     <g id="line2d_10">
      <g>
       <use style="stroke:#000000;stroke-width:0.8;" x="39.94" xlink:href="#m16bc39abdd" y="75.864816"/>
      </g>
     </g>
     <g id="text_10">
      <!-- 0.06 -->
      <g transform="translate(10.674375 79.664035)scale(0.1 -0.1)">
       <use xlink:href="#DejaVuSans-48"/>
       <use x="63.623047" xlink:href="#DejaVuSans-46"/>
       <use x="95.410156" xlink:href="#DejaVuSans-48"/>
       <use x="159.033203" xlink:href="#DejaVuSans-54"/>
      </g>
     </g>
    </g>
    <g id="ytick_5">
     <g id="line2d_11">
      <g>
       <use style="stroke:#000000;stroke-width:0.8;" x="39.94" xlink:href="#m16bc39abdd" y="39.00327"/>
      </g>
     </g>
     <g id="text_11">
      <!-- 0.08 -->
      <g transform="translate(10.674375 42.802488)scale(0.1 -0.1)">
       <use xlink:href="#DejaVuSans-48"/>
       <use x="63.623047" xlink:href="#DejaVuSans-46"/>
       <use x="95.410156" xlink:href="#DejaVuSans-48"/>
       <use x="159.033203" xlink:href="#DejaVuSans-56"/>
      </g>
     </g>
    </g>
   </g>
   <g id="line2d_12">
    <path clip-path="url(#p3ca9e33dfb)" d="M 57.118198 186.449455 
L 60.588541 186.449455 
L 64.058884 186.449455 
L 67.529227 153.784275 
L 70.99957 186.449455 
L 74.469913 186.449455 
L 77.940256 65.6202 
L 81.410599 122.198415 
L 84.880942 110.548345 
L 88.351285 186.449455 
L 91.821628 186.449455 
L 95.291972 186.449455 
L 98.762315 167.549572 
L 102.232658 50.819522 
L 105.703001 137.358482 
L 109.173344 129.752019 
L 112.643687 186.449455 
L 116.11403 83.471682 
L 119.584373 168.978839 
L 123.054716 55.94846 
L 126.525059 186.449455 
L 129.995402 93.961021 
L 133.465745 186.449455 
L 136.936088 186.449455 
L 140.406431 186.449455 
L 143.876774 183.473713 
L 147.347117 45.038545 
L 150.81746 186.449455 
L 154.287803 186.449455 
L 157.758146 122.098897 
L 161.228489 186.449455 
L 164.698832 172.323448 
L 168.169175 186.449455 
L 171.639518 186.449455 
L 175.109861 126.824233 
L 178.580204 186.449455 
L 182.050548 186.449455 
L 185.520891 186.449455 
L 188.991234 186.449455 
L 192.461577 186.449455 
L 195.93192 186.449455 
L 199.402263 186.449455 
L 202.872606 170.944974 
L 206.342949 186.449455 
L 209.813292 186.449455 
L 213.283635 186.449455 
L 216.753978 184.207366 
L 220.224321 186.449455 
L 223.694664 186.449455 
L 227.165007 169.903006 
L 230.63535 178.043063 
L 234.105693 186.449455 
L 237.576036 186.449455 
L 241.046379 186.449455 
L 244.516722 156.538393 
L 247.987065 63.572776 
L 251.457408 186.449455 
L 254.927751 186.449455 
L 258.398094 186.449455 
L 261.868437 186.449455 
L 265.33878 186.449455 
L 268.809124 186.449455 
L 272.279467 167.439118 
L 275.74981 186.449455 
L 279.220153 76.277422 
L 282.690496 186.449455 
L 286.160839 186.449455 
L 289.631182 186.449455 
L 293.101525 186.449455 
L 296.571868 186.449455 
L 300.042211 186.449455 
L 303.512554 186.449455 
L 306.982897 186.449455 
L 310.45324 186.449455 
L 313.923583 186.449455 
L 317.393926 186.449455 
L 320.864269 169.564088 
L 324.334612 186.449455 
L 327.804955 162.161412 
L 331.275298 186.449455 
L 334.745641 186.449455 
L 338.215984 185.297166 
L 341.686327 186.449455 
L 345.15667 58.208155 
L 348.627013 186.449455 
L 352.097357 157.116396 
L 355.5677 186.449455 
L 359.038043 177.169425 
L 362.508386 171.840158 
L 365.978729 186.449455 
L 369.449072 102.817782 
L 372.919415 173.233142 
L 376.389758 170.117901 
L 379.860101 186.449455 
L 383.330444 186.449455 
L 386.800787 186.449455 
L 390.27113 186.449455 
L 393.741473 184.901639 
L 397.211816 186.449455 
L 400.682159 186.449455 
" style="fill:none;stroke:#008000;stroke-linecap:square;stroke-width:1.5;"/>
   </g>
   <g id="patch_3">
    <path d="M 39.94 193.52 
L 39.94 37.968 
" style="fill:none;stroke:#000000;stroke-linecap:square;stroke-linejoin:miter;stroke-width:0.8;"/>
   </g>
   <g id="patch_4">
    <path d="M 417.860357 193.52 
L 417.860357 37.968 
" style="fill:none;stroke:#000000;stroke-linecap:square;stroke-linejoin:miter;stroke-width:0.8;"/>
   </g>
   <g id="patch_5">
    <path d="M 39.94 193.52 
L 417.860357 193.52 
" style="fill:none;stroke:#000000;stroke-linecap:square;stroke-linejoin:miter;stroke-width:0.8;"/>
   </g>
   <g id="patch_6">
    <path d="M 39.94 37.968 
L 417.860357 37.968 
" style="fill:none;stroke:#000000;stroke-linecap:square;stroke-linejoin:miter;stroke-width:0.8;"/>
   </g>
   <g id="text_12">
    <!-- Estimated input signal(Normalized) 1  -->
    <defs>
     <path d="M 9.8125 72.90625 
L 55.90625 72.90625 
L 55.90625 64.59375 
L 19.671875 64.59375 
L 19.671875 43.015625 
L 54.390625 43.015625 
L 54.390625 34.71875 
L 19.671875 34.71875 
L 19.671875 8.296875 
L 56.78125 8.296875 
L 56.78125 0 
L 9.8125 0 
z
" id="DejaVuSans-69"/>
     <path d="M 44.28125 53.078125 
L 44.28125 44.578125 
Q 40.484375 46.53125 36.375 47.5 
Q 32.28125 48.484375 27.875 48.484375 
Q 21.1875 48.484375 17.84375 46.4375 
Q 14.5 44.390625 14.5 40.28125 
Q 14.5 37.15625 16.890625 35.375 
Q 19.28125 33.59375 26.515625 31.984375 
L 29.59375 31.296875 
Q 39.15625 29.25 43.1875 25.515625 
Q 47.21875 21.78125 47.21875 15.09375 
Q 47.21875 7.46875 41.1875 3.015625 
Q 35.15625 -1.421875 24.609375 -1.421875 
Q 20.21875 -1.421875 15.453125 -0.5625 
Q 10.6875 0.296875 5.421875 2 
L 5.421875 11.28125 
Q 10.40625 8.6875 15.234375 7.390625 
Q 20.0625 6.109375 24.8125 6.109375 
Q 31.15625 6.109375 34.5625 8.28125 
Q 37.984375 10.453125 37.984375 14.40625 
Q 37.984375 18.0625 35.515625 20.015625 
Q 33.0625 21.96875 24.703125 23.78125 
L 21.578125 24.515625 
Q 13.234375 26.265625 9.515625 29.90625 
Q 5.8125 33.546875 5.8125 39.890625 
Q 5.8125 47.609375 11.28125 51.796875 
Q 16.75 56 26.8125 56 
Q 31.78125 56 36.171875 55.265625 
Q 40.578125 54.546875 44.28125 53.078125 
z
" id="DejaVuSans-115"/>
     <path d="M 18.3125 70.21875 
L 18.3125 54.6875 
L 36.8125 54.6875 
L 36.8125 47.703125 
L 18.3125 47.703125 
L 18.3125 18.015625 
Q 18.3125 11.328125 20.140625 9.421875 
Q 21.96875 7.515625 27.59375 7.515625 
L 36.8125 7.515625 
L 36.8125 0 
L 27.59375 0 
Q 17.1875 0 13.234375 3.875 
Q 9.28125 7.765625 9.28125 18.015625 
L 9.28125 47.703125 
L 2.6875 47.703125 
L 2.6875 54.6875 
L 9.28125 54.6875 
L 9.28125 70.21875 
z
" id="DejaVuSans-116"/>
     <path d="M 9.421875 54.6875 
L 18.40625 54.6875 
L 18.40625 0 
L 9.421875 0 
z
M 9.421875 75.984375 
L 18.40625 75.984375 
L 18.40625 64.59375 
L 9.421875 64.59375 
z
" id="DejaVuSans-105"/>
     <path d="M 52 44.1875 
Q 55.375 50.25 60.0625 53.125 
Q 64.75 56 71.09375 56 
Q 79.640625 56 84.28125 50.015625 
Q 88.921875 44.046875 88.921875 33.015625 
L 88.921875 0 
L 79.890625 0 
L 79.890625 32.71875 
Q 79.890625 40.578125 77.09375 44.375 
Q 74.3125 48.1875 68.609375 48.1875 
Q 61.625 48.1875 57.5625 43.546875 
Q 53.515625 38.921875 53.515625 30.90625 
L 53.515625 0 
L 44.484375 0 
L 44.484375 32.71875 
Q 44.484375 40.625 41.703125 44.40625 
Q 38.921875 48.1875 33.109375 48.1875 
Q 26.21875 48.1875 22.15625 43.53125 
Q 18.109375 38.875 18.109375 30.90625 
L 18.109375 0 
L 9.078125 0 
L 9.078125 54.6875 
L 18.109375 54.6875 
L 18.109375 46.1875 
Q 21.1875 51.21875 25.484375 53.609375 
Q 29.78125 56 35.6875 56 
Q 41.65625 56 45.828125 52.96875 
Q 50 49.953125 52 44.1875 
z
" id="DejaVuSans-109"/>
     <path d="M 34.28125 27.484375 
Q 23.390625 27.484375 19.1875 25 
Q 14.984375 22.515625 14.984375 16.5 
Q 14.984375 11.71875 18.140625 8.90625 
Q 21.296875 6.109375 26.703125 6.109375 
Q 34.1875 6.109375 38.703125 11.40625 
Q 43.21875 16.703125 43.21875 25.484375 
L 43.21875 27.484375 
z
M 52.203125 31.203125 
L 52.203125 0 
L 43.21875 0 
L 43.21875 8.296875 
Q 40.140625 3.328125 35.546875 0.953125 
Q 30.953125 -1.421875 24.3125 -1.421875 
Q 15.921875 -1.421875 10.953125 3.296875 
Q 6 8.015625 6 15.921875 
Q 6 25.140625 12.171875 29.828125 
Q 18.359375 34.515625 30.609375 34.515625 
L 43.21875 34.515625 
L 43.21875 35.40625 
Q 43.21875 41.609375 39.140625 45 
Q 35.0625 48.390625 27.6875 48.390625 
Q 23 48.390625 18.546875 47.265625 
Q 14.109375 46.140625 10.015625 43.890625 
L 10.015625 52.203125 
Q 14.9375 54.109375 19.578125 55.046875 
Q 24.21875 56 28.609375 56 
Q 40.484375 56 46.34375 49.84375 
Q 52.203125 43.703125 52.203125 31.203125 
z
" id="DejaVuSans-97"/>
     <path d="M 56.203125 29.59375 
L 56.203125 25.203125 
L 14.890625 25.203125 
Q 15.484375 15.921875 20.484375 11.0625 
Q 25.484375 6.203125 34.421875 6.203125 
Q 39.59375 6.203125 44.453125 7.46875 
Q 49.3125 8.734375 54.109375 11.28125 
L 54.109375 2.78125 
Q 49.265625 0.734375 44.1875 -0.34375 
Q 39.109375 -1.421875 33.890625 -1.421875 
Q 20.796875 -1.421875 13.15625 6.1875 
Q 5.515625 13.8125 5.515625 26.8125 
Q 5.515625 40.234375 12.765625 48.109375 
Q 20.015625 56 32.328125 56 
Q 43.359375 56 49.78125 48.890625 
Q 56.203125 41.796875 56.203125 29.59375 
z
M 47.21875 32.234375 
Q 47.125 39.59375 43.09375 43.984375 
Q 39.0625 48.390625 32.421875 48.390625 
Q 24.90625 48.390625 20.390625 44.140625 
Q 15.875 39.890625 15.1875 32.171875 
z
" id="DejaVuSans-101"/>
     <path d="M 45.40625 46.390625 
L 45.40625 75.984375 
L 54.390625 75.984375 
L 54.390625 0 
L 45.40625 0 
L 45.40625 8.203125 
Q 42.578125 3.328125 38.25 0.953125 
Q 33.9375 -1.421875 27.875 -1.421875 
Q 17.96875 -1.421875 11.734375 6.484375 
Q 5.515625 14.40625 5.515625 27.296875 
Q 5.515625 40.1875 11.734375 48.09375 
Q 17.96875 56 27.875 56 
Q 33.9375 56 38.25 53.625 
Q 42.578125 51.265625 45.40625 46.390625 
z
M 14.796875 27.296875 
Q 14.796875 17.390625 18.875 11.75 
Q 22.953125 6.109375 30.078125 6.109375 
Q 37.203125 6.109375 41.296875 11.75 
Q 45.40625 17.390625 45.40625 27.296875 
Q 45.40625 37.203125 41.296875 42.84375 
Q 37.203125 48.484375 30.078125 48.484375 
Q 22.953125 48.484375 18.875 42.84375 
Q 14.796875 37.203125 14.796875 27.296875 
z
" id="DejaVuSans-100"/>
     <path id="DejaVuSans-32"/>
     <path d="M 54.890625 33.015625 
L 54.890625 0 
L 45.90625 0 
L 45.90625 32.71875 
Q 45.90625 40.484375 42.875 44.328125 
Q 39.84375 48.1875 33.796875 48.1875 
Q 26.515625 48.1875 22.3125 43.546875 
Q 18.109375 38.921875 18.109375 30.90625 
L 18.109375 0 
L 9.078125 0 
L 9.078125 54.6875 
L 18.109375 54.6875 
L 18.109375 46.1875 
Q 21.34375 51.125 25.703125 53.5625 
Q 30.078125 56 35.796875 56 
Q 45.21875 56 50.046875 50.171875 
Q 54.890625 44.34375 54.890625 33.015625 
z
" id="DejaVuSans-110"/>
     <path d="M 18.109375 8.203125 
L 18.109375 -20.796875 
L 9.078125 -20.796875 
L 9.078125 54.6875 
L 18.109375 54.6875 
L 18.109375 46.390625 
Q 20.953125 51.265625 25.265625 53.625 
Q 29.59375 56 35.59375 56 
Q 45.5625 56 51.78125 48.09375 
Q 58.015625 40.1875 58.015625 27.296875 
Q 58.015625 14.40625 51.78125 6.484375 
Q 45.5625 -1.421875 35.59375 -1.421875 
Q 29.59375 -1.421875 25.265625 0.953125 
Q 20.953125 3.328125 18.109375 8.203125 
z
M 48.6875 27.296875 
Q 48.6875 37.203125 44.609375 42.84375 
Q 40.53125 48.484375 33.40625 48.484375 
Q 26.265625 48.484375 22.1875 42.84375 
Q 18.109375 37.203125 18.109375 27.296875 
Q 18.109375 17.390625 22.1875 11.75 
Q 26.265625 6.109375 33.40625 6.109375 
Q 40.53125 6.109375 44.609375 11.75 
Q 48.6875 17.390625 48.6875 27.296875 
z
" id="DejaVuSans-112"/>
     <path d="M 8.5 21.578125 
L 8.5 54.6875 
L 17.484375 54.6875 
L 17.484375 21.921875 
Q 17.484375 14.15625 20.5 10.265625 
Q 23.53125 6.390625 29.59375 6.390625 
Q 36.859375 6.390625 41.078125 11.03125 
Q 45.3125 15.671875 45.3125 23.6875 
L 45.3125 54.6875 
L 54.296875 54.6875 
L 54.296875 0 
L 45.3125 0 
L 45.3125 8.40625 
Q 42.046875 3.421875 37.71875 1 
Q 33.40625 -1.421875 27.6875 -1.421875 
Q 18.265625 -1.421875 13.375 4.4375 
Q 8.5 10.296875 8.5 21.578125 
z
M 31.109375 56 
z
" id="DejaVuSans-117"/>
     <path d="M 45.40625 27.984375 
Q 45.40625 37.75 41.375 43.109375 
Q 37.359375 48.484375 30.078125 48.484375 
Q 22.859375 48.484375 18.828125 43.109375 
Q 14.796875 37.75 14.796875 27.984375 
Q 14.796875 18.265625 18.828125 12.890625 
Q 22.859375 7.515625 30.078125 7.515625 
Q 37.359375 7.515625 41.375 12.890625 
Q 45.40625 18.265625 45.40625 27.984375 
z
M 54.390625 6.78125 
Q 54.390625 -7.171875 48.1875 -13.984375 
Q 42 -20.796875 29.203125 -20.796875 
Q 24.46875 -20.796875 20.265625 -20.09375 
Q 16.0625 -19.390625 12.109375 -17.921875 
L 12.109375 -9.1875 
Q 16.0625 -11.328125 19.921875 -12.34375 
Q 23.78125 -13.375 27.78125 -13.375 
Q 36.625 -13.375 41.015625 -8.765625 
Q 45.40625 -4.15625 45.40625 5.171875 
L 45.40625 9.625 
Q 42.625 4.78125 38.28125 2.390625 
Q 33.9375 0 27.875 0 
Q 17.828125 0 11.671875 7.65625 
Q 5.515625 15.328125 5.515625 27.984375 
Q 5.515625 40.671875 11.671875 48.328125 
Q 17.828125 56 27.875 56 
Q 33.9375 56 38.28125 53.609375 
Q 42.625 51.21875 45.40625 46.390625 
L 45.40625 54.6875 
L 54.390625 54.6875 
z
" id="DejaVuSans-103"/>
     <path d="M 9.421875 75.984375 
L 18.40625 75.984375 
L 18.40625 0 
L 9.421875 0 
z
" id="DejaVuSans-108"/>
     <path d="M 31 75.875 
Q 24.46875 64.65625 21.28125 53.65625 
Q 18.109375 42.671875 18.109375 31.390625 
Q 18.109375 20.125 21.3125 9.0625 
Q 24.515625 -2 31 -13.1875 
L 23.1875 -13.1875 
Q 15.875 -1.703125 12.234375 9.375 
Q 8.59375 20.453125 8.59375 31.390625 
Q 8.59375 42.28125 12.203125 53.3125 
Q 15.828125 64.359375 23.1875 75.875 
z
" id="DejaVuSans-40"/>
     <path d="M 9.8125 72.90625 
L 23.09375 72.90625 
L 55.421875 11.921875 
L 55.421875 72.90625 
L 64.984375 72.90625 
L 64.984375 0 
L 51.703125 0 
L 19.390625 60.984375 
L 19.390625 0 
L 9.8125 0 
z
" id="DejaVuSans-78"/>
     <path d="M 30.609375 48.390625 
Q 23.390625 48.390625 19.1875 42.75 
Q 14.984375 37.109375 14.984375 27.296875 
Q 14.984375 17.484375 19.15625 11.84375 
Q 23.34375 6.203125 30.609375 6.203125 
Q 37.796875 6.203125 41.984375 11.859375 
Q 46.1875 17.53125 46.1875 27.296875 
Q 46.1875 37.015625 41.984375 42.703125 
Q 37.796875 48.390625 30.609375 48.390625 
z
M 30.609375 56 
Q 42.328125 56 49.015625 48.375 
Q 55.71875 40.765625 55.71875 27.296875 
Q 55.71875 13.875 49.015625 6.21875 
Q 42.328125 -1.421875 30.609375 -1.421875 
Q 18.84375 -1.421875 12.171875 6.21875 
Q 5.515625 13.875 5.515625 27.296875 
Q 5.515625 40.765625 12.171875 48.375 
Q 18.84375 56 30.609375 56 
z
" id="DejaVuSans-111"/>
     <path d="M 41.109375 46.296875 
Q 39.59375 47.171875 37.8125 47.578125 
Q 36.03125 48 33.890625 48 
Q 26.265625 48 22.1875 43.046875 
Q 18.109375 38.09375 18.109375 28.8125 
L 18.109375 0 
L 9.078125 0 
L 9.078125 54.6875 
L 18.109375 54.6875 
L 18.109375 46.1875 
Q 20.953125 51.171875 25.484375 53.578125 
Q 30.03125 56 36.53125 56 
Q 37.453125 56 38.578125 55.875 
Q 39.703125 55.765625 41.0625 55.515625 
z
" id="DejaVuSans-114"/>
     <path d="M 5.515625 54.6875 
L 48.1875 54.6875 
L 48.1875 46.484375 
L 14.40625 7.171875 
L 48.1875 7.171875 
L 48.1875 0 
L 4.296875 0 
L 4.296875 8.203125 
L 38.09375 47.515625 
L 5.515625 47.515625 
z
" id="DejaVuSans-122"/>
     <path d="M 8.015625 75.875 
L 15.828125 75.875 
Q 23.140625 64.359375 26.78125 53.3125 
Q 30.421875 42.28125 30.421875 31.390625 
Q 30.421875 20.453125 26.78125 9.375 
Q 23.140625 -1.703125 15.828125 -13.1875 
L 8.015625 -13.1875 
Q 14.5 -2 17.703125 9.0625 
Q 20.90625 20.125 20.90625 31.390625 
Q 20.90625 42.671875 17.703125 53.65625 
Q 14.5 64.65625 8.015625 75.875 
z
" id="DejaVuSans-41"/>
    </defs>
    <g transform="translate(115.151429 18.530625)scale(0.12 -0.12)">
     <use xlink:href="#DejaVuSans-69"/>
     <use x="63.183594" xlink:href="#DejaVuSans-115"/>
     <use x="115.283203" xlink:href="#DejaVuSans-116"/>
     <use x="154.492188" xlink:href="#DejaVuSans-105"/>
     <use x="182.275391" xlink:href="#DejaVuSans-109"/>
     <use x="279.6875" xlink:href="#DejaVuSans-97"/>
     <use x="340.966797" xlink:href="#DejaVuSans-116"/>
     <use x="380.175781" xlink:href="#DejaVuSans-101"/>
     <use x="441.699219" xlink:href="#DejaVuSans-100"/>
     <use x="505.175781" xlink:href="#DejaVuSans-32"/>
     <use x="536.962891" xlink:href="#DejaVuSans-105"/>
     <use x="564.746094" xlink:href="#DejaVuSans-110"/>
     <use x="628.125" xlink:href="#DejaVuSans-112"/>
     <use x="691.601562" xlink:href="#DejaVuSans-117"/>
     <use x="754.980469" xlink:href="#DejaVuSans-116"/>
     <use x="794.189453" xlink:href="#DejaVuSans-32"/>
     <use x="825.976562" xlink:href="#DejaVuSans-115"/>
     <use x="878.076172" xlink:href="#DejaVuSans-105"/>
     <use x="905.859375" xlink:href="#DejaVuSans-103"/>
     <use x="969.335938" xlink:href="#DejaVuSans-110"/>
     <use x="1032.714844" xlink:href="#DejaVuSans-97"/>
     <use x="1093.994141" xlink:href="#DejaVuSans-108"/>
     <use x="1121.777344" xlink:href="#DejaVuSans-40"/>
     <use x="1160.791016" xlink:href="#DejaVuSans-78"/>
     <use x="1235.595703" xlink:href="#DejaVuSans-111"/>
     <use x="1296.777344" xlink:href="#DejaVuSans-114"/>
     <use x="1337.875" xlink:href="#DejaVuSans-109"/>
     <use x="1435.287109" xlink:href="#DejaVuSans-97"/>
     <use x="1496.566406" xlink:href="#DejaVuSans-108"/>
     <use x="1524.349609" xlink:href="#DejaVuSans-105"/>
     <use x="1552.132812" xlink:href="#DejaVuSans-122"/>
     <use x="1604.623047" xlink:href="#DejaVuSans-101"/>
     <use x="1666.146484" xlink:href="#DejaVuSans-100"/>
     <use x="1729.623047" xlink:href="#DejaVuSans-41"/>
     <use x="1768.636719" xlink:href="#DejaVuSans-32"/>
     <use x="1800.423828" xlink:href="#DejaVuSans-49"/>
     <use x="1864.046875" xlink:href="#DejaVuSans-32"/>
    </g>
    <!--  Error rate: 0.206996188722993 -->
    <defs>
     <path d="M 11.71875 12.40625 
L 22.015625 12.40625 
L 22.015625 0 
L 11.71875 0 
z
M 11.71875 51.703125 
L 22.015625 51.703125 
L 22.015625 39.3125 
L 11.71875 39.3125 
z
" id="DejaVuSans-58"/>
     <path d="M 10.984375 1.515625 
L 10.984375 10.5 
Q 14.703125 8.734375 18.5 7.8125 
Q 22.3125 6.890625 25.984375 6.890625 
Q 35.75 6.890625 40.890625 13.453125 
Q 46.046875 20.015625 46.78125 33.40625 
Q 43.953125 29.203125 39.59375 26.953125 
Q 35.25 24.703125 29.984375 24.703125 
Q 19.046875 24.703125 12.671875 31.3125 
Q 6.296875 37.9375 6.296875 49.421875 
Q 6.296875 60.640625 12.9375 67.421875 
Q 19.578125 74.21875 30.609375 74.21875 
Q 43.265625 74.21875 49.921875 64.515625 
Q 56.59375 54.828125 56.59375 36.375 
Q 56.59375 19.140625 48.40625 8.859375 
Q 40.234375 -1.421875 26.421875 -1.421875 
Q 22.703125 -1.421875 18.890625 -0.6875 
Q 15.09375 0.046875 10.984375 1.515625 
z
M 30.609375 32.421875 
Q 37.25 32.421875 41.125 36.953125 
Q 45.015625 41.5 45.015625 49.421875 
Q 45.015625 57.28125 41.125 61.84375 
Q 37.25 66.40625 30.609375 66.40625 
Q 23.96875 66.40625 20.09375 61.84375 
Q 16.21875 57.28125 16.21875 49.421875 
Q 16.21875 41.5 20.09375 36.953125 
Q 23.96875 32.421875 30.609375 32.421875 
z
" id="DejaVuSans-57"/>
     <path d="M 8.203125 72.90625 
L 55.078125 72.90625 
L 55.078125 68.703125 
L 28.609375 0 
L 18.3125 0 
L 43.21875 64.59375 
L 8.203125 64.59375 
z
" id="DejaVuSans-55"/>
     <path d="M 40.578125 39.3125 
Q 47.65625 37.796875 51.625 33 
Q 55.609375 28.21875 55.609375 21.1875 
Q 55.609375 10.40625 48.1875 4.484375 
Q 40.765625 -1.421875 27.09375 -1.421875 
Q 22.515625 -1.421875 17.65625 -0.515625 
Q 12.796875 0.390625 7.625 2.203125 
L 7.625 11.71875 
Q 11.71875 9.328125 16.59375 8.109375 
Q 21.484375 6.890625 26.8125 6.890625 
Q 36.078125 6.890625 40.9375 10.546875 
Q 45.796875 14.203125 45.796875 21.1875 
Q 45.796875 27.640625 41.28125 31.265625 
Q 36.765625 34.90625 28.71875 34.90625 
L 20.21875 34.90625 
L 20.21875 43.015625 
L 29.109375 43.015625 
Q 36.375 43.015625 40.234375 45.921875 
Q 44.09375 48.828125 44.09375 54.296875 
Q 44.09375 59.90625 40.109375 62.90625 
Q 36.140625 65.921875 28.71875 65.921875 
Q 24.65625 65.921875 20.015625 65.03125 
Q 15.375 64.15625 9.8125 62.3125 
L 9.8125 71.09375 
Q 15.4375 72.65625 20.34375 73.4375 
Q 25.25 74.21875 29.59375 74.21875 
Q 40.828125 74.21875 47.359375 69.109375 
Q 53.90625 64.015625 53.90625 55.328125 
Q 53.90625 49.265625 50.4375 45.09375 
Q 46.96875 40.921875 40.578125 39.3125 
z
" id="DejaVuSans-51"/>
    </defs>
    <g transform="translate(131.124554 31.968)scale(0.12 -0.12)">
     <use xlink:href="#DejaVuSans-32"/>
     <use x="31.787109" xlink:href="#DejaVuSans-69"/>
     <use x="94.970703" xlink:href="#DejaVuSans-114"/>
     <use x="136.068359" xlink:href="#DejaVuSans-114"/>
     <use x="177.150391" xlink:href="#DejaVuSans-111"/>
     <use x="238.332031" xlink:href="#DejaVuSans-114"/>
     <use x="279.445312" xlink:href="#DejaVuSans-32"/>
     <use x="311.232422" xlink:href="#DejaVuSans-114"/>
     <use x="352.345703" xlink:href="#DejaVuSans-97"/>
     <use x="413.625" xlink:href="#DejaVuSans-116"/>
     <use x="452.833984" xlink:href="#DejaVuSans-101"/>
     <use x="514.357422" xlink:href="#DejaVuSans-58"/>
     <use x="548.048828" xlink:href="#DejaVuSans-32"/>
     <use x="579.835938" xlink:href="#DejaVuSans-48"/>
     <use x="643.458984" xlink:href="#DejaVuSans-46"/>
     <use x="675.246094" xlink:href="#DejaVuSans-50"/>
     <use x="738.869141" xlink:href="#DejaVuSans-48"/>
     <use x="802.492188" xlink:href="#DejaVuSans-54"/>
     <use x="866.115234" xlink:href="#DejaVuSans-57"/>
     <use x="929.738281" xlink:href="#DejaVuSans-57"/>
     <use x="993.361328" xlink:href="#DejaVuSans-54"/>
     <use x="1056.984375" xlink:href="#DejaVuSans-49"/>
     <use x="1120.607422" xlink:href="#DejaVuSans-56"/>
     <use x="1184.230469" xlink:href="#DejaVuSans-56"/>
     <use x="1247.853516" xlink:href="#DejaVuSans-55"/>
     <use x="1311.476562" xlink:href="#DejaVuSans-50"/>
     <use x="1375.099609" xlink:href="#DejaVuSans-50"/>
     <use x="1438.722656" xlink:href="#DejaVuSans-57"/>
     <use x="1502.345703" xlink:href="#DejaVuSans-57"/>
     <use x="1565.96875" xlink:href="#DejaVuSans-51"/>
    </g>
   </g>
  </g>
  <g id="axes_2">
   <g id="patch_7">
    <path d="M 466.5625 193.52 
L 844.482857 193.52 
L 844.482857 37.968 
L 466.5625 37.968 
z
" style="fill:#ffffff;"/>
   </g>
   <g id="matplotlib.axis_3">
    <g id="xtick_7">
     <g id="line2d_13">
      <g>
       <use style="stroke:#000000;stroke-width:0.8;" x="483.740698" xlink:href="#m877ab5bf90" y="193.52"/>
      </g>
     </g>
     <g id="text_13">
      <!-- 0 -->
      <g transform="translate(480.559448 208.118437)scale(0.1 -0.1)">
       <use xlink:href="#DejaVuSans-48"/>
      </g>
     </g>
    </g>
    <g id="xtick_8">
     <g id="line2d_14">
      <g>
       <use style="stroke:#000000;stroke-width:0.8;" x="553.147559" xlink:href="#m877ab5bf90" y="193.52"/>
      </g>
     </g>
     <g id="text_14">
      <!-- 20 -->
      <g transform="translate(546.785059 208.118437)scale(0.1 -0.1)">
       <use xlink:href="#DejaVuSans-50"/>
       <use x="63.623047" xlink:href="#DejaVuSans-48"/>
      </g>
     </g>
    </g>
    <g id="xtick_9">
     <g id="line2d_15">
      <g>
       <use style="stroke:#000000;stroke-width:0.8;" x="622.55442" xlink:href="#m877ab5bf90" y="193.52"/>
      </g>
     </g>
     <g id="text_15">
      <!-- 40 -->
      <g transform="translate(616.19192 208.118437)scale(0.1 -0.1)">
       <use xlink:href="#DejaVuSans-52"/>
       <use x="63.623047" xlink:href="#DejaVuSans-48"/>
      </g>
     </g>
    </g>
    <g id="xtick_10">
     <g id="line2d_16">
      <g>
       <use style="stroke:#000000;stroke-width:0.8;" x="691.96128" xlink:href="#m877ab5bf90" y="193.52"/>
      </g>
     </g>
     <g id="text_16">
      <!-- 60 -->
      <g transform="translate(685.59878 208.118437)scale(0.1 -0.1)">
       <use xlink:href="#DejaVuSans-54"/>
       <use x="63.623047" xlink:href="#DejaVuSans-48"/>
      </g>
     </g>
    </g>
    <g id="xtick_11">
     <g id="line2d_17">
      <g>
       <use style="stroke:#000000;stroke-width:0.8;" x="761.368141" xlink:href="#m877ab5bf90" y="193.52"/>
      </g>
     </g>
     <g id="text_17">
      <!-- 80 -->
      <g transform="translate(755.005641 208.118437)scale(0.1 -0.1)">
       <use xlink:href="#DejaVuSans-56"/>
       <use x="63.623047" xlink:href="#DejaVuSans-48"/>
      </g>
     </g>
    </g>
    <g id="xtick_12">
     <g id="line2d_18">
      <g>
       <use style="stroke:#000000;stroke-width:0.8;" x="830.775002" xlink:href="#m877ab5bf90" y="193.52"/>
      </g>
     </g>
     <g id="text_18">
      <!-- 100 -->
      <g transform="translate(821.231252 208.118437)scale(0.1 -0.1)">
       <use xlink:href="#DejaVuSans-49"/>
       <use x="63.623047" xlink:href="#DejaVuSans-48"/>
       <use x="127.246094" xlink:href="#DejaVuSans-48"/>
      </g>
     </g>
    </g>
   </g>
   <g id="matplotlib.axis_4">
    <g id="ytick_6">
     <g id="line2d_19">
      <g>
       <use style="stroke:#000000;stroke-width:0.8;" x="466.5625" xlink:href="#m16bc39abdd" y="186.449455"/>
      </g>
     </g>
     <g id="text_19">
      <!-- 0.00 -->
      <g transform="translate(437.296875 190.248673)scale(0.1 -0.1)">
       <use xlink:href="#DejaVuSans-48"/>
       <use x="63.623047" xlink:href="#DejaVuSans-46"/>
       <use x="95.410156" xlink:href="#DejaVuSans-48"/>
       <use x="159.033203" xlink:href="#DejaVuSans-48"/>
      </g>
     </g>
    </g>
    <g id="ytick_7">
     <g id="line2d_20">
      <g>
       <use style="stroke:#000000;stroke-width:0.8;" x="466.5625" xlink:href="#m16bc39abdd" y="152.628604"/>
      </g>
     </g>
     <g id="text_20">
      <!-- 0.02 -->
      <g transform="translate(437.296875 156.427822)scale(0.1 -0.1)">
       <use xlink:href="#DejaVuSans-48"/>
       <use x="63.623047" xlink:href="#DejaVuSans-46"/>
       <use x="95.410156" xlink:href="#DejaVuSans-48"/>
       <use x="159.033203" xlink:href="#DejaVuSans-50"/>
      </g>
     </g>
    </g>
    <g id="ytick_8">
     <g id="line2d_21">
      <g>
       <use style="stroke:#000000;stroke-width:0.8;" x="466.5625" xlink:href="#m16bc39abdd" y="118.807753"/>
      </g>
     </g>
     <g id="text_21">
      <!-- 0.04 -->
      <g transform="translate(437.296875 122.606971)scale(0.1 -0.1)">
       <use xlink:href="#DejaVuSans-48"/>
       <use x="63.623047" xlink:href="#DejaVuSans-46"/>
       <use x="95.410156" xlink:href="#DejaVuSans-48"/>
       <use x="159.033203" xlink:href="#DejaVuSans-52"/>
      </g>
     </g>
    </g>
    <g id="ytick_9">
     <g id="line2d_22">
      <g>
       <use style="stroke:#000000;stroke-width:0.8;" x="466.5625" xlink:href="#m16bc39abdd" y="84.986902"/>
      </g>
     </g>
     <g id="text_22">
      <!-- 0.06 -->
      <g transform="translate(437.296875 88.78612)scale(0.1 -0.1)">
       <use xlink:href="#DejaVuSans-48"/>
       <use x="63.623047" xlink:href="#DejaVuSans-46"/>
       <use x="95.410156" xlink:href="#DejaVuSans-48"/>
       <use x="159.033203" xlink:href="#DejaVuSans-54"/>
      </g>
     </g>
    </g>
    <g id="ytick_10">
     <g id="line2d_23">
      <g>
       <use style="stroke:#000000;stroke-width:0.8;" x="466.5625" xlink:href="#m16bc39abdd" y="51.166051"/>
      </g>
     </g>
     <g id="text_23">
      <!-- 0.08 -->
      <g transform="translate(437.296875 54.965269)scale(0.1 -0.1)">
       <use xlink:href="#DejaVuSans-48"/>
       <use x="63.623047" xlink:href="#DejaVuSans-46"/>
       <use x="95.410156" xlink:href="#DejaVuSans-48"/>
       <use x="159.033203" xlink:href="#DejaVuSans-56"/>
      </g>
     </g>
    </g>
   </g>
   <g id="line2d_24">
    <path clip-path="url(#pf30a3eedaa)" d="M 483.740698 186.449455 
L 487.211041 186.449455 
L 490.681384 186.449455 
L 494.151727 185.937697 
L 497.62207 186.449455 
L 501.092413 45.038545 
L 504.562756 186.449455 
L 508.033099 186.449455 
L 511.503442 186.449455 
L 514.973785 186.449455 
L 518.444128 186.449455 
L 521.914472 186.449455 
L 525.384815 186.153355 
L 528.855158 186.449455 
L 532.325501 186.449455 
L 535.795844 186.449455 
L 539.266187 107.163897 
L 542.73653 186.449455 
L 546.206873 186.175747 
L 549.677216 186.449455 
L 553.147559 186.449455 
L 556.617902 186.449455 
L 560.088245 186.449455 
L 563.558588 186.449455 
L 567.028931 115.450609 
L 570.499274 186.402834 
L 573.969617 186.449455 
L 577.43996 86.153476 
L 580.910303 123.406923 
L 584.380646 186.449455 
L 587.850989 186.449455 
L 591.321332 186.228146 
L 594.791675 186.449455 
L 598.262018 141.174224 
L 601.732361 186.449455 
L 605.202704 186.449455 
L 608.673048 186.449455 
L 612.143391 111.103081 
L 615.613734 186.449455 
L 619.084077 186.449455 
L 622.55442 186.449455 
L 626.024763 186.449455 
L 629.495106 186.449455 
L 632.965449 154.459759 
L 636.435792 186.449455 
L 639.906135 186.449455 
L 643.376478 186.414328 
L 646.846821 186.449455 
L 650.317164 186.449455 
L 653.787507 186.190225 
L 657.25785 186.317754 
L 660.728193 76.35339 
L 664.198536 159.961825 
L 667.668879 186.449455 
L 671.139222 185.980845 
L 674.609565 186.449455 
L 678.079908 186.449455 
L 681.550251 128.294279 
L 685.020594 50.516447 
L 688.490937 186.449455 
L 691.96128 186.449455 
L 695.431624 186.449455 
L 698.901967 186.151624 
L 702.37231 186.449455 
L 705.842653 186.449455 
L 709.312996 86.612879 
L 712.783339 186.449455 
L 716.253682 186.449455 
L 719.724025 172.14259 
L 723.194368 186.449455 
L 726.664711 186.449455 
L 730.135054 186.449455 
L 733.605397 186.449455 
L 737.07574 186.449455 
L 740.546083 186.449455 
L 744.016426 186.449455 
L 747.486769 186.184916 
L 750.957112 133.95642 
L 754.427455 186.06894 
L 757.897798 86.709123 
L 761.368141 186.449455 
L 764.838484 186.431402 
L 768.308827 186.449455 
L 771.77917 186.449455 
L 775.249513 186.449455 
L 778.719857 186.449455 
L 782.1902 186.449455 
L 785.660543 186.304067 
L 789.130886 186.220574 
L 792.601229 157.702904 
L 796.071572 186.449455 
L 799.541915 186.242398 
L 803.012258 186.193592 
L 806.482601 51.924966 
L 809.952944 50.044323 
L 813.423287 90.74219 
L 816.89363 186.449455 
L 820.363973 186.449455 
L 823.834316 154.930523 
L 827.304659 131.045357 
" style="fill:none;stroke:#008000;stroke-linecap:square;stroke-width:1.5;"/>
   </g>
   <g id="patch_8">
    <path d="M 466.5625 193.52 
L 466.5625 37.968 
" style="fill:none;stroke:#000000;stroke-linecap:square;stroke-linejoin:miter;stroke-width:0.8;"/>
   </g>
   <g id="patch_9">
    <path d="M 844.482857 193.52 
L 844.482857 37.968 
" style="fill:none;stroke:#000000;stroke-linecap:square;stroke-linejoin:miter;stroke-width:0.8;"/>
   </g>
   <g id="patch_10">
    <path d="M 466.5625 193.52 
L 844.482857 193.52 
" style="fill:none;stroke:#000000;stroke-linecap:square;stroke-linejoin:miter;stroke-width:0.8;"/>
   </g>
   <g id="patch_11">
    <path d="M 466.5625 37.968 
L 844.482857 37.968 
" style="fill:none;stroke:#000000;stroke-linecap:square;stroke-linejoin:miter;stroke-width:0.8;"/>
   </g>
   <g id="text_24">
    <!-- Estimated input signal(Normalized) 2  -->
    <g transform="translate(541.773929 18.530625)scale(0.12 -0.12)">
     <use xlink:href="#DejaVuSans-69"/>
     <use x="63.183594" xlink:href="#DejaVuSans-115"/>
     <use x="115.283203" xlink:href="#DejaVuSans-116"/>
     <use x="154.492188" xlink:href="#DejaVuSans-105"/>
     <use x="182.275391" xlink:href="#DejaVuSans-109"/>
     <use x="279.6875" xlink:href="#DejaVuSans-97"/>
     <use x="340.966797" xlink:href="#DejaVuSans-116"/>
     <use x="380.175781" xlink:href="#DejaVuSans-101"/>
     <use x="441.699219" xlink:href="#DejaVuSans-100"/>
     <use x="505.175781" xlink:href="#DejaVuSans-32"/>
     <use x="536.962891" xlink:href="#DejaVuSans-105"/>
     <use x="564.746094" xlink:href="#DejaVuSans-110"/>
     <use x="628.125" xlink:href="#DejaVuSans-112"/>
     <use x="691.601562" xlink:href="#DejaVuSans-117"/>
     <use x="754.980469" xlink:href="#DejaVuSans-116"/>
     <use x="794.189453" xlink:href="#DejaVuSans-32"/>
     <use x="825.976562" xlink:href="#DejaVuSans-115"/>
     <use x="878.076172" xlink:href="#DejaVuSans-105"/>
     <use x="905.859375" xlink:href="#DejaVuSans-103"/>
     <use x="969.335938" xlink:href="#DejaVuSans-110"/>
     <use x="1032.714844" xlink:href="#DejaVuSans-97"/>
     <use x="1093.994141" xlink:href="#DejaVuSans-108"/>
     <use x="1121.777344" xlink:href="#DejaVuSans-40"/>
     <use x="1160.791016" xlink:href="#DejaVuSans-78"/>
     <use x="1235.595703" xlink:href="#DejaVuSans-111"/>
     <use x="1296.777344" xlink:href="#DejaVuSans-114"/>
     <use x="1337.875" xlink:href="#DejaVuSans-109"/>
     <use x="1435.287109" xlink:href="#DejaVuSans-97"/>
     <use x="1496.566406" xlink:href="#DejaVuSans-108"/>
     <use x="1524.349609" xlink:href="#DejaVuSans-105"/>
     <use x="1552.132812" xlink:href="#DejaVuSans-122"/>
     <use x="1604.623047" xlink:href="#DejaVuSans-101"/>
     <use x="1666.146484" xlink:href="#DejaVuSans-100"/>
     <use x="1729.623047" xlink:href="#DejaVuSans-41"/>
     <use x="1768.636719" xlink:href="#DejaVuSans-32"/>
     <use x="1800.423828" xlink:href="#DejaVuSans-50"/>
     <use x="1864.046875" xlink:href="#DejaVuSans-32"/>
    </g>
    <!--  Error rate: 0.003670916081145818 -->
    <defs>
     <path d="M 10.796875 72.90625 
L 49.515625 72.90625 
L 49.515625 64.59375 
L 19.828125 64.59375 
L 19.828125 46.734375 
Q 21.96875 47.46875 24.109375 47.828125 
Q 26.265625 48.1875 28.421875 48.1875 
Q 40.625 48.1875 47.75 41.5 
Q 54.890625 34.8125 54.890625 23.390625 
Q 54.890625 11.625 47.5625 5.09375 
Q 40.234375 -1.421875 26.90625 -1.421875 
Q 22.3125 -1.421875 17.546875 -0.640625 
Q 12.796875 0.140625 7.71875 1.703125 
L 7.71875 11.625 
Q 12.109375 9.234375 16.796875 8.0625 
Q 21.484375 6.890625 26.703125 6.890625 
Q 35.15625 6.890625 40.078125 11.328125 
Q 45.015625 15.765625 45.015625 23.390625 
Q 45.015625 31 40.078125 35.4375 
Q 35.15625 39.890625 26.703125 39.890625 
Q 22.75 39.890625 18.8125 39.015625 
Q 14.890625 38.140625 10.796875 36.28125 
z
" id="DejaVuSans-53"/>
    </defs>
    <g transform="translate(546.294554 31.968)scale(0.12 -0.12)">
     <use xlink:href="#DejaVuSans-32"/>
     <use x="31.787109" xlink:href="#DejaVuSans-69"/>
     <use x="94.970703" xlink:href="#DejaVuSans-114"/>
     <use x="136.068359" xlink:href="#DejaVuSans-114"/>
     <use x="177.150391" xlink:href="#DejaVuSans-111"/>
     <use x="238.332031" xlink:href="#DejaVuSans-114"/>
     <use x="279.445312" xlink:href="#DejaVuSans-32"/>
     <use x="311.232422" xlink:href="#DejaVuSans-114"/>
     <use x="352.345703" xlink:href="#DejaVuSans-97"/>
     <use x="413.625" xlink:href="#DejaVuSans-116"/>
     <use x="452.833984" xlink:href="#DejaVuSans-101"/>
     <use x="514.357422" xlink:href="#DejaVuSans-58"/>
     <use x="548.048828" xlink:href="#DejaVuSans-32"/>
     <use x="579.835938" xlink:href="#DejaVuSans-48"/>
     <use x="643.458984" xlink:href="#DejaVuSans-46"/>
     <use x="675.246094" xlink:href="#DejaVuSans-48"/>
     <use x="738.869141" xlink:href="#DejaVuSans-48"/>
     <use x="802.492188" xlink:href="#DejaVuSans-51"/>
     <use x="866.115234" xlink:href="#DejaVuSans-54"/>
     <use x="929.738281" xlink:href="#DejaVuSans-55"/>
     <use x="993.361328" xlink:href="#DejaVuSans-48"/>
     <use x="1056.984375" xlink:href="#DejaVuSans-57"/>
     <use x="1120.607422" xlink:href="#DejaVuSans-49"/>
     <use x="1184.230469" xlink:href="#DejaVuSans-54"/>
     <use x="1247.853516" xlink:href="#DejaVuSans-48"/>
     <use x="1311.476562" xlink:href="#DejaVuSans-56"/>
     <use x="1375.099609" xlink:href="#DejaVuSans-49"/>
     <use x="1438.722656" xlink:href="#DejaVuSans-49"/>
     <use x="1502.345703" xlink:href="#DejaVuSans-52"/>
     <use x="1565.96875" xlink:href="#DejaVuSans-53"/>
     <use x="1629.591797" xlink:href="#DejaVuSans-56"/>
     <use x="1693.214844" xlink:href="#DejaVuSans-49"/>
     <use x="1756.837891" xlink:href="#DejaVuSans-56"/>
    </g>
   </g>
  </g>
  <g id="axes_3">
   <g id="patch_12">
    <path d="M 39.94 404.12 
L 275.652857 404.12 
L 275.652857 248.568 
L 39.94 248.568 
z
" style="fill:#ffffff;"/>
   </g>
   <g id="matplotlib.axis_5">
    <g id="xtick_13">
     <g id="line2d_25">
      <g>
       <use style="stroke:#000000;stroke-width:0.8;" x="50.654221" xlink:href="#m877ab5bf90" y="404.12"/>
      </g>
     </g>
     <g id="text_25">
      <!-- 0 -->
      <g transform="translate(47.472971 418.718438)scale(0.1 -0.1)">
       <use xlink:href="#DejaVuSans-48"/>
      </g>
     </g>
    </g>
    <g id="xtick_14">
     <g id="line2d_26">
      <g>
       <use style="stroke:#000000;stroke-width:0.8;" x="93.944002" xlink:href="#m877ab5bf90" y="404.12"/>
      </g>
     </g>
     <g id="text_26">
      <!-- 20 -->
      <g transform="translate(87.581502 418.718438)scale(0.1 -0.1)">
       <use xlink:href="#DejaVuSans-50"/>
       <use x="63.623047" xlink:href="#DejaVuSans-48"/>
      </g>
     </g>
    </g>
    <g id="xtick_15">
     <g id="line2d_27">
      <g>
       <use style="stroke:#000000;stroke-width:0.8;" x="137.233783" xlink:href="#m877ab5bf90" y="404.12"/>
      </g>
     </g>
     <g id="text_27">
      <!-- 40 -->
      <g transform="translate(130.871283 418.718438)scale(0.1 -0.1)">
       <use xlink:href="#DejaVuSans-52"/>
       <use x="63.623047" xlink:href="#DejaVuSans-48"/>
      </g>
     </g>
    </g>
    <g id="xtick_16">
     <g id="line2d_28">
      <g>
       <use style="stroke:#000000;stroke-width:0.8;" x="180.523564" xlink:href="#m877ab5bf90" y="404.12"/>
      </g>
     </g>
     <g id="text_28">
      <!-- 60 -->
      <g transform="translate(174.161064 418.718438)scale(0.1 -0.1)">
       <use xlink:href="#DejaVuSans-54"/>
       <use x="63.623047" xlink:href="#DejaVuSans-48"/>
      </g>
     </g>
    </g>
    <g id="xtick_17">
     <g id="line2d_29">
      <g>
       <use style="stroke:#000000;stroke-width:0.8;" x="223.813344" xlink:href="#m877ab5bf90" y="404.12"/>
      </g>
     </g>
     <g id="text_29">
      <!-- 80 -->
      <g transform="translate(217.450844 418.718438)scale(0.1 -0.1)">
       <use xlink:href="#DejaVuSans-56"/>
       <use x="63.623047" xlink:href="#DejaVuSans-48"/>
      </g>
     </g>
    </g>
    <g id="xtick_18">
     <g id="line2d_30">
      <g>
       <use style="stroke:#000000;stroke-width:0.8;" x="267.103125" xlink:href="#m877ab5bf90" y="404.12"/>
      </g>
     </g>
     <g id="text_30">
      <!-- 100 -->
      <g transform="translate(257.559375 418.718438)scale(0.1 -0.1)">
       <use xlink:href="#DejaVuSans-49"/>
       <use x="63.623047" xlink:href="#DejaVuSans-48"/>
       <use x="127.246094" xlink:href="#DejaVuSans-48"/>
      </g>
     </g>
    </g>
   </g>
   <g id="matplotlib.axis_6">
    <g id="ytick_11">
     <g id="line2d_31">
      <g>
       <use style="stroke:#000000;stroke-width:0.8;" x="39.94" xlink:href="#m16bc39abdd" y="396.274609"/>
      </g>
     </g>
     <g id="text_31">
      <!-- 0.00 -->
      <g transform="translate(10.674375 400.073827)scale(0.1 -0.1)">
       <use xlink:href="#DejaVuSans-48"/>
       <use x="63.623047" xlink:href="#DejaVuSans-46"/>
       <use x="95.410156" xlink:href="#DejaVuSans-48"/>
       <use x="159.033203" xlink:href="#DejaVuSans-48"/>
      </g>
     </g>
    </g>
    <g id="ytick_12">
     <g id="line2d_32">
      <g>
       <use style="stroke:#000000;stroke-width:0.8;" x="39.94" xlink:href="#m16bc39abdd" y="371.396818"/>
      </g>
     </g>
     <g id="text_32">
      <!-- 0.02 -->
      <g transform="translate(10.674375 375.196037)scale(0.1 -0.1)">
       <use xlink:href="#DejaVuSans-48"/>
       <use x="63.623047" xlink:href="#DejaVuSans-46"/>
       <use x="95.410156" xlink:href="#DejaVuSans-48"/>
       <use x="159.033203" xlink:href="#DejaVuSans-50"/>
      </g>
     </g>
    </g>
    <g id="ytick_13">
     <g id="line2d_33">
      <g>
       <use style="stroke:#000000;stroke-width:0.8;" x="39.94" xlink:href="#m16bc39abdd" y="346.519027"/>
      </g>
     </g>
     <g id="text_33">
      <!-- 0.04 -->
      <g transform="translate(10.674375 350.318246)scale(0.1 -0.1)">
       <use xlink:href="#DejaVuSans-48"/>
       <use x="63.623047" xlink:href="#DejaVuSans-46"/>
       <use x="95.410156" xlink:href="#DejaVuSans-48"/>
       <use x="159.033203" xlink:href="#DejaVuSans-52"/>
      </g>
     </g>
    </g>
    <g id="ytick_14">
     <g id="line2d_34">
      <g>
       <use style="stroke:#000000;stroke-width:0.8;" x="39.94" xlink:href="#m16bc39abdd" y="321.641236"/>
      </g>
     </g>
     <g id="text_34">
      <!-- 0.06 -->
      <g transform="translate(10.674375 325.440455)scale(0.1 -0.1)">
       <use xlink:href="#DejaVuSans-48"/>
       <use x="63.623047" xlink:href="#DejaVuSans-46"/>
       <use x="95.410156" xlink:href="#DejaVuSans-48"/>
       <use x="159.033203" xlink:href="#DejaVuSans-54"/>
      </g>
     </g>
    </g>
    <g id="ytick_15">
     <g id="line2d_35">
      <g>
       <use style="stroke:#000000;stroke-width:0.8;" x="39.94" xlink:href="#m16bc39abdd" y="296.763446"/>
      </g>
     </g>
     <g id="text_35">
      <!-- 0.08 -->
      <g transform="translate(10.674375 300.562665)scale(0.1 -0.1)">
       <use xlink:href="#DejaVuSans-48"/>
       <use x="63.623047" xlink:href="#DejaVuSans-46"/>
       <use x="95.410156" xlink:href="#DejaVuSans-48"/>
       <use x="159.033203" xlink:href="#DejaVuSans-56"/>
      </g>
     </g>
    </g>
    <g id="ytick_16">
     <g id="line2d_36">
      <g>
       <use style="stroke:#000000;stroke-width:0.8;" x="39.94" xlink:href="#m16bc39abdd" y="271.885655"/>
      </g>
     </g>
     <g id="text_36">
      <!-- 0.10 -->
      <g transform="translate(10.674375 275.684874)scale(0.1 -0.1)">
       <use xlink:href="#DejaVuSans-48"/>
       <use x="63.623047" xlink:href="#DejaVuSans-46"/>
       <use x="95.410156" xlink:href="#DejaVuSans-49"/>
       <use x="159.033203" xlink:href="#DejaVuSans-48"/>
      </g>
     </g>
    </g>
   </g>
   <g id="line2d_37">
    <path clip-path="url(#paa8fefd961)" d="M 50.654221 396.274609 
L 52.81871 396.274609 
L 54.983199 396.274609 
L 57.147688 396.274609 
L 59.312177 396.274609 
L 61.476666 396.274609 
L 63.641155 396.66648 
L 65.805644 396.470544 
L 67.970133 396.570736 
L 70.134622 396.274609 
L 72.299111 396.274609 
L 74.4636 396.274609 
L 76.628089 396.274609 
L 78.792578 396.958159 
L 80.957067 396.470544 
L 83.121556 396.470544 
L 85.286046 321.268708 
L 87.450535 396.670928 
L 89.615024 396.274609 
L 91.779513 396.766672 
L 93.944002 396.274609 
L 96.108491 396.66648 
L 98.27298 396.274609 
L 100.437469 396.274609 
L 102.601958 340.020183 
L 104.766447 396.274609 
L 106.930936 397.049455 
L 109.095425 321.268708 
L 111.259914 349.395921 
L 113.424403 396.570736 
L 115.588892 396.274609 
L 117.753381 396.274609 
L 119.91787 396.274609 
L 122.082359 349.395921 
L 124.246848 396.474992 
L 126.411337 396.274609 
L 128.575826 396.274609 
L 130.740315 340.020183 
L 132.904805 396.274609 
L 135.069294 396.274609 
L 137.233783 396.274609 
L 139.398272 396.274609 
L 141.562761 396.347528 
L 143.72725 372.835265 
L 145.891739 396.274609 
L 148.056228 396.274609 
L 150.220717 396.274609 
L 152.385206 396.274609 
L 154.549695 396.274609 
L 156.714184 396.274609 
L 158.878673 396.274609 
L 161.043162 283.765758 
L 163.207651 372.835265 
L 165.37214 396.274609 
L 167.536629 396.274609 
L 169.701118 396.675376 
L 171.865607 396.274609 
L 174.030096 354.08379 
L 176.194585 255.638545 
L 178.359075 396.274609 
L 180.523564 396.274609 
L 182.688053 396.274609 
L 184.852542 396.274609 
L 187.017031 396.274609 
L 189.18152 396.762223 
L 191.346009 340.020183 
L 193.510498 396.274609 
L 195.674987 396.274609 
L 197.839476 385.726904 
L 200.003965 396.274609 
L 202.168454 396.274609 
L 204.332943 396.274609 
L 206.497432 396.274609 
L 208.661921 396.274609 
L 210.82641 396.274609 
L 212.990899 396.274609 
L 215.155388 396.274609 
L 217.319877 340.020183 
L 219.484366 396.274609 
L 221.648855 302.517233 
L 223.813344 396.274609 
L 225.977834 396.274609 
L 228.142323 396.274609 
L 230.306812 396.958159 
L 232.471301 396.274609 
L 234.63579 396.420448 
L 236.800279 396.274609 
L 238.964768 396.274609 
L 241.129257 396.274609 
L 243.293746 375.179199 
L 245.458235 396.566288 
L 247.622724 396.274609 
L 249.787213 396.274609 
L 251.951702 321.268708 
L 254.116191 283.765758 
L 256.28068 330.644446 
L 258.445169 396.274609 
L 260.609658 396.280732 
L 262.774147 372.835265 
L 264.938636 358.771658 
" style="fill:none;stroke:#008000;stroke-linecap:square;stroke-width:1.5;"/>
   </g>
   <g id="patch_13">
    <path d="M 39.94 404.12 
L 39.94 248.568 
" style="fill:none;stroke:#000000;stroke-linecap:square;stroke-linejoin:miter;stroke-width:0.8;"/>
   </g>
   <g id="patch_14">
    <path d="M 275.652857 404.12 
L 275.652857 248.568 
" style="fill:none;stroke:#000000;stroke-linecap:square;stroke-linejoin:miter;stroke-width:0.8;"/>
   </g>
   <g id="patch_15">
    <path d="M 39.94 404.12 
L 275.652857 404.12 
" style="fill:none;stroke:#000000;stroke-linecap:square;stroke-linejoin:miter;stroke-width:0.8;"/>
   </g>
   <g id="patch_16">
    <path d="M 39.94 248.568 
L 275.652857 248.568 
" style="fill:none;stroke:#000000;stroke-linecap:square;stroke-linejoin:miter;stroke-width:0.8;"/>
   </g>
   <g id="text_37">
    <!-- Estimated input signal(Normalized) 3  -->
    <g transform="translate(44.047679 229.130625)scale(0.12 -0.12)">
     <use xlink:href="#DejaVuSans-69"/>
     <use x="63.183594" xlink:href="#DejaVuSans-115"/>
     <use x="115.283203" xlink:href="#DejaVuSans-116"/>
     <use x="154.492188" xlink:href="#DejaVuSans-105"/>
     <use x="182.275391" xlink:href="#DejaVuSans-109"/>
     <use x="279.6875" xlink:href="#DejaVuSans-97"/>
     <use x="340.966797" xlink:href="#DejaVuSans-116"/>
     <use x="380.175781" xlink:href="#DejaVuSans-101"/>
     <use x="441.699219" xlink:href="#DejaVuSans-100"/>
     <use x="505.175781" xlink:href="#DejaVuSans-32"/>
     <use x="536.962891" xlink:href="#DejaVuSans-105"/>
     <use x="564.746094" xlink:href="#DejaVuSans-110"/>
     <use x="628.125" xlink:href="#DejaVuSans-112"/>
     <use x="691.601562" xlink:href="#DejaVuSans-117"/>
     <use x="754.980469" xlink:href="#DejaVuSans-116"/>
     <use x="794.189453" xlink:href="#DejaVuSans-32"/>
     <use x="825.976562" xlink:href="#DejaVuSans-115"/>
     <use x="878.076172" xlink:href="#DejaVuSans-105"/>
     <use x="905.859375" xlink:href="#DejaVuSans-103"/>
     <use x="969.335938" xlink:href="#DejaVuSans-110"/>
     <use x="1032.714844" xlink:href="#DejaVuSans-97"/>
     <use x="1093.994141" xlink:href="#DejaVuSans-108"/>
     <use x="1121.777344" xlink:href="#DejaVuSans-40"/>
     <use x="1160.791016" xlink:href="#DejaVuSans-78"/>
     <use x="1235.595703" xlink:href="#DejaVuSans-111"/>
     <use x="1296.777344" xlink:href="#DejaVuSans-114"/>
     <use x="1337.875" xlink:href="#DejaVuSans-109"/>
     <use x="1435.287109" xlink:href="#DejaVuSans-97"/>
     <use x="1496.566406" xlink:href="#DejaVuSans-108"/>
     <use x="1524.349609" xlink:href="#DejaVuSans-105"/>
     <use x="1552.132812" xlink:href="#DejaVuSans-122"/>
     <use x="1604.623047" xlink:href="#DejaVuSans-101"/>
     <use x="1666.146484" xlink:href="#DejaVuSans-100"/>
     <use x="1729.623047" xlink:href="#DejaVuSans-41"/>
     <use x="1768.636719" xlink:href="#DejaVuSans-32"/>
     <use x="1800.423828" xlink:href="#DejaVuSans-51"/>
     <use x="1864.046875" xlink:href="#DejaVuSans-32"/>
    </g>
    <!--  Error rate: 1.3464901677846006 -->
    <g transform="translate(56.203304 242.568)scale(0.12 -0.12)">
     <use xlink:href="#DejaVuSans-32"/>
     <use x="31.787109" xlink:href="#DejaVuSans-69"/>
     <use x="94.970703" xlink:href="#DejaVuSans-114"/>
     <use x="136.068359" xlink:href="#DejaVuSans-114"/>
     <use x="177.150391" xlink:href="#DejaVuSans-111"/>
     <use x="238.332031" xlink:href="#DejaVuSans-114"/>
     <use x="279.445312" xlink:href="#DejaVuSans-32"/>
     <use x="311.232422" xlink:href="#DejaVuSans-114"/>
     <use x="352.345703" xlink:href="#DejaVuSans-97"/>
     <use x="413.625" xlink:href="#DejaVuSans-116"/>
     <use x="452.833984" xlink:href="#DejaVuSans-101"/>
     <use x="514.357422" xlink:href="#DejaVuSans-58"/>
     <use x="548.048828" xlink:href="#DejaVuSans-32"/>
     <use x="579.835938" xlink:href="#DejaVuSans-49"/>
     <use x="643.458984" xlink:href="#DejaVuSans-46"/>
     <use x="675.246094" xlink:href="#DejaVuSans-51"/>
     <use x="738.869141" xlink:href="#DejaVuSans-52"/>
     <use x="802.492188" xlink:href="#DejaVuSans-54"/>
     <use x="866.115234" xlink:href="#DejaVuSans-52"/>
     <use x="929.738281" xlink:href="#DejaVuSans-57"/>
     <use x="993.361328" xlink:href="#DejaVuSans-48"/>
     <use x="1056.984375" xlink:href="#DejaVuSans-49"/>
     <use x="1120.607422" xlink:href="#DejaVuSans-54"/>
     <use x="1184.230469" xlink:href="#DejaVuSans-55"/>
     <use x="1247.853516" xlink:href="#DejaVuSans-55"/>
     <use x="1311.476562" xlink:href="#DejaVuSans-56"/>
     <use x="1375.099609" xlink:href="#DejaVuSans-52"/>
     <use x="1438.722656" xlink:href="#DejaVuSans-54"/>
     <use x="1502.345703" xlink:href="#DejaVuSans-48"/>
     <use x="1565.96875" xlink:href="#DejaVuSans-48"/>
     <use x="1629.591797" xlink:href="#DejaVuSans-54"/>
    </g>
   </g>
  </g>
  <g id="axes_4">
   <g id="patch_17">
    <path d="M 324.355 404.12 
L 560.067857 404.12 
L 560.067857 248.568 
L 324.355 248.568 
z
" style="fill:#ffffff;"/>
   </g>
   <g id="matplotlib.axis_7">
    <g id="xtick_19">
     <g id="line2d_38">
      <g>
       <use style="stroke:#000000;stroke-width:0.8;" x="335.069221" xlink:href="#m877ab5bf90" y="404.12"/>
      </g>
     </g>
     <g id="text_38">
      <!-- 0 -->
      <g transform="translate(331.887971 418.718438)scale(0.1 -0.1)">
       <use xlink:href="#DejaVuSans-48"/>
      </g>
     </g>
    </g>
    <g id="xtick_20">
     <g id="line2d_39">
      <g>
       <use style="stroke:#000000;stroke-width:0.8;" x="378.359002" xlink:href="#m877ab5bf90" y="404.12"/>
      </g>
     </g>
     <g id="text_39">
      <!-- 20 -->
      <g transform="translate(371.996502 418.718438)scale(0.1 -0.1)">
       <use xlink:href="#DejaVuSans-50"/>
       <use x="63.623047" xlink:href="#DejaVuSans-48"/>
      </g>
     </g>
    </g>
    <g id="xtick_21">
     <g id="line2d_40">
      <g>
       <use style="stroke:#000000;stroke-width:0.8;" x="421.648783" xlink:href="#m877ab5bf90" y="404.12"/>
      </g>
     </g>
     <g id="text_40">
      <!-- 40 -->
      <g transform="translate(415.286283 418.718438)scale(0.1 -0.1)">
       <use xlink:href="#DejaVuSans-52"/>
       <use x="63.623047" xlink:href="#DejaVuSans-48"/>
      </g>
     </g>
    </g>
    <g id="xtick_22">
     <g id="line2d_41">
      <g>
       <use style="stroke:#000000;stroke-width:0.8;" x="464.938564" xlink:href="#m877ab5bf90" y="404.12"/>
      </g>
     </g>
     <g id="text_41">
      <!-- 60 -->
      <g transform="translate(458.576064 418.718438)scale(0.1 -0.1)">
       <use xlink:href="#DejaVuSans-54"/>
       <use x="63.623047" xlink:href="#DejaVuSans-48"/>
      </g>
     </g>
    </g>
    <g id="xtick_23">
     <g id="line2d_42">
      <g>
       <use style="stroke:#000000;stroke-width:0.8;" x="508.228344" xlink:href="#m877ab5bf90" y="404.12"/>
      </g>
     </g>
     <g id="text_42">
      <!-- 80 -->
      <g transform="translate(501.865844 418.718438)scale(0.1 -0.1)">
       <use xlink:href="#DejaVuSans-56"/>
       <use x="63.623047" xlink:href="#DejaVuSans-48"/>
      </g>
     </g>
    </g>
    <g id="xtick_24">
     <g id="line2d_43">
      <g>
       <use style="stroke:#000000;stroke-width:0.8;" x="551.518125" xlink:href="#m877ab5bf90" y="404.12"/>
      </g>
     </g>
     <g id="text_43">
      <!-- 100 -->
      <g transform="translate(541.974375 418.718438)scale(0.1 -0.1)">
       <use xlink:href="#DejaVuSans-49"/>
       <use x="63.623047" xlink:href="#DejaVuSans-48"/>
       <use x="127.246094" xlink:href="#DejaVuSans-48"/>
      </g>
     </g>
    </g>
   </g>
   <g id="matplotlib.axis_8">
    <g id="ytick_17">
     <g id="line2d_44">
      <g>
       <use style="stroke:#000000;stroke-width:0.8;" x="324.355" xlink:href="#m16bc39abdd" y="397.049455"/>
      </g>
     </g>
     <g id="text_44">
      <!-- 0.00 -->
      <g transform="translate(295.089375 400.848673)scale(0.1 -0.1)">
       <use xlink:href="#DejaVuSans-48"/>
       <use x="63.623047" xlink:href="#DejaVuSans-46"/>
       <use x="95.410156" xlink:href="#DejaVuSans-48"/>
       <use x="159.033203" xlink:href="#DejaVuSans-48"/>
      </g>
     </g>
    </g>
    <g id="ytick_18">
     <g id="line2d_45">
      <g>
       <use style="stroke:#000000;stroke-width:0.8;" x="324.355" xlink:href="#m16bc39abdd" y="359.812833"/>
      </g>
     </g>
     <g id="text_45">
      <!-- 0.02 -->
      <g transform="translate(295.089375 363.612052)scale(0.1 -0.1)">
       <use xlink:href="#DejaVuSans-48"/>
       <use x="63.623047" xlink:href="#DejaVuSans-46"/>
       <use x="95.410156" xlink:href="#DejaVuSans-48"/>
       <use x="159.033203" xlink:href="#DejaVuSans-50"/>
      </g>
     </g>
    </g>
    <g id="ytick_19">
     <g id="line2d_46">
      <g>
       <use style="stroke:#000000;stroke-width:0.8;" x="324.355" xlink:href="#m16bc39abdd" y="322.576212"/>
      </g>
     </g>
     <g id="text_46">
      <!-- 0.04 -->
      <g transform="translate(295.089375 326.375431)scale(0.1 -0.1)">
       <use xlink:href="#DejaVuSans-48"/>
       <use x="63.623047" xlink:href="#DejaVuSans-46"/>
       <use x="95.410156" xlink:href="#DejaVuSans-48"/>
       <use x="159.033203" xlink:href="#DejaVuSans-52"/>
      </g>
     </g>
    </g>
    <g id="ytick_20">
     <g id="line2d_47">
      <g>
       <use style="stroke:#000000;stroke-width:0.8;" x="324.355" xlink:href="#m16bc39abdd" y="285.339591"/>
      </g>
     </g>
     <g id="text_47">
      <!-- 0.06 -->
      <g transform="translate(295.089375 289.13881)scale(0.1 -0.1)">
       <use xlink:href="#DejaVuSans-48"/>
       <use x="63.623047" xlink:href="#DejaVuSans-46"/>
       <use x="95.410156" xlink:href="#DejaVuSans-48"/>
       <use x="159.033203" xlink:href="#DejaVuSans-54"/>
      </g>
     </g>
    </g>
    <g id="ytick_21">
     <g id="line2d_48">
      <g>
       <use style="stroke:#000000;stroke-width:0.8;" x="324.355" xlink:href="#m16bc39abdd" y="248.10297"/>
      </g>
     </g>
     <g id="text_48">
      <!-- 0.08 -->
      <g transform="translate(295.089375 251.902189)scale(0.1 -0.1)">
       <use xlink:href="#DejaVuSans-48"/>
       <use x="63.623047" xlink:href="#DejaVuSans-46"/>
       <use x="95.410156" xlink:href="#DejaVuSans-48"/>
       <use x="159.033203" xlink:href="#DejaVuSans-56"/>
      </g>
     </g>
    </g>
   </g>
   <g id="line2d_49">
    <path clip-path="url(#pd9fc215476)" d="M 335.069221 397.049455 
L 337.23371 397.049455 
L 339.398199 397.049455 
L 341.562688 379.448846 
L 343.727177 273.282406 
L 345.891666 397.049455 
L 348.056155 397.049455 
L 350.220644 397.049455 
L 352.385133 397.049455 
L 354.549622 290.81425 
L 356.714111 263.809161 
L 358.8786 351.330564 
L 361.043089 386.865845 
L 363.207578 397.049455 
L 365.372067 397.049455 
L 367.536556 397.049455 
L 369.701046 397.049455 
L 371.865535 397.049455 
L 374.030024 387.635961 
L 376.194513 397.049455 
L 378.359002 298.513555 
L 380.523491 397.049455 
L 382.68798 272.07732 
L 384.852469 297.323505 
L 387.016958 397.049455 
L 389.181447 395.446069 
L 391.345936 397.049455 
L 393.510425 397.049455 
L 395.674914 397.049455 
L 397.839403 397.049455 
L 400.003892 269.568146 
L 402.168381 389.438098 
L 404.33287 397.049455 
L 406.497359 397.049455 
L 408.661848 397.049455 
L 410.826337 385.185196 
L 412.990826 397.049455 
L 415.155315 397.049455 
L 417.319805 397.049455 
L 419.484294 392.64579 
L 421.648783 397.049455 
L 423.813272 397.049455 
L 425.977761 397.049455 
L 428.14225 397.049455 
L 430.306739 397.049455 
L 432.471228 397.049455 
L 434.635717 395.841375 
L 436.800206 397.049455 
L 438.964695 349.358304 
L 441.129184 388.133919 
L 443.293673 392.519934 
L 445.458162 397.049455 
L 447.622651 397.049455 
L 449.78714 258.820408 
L 451.951629 380.932816 
L 454.116118 397.049455 
L 456.280607 327.969733 
L 458.445096 397.049455 
L 460.609585 397.049455 
L 462.774075 264.822218 
L 464.938564 397.049455 
L 467.103053 397.049455 
L 469.267542 386.80633 
L 471.432031 397.049455 
L 473.59652 397.049455 
L 475.761009 397.049455 
L 477.925498 397.049455 
L 480.089987 397.049455 
L 482.254476 397.049455 
L 484.418965 397.049455 
L 486.583454 355.905166 
L 488.747943 255.638545 
L 490.912432 295.644333 
L 493.076921 397.049455 
L 495.24141 397.049455 
L 497.405899 397.049455 
L 499.570388 387.951304 
L 501.734877 397.049455 
L 503.899366 383.962603 
L 506.063855 397.049455 
L 508.228344 397.049455 
L 510.392834 396.42858 
L 512.557323 361.269565 
L 514.721812 397.049455 
L 516.886301 281.540499 
L 519.05079 397.049455 
L 521.215279 397.049455 
L 523.379768 392.049202 
L 525.544257 389.177693 
L 527.708746 397.049455 
L 529.873235 397.049455 
L 532.037724 389.928259 
L 534.202213 388.249709 
L 536.366702 397.049455 
L 538.531191 397.049455 
L 540.69568 397.049455 
L 542.860169 372.663553 
L 545.024658 397.049455 
L 547.189147 397.049455 
L 549.353636 397.049455 
" style="fill:none;stroke:#008000;stroke-linecap:square;stroke-width:1.5;"/>
   </g>
   <g id="patch_18">
    <path d="M 324.355 404.12 
L 324.355 248.568 
" style="fill:none;stroke:#000000;stroke-linecap:square;stroke-linejoin:miter;stroke-width:0.8;"/>
   </g>
   <g id="patch_19">
    <path d="M 560.067857 404.12 
L 560.067857 248.568 
" style="fill:none;stroke:#000000;stroke-linecap:square;stroke-linejoin:miter;stroke-width:0.8;"/>
   </g>
   <g id="patch_20">
    <path d="M 324.355 404.12 
L 560.067857 404.12 
" style="fill:none;stroke:#000000;stroke-linecap:square;stroke-linejoin:miter;stroke-width:0.8;"/>
   </g>
   <g id="patch_21">
    <path d="M 324.355 248.568 
L 560.067857 248.568 
" style="fill:none;stroke:#000000;stroke-linecap:square;stroke-linejoin:miter;stroke-width:0.8;"/>
   </g>
   <g id="text_49">
    <!-- Estimated input signal(Normalized) 4  -->
    <g transform="translate(328.462679 229.130625)scale(0.12 -0.12)">
     <use xlink:href="#DejaVuSans-69"/>
     <use x="63.183594" xlink:href="#DejaVuSans-115"/>
     <use x="115.283203" xlink:href="#DejaVuSans-116"/>
     <use x="154.492188" xlink:href="#DejaVuSans-105"/>
     <use x="182.275391" xlink:href="#DejaVuSans-109"/>
     <use x="279.6875" xlink:href="#DejaVuSans-97"/>
     <use x="340.966797" xlink:href="#DejaVuSans-116"/>
     <use x="380.175781" xlink:href="#DejaVuSans-101"/>
     <use x="441.699219" xlink:href="#DejaVuSans-100"/>
     <use x="505.175781" xlink:href="#DejaVuSans-32"/>
     <use x="536.962891" xlink:href="#DejaVuSans-105"/>
     <use x="564.746094" xlink:href="#DejaVuSans-110"/>
     <use x="628.125" xlink:href="#DejaVuSans-112"/>
     <use x="691.601562" xlink:href="#DejaVuSans-117"/>
     <use x="754.980469" xlink:href="#DejaVuSans-116"/>
     <use x="794.189453" xlink:href="#DejaVuSans-32"/>
     <use x="825.976562" xlink:href="#DejaVuSans-115"/>
     <use x="878.076172" xlink:href="#DejaVuSans-105"/>
     <use x="905.859375" xlink:href="#DejaVuSans-103"/>
     <use x="969.335938" xlink:href="#DejaVuSans-110"/>
     <use x="1032.714844" xlink:href="#DejaVuSans-97"/>
     <use x="1093.994141" xlink:href="#DejaVuSans-108"/>
     <use x="1121.777344" xlink:href="#DejaVuSans-40"/>
     <use x="1160.791016" xlink:href="#DejaVuSans-78"/>
     <use x="1235.595703" xlink:href="#DejaVuSans-111"/>
     <use x="1296.777344" xlink:href="#DejaVuSans-114"/>
     <use x="1337.875" xlink:href="#DejaVuSans-109"/>
     <use x="1435.287109" xlink:href="#DejaVuSans-97"/>
     <use x="1496.566406" xlink:href="#DejaVuSans-108"/>
     <use x="1524.349609" xlink:href="#DejaVuSans-105"/>
     <use x="1552.132812" xlink:href="#DejaVuSans-122"/>
     <use x="1604.623047" xlink:href="#DejaVuSans-101"/>
     <use x="1666.146484" xlink:href="#DejaVuSans-100"/>
     <use x="1729.623047" xlink:href="#DejaVuSans-41"/>
     <use x="1768.636719" xlink:href="#DejaVuSans-32"/>
     <use x="1800.423828" xlink:href="#DejaVuSans-52"/>
     <use x="1864.046875" xlink:href="#DejaVuSans-32"/>
    </g>
    <!--  Error rate: 0.11119743107138107 -->
    <g transform="translate(336.800804 242.568)scale(0.12 -0.12)">
     <use xlink:href="#DejaVuSans-32"/>
     <use x="31.787109" xlink:href="#DejaVuSans-69"/>
     <use x="94.970703" xlink:href="#DejaVuSans-114"/>
     <use x="136.068359" xlink:href="#DejaVuSans-114"/>
     <use x="177.150391" xlink:href="#DejaVuSans-111"/>
     <use x="238.332031" xlink:href="#DejaVuSans-114"/>
     <use x="279.445312" xlink:href="#DejaVuSans-32"/>
     <use x="311.232422" xlink:href="#DejaVuSans-114"/>
     <use x="352.345703" xlink:href="#DejaVuSans-97"/>
     <use x="413.625" xlink:href="#DejaVuSans-116"/>
     <use x="452.833984" xlink:href="#DejaVuSans-101"/>
     <use x="514.357422" xlink:href="#DejaVuSans-58"/>
     <use x="548.048828" xlink:href="#DejaVuSans-32"/>
     <use x="579.835938" xlink:href="#DejaVuSans-48"/>
     <use x="643.458984" xlink:href="#DejaVuSans-46"/>
     <use x="675.246094" xlink:href="#DejaVuSans-49"/>
     <use x="738.869141" xlink:href="#DejaVuSans-49"/>
     <use x="802.492188" xlink:href="#DejaVuSans-49"/>
     <use x="866.115234" xlink:href="#DejaVuSans-49"/>
     <use x="929.738281" xlink:href="#DejaVuSans-57"/>
     <use x="993.361328" xlink:href="#DejaVuSans-55"/>
     <use x="1056.984375" xlink:href="#DejaVuSans-52"/>
     <use x="1120.607422" xlink:href="#DejaVuSans-51"/>
     <use x="1184.230469" xlink:href="#DejaVuSans-49"/>
     <use x="1247.853516" xlink:href="#DejaVuSans-48"/>
     <use x="1311.476562" xlink:href="#DejaVuSans-55"/>
     <use x="1375.099609" xlink:href="#DejaVuSans-49"/>
     <use x="1438.722656" xlink:href="#DejaVuSans-51"/>
     <use x="1502.345703" xlink:href="#DejaVuSans-56"/>
     <use x="1565.96875" xlink:href="#DejaVuSans-49"/>
     <use x="1629.591797" xlink:href="#DejaVuSans-48"/>
     <use x="1693.214844" xlink:href="#DejaVuSans-55"/>
    </g>
   </g>
  </g>
  <g id="axes_5">
   <g id="patch_22">
    <path d="M 608.77 404.12 
L 844.482857 404.12 
L 844.482857 248.568 
L 608.77 248.568 
z
" style="fill:#ffffff;"/>
   </g>
   <g id="matplotlib.axis_9">
    <g id="xtick_25">
     <g id="line2d_50">
      <g>
       <use style="stroke:#000000;stroke-width:0.8;" x="619.484221" xlink:href="#m877ab5bf90" y="404.12"/>
      </g>
     </g>
     <g id="text_50">
      <!-- 0 -->
      <g transform="translate(616.302971 418.718438)scale(0.1 -0.1)">
       <use xlink:href="#DejaVuSans-48"/>
      </g>
     </g>
    </g>
    <g id="xtick_26">
     <g id="line2d_51">
      <g>
       <use style="stroke:#000000;stroke-width:0.8;" x="662.774002" xlink:href="#m877ab5bf90" y="404.12"/>
      </g>
     </g>
     <g id="text_51">
      <!-- 20 -->
      <g transform="translate(656.411502 418.718438)scale(0.1 -0.1)">
       <use xlink:href="#DejaVuSans-50"/>
       <use x="63.623047" xlink:href="#DejaVuSans-48"/>
      </g>
     </g>
    </g>
    <g id="xtick_27">
     <g id="line2d_52">
      <g>
       <use style="stroke:#000000;stroke-width:0.8;" x="706.063783" xlink:href="#m877ab5bf90" y="404.12"/>
      </g>
     </g>
     <g id="text_52">
      <!-- 40 -->
      <g transform="translate(699.701283 418.718438)scale(0.1 -0.1)">
       <use xlink:href="#DejaVuSans-52"/>
       <use x="63.623047" xlink:href="#DejaVuSans-48"/>
      </g>
     </g>
    </g>
    <g id="xtick_28">
     <g id="line2d_53">
      <g>
       <use style="stroke:#000000;stroke-width:0.8;" x="749.353564" xlink:href="#m877ab5bf90" y="404.12"/>
      </g>
     </g>
     <g id="text_53">
      <!-- 60 -->
      <g transform="translate(742.991064 418.718438)scale(0.1 -0.1)">
       <use xlink:href="#DejaVuSans-54"/>
       <use x="63.623047" xlink:href="#DejaVuSans-48"/>
      </g>
     </g>
    </g>
    <g id="xtick_29">
     <g id="line2d_54">
      <g>
       <use style="stroke:#000000;stroke-width:0.8;" x="792.643344" xlink:href="#m877ab5bf90" y="404.12"/>
      </g>
     </g>
     <g id="text_54">
      <!-- 80 -->
      <g transform="translate(786.280844 418.718438)scale(0.1 -0.1)">
       <use xlink:href="#DejaVuSans-56"/>
       <use x="63.623047" xlink:href="#DejaVuSans-48"/>
      </g>
     </g>
    </g>
    <g id="xtick_30">
     <g id="line2d_55">
      <g>
       <use style="stroke:#000000;stroke-width:0.8;" x="835.933125" xlink:href="#m877ab5bf90" y="404.12"/>
      </g>
     </g>
     <g id="text_55">
      <!-- 100 -->
      <g transform="translate(826.389375 418.718438)scale(0.1 -0.1)">
       <use xlink:href="#DejaVuSans-49"/>
       <use x="63.623047" xlink:href="#DejaVuSans-48"/>
       <use x="127.246094" xlink:href="#DejaVuSans-48"/>
      </g>
     </g>
    </g>
   </g>
   <g id="matplotlib.axis_10">
    <g id="ytick_22">
     <g id="line2d_56">
      <g>
       <use style="stroke:#000000;stroke-width:0.8;" x="608.77" xlink:href="#m16bc39abdd" y="397.049455"/>
      </g>
     </g>
     <g id="text_56">
      <!-- 0.00 -->
      <g transform="translate(579.504375 400.848673)scale(0.1 -0.1)">
       <use xlink:href="#DejaVuSans-48"/>
       <use x="63.623047" xlink:href="#DejaVuSans-46"/>
       <use x="95.410156" xlink:href="#DejaVuSans-48"/>
       <use x="159.033203" xlink:href="#DejaVuSans-48"/>
      </g>
     </g>
    </g>
    <g id="ytick_23">
     <g id="line2d_57">
      <g>
       <use style="stroke:#000000;stroke-width:0.8;" x="608.77" xlink:href="#m16bc39abdd" y="368.717326"/>
      </g>
     </g>
     <g id="text_57">
      <!-- 0.02 -->
      <g transform="translate(579.504375 372.516545)scale(0.1 -0.1)">
       <use xlink:href="#DejaVuSans-48"/>
       <use x="63.623047" xlink:href="#DejaVuSans-46"/>
       <use x="95.410156" xlink:href="#DejaVuSans-48"/>
       <use x="159.033203" xlink:href="#DejaVuSans-50"/>
      </g>
     </g>
    </g>
    <g id="ytick_24">
     <g id="line2d_58">
      <g>
       <use style="stroke:#000000;stroke-width:0.8;" x="608.77" xlink:href="#m16bc39abdd" y="340.385198"/>
      </g>
     </g>
     <g id="text_58">
      <!-- 0.04 -->
      <g transform="translate(579.504375 344.184417)scale(0.1 -0.1)">
       <use xlink:href="#DejaVuSans-48"/>
       <use x="63.623047" xlink:href="#DejaVuSans-46"/>
       <use x="95.410156" xlink:href="#DejaVuSans-48"/>
       <use x="159.033203" xlink:href="#DejaVuSans-52"/>
      </g>
     </g>
    </g>
    <g id="ytick_25">
     <g id="line2d_59">
      <g>
       <use style="stroke:#000000;stroke-width:0.8;" x="608.77" xlink:href="#m16bc39abdd" y="312.053069"/>
      </g>
     </g>
     <g id="text_59">
      <!-- 0.06 -->
      <g transform="translate(579.504375 315.852288)scale(0.1 -0.1)">
       <use xlink:href="#DejaVuSans-48"/>
       <use x="63.623047" xlink:href="#DejaVuSans-46"/>
       <use x="95.410156" xlink:href="#DejaVuSans-48"/>
       <use x="159.033203" xlink:href="#DejaVuSans-54"/>
      </g>
     </g>
    </g>
    <g id="ytick_26">
     <g id="line2d_60">
      <g>
       <use style="stroke:#000000;stroke-width:0.8;" x="608.77" xlink:href="#m16bc39abdd" y="283.720941"/>
      </g>
     </g>
     <g id="text_60">
      <!-- 0.08 -->
      <g transform="translate(579.504375 287.52016)scale(0.1 -0.1)">
       <use xlink:href="#DejaVuSans-48"/>
       <use x="63.623047" xlink:href="#DejaVuSans-46"/>
       <use x="95.410156" xlink:href="#DejaVuSans-48"/>
       <use x="159.033203" xlink:href="#DejaVuSans-56"/>
      </g>
     </g>
    </g>
    <g id="ytick_27">
     <g id="line2d_61">
      <g>
       <use style="stroke:#000000;stroke-width:0.8;" x="608.77" xlink:href="#m16bc39abdd" y="255.388813"/>
      </g>
     </g>
     <g id="text_61">
      <!-- 0.10 -->
      <g transform="translate(579.504375 259.188032)scale(0.1 -0.1)">
       <use xlink:href="#DejaVuSans-48"/>
       <use x="63.623047" xlink:href="#DejaVuSans-46"/>
       <use x="95.410156" xlink:href="#DejaVuSans-49"/>
       <use x="159.033203" xlink:href="#DejaVuSans-48"/>
      </g>
     </g>
    </g>
   </g>
   <g id="line2d_62">
    <path clip-path="url(#pf8e06acd46)" d="M 619.484221 356.772598 
L 621.64871 328.782557 
L 623.813199 267.47686 
L 625.977688 397.049455 
L 628.142177 397.049455 
L 630.306666 397.049455 
L 632.471155 397.049455 
L 634.635644 397.049455 
L 636.800133 397.049455 
L 638.964622 397.049455 
L 641.129111 397.049455 
L 643.2936 397.049455 
L 645.458089 397.049455 
L 647.622578 397.049455 
L 649.787067 397.049455 
L 651.951556 397.049455 
L 654.116046 397.049455 
L 656.280535 397.049455 
L 658.445024 397.049455 
L 660.609513 397.049455 
L 662.774002 397.049455 
L 664.938491 397.049455 
L 667.10298 397.049455 
L 669.267469 397.049455 
L 671.431958 397.049455 
L 673.596447 397.049455 
L 675.760936 397.049455 
L 677.925425 397.049455 
L 680.089914 397.049455 
L 682.254403 397.049455 
L 684.418892 397.049455 
L 686.583381 397.049455 
L 688.74787 333.77337 
L 690.912359 397.049455 
L 693.076848 397.049455 
L 695.241337 397.049455 
L 697.405826 281.640909 
L 699.570315 397.049455 
L 701.734805 343.644686 
L 703.899294 397.049455 
L 706.063783 255.638545 
L 708.228272 379.229741 
L 710.392761 397.049455 
L 712.55725 397.049455 
L 714.721739 357.073789 
L 716.886228 379.908891 
L 719.050717 397.049455 
L 721.215206 374.743449 
L 723.379695 397.049455 
L 725.544184 397.049455 
L 727.708673 397.049455 
L 729.873162 397.049455 
L 732.037651 397.049455 
L 734.20214 397.049455 
L 736.366629 397.049455 
L 738.531118 397.049455 
L 740.695607 397.049455 
L 742.860096 397.049455 
L 745.024585 397.049455 
L 747.189075 397.049455 
L 749.353564 369.254659 
L 751.518053 369.670147 
L 753.682542 397.049455 
L 755.847031 281.237584 
L 758.01152 397.049455 
L 760.176009 397.049455 
L 762.340498 328.917441 
L 764.504987 321.568493 
L 766.669476 397.049455 
L 768.833965 307.114114 
L 770.998454 397.049455 
L 773.162943 397.049455 
L 775.327432 397.049455 
L 777.491921 391.109103 
L 779.65641 289.735565 
L 781.820899 361.887165 
L 783.985388 397.049455 
L 786.149877 397.049455 
L 788.314366 397.049455 
L 790.478855 397.049455 
L 792.643344 259.31608 
L 794.807834 397.049455 
L 796.972323 397.049455 
L 799.136812 397.049455 
L 801.301301 397.049455 
L 803.46579 397.049455 
L 805.630279 379.985838 
L 807.794768 397.049455 
L 809.959257 397.049455 
L 812.123746 397.049455 
L 814.288235 397.049455 
L 816.452724 397.049455 
L 818.617213 397.049455 
L 820.781702 397.049455 
L 822.946191 397.049455 
L 825.11068 397.049455 
L 827.275169 397.049455 
L 829.439658 397.049455 
L 831.604147 397.049455 
L 833.768636 397.049455 
" style="fill:none;stroke:#008000;stroke-linecap:square;stroke-width:1.5;"/>
   </g>
   <g id="patch_23">
    <path d="M 608.77 404.12 
L 608.77 248.568 
" style="fill:none;stroke:#000000;stroke-linecap:square;stroke-linejoin:miter;stroke-width:0.8;"/>
   </g>
   <g id="patch_24">
    <path d="M 844.482857 404.12 
L 844.482857 248.568 
" style="fill:none;stroke:#000000;stroke-linecap:square;stroke-linejoin:miter;stroke-width:0.8;"/>
   </g>
   <g id="patch_25">
    <path d="M 608.77 404.12 
L 844.482857 404.12 
" style="fill:none;stroke:#000000;stroke-linecap:square;stroke-linejoin:miter;stroke-width:0.8;"/>
   </g>
   <g id="patch_26">
    <path d="M 608.77 248.568 
L 844.482857 248.568 
" style="fill:none;stroke:#000000;stroke-linecap:square;stroke-linejoin:miter;stroke-width:0.8;"/>
   </g>
   <g id="text_62">
    <!-- Estimated input signal(Normalized) 5  -->
    <g transform="translate(612.877679 229.130625)scale(0.12 -0.12)">
     <use xlink:href="#DejaVuSans-69"/>
     <use x="63.183594" xlink:href="#DejaVuSans-115"/>
     <use x="115.283203" xlink:href="#DejaVuSans-116"/>
     <use x="154.492188" xlink:href="#DejaVuSans-105"/>
     <use x="182.275391" xlink:href="#DejaVuSans-109"/>
     <use x="279.6875" xlink:href="#DejaVuSans-97"/>
     <use x="340.966797" xlink:href="#DejaVuSans-116"/>
     <use x="380.175781" xlink:href="#DejaVuSans-101"/>
     <use x="441.699219" xlink:href="#DejaVuSans-100"/>
     <use x="505.175781" xlink:href="#DejaVuSans-32"/>
     <use x="536.962891" xlink:href="#DejaVuSans-105"/>
     <use x="564.746094" xlink:href="#DejaVuSans-110"/>
     <use x="628.125" xlink:href="#DejaVuSans-112"/>
     <use x="691.601562" xlink:href="#DejaVuSans-117"/>
     <use x="754.980469" xlink:href="#DejaVuSans-116"/>
     <use x="794.189453" xlink:href="#DejaVuSans-32"/>
     <use x="825.976562" xlink:href="#DejaVuSans-115"/>
     <use x="878.076172" xlink:href="#DejaVuSans-105"/>
     <use x="905.859375" xlink:href="#DejaVuSans-103"/>
     <use x="969.335938" xlink:href="#DejaVuSans-110"/>
     <use x="1032.714844" xlink:href="#DejaVuSans-97"/>
     <use x="1093.994141" xlink:href="#DejaVuSans-108"/>
     <use x="1121.777344" xlink:href="#DejaVuSans-40"/>
     <use x="1160.791016" xlink:href="#DejaVuSans-78"/>
     <use x="1235.595703" xlink:href="#DejaVuSans-111"/>
     <use x="1296.777344" xlink:href="#DejaVuSans-114"/>
     <use x="1337.875" xlink:href="#DejaVuSans-109"/>
     <use x="1435.287109" xlink:href="#DejaVuSans-97"/>
     <use x="1496.566406" xlink:href="#DejaVuSans-108"/>
     <use x="1524.349609" xlink:href="#DejaVuSans-105"/>
     <use x="1552.132812" xlink:href="#DejaVuSans-122"/>
     <use x="1604.623047" xlink:href="#DejaVuSans-101"/>
     <use x="1666.146484" xlink:href="#DejaVuSans-100"/>
     <use x="1729.623047" xlink:href="#DejaVuSans-41"/>
     <use x="1768.636719" xlink:href="#DejaVuSans-32"/>
     <use x="1800.423828" xlink:href="#DejaVuSans-53"/>
     <use x="1864.046875" xlink:href="#DejaVuSans-32"/>
    </g>
    <!--  Error rate: 5.554358127736634e-16 -->
    <defs>
     <path d="M 4.890625 31.390625 
L 31.203125 31.390625 
L 31.203125 23.390625 
L 4.890625 23.390625 
z
" id="DejaVuSans-45"/>
    </defs>
    <g transform="translate(615.359241 242.568)scale(0.12 -0.12)">
     <use xlink:href="#DejaVuSans-32"/>
     <use x="31.787109" xlink:href="#DejaVuSans-69"/>
     <use x="94.970703" xlink:href="#DejaVuSans-114"/>
     <use x="136.068359" xlink:href="#DejaVuSans-114"/>
     <use x="177.150391" xlink:href="#DejaVuSans-111"/>
     <use x="238.332031" xlink:href="#DejaVuSans-114"/>
     <use x="279.445312" xlink:href="#DejaVuSans-32"/>
     <use x="311.232422" xlink:href="#DejaVuSans-114"/>
     <use x="352.345703" xlink:href="#DejaVuSans-97"/>
     <use x="413.625" xlink:href="#DejaVuSans-116"/>
     <use x="452.833984" xlink:href="#DejaVuSans-101"/>
     <use x="514.357422" xlink:href="#DejaVuSans-58"/>
     <use x="548.048828" xlink:href="#DejaVuSans-32"/>
     <use x="579.835938" xlink:href="#DejaVuSans-53"/>
     <use x="643.458984" xlink:href="#DejaVuSans-46"/>
     <use x="675.246094" xlink:href="#DejaVuSans-53"/>
     <use x="738.869141" xlink:href="#DejaVuSans-53"/>
     <use x="802.492188" xlink:href="#DejaVuSans-52"/>
     <use x="866.115234" xlink:href="#DejaVuSans-51"/>
     <use x="929.738281" xlink:href="#DejaVuSans-53"/>
     <use x="993.361328" xlink:href="#DejaVuSans-56"/>
     <use x="1056.984375" xlink:href="#DejaVuSans-49"/>
     <use x="1120.607422" xlink:href="#DejaVuSans-50"/>
     <use x="1184.230469" xlink:href="#DejaVuSans-55"/>
     <use x="1247.853516" xlink:href="#DejaVuSans-55"/>
     <use x="1311.476562" xlink:href="#DejaVuSans-51"/>
     <use x="1375.099609" xlink:href="#DejaVuSans-54"/>
     <use x="1438.722656" xlink:href="#DejaVuSans-54"/>
     <use x="1502.345703" xlink:href="#DejaVuSans-51"/>
     <use x="1565.96875" xlink:href="#DejaVuSans-52"/>
     <use x="1629.591797" xlink:href="#DejaVuSans-101"/>
     <use x="1691.115234" xlink:href="#DejaVuSans-45"/>
     <use x="1727.199219" xlink:href="#DejaVuSans-49"/>
     <use x="1790.822266" xlink:href="#DejaVuSans-54"/>
    </g>
   </g>
  </g>
 </g>
 <defs>
  <clipPath id="p3ca9e33dfb">
   <rect height="155.552" width="377.920357" x="39.94" y="37.968"/>
  </clipPath>
  <clipPath id="pf30a3eedaa">
   <rect height="155.552" width="377.920357" x="466.5625" y="37.968"/>
  </clipPath>
  <clipPath id="paa8fefd961">
   <rect height="155.552" width="235.712857" x="39.94" y="248.568"/>
  </clipPath>
  <clipPath id="pd9fc215476">
   <rect height="155.552" width="235.712857" x="324.355" y="248.568"/>
  </clipPath>
  <clipPath id="pf8e06acd46">
   <rect height="155.552" width="235.712857" x="608.77" y="248.568"/>
  </clipPath>
 </defs>
</svg>
