<?xml version="1.0" encoding="utf-8" standalone="no"?>
<!DOCTYPE svg PUBLIC "-//W3C//DTD SVG 1.1//EN"
  "http://www.w3.org/Graphics/SVG/1.1/DTD/svg11.dtd">
<!-- Created with matplotlib (https://matplotlib.org/) -->
<svg height="432pt" version="1.1" viewBox="0 0 864 432" width="864pt" xmlns="http://www.w3.org/2000/svg" xmlns:xlink="http://www.w3.org/1999/xlink">
 <defs>
  <style type="text/css">
*{stroke-linecap:butt;stroke-linejoin:round;}
  </style>
 </defs>
 <g id="figure_1">
  <g id="patch_1">
   <path d="M 0 432 
L 864 432 
L 864 0 
L 0 0 
z
" style="fill:#ffffff;"/>
  </g>
  <g id="axes_1">
   <g id="patch_2">
    <path d="M 40.03 193.52 
L 417.297857 193.52 
L 417.297857 37.968 
L 40.03 37.968 
z
" style="fill:#ffffff;"/>
   </g>
   <g id="matplotlib.axis_1">
    <g id="xtick_1">
     <g id="line2d_1">
      <defs>
       <path d="M 0 0 
L 0 3.5 
" id="mab3e7cb1dd" style="stroke:#000000;stroke-width:0.8;"/>
      </defs>
      <g>
       <use style="stroke:#000000;stroke-width:0.8;" x="57.178539" xlink:href="#mab3e7cb1dd" y="193.52"/>
      </g>
     </g>
     <g id="text_1">
      <!-- 0 -->
      <defs>
       <path d="M 31.78125 66.40625 
Q 24.171875 66.40625 20.328125 58.90625 
Q 16.5 51.421875 16.5 36.375 
Q 16.5 21.390625 20.328125 13.890625 
Q 24.171875 6.390625 31.78125 6.390625 
Q 39.453125 6.390625 43.28125 13.890625 
Q 47.125 21.390625 47.125 36.375 
Q 47.125 51.421875 43.28125 58.90625 
Q 39.453125 66.40625 31.78125 66.40625 
z
M 31.78125 74.21875 
Q 44.046875 74.21875 50.515625 64.515625 
Q 56.984375 54.828125 56.984375 36.375 
Q 56.984375 17.96875 50.515625 8.265625 
Q 44.046875 -1.421875 31.78125 -1.421875 
Q 19.53125 -1.421875 13.0625 8.265625 
Q 6.59375 17.96875 6.59375 36.375 
Q 6.59375 54.828125 13.0625 64.515625 
Q 19.53125 74.21875 31.78125 74.21875 
z
" id="DejaVuSans-48"/>
      </defs>
      <g transform="translate(53.997289 208.118437)scale(0.1 -0.1)">
       <use xlink:href="#DejaVuSans-48"/>
      </g>
     </g>
    </g>
    <g id="xtick_2">
     <g id="line2d_2">
      <g>
       <use style="stroke:#000000;stroke-width:0.8;" x="126.465565" xlink:href="#mab3e7cb1dd" y="193.52"/>
      </g>
     </g>
     <g id="text_2">
      <!-- 20 -->
      <defs>
       <path d="M 19.1875 8.296875 
L 53.609375 8.296875 
L 53.609375 0 
L 7.328125 0 
L 7.328125 8.296875 
Q 12.9375 14.109375 22.625 23.890625 
Q 32.328125 33.6875 34.8125 36.53125 
Q 39.546875 41.84375 41.421875 45.53125 
Q 43.3125 49.21875 43.3125 52.78125 
Q 43.3125 58.59375 39.234375 62.25 
Q 35.15625 65.921875 28.609375 65.921875 
Q 23.96875 65.921875 18.8125 64.3125 
Q 13.671875 62.703125 7.8125 59.421875 
L 7.8125 69.390625 
Q 13.765625 71.78125 18.9375 73 
Q 24.125 74.21875 28.421875 74.21875 
Q 39.75 74.21875 46.484375 68.546875 
Q 53.21875 62.890625 53.21875 53.421875 
Q 53.21875 48.921875 51.53125 44.890625 
Q 49.859375 40.875 45.40625 35.40625 
Q 44.1875 33.984375 37.640625 27.21875 
Q 31.109375 20.453125 19.1875 8.296875 
z
" id="DejaVuSans-50"/>
      </defs>
      <g transform="translate(120.103065 208.118437)scale(0.1 -0.1)">
       <use xlink:href="#DejaVuSans-50"/>
       <use x="63.623047" xlink:href="#DejaVuSans-48"/>
      </g>
     </g>
    </g>
    <g id="xtick_3">
     <g id="line2d_3">
      <g>
       <use style="stroke:#000000;stroke-width:0.8;" x="195.752591" xlink:href="#mab3e7cb1dd" y="193.52"/>
      </g>
     </g>
     <g id="text_3">
      <!-- 40 -->
      <defs>
       <path d="M 37.796875 64.3125 
L 12.890625 25.390625 
L 37.796875 25.390625 
z
M 35.203125 72.90625 
L 47.609375 72.90625 
L 47.609375 25.390625 
L 58.015625 25.390625 
L 58.015625 17.1875 
L 47.609375 17.1875 
L 47.609375 0 
L 37.796875 0 
L 37.796875 17.1875 
L 4.890625 17.1875 
L 4.890625 26.703125 
z
" id="DejaVuSans-52"/>
      </defs>
      <g transform="translate(189.390091 208.118437)scale(0.1 -0.1)">
       <use xlink:href="#DejaVuSans-52"/>
       <use x="63.623047" xlink:href="#DejaVuSans-48"/>
      </g>
     </g>
    </g>
    <g id="xtick_4">
     <g id="line2d_4">
      <g>
       <use style="stroke:#000000;stroke-width:0.8;" x="265.039617" xlink:href="#mab3e7cb1dd" y="193.52"/>
      </g>
     </g>
     <g id="text_4">
      <!-- 60 -->
      <defs>
       <path d="M 33.015625 40.375 
Q 26.375 40.375 22.484375 35.828125 
Q 18.609375 31.296875 18.609375 23.390625 
Q 18.609375 15.53125 22.484375 10.953125 
Q 26.375 6.390625 33.015625 6.390625 
Q 39.65625 6.390625 43.53125 10.953125 
Q 47.40625 15.53125 47.40625 23.390625 
Q 47.40625 31.296875 43.53125 35.828125 
Q 39.65625 40.375 33.015625 40.375 
z
M 52.59375 71.296875 
L 52.59375 62.3125 
Q 48.875 64.0625 45.09375 64.984375 
Q 41.3125 65.921875 37.59375 65.921875 
Q 27.828125 65.921875 22.671875 59.328125 
Q 17.53125 52.734375 16.796875 39.40625 
Q 19.671875 43.65625 24.015625 45.921875 
Q 28.375 48.1875 33.59375 48.1875 
Q 44.578125 48.1875 50.953125 41.515625 
Q 57.328125 34.859375 57.328125 23.390625 
Q 57.328125 12.15625 50.6875 5.359375 
Q 44.046875 -1.421875 33.015625 -1.421875 
Q 20.359375 -1.421875 13.671875 8.265625 
Q 6.984375 17.96875 6.984375 36.375 
Q 6.984375 53.65625 15.1875 63.9375 
Q 23.390625 74.21875 37.203125 74.21875 
Q 40.921875 74.21875 44.703125 73.484375 
Q 48.484375 72.75 52.59375 71.296875 
z
" id="DejaVuSans-54"/>
      </defs>
      <g transform="translate(258.677117 208.118437)scale(0.1 -0.1)">
       <use xlink:href="#DejaVuSans-54"/>
       <use x="63.623047" xlink:href="#DejaVuSans-48"/>
      </g>
     </g>
    </g>
    <g id="xtick_5">
     <g id="line2d_5">
      <g>
       <use style="stroke:#000000;stroke-width:0.8;" x="334.326643" xlink:href="#mab3e7cb1dd" y="193.52"/>
      </g>
     </g>
     <g id="text_5">
      <!-- 80 -->
      <defs>
       <path d="M 31.78125 34.625 
Q 24.75 34.625 20.71875 30.859375 
Q 16.703125 27.09375 16.703125 20.515625 
Q 16.703125 13.921875 20.71875 10.15625 
Q 24.75 6.390625 31.78125 6.390625 
Q 38.8125 6.390625 42.859375 10.171875 
Q 46.921875 13.96875 46.921875 20.515625 
Q 46.921875 27.09375 42.890625 30.859375 
Q 38.875 34.625 31.78125 34.625 
z
M 21.921875 38.8125 
Q 15.578125 40.375 12.03125 44.71875 
Q 8.5 49.078125 8.5 55.328125 
Q 8.5 64.0625 14.71875 69.140625 
Q 20.953125 74.21875 31.78125 74.21875 
Q 42.671875 74.21875 48.875 69.140625 
Q 55.078125 64.0625 55.078125 55.328125 
Q 55.078125 49.078125 51.53125 44.71875 
Q 48 40.375 41.703125 38.8125 
Q 48.828125 37.15625 52.796875 32.3125 
Q 56.78125 27.484375 56.78125 20.515625 
Q 56.78125 9.90625 50.3125 4.234375 
Q 43.84375 -1.421875 31.78125 -1.421875 
Q 19.734375 -1.421875 13.25 4.234375 
Q 6.78125 9.90625 6.78125 20.515625 
Q 6.78125 27.484375 10.78125 32.3125 
Q 14.796875 37.15625 21.921875 38.8125 
z
M 18.3125 54.390625 
Q 18.3125 48.734375 21.84375 45.5625 
Q 25.390625 42.390625 31.78125 42.390625 
Q 38.140625 42.390625 41.71875 45.5625 
Q 45.3125 48.734375 45.3125 54.390625 
Q 45.3125 60.0625 41.71875 63.234375 
Q 38.140625 66.40625 31.78125 66.40625 
Q 25.390625 66.40625 21.84375 63.234375 
Q 18.3125 60.0625 18.3125 54.390625 
z
" id="DejaVuSans-56"/>
      </defs>
      <g transform="translate(327.964143 208.118437)scale(0.1 -0.1)">
       <use xlink:href="#DejaVuSans-56"/>
       <use x="63.623047" xlink:href="#DejaVuSans-48"/>
      </g>
     </g>
    </g>
    <g id="xtick_6">
     <g id="line2d_6">
      <g>
       <use style="stroke:#000000;stroke-width:0.8;" x="403.613669" xlink:href="#mab3e7cb1dd" y="193.52"/>
      </g>
     </g>
     <g id="text_6">
      <!-- 100 -->
      <defs>
       <path d="M 12.40625 8.296875 
L 28.515625 8.296875 
L 28.515625 63.921875 
L 10.984375 60.40625 
L 10.984375 69.390625 
L 28.421875 72.90625 
L 38.28125 72.90625 
L 38.28125 8.296875 
L 54.390625 8.296875 
L 54.390625 0 
L 12.40625 0 
z
" id="DejaVuSans-49"/>
      </defs>
      <g transform="translate(394.069919 208.118437)scale(0.1 -0.1)">
       <use xlink:href="#DejaVuSans-49"/>
       <use x="63.623047" xlink:href="#DejaVuSans-48"/>
       <use x="127.246094" xlink:href="#DejaVuSans-48"/>
      </g>
     </g>
    </g>
   </g>
   <g id="matplotlib.axis_2">
    <g id="ytick_1">
     <g id="line2d_7">
      <defs>
       <path d="M 0 0 
L -3.5 0 
" id="mb866102f97" style="stroke:#000000;stroke-width:0.8;"/>
      </defs>
      <g>
       <use style="stroke:#000000;stroke-width:0.8;" x="40.03" xlink:href="#mb866102f97" y="186.449455"/>
      </g>
     </g>
     <g id="text_7">
      <!-- 0.00 -->
      <defs>
       <path d="M 10.6875 12.40625 
L 21 12.40625 
L 21 0 
L 10.6875 0 
z
" id="DejaVuSans-46"/>
      </defs>
      <g transform="translate(10.764375 190.248673)scale(0.1 -0.1)">
       <use xlink:href="#DejaVuSans-48"/>
       <use x="63.623047" xlink:href="#DejaVuSans-46"/>
       <use x="95.410156" xlink:href="#DejaVuSans-48"/>
       <use x="159.033203" xlink:href="#DejaVuSans-48"/>
      </g>
     </g>
    </g>
    <g id="ytick_2">
     <g id="line2d_8">
      <g>
       <use style="stroke:#000000;stroke-width:0.8;" x="40.03" xlink:href="#mb866102f97" y="143.44821"/>
      </g>
     </g>
     <g id="text_8">
      <!-- 0.05 -->
      <defs>
       <path d="M 10.796875 72.90625 
L 49.515625 72.90625 
L 49.515625 64.59375 
L 19.828125 64.59375 
L 19.828125 46.734375 
Q 21.96875 47.46875 24.109375 47.828125 
Q 26.265625 48.1875 28.421875 48.1875 
Q 40.625 48.1875 47.75 41.5 
Q 54.890625 34.8125 54.890625 23.390625 
Q 54.890625 11.625 47.5625 5.09375 
Q 40.234375 -1.421875 26.90625 -1.421875 
Q 22.3125 -1.421875 17.546875 -0.640625 
Q 12.796875 0.140625 7.71875 1.703125 
L 7.71875 11.625 
Q 12.109375 9.234375 16.796875 8.0625 
Q 21.484375 6.890625 26.703125 6.890625 
Q 35.15625 6.890625 40.078125 11.328125 
Q 45.015625 15.765625 45.015625 23.390625 
Q 45.015625 31 40.078125 35.4375 
Q 35.15625 39.890625 26.703125 39.890625 
Q 22.75 39.890625 18.8125 39.015625 
Q 14.890625 38.140625 10.796875 36.28125 
z
" id="DejaVuSans-53"/>
      </defs>
      <g transform="translate(10.764375 147.247429)scale(0.1 -0.1)">
       <use xlink:href="#DejaVuSans-48"/>
       <use x="63.623047" xlink:href="#DejaVuSans-46"/>
       <use x="95.410156" xlink:href="#DejaVuSans-48"/>
       <use x="159.033203" xlink:href="#DejaVuSans-53"/>
      </g>
     </g>
    </g>
    <g id="ytick_3">
     <g id="line2d_9">
      <g>
       <use style="stroke:#000000;stroke-width:0.8;" x="40.03" xlink:href="#mb866102f97" y="100.446966"/>
      </g>
     </g>
     <g id="text_9">
      <!-- 0.10 -->
      <g transform="translate(10.764375 104.246185)scale(0.1 -0.1)">
       <use xlink:href="#DejaVuSans-48"/>
       <use x="63.623047" xlink:href="#DejaVuSans-46"/>
       <use x="95.410156" xlink:href="#DejaVuSans-49"/>
       <use x="159.033203" xlink:href="#DejaVuSans-48"/>
      </g>
     </g>
    </g>
    <g id="ytick_4">
     <g id="line2d_10">
      <g>
       <use style="stroke:#000000;stroke-width:0.8;" x="40.03" xlink:href="#mb866102f97" y="57.445722"/>
      </g>
     </g>
     <g id="text_10">
      <!-- 0.15 -->
      <g transform="translate(10.764375 61.244941)scale(0.1 -0.1)">
       <use xlink:href="#DejaVuSans-48"/>
       <use x="63.623047" xlink:href="#DejaVuSans-46"/>
       <use x="95.410156" xlink:href="#DejaVuSans-49"/>
       <use x="159.033203" xlink:href="#DejaVuSans-53"/>
      </g>
     </g>
    </g>
   </g>
   <g id="line2d_11">
    <path clip-path="url(#p2a1d113a16)" d="M 57.178539 182.09185 
L 60.64289 186.449455 
L 64.107242 186.449455 
L 67.571593 186.449455 
L 71.035944 186.449455 
L 74.500295 186.449455 
L 77.964647 186.449455 
L 81.428998 186.449455 
L 84.893349 186.449455 
L 88.357701 186.449455 
L 91.822052 186.449455 
L 95.286403 186.449455 
L 98.750755 169.201767 
L 102.215106 186.449455 
L 105.679457 186.449455 
L 109.143809 186.449455 
L 112.60816 186.449455 
L 116.072511 186.449455 
L 119.536862 186.449455 
L 123.001214 82.477548 
L 126.465565 186.449455 
L 129.929916 186.449455 
L 133.394268 186.449455 
L 136.858619 186.449455 
L 140.32297 186.449455 
L 143.787322 186.449455 
L 147.251673 186.449455 
L 150.716024 186.449455 
L 154.180376 186.449455 
L 157.644727 186.449455 
L 161.109078 186.449455 
L 164.573429 186.449455 
L 168.037781 175.585954 
L 171.502132 186.449455 
L 174.966483 186.449455 
L 178.430835 186.449455 
L 181.895186 186.449455 
L 185.359537 45.038545 
L 188.823889 186.449455 
L 192.28824 186.449455 
L 195.752591 109.433405 
L 199.216942 186.449455 
L 202.681294 169.738778 
L 206.145645 110.815223 
L 209.609996 186.449455 
L 213.074348 186.449455 
L 216.538699 186.449455 
L 220.00305 122.172906 
L 223.467402 103.806445 
L 226.931753 140.821856 
L 230.396104 186.449455 
L 233.860456 186.449455 
L 237.324807 186.449455 
L 240.789158 186.449455 
L 244.253509 186.449455 
L 247.717861 186.449455 
L 251.182212 186.449455 
L 254.646563 186.449455 
L 258.110915 186.449455 
L 261.575266 186.449455 
L 265.039617 186.449455 
L 268.503969 186.449455 
L 271.96832 186.449455 
L 275.432671 186.449455 
L 278.897022 186.449455 
L 282.361374 186.449455 
L 285.825725 186.449455 
L 289.290076 186.449455 
L 292.754428 186.449455 
L 296.218779 186.449455 
L 299.68313 186.449455 
L 303.147482 186.449455 
L 306.611833 186.449455 
L 310.076184 186.449455 
L 313.540536 186.449455 
L 317.004887 175.234966 
L 320.469238 186.449455 
L 323.933589 96.560804 
L 327.397941 186.449455 
L 330.862292 186.449455 
L 334.326643 186.449455 
L 337.790995 186.449455 
L 341.255346 186.449455 
L 344.719697 159.639532 
L 348.184049 186.449455 
L 351.6484 186.449455 
L 355.112751 186.449455 
L 358.577103 94.097357 
L 362.041454 186.449455 
L 365.505805 186.449455 
L 368.970156 186.449455 
L 372.434508 186.449455 
L 375.898859 186.449455 
L 379.36321 186.449455 
L 382.827562 186.449455 
L 386.291913 186.449455 
L 389.756264 186.449455 
L 393.220616 186.449455 
L 396.684967 186.449455 
L 400.149318 186.449455 
" style="fill:none;stroke:#008000;stroke-linecap:square;stroke-width:1.5;"/>
   </g>
   <g id="patch_3">
    <path d="M 40.03 193.52 
L 40.03 37.968 
" style="fill:none;stroke:#000000;stroke-linecap:square;stroke-linejoin:miter;stroke-width:0.8;"/>
   </g>
   <g id="patch_4">
    <path d="M 417.297857 193.52 
L 417.297857 37.968 
" style="fill:none;stroke:#000000;stroke-linecap:square;stroke-linejoin:miter;stroke-width:0.8;"/>
   </g>
   <g id="patch_5">
    <path d="M 40.03 193.52 
L 417.297857 193.52 
" style="fill:none;stroke:#000000;stroke-linecap:square;stroke-linejoin:miter;stroke-width:0.8;"/>
   </g>
   <g id="patch_6">
    <path d="M 40.03 37.968 
L 417.297857 37.968 
" style="fill:none;stroke:#000000;stroke-linecap:square;stroke-linejoin:miter;stroke-width:0.8;"/>
   </g>
   <g id="text_11">
    <!-- Estimated input signal(Normalized) 1  -->
    <defs>
     <path d="M 9.8125 72.90625 
L 55.90625 72.90625 
L 55.90625 64.59375 
L 19.671875 64.59375 
L 19.671875 43.015625 
L 54.390625 43.015625 
L 54.390625 34.71875 
L 19.671875 34.71875 
L 19.671875 8.296875 
L 56.78125 8.296875 
L 56.78125 0 
L 9.8125 0 
z
" id="DejaVuSans-69"/>
     <path d="M 44.28125 53.078125 
L 44.28125 44.578125 
Q 40.484375 46.53125 36.375 47.5 
Q 32.28125 48.484375 27.875 48.484375 
Q 21.1875 48.484375 17.84375 46.4375 
Q 14.5 44.390625 14.5 40.28125 
Q 14.5 37.15625 16.890625 35.375 
Q 19.28125 33.59375 26.515625 31.984375 
L 29.59375 31.296875 
Q 39.15625 29.25 43.1875 25.515625 
Q 47.21875 21.78125 47.21875 15.09375 
Q 47.21875 7.46875 41.1875 3.015625 
Q 35.15625 -1.421875 24.609375 -1.421875 
Q 20.21875 -1.421875 15.453125 -0.5625 
Q 10.6875 0.296875 5.421875 2 
L 5.421875 11.28125 
Q 10.40625 8.6875 15.234375 7.390625 
Q 20.0625 6.109375 24.8125 6.109375 
Q 31.15625 6.109375 34.5625 8.28125 
Q 37.984375 10.453125 37.984375 14.40625 
Q 37.984375 18.0625 35.515625 20.015625 
Q 33.0625 21.96875 24.703125 23.78125 
L 21.578125 24.515625 
Q 13.234375 26.265625 9.515625 29.90625 
Q 5.8125 33.546875 5.8125 39.890625 
Q 5.8125 47.609375 11.28125 51.796875 
Q 16.75 56 26.8125 56 
Q 31.78125 56 36.171875 55.265625 
Q 40.578125 54.546875 44.28125 53.078125 
z
" id="DejaVuSans-115"/>
     <path d="M 18.3125 70.21875 
L 18.3125 54.6875 
L 36.8125 54.6875 
L 36.8125 47.703125 
L 18.3125 47.703125 
L 18.3125 18.015625 
Q 18.3125 11.328125 20.140625 9.421875 
Q 21.96875 7.515625 27.59375 7.515625 
L 36.8125 7.515625 
L 36.8125 0 
L 27.59375 0 
Q 17.1875 0 13.234375 3.875 
Q 9.28125 7.765625 9.28125 18.015625 
L 9.28125 47.703125 
L 2.6875 47.703125 
L 2.6875 54.6875 
L 9.28125 54.6875 
L 9.28125 70.21875 
z
" id="DejaVuSans-116"/>
     <path d="M 9.421875 54.6875 
L 18.40625 54.6875 
L 18.40625 0 
L 9.421875 0 
z
M 9.421875 75.984375 
L 18.40625 75.984375 
L 18.40625 64.59375 
L 9.421875 64.59375 
z
" id="DejaVuSans-105"/>
     <path d="M 52 44.1875 
Q 55.375 50.25 60.0625 53.125 
Q 64.75 56 71.09375 56 
Q 79.640625 56 84.28125 50.015625 
Q 88.921875 44.046875 88.921875 33.015625 
L 88.921875 0 
L 79.890625 0 
L 79.890625 32.71875 
Q 79.890625 40.578125 77.09375 44.375 
Q 74.3125 48.1875 68.609375 48.1875 
Q 61.625 48.1875 57.5625 43.546875 
Q 53.515625 38.921875 53.515625 30.90625 
L 53.515625 0 
L 44.484375 0 
L 44.484375 32.71875 
Q 44.484375 40.625 41.703125 44.40625 
Q 38.921875 48.1875 33.109375 48.1875 
Q 26.21875 48.1875 22.15625 43.53125 
Q 18.109375 38.875 18.109375 30.90625 
L 18.109375 0 
L 9.078125 0 
L 9.078125 54.6875 
L 18.109375 54.6875 
L 18.109375 46.1875 
Q 21.1875 51.21875 25.484375 53.609375 
Q 29.78125 56 35.6875 56 
Q 41.65625 56 45.828125 52.96875 
Q 50 49.953125 52 44.1875 
z
" id="DejaVuSans-109"/>
     <path d="M 34.28125 27.484375 
Q 23.390625 27.484375 19.1875 25 
Q 14.984375 22.515625 14.984375 16.5 
Q 14.984375 11.71875 18.140625 8.90625 
Q 21.296875 6.109375 26.703125 6.109375 
Q 34.1875 6.109375 38.703125 11.40625 
Q 43.21875 16.703125 43.21875 25.484375 
L 43.21875 27.484375 
z
M 52.203125 31.203125 
L 52.203125 0 
L 43.21875 0 
L 43.21875 8.296875 
Q 40.140625 3.328125 35.546875 0.953125 
Q 30.953125 -1.421875 24.3125 -1.421875 
Q 15.921875 -1.421875 10.953125 3.296875 
Q 6 8.015625 6 15.921875 
Q 6 25.140625 12.171875 29.828125 
Q 18.359375 34.515625 30.609375 34.515625 
L 43.21875 34.515625 
L 43.21875 35.40625 
Q 43.21875 41.609375 39.140625 45 
Q 35.0625 48.390625 27.6875 48.390625 
Q 23 48.390625 18.546875 47.265625 
Q 14.109375 46.140625 10.015625 43.890625 
L 10.015625 52.203125 
Q 14.9375 54.109375 19.578125 55.046875 
Q 24.21875 56 28.609375 56 
Q 40.484375 56 46.34375 49.84375 
Q 52.203125 43.703125 52.203125 31.203125 
z
" id="DejaVuSans-97"/>
     <path d="M 56.203125 29.59375 
L 56.203125 25.203125 
L 14.890625 25.203125 
Q 15.484375 15.921875 20.484375 11.0625 
Q 25.484375 6.203125 34.421875 6.203125 
Q 39.59375 6.203125 44.453125 7.46875 
Q 49.3125 8.734375 54.109375 11.28125 
L 54.109375 2.78125 
Q 49.265625 0.734375 44.1875 -0.34375 
Q 39.109375 -1.421875 33.890625 -1.421875 
Q 20.796875 -1.421875 13.15625 6.1875 
Q 5.515625 13.8125 5.515625 26.8125 
Q 5.515625 40.234375 12.765625 48.109375 
Q 20.015625 56 32.328125 56 
Q 43.359375 56 49.78125 48.890625 
Q 56.203125 41.796875 56.203125 29.59375 
z
M 47.21875 32.234375 
Q 47.125 39.59375 43.09375 43.984375 
Q 39.0625 48.390625 32.421875 48.390625 
Q 24.90625 48.390625 20.390625 44.140625 
Q 15.875 39.890625 15.1875 32.171875 
z
" id="DejaVuSans-101"/>
     <path d="M 45.40625 46.390625 
L 45.40625 75.984375 
L 54.390625 75.984375 
L 54.390625 0 
L 45.40625 0 
L 45.40625 8.203125 
Q 42.578125 3.328125 38.25 0.953125 
Q 33.9375 -1.421875 27.875 -1.421875 
Q 17.96875 -1.421875 11.734375 6.484375 
Q 5.515625 14.40625 5.515625 27.296875 
Q 5.515625 40.1875 11.734375 48.09375 
Q 17.96875 56 27.875 56 
Q 33.9375 56 38.25 53.625 
Q 42.578125 51.265625 45.40625 46.390625 
z
M 14.796875 27.296875 
Q 14.796875 17.390625 18.875 11.75 
Q 22.953125 6.109375 30.078125 6.109375 
Q 37.203125 6.109375 41.296875 11.75 
Q 45.40625 17.390625 45.40625 27.296875 
Q 45.40625 37.203125 41.296875 42.84375 
Q 37.203125 48.484375 30.078125 48.484375 
Q 22.953125 48.484375 18.875 42.84375 
Q 14.796875 37.203125 14.796875 27.296875 
z
" id="DejaVuSans-100"/>
     <path id="DejaVuSans-32"/>
     <path d="M 54.890625 33.015625 
L 54.890625 0 
L 45.90625 0 
L 45.90625 32.71875 
Q 45.90625 40.484375 42.875 44.328125 
Q 39.84375 48.1875 33.796875 48.1875 
Q 26.515625 48.1875 22.3125 43.546875 
Q 18.109375 38.921875 18.109375 30.90625 
L 18.109375 0 
L 9.078125 0 
L 9.078125 54.6875 
L 18.109375 54.6875 
L 18.109375 46.1875 
Q 21.34375 51.125 25.703125 53.5625 
Q 30.078125 56 35.796875 56 
Q 45.21875 56 50.046875 50.171875 
Q 54.890625 44.34375 54.890625 33.015625 
z
" id="DejaVuSans-110"/>
     <path d="M 18.109375 8.203125 
L 18.109375 -20.796875 
L 9.078125 -20.796875 
L 9.078125 54.6875 
L 18.109375 54.6875 
L 18.109375 46.390625 
Q 20.953125 51.265625 25.265625 53.625 
Q 29.59375 56 35.59375 56 
Q 45.5625 56 51.78125 48.09375 
Q 58.015625 40.1875 58.015625 27.296875 
Q 58.015625 14.40625 51.78125 6.484375 
Q 45.5625 -1.421875 35.59375 -1.421875 
Q 29.59375 -1.421875 25.265625 0.953125 
Q 20.953125 3.328125 18.109375 8.203125 
z
M 48.6875 27.296875 
Q 48.6875 37.203125 44.609375 42.84375 
Q 40.53125 48.484375 33.40625 48.484375 
Q 26.265625 48.484375 22.1875 42.84375 
Q 18.109375 37.203125 18.109375 27.296875 
Q 18.109375 17.390625 22.1875 11.75 
Q 26.265625 6.109375 33.40625 6.109375 
Q 40.53125 6.109375 44.609375 11.75 
Q 48.6875 17.390625 48.6875 27.296875 
z
" id="DejaVuSans-112"/>
     <path d="M 8.5 21.578125 
L 8.5 54.6875 
L 17.484375 54.6875 
L 17.484375 21.921875 
Q 17.484375 14.15625 20.5 10.265625 
Q 23.53125 6.390625 29.59375 6.390625 
Q 36.859375 6.390625 41.078125 11.03125 
Q 45.3125 15.671875 45.3125 23.6875 
L 45.3125 54.6875 
L 54.296875 54.6875 
L 54.296875 0 
L 45.3125 0 
L 45.3125 8.40625 
Q 42.046875 3.421875 37.71875 1 
Q 33.40625 -1.421875 27.6875 -1.421875 
Q 18.265625 -1.421875 13.375 4.4375 
Q 8.5 10.296875 8.5 21.578125 
z
M 31.109375 56 
z
" id="DejaVuSans-117"/>
     <path d="M 45.40625 27.984375 
Q 45.40625 37.75 41.375 43.109375 
Q 37.359375 48.484375 30.078125 48.484375 
Q 22.859375 48.484375 18.828125 43.109375 
Q 14.796875 37.75 14.796875 27.984375 
Q 14.796875 18.265625 18.828125 12.890625 
Q 22.859375 7.515625 30.078125 7.515625 
Q 37.359375 7.515625 41.375 12.890625 
Q 45.40625 18.265625 45.40625 27.984375 
z
M 54.390625 6.78125 
Q 54.390625 -7.171875 48.1875 -13.984375 
Q 42 -20.796875 29.203125 -20.796875 
Q 24.46875 -20.796875 20.265625 -20.09375 
Q 16.0625 -19.390625 12.109375 -17.921875 
L 12.109375 -9.1875 
Q 16.0625 -11.328125 19.921875 -12.34375 
Q 23.78125 -13.375 27.78125 -13.375 
Q 36.625 -13.375 41.015625 -8.765625 
Q 45.40625 -4.15625 45.40625 5.171875 
L 45.40625 9.625 
Q 42.625 4.78125 38.28125 2.390625 
Q 33.9375 0 27.875 0 
Q 17.828125 0 11.671875 7.65625 
Q 5.515625 15.328125 5.515625 27.984375 
Q 5.515625 40.671875 11.671875 48.328125 
Q 17.828125 56 27.875 56 
Q 33.9375 56 38.28125 53.609375 
Q 42.625 51.21875 45.40625 46.390625 
L 45.40625 54.6875 
L 54.390625 54.6875 
z
" id="DejaVuSans-103"/>
     <path d="M 9.421875 75.984375 
L 18.40625 75.984375 
L 18.40625 0 
L 9.421875 0 
z
" id="DejaVuSans-108"/>
     <path d="M 31 75.875 
Q 24.46875 64.65625 21.28125 53.65625 
Q 18.109375 42.671875 18.109375 31.390625 
Q 18.109375 20.125 21.3125 9.0625 
Q 24.515625 -2 31 -13.1875 
L 23.1875 -13.1875 
Q 15.875 -1.703125 12.234375 9.375 
Q 8.59375 20.453125 8.59375 31.390625 
Q 8.59375 42.28125 12.203125 53.3125 
Q 15.828125 64.359375 23.1875 75.875 
z
" id="DejaVuSans-40"/>
     <path d="M 9.8125 72.90625 
L 23.09375 72.90625 
L 55.421875 11.921875 
L 55.421875 72.90625 
L 64.984375 72.90625 
L 64.984375 0 
L 51.703125 0 
L 19.390625 60.984375 
L 19.390625 0 
L 9.8125 0 
z
" id="DejaVuSans-78"/>
     <path d="M 30.609375 48.390625 
Q 23.390625 48.390625 19.1875 42.75 
Q 14.984375 37.109375 14.984375 27.296875 
Q 14.984375 17.484375 19.15625 11.84375 
Q 23.34375 6.203125 30.609375 6.203125 
Q 37.796875 6.203125 41.984375 11.859375 
Q 46.1875 17.53125 46.1875 27.296875 
Q 46.1875 37.015625 41.984375 42.703125 
Q 37.796875 48.390625 30.609375 48.390625 
z
M 30.609375 56 
Q 42.328125 56 49.015625 48.375 
Q 55.71875 40.765625 55.71875 27.296875 
Q 55.71875 13.875 49.015625 6.21875 
Q 42.328125 -1.421875 30.609375 -1.421875 
Q 18.84375 -1.421875 12.171875 6.21875 
Q 5.515625 13.875 5.515625 27.296875 
Q 5.515625 40.765625 12.171875 48.375 
Q 18.84375 56 30.609375 56 
z
" id="DejaVuSans-111"/>
     <path d="M 41.109375 46.296875 
Q 39.59375 47.171875 37.8125 47.578125 
Q 36.03125 48 33.890625 48 
Q 26.265625 48 22.1875 43.046875 
Q 18.109375 38.09375 18.109375 28.8125 
L 18.109375 0 
L 9.078125 0 
L 9.078125 54.6875 
L 18.109375 54.6875 
L 18.109375 46.1875 
Q 20.953125 51.171875 25.484375 53.578125 
Q 30.03125 56 36.53125 56 
Q 37.453125 56 38.578125 55.875 
Q 39.703125 55.765625 41.0625 55.515625 
z
" id="DejaVuSans-114"/>
     <path d="M 5.515625 54.6875 
L 48.1875 54.6875 
L 48.1875 46.484375 
L 14.40625 7.171875 
L 48.1875 7.171875 
L 48.1875 0 
L 4.296875 0 
L 4.296875 8.203125 
L 38.09375 47.515625 
L 5.515625 47.515625 
z
" id="DejaVuSans-122"/>
     <path d="M 8.015625 75.875 
L 15.828125 75.875 
Q 23.140625 64.359375 26.78125 53.3125 
Q 30.421875 42.28125 30.421875 31.390625 
Q 30.421875 20.453125 26.78125 9.375 
Q 23.140625 -1.703125 15.828125 -13.1875 
L 8.015625 -13.1875 
Q 14.5 -2 17.703125 9.0625 
Q 20.90625 20.125 20.90625 31.390625 
Q 20.90625 42.671875 17.703125 53.65625 
Q 14.5 64.65625 8.015625 75.875 
z
" id="DejaVuSans-41"/>
    </defs>
    <g transform="translate(114.915179 18.530625)scale(0.12 -0.12)">
     <use xlink:href="#DejaVuSans-69"/>
     <use x="63.183594" xlink:href="#DejaVuSans-115"/>
     <use x="115.283203" xlink:href="#DejaVuSans-116"/>
     <use x="154.492188" xlink:href="#DejaVuSans-105"/>
     <use x="182.275391" xlink:href="#DejaVuSans-109"/>
     <use x="279.6875" xlink:href="#DejaVuSans-97"/>
     <use x="340.966797" xlink:href="#DejaVuSans-116"/>
     <use x="380.175781" xlink:href="#DejaVuSans-101"/>
     <use x="441.699219" xlink:href="#DejaVuSans-100"/>
     <use x="505.175781" xlink:href="#DejaVuSans-32"/>
     <use x="536.962891" xlink:href="#DejaVuSans-105"/>
     <use x="564.746094" xlink:href="#DejaVuSans-110"/>
     <use x="628.125" xlink:href="#DejaVuSans-112"/>
     <use x="691.601562" xlink:href="#DejaVuSans-117"/>
     <use x="754.980469" xlink:href="#DejaVuSans-116"/>
     <use x="794.189453" xlink:href="#DejaVuSans-32"/>
     <use x="825.976562" xlink:href="#DejaVuSans-115"/>
     <use x="878.076172" xlink:href="#DejaVuSans-105"/>
     <use x="905.859375" xlink:href="#DejaVuSans-103"/>
     <use x="969.335938" xlink:href="#DejaVuSans-110"/>
     <use x="1032.714844" xlink:href="#DejaVuSans-97"/>
     <use x="1093.994141" xlink:href="#DejaVuSans-108"/>
     <use x="1121.777344" xlink:href="#DejaVuSans-40"/>
     <use x="1160.791016" xlink:href="#DejaVuSans-78"/>
     <use x="1235.595703" xlink:href="#DejaVuSans-111"/>
     <use x="1296.777344" xlink:href="#DejaVuSans-114"/>
     <use x="1337.875" xlink:href="#DejaVuSans-109"/>
     <use x="1435.287109" xlink:href="#DejaVuSans-97"/>
     <use x="1496.566406" xlink:href="#DejaVuSans-108"/>
     <use x="1524.349609" xlink:href="#DejaVuSans-105"/>
     <use x="1552.132812" xlink:href="#DejaVuSans-122"/>
     <use x="1604.623047" xlink:href="#DejaVuSans-101"/>
     <use x="1666.146484" xlink:href="#DejaVuSans-100"/>
     <use x="1729.623047" xlink:href="#DejaVuSans-41"/>
     <use x="1768.636719" xlink:href="#DejaVuSans-32"/>
     <use x="1800.423828" xlink:href="#DejaVuSans-49"/>
     <use x="1864.046875" xlink:href="#DejaVuSans-32"/>
    </g>
    <!--  Error rate: 2.313170770027676e-14 -->
    <defs>
     <path d="M 11.71875 12.40625 
L 22.015625 12.40625 
L 22.015625 0 
L 11.71875 0 
z
M 11.71875 51.703125 
L 22.015625 51.703125 
L 22.015625 39.3125 
L 11.71875 39.3125 
z
" id="DejaVuSans-58"/>
     <path d="M 40.578125 39.3125 
Q 47.65625 37.796875 51.625 33 
Q 55.609375 28.21875 55.609375 21.1875 
Q 55.609375 10.40625 48.1875 4.484375 
Q 40.765625 -1.421875 27.09375 -1.421875 
Q 22.515625 -1.421875 17.65625 -0.515625 
Q 12.796875 0.390625 7.625 2.203125 
L 7.625 11.71875 
Q 11.71875 9.328125 16.59375 8.109375 
Q 21.484375 6.890625 26.8125 6.890625 
Q 36.078125 6.890625 40.9375 10.546875 
Q 45.796875 14.203125 45.796875 21.1875 
Q 45.796875 27.640625 41.28125 31.265625 
Q 36.765625 34.90625 28.71875 34.90625 
L 20.21875 34.90625 
L 20.21875 43.015625 
L 29.109375 43.015625 
Q 36.375 43.015625 40.234375 45.921875 
Q 44.09375 48.828125 44.09375 54.296875 
Q 44.09375 59.90625 40.109375 62.90625 
Q 36.140625 65.921875 28.71875 65.921875 
Q 24.65625 65.921875 20.015625 65.03125 
Q 15.375 64.15625 9.8125 62.3125 
L 9.8125 71.09375 
Q 15.4375 72.65625 20.34375 73.4375 
Q 25.25 74.21875 29.59375 74.21875 
Q 40.828125 74.21875 47.359375 69.109375 
Q 53.90625 64.015625 53.90625 55.328125 
Q 53.90625 49.265625 50.4375 45.09375 
Q 46.96875 40.921875 40.578125 39.3125 
z
" id="DejaVuSans-51"/>
     <path d="M 8.203125 72.90625 
L 55.078125 72.90625 
L 55.078125 68.703125 
L 28.609375 0 
L 18.3125 0 
L 43.21875 64.59375 
L 8.203125 64.59375 
z
" id="DejaVuSans-55"/>
     <path d="M 4.890625 31.390625 
L 31.203125 31.390625 
L 31.203125 23.390625 
L 4.890625 23.390625 
z
" id="DejaVuSans-45"/>
    </defs>
    <g transform="translate(117.396741 31.968)scale(0.12 -0.12)">
     <use xlink:href="#DejaVuSans-32"/>
     <use x="31.787109" xlink:href="#DejaVuSans-69"/>
     <use x="94.970703" xlink:href="#DejaVuSans-114"/>
     <use x="136.068359" xlink:href="#DejaVuSans-114"/>
     <use x="177.150391" xlink:href="#DejaVuSans-111"/>
     <use x="238.332031" xlink:href="#DejaVuSans-114"/>
     <use x="279.445312" xlink:href="#DejaVuSans-32"/>
     <use x="311.232422" xlink:href="#DejaVuSans-114"/>
     <use x="352.345703" xlink:href="#DejaVuSans-97"/>
     <use x="413.625" xlink:href="#DejaVuSans-116"/>
     <use x="452.833984" xlink:href="#DejaVuSans-101"/>
     <use x="514.357422" xlink:href="#DejaVuSans-58"/>
     <use x="548.048828" xlink:href="#DejaVuSans-32"/>
     <use x="579.835938" xlink:href="#DejaVuSans-50"/>
     <use x="643.458984" xlink:href="#DejaVuSans-46"/>
     <use x="675.246094" xlink:href="#DejaVuSans-51"/>
     <use x="738.869141" xlink:href="#DejaVuSans-49"/>
     <use x="802.492188" xlink:href="#DejaVuSans-51"/>
     <use x="866.115234" xlink:href="#DejaVuSans-49"/>
     <use x="929.738281" xlink:href="#DejaVuSans-55"/>
     <use x="993.361328" xlink:href="#DejaVuSans-48"/>
     <use x="1056.984375" xlink:href="#DejaVuSans-55"/>
     <use x="1120.607422" xlink:href="#DejaVuSans-55"/>
     <use x="1184.230469" xlink:href="#DejaVuSans-48"/>
     <use x="1247.853516" xlink:href="#DejaVuSans-48"/>
     <use x="1311.476562" xlink:href="#DejaVuSans-50"/>
     <use x="1375.099609" xlink:href="#DejaVuSans-55"/>
     <use x="1438.722656" xlink:href="#DejaVuSans-54"/>
     <use x="1502.345703" xlink:href="#DejaVuSans-55"/>
     <use x="1565.96875" xlink:href="#DejaVuSans-54"/>
     <use x="1629.591797" xlink:href="#DejaVuSans-101"/>
     <use x="1691.115234" xlink:href="#DejaVuSans-45"/>
     <use x="1727.199219" xlink:href="#DejaVuSans-49"/>
     <use x="1790.822266" xlink:href="#DejaVuSans-52"/>
    </g>
   </g>
  </g>
  <g id="axes_2">
   <g id="patch_7">
    <path d="M 467.215 193.52 
L 844.482857 193.52 
L 844.482857 37.968 
L 467.215 37.968 
z
" style="fill:#ffffff;"/>
   </g>
   <g id="matplotlib.axis_3">
    <g id="xtick_7">
     <g id="line2d_12">
      <g>
       <use style="stroke:#000000;stroke-width:0.8;" x="484.363539" xlink:href="#mab3e7cb1dd" y="193.52"/>
      </g>
     </g>
     <g id="text_12">
      <!-- 0 -->
      <g transform="translate(481.182289 208.118437)scale(0.1 -0.1)">
       <use xlink:href="#DejaVuSans-48"/>
      </g>
     </g>
    </g>
    <g id="xtick_8">
     <g id="line2d_13">
      <g>
       <use style="stroke:#000000;stroke-width:0.8;" x="553.650565" xlink:href="#mab3e7cb1dd" y="193.52"/>
      </g>
     </g>
     <g id="text_13">
      <!-- 20 -->
      <g transform="translate(547.288065 208.118437)scale(0.1 -0.1)">
       <use xlink:href="#DejaVuSans-50"/>
       <use x="63.623047" xlink:href="#DejaVuSans-48"/>
      </g>
     </g>
    </g>
    <g id="xtick_9">
     <g id="line2d_14">
      <g>
       <use style="stroke:#000000;stroke-width:0.8;" x="622.937591" xlink:href="#mab3e7cb1dd" y="193.52"/>
      </g>
     </g>
     <g id="text_14">
      <!-- 40 -->
      <g transform="translate(616.575091 208.118437)scale(0.1 -0.1)">
       <use xlink:href="#DejaVuSans-52"/>
       <use x="63.623047" xlink:href="#DejaVuSans-48"/>
      </g>
     </g>
    </g>
    <g id="xtick_10">
     <g id="line2d_15">
      <g>
       <use style="stroke:#000000;stroke-width:0.8;" x="692.224617" xlink:href="#mab3e7cb1dd" y="193.52"/>
      </g>
     </g>
     <g id="text_15">
      <!-- 60 -->
      <g transform="translate(685.862117 208.118437)scale(0.1 -0.1)">
       <use xlink:href="#DejaVuSans-54"/>
       <use x="63.623047" xlink:href="#DejaVuSans-48"/>
      </g>
     </g>
    </g>
    <g id="xtick_11">
     <g id="line2d_16">
      <g>
       <use style="stroke:#000000;stroke-width:0.8;" x="761.511643" xlink:href="#mab3e7cb1dd" y="193.52"/>
      </g>
     </g>
     <g id="text_16">
      <!-- 80 -->
      <g transform="translate(755.149143 208.118437)scale(0.1 -0.1)">
       <use xlink:href="#DejaVuSans-56"/>
       <use x="63.623047" xlink:href="#DejaVuSans-48"/>
      </g>
     </g>
    </g>
    <g id="xtick_12">
     <g id="line2d_17">
      <g>
       <use style="stroke:#000000;stroke-width:0.8;" x="830.798669" xlink:href="#mab3e7cb1dd" y="193.52"/>
      </g>
     </g>
     <g id="text_17">
      <!-- 100 -->
      <g transform="translate(821.254919 208.118437)scale(0.1 -0.1)">
       <use xlink:href="#DejaVuSans-49"/>
       <use x="63.623047" xlink:href="#DejaVuSans-48"/>
       <use x="127.246094" xlink:href="#DejaVuSans-48"/>
      </g>
     </g>
    </g>
   </g>
   <g id="matplotlib.axis_4">
    <g id="ytick_5">
     <g id="line2d_18">
      <g>
       <use style="stroke:#000000;stroke-width:0.8;" x="467.215" xlink:href="#mb866102f97" y="186.449455"/>
      </g>
     </g>
     <g id="text_18">
      <!-- 0.00 -->
      <g transform="translate(437.949375 190.248673)scale(0.1 -0.1)">
       <use xlink:href="#DejaVuSans-48"/>
       <use x="63.623047" xlink:href="#DejaVuSans-46"/>
       <use x="95.410156" xlink:href="#DejaVuSans-48"/>
       <use x="159.033203" xlink:href="#DejaVuSans-48"/>
      </g>
     </g>
    </g>
    <g id="ytick_6">
     <g id="line2d_19">
      <g>
       <use style="stroke:#000000;stroke-width:0.8;" x="467.215" xlink:href="#mb866102f97" y="151.678794"/>
      </g>
     </g>
     <g id="text_19">
      <!-- 0.02 -->
      <g transform="translate(437.949375 155.478013)scale(0.1 -0.1)">
       <use xlink:href="#DejaVuSans-48"/>
       <use x="63.623047" xlink:href="#DejaVuSans-46"/>
       <use x="95.410156" xlink:href="#DejaVuSans-48"/>
       <use x="159.033203" xlink:href="#DejaVuSans-50"/>
      </g>
     </g>
    </g>
    <g id="ytick_7">
     <g id="line2d_20">
      <g>
       <use style="stroke:#000000;stroke-width:0.8;" x="467.215" xlink:href="#mb866102f97" y="116.908134"/>
      </g>
     </g>
     <g id="text_20">
      <!-- 0.04 -->
      <g transform="translate(437.949375 120.707353)scale(0.1 -0.1)">
       <use xlink:href="#DejaVuSans-48"/>
       <use x="63.623047" xlink:href="#DejaVuSans-46"/>
       <use x="95.410156" xlink:href="#DejaVuSans-48"/>
       <use x="159.033203" xlink:href="#DejaVuSans-52"/>
      </g>
     </g>
    </g>
    <g id="ytick_8">
     <g id="line2d_21">
      <g>
       <use style="stroke:#000000;stroke-width:0.8;" x="467.215" xlink:href="#mb866102f97" y="82.137474"/>
      </g>
     </g>
     <g id="text_21">
      <!-- 0.06 -->
      <g transform="translate(437.949375 85.936692)scale(0.1 -0.1)">
       <use xlink:href="#DejaVuSans-48"/>
       <use x="63.623047" xlink:href="#DejaVuSans-46"/>
       <use x="95.410156" xlink:href="#DejaVuSans-48"/>
       <use x="159.033203" xlink:href="#DejaVuSans-54"/>
      </g>
     </g>
    </g>
    <g id="ytick_9">
     <g id="line2d_22">
      <g>
       <use style="stroke:#000000;stroke-width:0.8;" x="467.215" xlink:href="#mb866102f97" y="47.366813"/>
      </g>
     </g>
     <g id="text_22">
      <!-- 0.08 -->
      <g transform="translate(437.949375 51.166032)scale(0.1 -0.1)">
       <use xlink:href="#DejaVuSans-48"/>
       <use x="63.623047" xlink:href="#DejaVuSans-46"/>
       <use x="95.410156" xlink:href="#DejaVuSans-48"/>
       <use x="159.033203" xlink:href="#DejaVuSans-56"/>
      </g>
     </g>
    </g>
   </g>
   <g id="line2d_23">
    <path clip-path="url(#pd0465e87da)" d="M 484.363539 186.449455 
L 487.82789 186.449455 
L 491.292242 186.449455 
L 494.756593 186.449455 
L 498.220944 50.22753 
L 501.685295 186.449455 
L 505.149647 186.449455 
L 508.613998 186.449455 
L 512.078349 175.995916 
L 515.542701 156.49044 
L 519.007052 186.449455 
L 522.471403 186.449455 
L 525.935755 186.449455 
L 529.400106 186.449455 
L 532.864457 45.038545 
L 536.328809 137.38634 
L 539.79316 186.449455 
L 543.257511 186.449455 
L 546.721862 186.449455 
L 550.186214 186.449455 
L 553.650565 186.449455 
L 557.114916 186.449455 
L 560.579268 183.325282 
L 564.043619 186.449455 
L 567.50797 142.923211 
L 570.972322 186.449455 
L 574.436673 186.449455 
L 577.901024 131.706725 
L 581.365376 123.560062 
L 584.829727 186.449455 
L 588.294078 186.449455 
L 591.758429 186.449455 
L 595.222781 186.449455 
L 598.687132 133.450119 
L 602.151483 186.449455 
L 605.615835 186.449455 
L 609.080186 95.415347 
L 612.544537 186.449455 
L 616.008889 186.449455 
L 619.47324 186.449455 
L 622.937591 186.449455 
L 626.401942 186.449455 
L 629.866294 186.449455 
L 633.330645 186.449455 
L 636.794996 186.449455 
L 640.259348 186.449455 
L 643.723699 186.449455 
L 647.18805 186.449455 
L 650.652402 186.449455 
L 654.116753 186.449455 
L 657.581104 186.449455 
L 661.045456 186.449455 
L 664.509807 186.449455 
L 667.974158 186.449455 
L 671.438509 186.449455 
L 674.902861 186.449455 
L 678.367212 186.449455 
L 681.831563 186.449455 
L 685.295915 186.449455 
L 688.760266 186.449455 
L 692.224617 186.449455 
L 695.688969 186.449455 
L 699.15332 172.619054 
L 702.617671 186.449455 
L 706.082022 186.449455 
L 709.546374 186.449455 
L 713.010725 106.993203 
L 716.475076 47.719464 
L 719.939428 186.449455 
L 723.403779 186.449455 
L 726.86813 186.449455 
L 730.332482 73.632087 
L 733.796833 78.359351 
L 737.261184 161.772073 
L 740.725536 186.449455 
L 744.189887 186.449455 
L 747.654238 142.903254 
L 751.118589 186.449455 
L 754.582941 186.449455 
L 758.047292 186.449455 
L 761.511643 186.449455 
L 764.975995 186.449455 
L 768.440346 186.449455 
L 771.904697 186.449455 
L 775.369049 186.449455 
L 778.8334 83.728637 
L 782.297751 186.449455 
L 785.762103 186.449455 
L 789.226454 186.449455 
L 792.690805 186.449455 
L 796.155156 185.580331 
L 799.619508 103.204011 
L 803.083859 101.617579 
L 806.54821 59.927394 
L 810.012562 86.745521 
L 813.476913 186.449455 
L 816.941264 142.381872 
L 820.405616 186.449455 
L 823.869967 186.449455 
L 827.334318 186.449455 
" style="fill:none;stroke:#008000;stroke-linecap:square;stroke-width:1.5;"/>
   </g>
   <g id="patch_8">
    <path d="M 467.215 193.52 
L 467.215 37.968 
" style="fill:none;stroke:#000000;stroke-linecap:square;stroke-linejoin:miter;stroke-width:0.8;"/>
   </g>
   <g id="patch_9">
    <path d="M 844.482857 193.52 
L 844.482857 37.968 
" style="fill:none;stroke:#000000;stroke-linecap:square;stroke-linejoin:miter;stroke-width:0.8;"/>
   </g>
   <g id="patch_10">
    <path d="M 467.215 193.52 
L 844.482857 193.52 
" style="fill:none;stroke:#000000;stroke-linecap:square;stroke-linejoin:miter;stroke-width:0.8;"/>
   </g>
   <g id="patch_11">
    <path d="M 467.215 37.968 
L 844.482857 37.968 
" style="fill:none;stroke:#000000;stroke-linecap:square;stroke-linejoin:miter;stroke-width:0.8;"/>
   </g>
   <g id="text_23">
    <!-- Estimated input signal(Normalized) 2  -->
    <g transform="translate(542.100179 18.530625)scale(0.12 -0.12)">
     <use xlink:href="#DejaVuSans-69"/>
     <use x="63.183594" xlink:href="#DejaVuSans-115"/>
     <use x="115.283203" xlink:href="#DejaVuSans-116"/>
     <use x="154.492188" xlink:href="#DejaVuSans-105"/>
     <use x="182.275391" xlink:href="#DejaVuSans-109"/>
     <use x="279.6875" xlink:href="#DejaVuSans-97"/>
     <use x="340.966797" xlink:href="#DejaVuSans-116"/>
     <use x="380.175781" xlink:href="#DejaVuSans-101"/>
     <use x="441.699219" xlink:href="#DejaVuSans-100"/>
     <use x="505.175781" xlink:href="#DejaVuSans-32"/>
     <use x="536.962891" xlink:href="#DejaVuSans-105"/>
     <use x="564.746094" xlink:href="#DejaVuSans-110"/>
     <use x="628.125" xlink:href="#DejaVuSans-112"/>
     <use x="691.601562" xlink:href="#DejaVuSans-117"/>
     <use x="754.980469" xlink:href="#DejaVuSans-116"/>
     <use x="794.189453" xlink:href="#DejaVuSans-32"/>
     <use x="825.976562" xlink:href="#DejaVuSans-115"/>
     <use x="878.076172" xlink:href="#DejaVuSans-105"/>
     <use x="905.859375" xlink:href="#DejaVuSans-103"/>
     <use x="969.335938" xlink:href="#DejaVuSans-110"/>
     <use x="1032.714844" xlink:href="#DejaVuSans-97"/>
     <use x="1093.994141" xlink:href="#DejaVuSans-108"/>
     <use x="1121.777344" xlink:href="#DejaVuSans-40"/>
     <use x="1160.791016" xlink:href="#DejaVuSans-78"/>
     <use x="1235.595703" xlink:href="#DejaVuSans-111"/>
     <use x="1296.777344" xlink:href="#DejaVuSans-114"/>
     <use x="1337.875" xlink:href="#DejaVuSans-109"/>
     <use x="1435.287109" xlink:href="#DejaVuSans-97"/>
     <use x="1496.566406" xlink:href="#DejaVuSans-108"/>
     <use x="1524.349609" xlink:href="#DejaVuSans-105"/>
     <use x="1552.132812" xlink:href="#DejaVuSans-122"/>
     <use x="1604.623047" xlink:href="#DejaVuSans-101"/>
     <use x="1666.146484" xlink:href="#DejaVuSans-100"/>
     <use x="1729.623047" xlink:href="#DejaVuSans-41"/>
     <use x="1768.636719" xlink:href="#DejaVuSans-32"/>
     <use x="1800.423828" xlink:href="#DejaVuSans-50"/>
     <use x="1864.046875" xlink:href="#DejaVuSans-32"/>
    </g>
    <!--  Error rate: 1.519519206884506e-14 -->
    <defs>
     <path d="M 10.984375 1.515625 
L 10.984375 10.5 
Q 14.703125 8.734375 18.5 7.8125 
Q 22.3125 6.890625 25.984375 6.890625 
Q 35.75 6.890625 40.890625 13.453125 
Q 46.046875 20.015625 46.78125 33.40625 
Q 43.953125 29.203125 39.59375 26.953125 
Q 35.25 24.703125 29.984375 24.703125 
Q 19.046875 24.703125 12.671875 31.3125 
Q 6.296875 37.9375 6.296875 49.421875 
Q 6.296875 60.640625 12.9375 67.421875 
Q 19.578125 74.21875 30.609375 74.21875 
Q 43.265625 74.21875 49.921875 64.515625 
Q 56.59375 54.828125 56.59375 36.375 
Q 56.59375 19.140625 48.40625 8.859375 
Q 40.234375 -1.421875 26.421875 -1.421875 
Q 22.703125 -1.421875 18.890625 -0.6875 
Q 15.09375 0.046875 10.984375 1.515625 
z
M 30.609375 32.421875 
Q 37.25 32.421875 41.125 36.953125 
Q 45.015625 41.5 45.015625 49.421875 
Q 45.015625 57.28125 41.125 61.84375 
Q 37.25 66.40625 30.609375 66.40625 
Q 23.96875 66.40625 20.09375 61.84375 
Q 16.21875 57.28125 16.21875 49.421875 
Q 16.21875 41.5 20.09375 36.953125 
Q 23.96875 32.421875 30.609375 32.421875 
z
" id="DejaVuSans-57"/>
    </defs>
    <g transform="translate(544.581741 31.968)scale(0.12 -0.12)">
     <use xlink:href="#DejaVuSans-32"/>
     <use x="31.787109" xlink:href="#DejaVuSans-69"/>
     <use x="94.970703" xlink:href="#DejaVuSans-114"/>
     <use x="136.068359" xlink:href="#DejaVuSans-114"/>
     <use x="177.150391" xlink:href="#DejaVuSans-111"/>
     <use x="238.332031" xlink:href="#DejaVuSans-114"/>
     <use x="279.445312" xlink:href="#DejaVuSans-32"/>
     <use x="311.232422" xlink:href="#DejaVuSans-114"/>
     <use x="352.345703" xlink:href="#DejaVuSans-97"/>
     <use x="413.625" xlink:href="#DejaVuSans-116"/>
     <use x="452.833984" xlink:href="#DejaVuSans-101"/>
     <use x="514.357422" xlink:href="#DejaVuSans-58"/>
     <use x="548.048828" xlink:href="#DejaVuSans-32"/>
     <use x="579.835938" xlink:href="#DejaVuSans-49"/>
     <use x="643.458984" xlink:href="#DejaVuSans-46"/>
     <use x="675.246094" xlink:href="#DejaVuSans-53"/>
     <use x="738.869141" xlink:href="#DejaVuSans-49"/>
     <use x="802.492188" xlink:href="#DejaVuSans-57"/>
     <use x="866.115234" xlink:href="#DejaVuSans-53"/>
     <use x="929.738281" xlink:href="#DejaVuSans-49"/>
     <use x="993.361328" xlink:href="#DejaVuSans-57"/>
     <use x="1056.984375" xlink:href="#DejaVuSans-50"/>
     <use x="1120.607422" xlink:href="#DejaVuSans-48"/>
     <use x="1184.230469" xlink:href="#DejaVuSans-54"/>
     <use x="1247.853516" xlink:href="#DejaVuSans-56"/>
     <use x="1311.476562" xlink:href="#DejaVuSans-56"/>
     <use x="1375.099609" xlink:href="#DejaVuSans-52"/>
     <use x="1438.722656" xlink:href="#DejaVuSans-53"/>
     <use x="1502.345703" xlink:href="#DejaVuSans-48"/>
     <use x="1565.96875" xlink:href="#DejaVuSans-54"/>
     <use x="1629.591797" xlink:href="#DejaVuSans-101"/>
     <use x="1691.115234" xlink:href="#DejaVuSans-45"/>
     <use x="1727.199219" xlink:href="#DejaVuSans-49"/>
     <use x="1790.822266" xlink:href="#DejaVuSans-52"/>
    </g>
   </g>
  </g>
  <g id="axes_3">
   <g id="patch_12">
    <path d="M 40.03 404.12 
L 274.902857 404.12 
L 274.902857 248.568 
L 40.03 248.568 
z
" style="fill:#ffffff;"/>
   </g>
   <g id="matplotlib.axis_5">
    <g id="xtick_13">
     <g id="line2d_24">
      <g>
       <use style="stroke:#000000;stroke-width:0.8;" x="50.706039" xlink:href="#mab3e7cb1dd" y="404.12"/>
      </g>
     </g>
     <g id="text_24">
      <!-- 0 -->
      <g transform="translate(47.524789 418.718438)scale(0.1 -0.1)">
       <use xlink:href="#DejaVuSans-48"/>
      </g>
     </g>
    </g>
    <g id="xtick_14">
     <g id="line2d_25">
      <g>
       <use style="stroke:#000000;stroke-width:0.8;" x="93.84155" xlink:href="#mab3e7cb1dd" y="404.12"/>
      </g>
     </g>
     <g id="text_25">
      <!-- 20 -->
      <g transform="translate(87.47905 418.718438)scale(0.1 -0.1)">
       <use xlink:href="#DejaVuSans-50"/>
       <use x="63.623047" xlink:href="#DejaVuSans-48"/>
      </g>
     </g>
    </g>
    <g id="xtick_15">
     <g id="line2d_26">
      <g>
       <use style="stroke:#000000;stroke-width:0.8;" x="136.977061" xlink:href="#mab3e7cb1dd" y="404.12"/>
      </g>
     </g>
     <g id="text_26">
      <!-- 40 -->
      <g transform="translate(130.614561 418.718438)scale(0.1 -0.1)">
       <use xlink:href="#DejaVuSans-52"/>
       <use x="63.623047" xlink:href="#DejaVuSans-48"/>
      </g>
     </g>
    </g>
    <g id="xtick_16">
     <g id="line2d_27">
      <g>
       <use style="stroke:#000000;stroke-width:0.8;" x="180.112572" xlink:href="#mab3e7cb1dd" y="404.12"/>
      </g>
     </g>
     <g id="text_27">
      <!-- 60 -->
      <g transform="translate(173.750072 418.718438)scale(0.1 -0.1)">
       <use xlink:href="#DejaVuSans-54"/>
       <use x="63.623047" xlink:href="#DejaVuSans-48"/>
      </g>
     </g>
    </g>
    <g id="xtick_17">
     <g id="line2d_28">
      <g>
       <use style="stroke:#000000;stroke-width:0.8;" x="223.248083" xlink:href="#mab3e7cb1dd" y="404.12"/>
      </g>
     </g>
     <g id="text_28">
      <!-- 80 -->
      <g transform="translate(216.885583 418.718438)scale(0.1 -0.1)">
       <use xlink:href="#DejaVuSans-56"/>
       <use x="63.623047" xlink:href="#DejaVuSans-48"/>
      </g>
     </g>
    </g>
    <g id="xtick_18">
     <g id="line2d_29">
      <g>
       <use style="stroke:#000000;stroke-width:0.8;" x="266.383594" xlink:href="#mab3e7cb1dd" y="404.12"/>
      </g>
     </g>
     <g id="text_29">
      <!-- 100 -->
      <g transform="translate(256.839844 418.718438)scale(0.1 -0.1)">
       <use xlink:href="#DejaVuSans-49"/>
       <use x="63.623047" xlink:href="#DejaVuSans-48"/>
       <use x="127.246094" xlink:href="#DejaVuSans-48"/>
      </g>
     </g>
    </g>
   </g>
   <g id="matplotlib.axis_6">
    <g id="ytick_10">
     <g id="line2d_30">
      <g>
       <use style="stroke:#000000;stroke-width:0.8;" x="40.03" xlink:href="#mb866102f97" y="397.049455"/>
      </g>
     </g>
     <g id="text_30">
      <!-- 0.00 -->
      <g transform="translate(10.764375 400.848673)scale(0.1 -0.1)">
       <use xlink:href="#DejaVuSans-48"/>
       <use x="63.623047" xlink:href="#DejaVuSans-46"/>
       <use x="95.410156" xlink:href="#DejaVuSans-48"/>
       <use x="159.033203" xlink:href="#DejaVuSans-48"/>
      </g>
     </g>
    </g>
    <g id="ytick_11">
     <g id="line2d_31">
      <g>
       <use style="stroke:#000000;stroke-width:0.8;" x="40.03" xlink:href="#mb866102f97" y="369.172613"/>
      </g>
     </g>
     <g id="text_31">
      <!-- 0.02 -->
      <g transform="translate(10.764375 372.971832)scale(0.1 -0.1)">
       <use xlink:href="#DejaVuSans-48"/>
       <use x="63.623047" xlink:href="#DejaVuSans-46"/>
       <use x="95.410156" xlink:href="#DejaVuSans-48"/>
       <use x="159.033203" xlink:href="#DejaVuSans-50"/>
      </g>
     </g>
    </g>
    <g id="ytick_12">
     <g id="line2d_32">
      <g>
       <use style="stroke:#000000;stroke-width:0.8;" x="40.03" xlink:href="#mb866102f97" y="341.295772"/>
      </g>
     </g>
     <g id="text_32">
      <!-- 0.04 -->
      <g transform="translate(10.764375 345.094991)scale(0.1 -0.1)">
       <use xlink:href="#DejaVuSans-48"/>
       <use x="63.623047" xlink:href="#DejaVuSans-46"/>
       <use x="95.410156" xlink:href="#DejaVuSans-48"/>
       <use x="159.033203" xlink:href="#DejaVuSans-52"/>
      </g>
     </g>
    </g>
    <g id="ytick_13">
     <g id="line2d_33">
      <g>
       <use style="stroke:#000000;stroke-width:0.8;" x="40.03" xlink:href="#mb866102f97" y="313.418931"/>
      </g>
     </g>
     <g id="text_33">
      <!-- 0.06 -->
      <g transform="translate(10.764375 317.218149)scale(0.1 -0.1)">
       <use xlink:href="#DejaVuSans-48"/>
       <use x="63.623047" xlink:href="#DejaVuSans-46"/>
       <use x="95.410156" xlink:href="#DejaVuSans-48"/>
       <use x="159.033203" xlink:href="#DejaVuSans-54"/>
      </g>
     </g>
    </g>
    <g id="ytick_14">
     <g id="line2d_34">
      <g>
       <use style="stroke:#000000;stroke-width:0.8;" x="40.03" xlink:href="#mb866102f97" y="285.542089"/>
      </g>
     </g>
     <g id="text_34">
      <!-- 0.08 -->
      <g transform="translate(10.764375 289.341308)scale(0.1 -0.1)">
       <use xlink:href="#DejaVuSans-48"/>
       <use x="63.623047" xlink:href="#DejaVuSans-46"/>
       <use x="95.410156" xlink:href="#DejaVuSans-48"/>
       <use x="159.033203" xlink:href="#DejaVuSans-56"/>
      </g>
     </g>
    </g>
    <g id="ytick_15">
     <g id="line2d_35">
      <g>
       <use style="stroke:#000000;stroke-width:0.8;" x="40.03" xlink:href="#mb866102f97" y="257.665248"/>
      </g>
     </g>
     <g id="text_35">
      <!-- 0.10 -->
      <g transform="translate(10.764375 261.464467)scale(0.1 -0.1)">
       <use xlink:href="#DejaVuSans-48"/>
       <use x="63.623047" xlink:href="#DejaVuSans-46"/>
       <use x="95.410156" xlink:href="#DejaVuSans-49"/>
       <use x="159.033203" xlink:href="#DejaVuSans-48"/>
      </g>
     </g>
    </g>
   </g>
   <g id="line2d_36">
    <path clip-path="url(#pa5ebbb349e)" d="M 50.706039 397.049455 
L 52.862815 308.939738 
L 55.01959 397.049455 
L 57.176366 397.049455 
L 59.333141 397.049455 
L 61.489917 397.049455 
L 63.646692 397.049455 
L 65.803468 397.049455 
L 67.960243 397.049455 
L 70.117019 397.049455 
L 72.273794 397.049455 
L 74.43057 374.555954 
L 76.587346 397.049455 
L 78.744121 397.049455 
L 80.900897 397.049455 
L 83.057672 397.049455 
L 85.214448 397.049455 
L 87.371223 397.049455 
L 89.527999 308.696862 
L 91.684774 397.049455 
L 93.84155 310.585242 
L 95.998325 397.049455 
L 98.155101 397.049455 
L 100.311877 397.049455 
L 102.468652 397.049455 
L 104.625428 397.049455 
L 106.782203 354.936688 
L 108.938979 397.049455 
L 111.095754 397.049455 
L 113.25253 397.049455 
L 115.409305 371.327475 
L 117.566081 269.000046 
L 119.722856 397.049455 
L 121.879632 397.049455 
L 124.036408 397.049455 
L 126.193183 397.049455 
L 128.349959 397.049455 
L 130.506734 397.049455 
L 132.66351 397.049455 
L 134.820285 397.049455 
L 136.977061 397.049455 
L 139.133836 397.049455 
L 141.290612 397.049455 
L 143.447388 397.049455 
L 145.604163 397.049455 
L 147.760939 397.049455 
L 149.917714 296.682265 
L 152.07449 397.049455 
L 154.231265 397.049455 
L 156.388041 397.049455 
L 158.544816 392.726492 
L 160.701592 255.638545 
L 162.858367 397.049455 
L 165.015143 397.049455 
L 167.171919 397.049455 
L 169.328694 397.049455 
L 171.48547 397.049455 
L 173.642245 397.049455 
L 175.799021 296.018374 
L 177.955796 397.049455 
L 180.112572 374.133679 
L 182.269347 291.69155 
L 184.426123 397.049455 
L 186.582898 257.99819 
L 188.739674 397.049455 
L 190.89645 397.049455 
L 193.053225 397.049455 
L 195.210001 397.049455 
L 197.366776 373.761719 
L 199.523552 397.049455 
L 201.680327 282.572242 
L 203.837103 397.049455 
L 205.993878 397.049455 
L 208.150654 397.049455 
L 210.307429 397.049455 
L 212.464205 397.049455 
L 214.620981 397.049455 
L 216.777756 397.049455 
L 218.934532 397.049455 
L 221.091307 397.049455 
L 223.248083 397.049455 
L 225.404858 397.049455 
L 227.561634 397.049455 
L 229.718409 397.049455 
L 231.875185 397.049455 
L 234.031961 397.049455 
L 236.188736 397.049455 
L 238.345512 397.049455 
L 240.502287 397.049455 
L 242.659063 397.049455 
L 244.815838 397.049455 
L 246.972614 397.049455 
L 249.129389 397.049455 
L 251.286165 397.049455 
L 253.44294 397.049455 
L 255.599716 263.650052 
L 257.756492 397.049455 
L 259.913267 397.049455 
L 262.070043 387.641679 
L 264.226818 379.540779 
" style="fill:none;stroke:#008000;stroke-linecap:square;stroke-width:1.5;"/>
   </g>
   <g id="patch_13">
    <path d="M 40.03 404.12 
L 40.03 248.568 
" style="fill:none;stroke:#000000;stroke-linecap:square;stroke-linejoin:miter;stroke-width:0.8;"/>
   </g>
   <g id="patch_14">
    <path d="M 274.902857 404.12 
L 274.902857 248.568 
" style="fill:none;stroke:#000000;stroke-linecap:square;stroke-linejoin:miter;stroke-width:0.8;"/>
   </g>
   <g id="patch_15">
    <path d="M 40.03 404.12 
L 274.902857 404.12 
" style="fill:none;stroke:#000000;stroke-linecap:square;stroke-linejoin:miter;stroke-width:0.8;"/>
   </g>
   <g id="patch_16">
    <path d="M 40.03 248.568 
L 274.902857 248.568 
" style="fill:none;stroke:#000000;stroke-linecap:square;stroke-linejoin:miter;stroke-width:0.8;"/>
   </g>
   <g id="text_36">
    <!-- Estimated input signal(Normalized) 3  -->
    <g transform="translate(43.717679 229.130625)scale(0.12 -0.12)">
     <use xlink:href="#DejaVuSans-69"/>
     <use x="63.183594" xlink:href="#DejaVuSans-115"/>
     <use x="115.283203" xlink:href="#DejaVuSans-116"/>
     <use x="154.492188" xlink:href="#DejaVuSans-105"/>
     <use x="182.275391" xlink:href="#DejaVuSans-109"/>
     <use x="279.6875" xlink:href="#DejaVuSans-97"/>
     <use x="340.966797" xlink:href="#DejaVuSans-116"/>
     <use x="380.175781" xlink:href="#DejaVuSans-101"/>
     <use x="441.699219" xlink:href="#DejaVuSans-100"/>
     <use x="505.175781" xlink:href="#DejaVuSans-32"/>
     <use x="536.962891" xlink:href="#DejaVuSans-105"/>
     <use x="564.746094" xlink:href="#DejaVuSans-110"/>
     <use x="628.125" xlink:href="#DejaVuSans-112"/>
     <use x="691.601562" xlink:href="#DejaVuSans-117"/>
     <use x="754.980469" xlink:href="#DejaVuSans-116"/>
     <use x="794.189453" xlink:href="#DejaVuSans-32"/>
     <use x="825.976562" xlink:href="#DejaVuSans-115"/>
     <use x="878.076172" xlink:href="#DejaVuSans-105"/>
     <use x="905.859375" xlink:href="#DejaVuSans-103"/>
     <use x="969.335938" xlink:href="#DejaVuSans-110"/>
     <use x="1032.714844" xlink:href="#DejaVuSans-97"/>
     <use x="1093.994141" xlink:href="#DejaVuSans-108"/>
     <use x="1121.777344" xlink:href="#DejaVuSans-40"/>
     <use x="1160.791016" xlink:href="#DejaVuSans-78"/>
     <use x="1235.595703" xlink:href="#DejaVuSans-111"/>
     <use x="1296.777344" xlink:href="#DejaVuSans-114"/>
     <use x="1337.875" xlink:href="#DejaVuSans-109"/>
     <use x="1435.287109" xlink:href="#DejaVuSans-97"/>
     <use x="1496.566406" xlink:href="#DejaVuSans-108"/>
     <use x="1524.349609" xlink:href="#DejaVuSans-105"/>
     <use x="1552.132812" xlink:href="#DejaVuSans-122"/>
     <use x="1604.623047" xlink:href="#DejaVuSans-101"/>
     <use x="1666.146484" xlink:href="#DejaVuSans-100"/>
     <use x="1729.623047" xlink:href="#DejaVuSans-41"/>
     <use x="1768.636719" xlink:href="#DejaVuSans-32"/>
     <use x="1800.423828" xlink:href="#DejaVuSans-51"/>
     <use x="1864.046875" xlink:href="#DejaVuSans-32"/>
    </g>
    <!--  Error rate: 1.4231048712775603e-14 -->
    <g transform="translate(42.381741 242.568)scale(0.12 -0.12)">
     <use xlink:href="#DejaVuSans-32"/>
     <use x="31.787109" xlink:href="#DejaVuSans-69"/>
     <use x="94.970703" xlink:href="#DejaVuSans-114"/>
     <use x="136.068359" xlink:href="#DejaVuSans-114"/>
     <use x="177.150391" xlink:href="#DejaVuSans-111"/>
     <use x="238.332031" xlink:href="#DejaVuSans-114"/>
     <use x="279.445312" xlink:href="#DejaVuSans-32"/>
     <use x="311.232422" xlink:href="#DejaVuSans-114"/>
     <use x="352.345703" xlink:href="#DejaVuSans-97"/>
     <use x="413.625" xlink:href="#DejaVuSans-116"/>
     <use x="452.833984" xlink:href="#DejaVuSans-101"/>
     <use x="514.357422" xlink:href="#DejaVuSans-58"/>
     <use x="548.048828" xlink:href="#DejaVuSans-32"/>
     <use x="579.835938" xlink:href="#DejaVuSans-49"/>
     <use x="643.458984" xlink:href="#DejaVuSans-46"/>
     <use x="675.246094" xlink:href="#DejaVuSans-52"/>
     <use x="738.869141" xlink:href="#DejaVuSans-50"/>
     <use x="802.492188" xlink:href="#DejaVuSans-51"/>
     <use x="866.115234" xlink:href="#DejaVuSans-49"/>
     <use x="929.738281" xlink:href="#DejaVuSans-48"/>
     <use x="993.361328" xlink:href="#DejaVuSans-52"/>
     <use x="1056.984375" xlink:href="#DejaVuSans-56"/>
     <use x="1120.607422" xlink:href="#DejaVuSans-55"/>
     <use x="1184.230469" xlink:href="#DejaVuSans-49"/>
     <use x="1247.853516" xlink:href="#DejaVuSans-50"/>
     <use x="1311.476562" xlink:href="#DejaVuSans-55"/>
     <use x="1375.099609" xlink:href="#DejaVuSans-55"/>
     <use x="1438.722656" xlink:href="#DejaVuSans-53"/>
     <use x="1502.345703" xlink:href="#DejaVuSans-54"/>
     <use x="1565.96875" xlink:href="#DejaVuSans-48"/>
     <use x="1629.591797" xlink:href="#DejaVuSans-51"/>
     <use x="1693.214844" xlink:href="#DejaVuSans-101"/>
     <use x="1754.738281" xlink:href="#DejaVuSans-45"/>
     <use x="1790.822266" xlink:href="#DejaVuSans-49"/>
     <use x="1854.445312" xlink:href="#DejaVuSans-52"/>
    </g>
   </g>
  </g>
  <g id="axes_4">
   <g id="patch_17">
    <path d="M 324.82 404.12 
L 559.692857 404.12 
L 559.692857 248.568 
L 324.82 248.568 
z
" style="fill:#ffffff;"/>
   </g>
   <g id="matplotlib.axis_7">
    <g id="xtick_19">
     <g id="line2d_37">
      <g>
       <use style="stroke:#000000;stroke-width:0.8;" x="335.496039" xlink:href="#mab3e7cb1dd" y="404.12"/>
      </g>
     </g>
     <g id="text_37">
      <!-- 0 -->
      <g transform="translate(332.314789 418.718438)scale(0.1 -0.1)">
       <use xlink:href="#DejaVuSans-48"/>
      </g>
     </g>
    </g>
    <g id="xtick_20">
     <g id="line2d_38">
      <g>
       <use style="stroke:#000000;stroke-width:0.8;" x="378.63155" xlink:href="#mab3e7cb1dd" y="404.12"/>
      </g>
     </g>
     <g id="text_38">
      <!-- 20 -->
      <g transform="translate(372.26905 418.718438)scale(0.1 -0.1)">
       <use xlink:href="#DejaVuSans-50"/>
       <use x="63.623047" xlink:href="#DejaVuSans-48"/>
      </g>
     </g>
    </g>
    <g id="xtick_21">
     <g id="line2d_39">
      <g>
       <use style="stroke:#000000;stroke-width:0.8;" x="421.767061" xlink:href="#mab3e7cb1dd" y="404.12"/>
      </g>
     </g>
     <g id="text_39">
      <!-- 40 -->
      <g transform="translate(415.404561 418.718438)scale(0.1 -0.1)">
       <use xlink:href="#DejaVuSans-52"/>
       <use x="63.623047" xlink:href="#DejaVuSans-48"/>
      </g>
     </g>
    </g>
    <g id="xtick_22">
     <g id="line2d_40">
      <g>
       <use style="stroke:#000000;stroke-width:0.8;" x="464.902572" xlink:href="#mab3e7cb1dd" y="404.12"/>
      </g>
     </g>
     <g id="text_40">
      <!-- 60 -->
      <g transform="translate(458.540072 418.718438)scale(0.1 -0.1)">
       <use xlink:href="#DejaVuSans-54"/>
       <use x="63.623047" xlink:href="#DejaVuSans-48"/>
      </g>
     </g>
    </g>
    <g id="xtick_23">
     <g id="line2d_41">
      <g>
       <use style="stroke:#000000;stroke-width:0.8;" x="508.038083" xlink:href="#mab3e7cb1dd" y="404.12"/>
      </g>
     </g>
     <g id="text_41">
      <!-- 80 -->
      <g transform="translate(501.675583 418.718438)scale(0.1 -0.1)">
       <use xlink:href="#DejaVuSans-56"/>
       <use x="63.623047" xlink:href="#DejaVuSans-48"/>
      </g>
     </g>
    </g>
    <g id="xtick_24">
     <g id="line2d_42">
      <g>
       <use style="stroke:#000000;stroke-width:0.8;" x="551.173594" xlink:href="#mab3e7cb1dd" y="404.12"/>
      </g>
     </g>
     <g id="text_42">
      <!-- 100 -->
      <g transform="translate(541.629844 418.718438)scale(0.1 -0.1)">
       <use xlink:href="#DejaVuSans-49"/>
       <use x="63.623047" xlink:href="#DejaVuSans-48"/>
       <use x="127.246094" xlink:href="#DejaVuSans-48"/>
      </g>
     </g>
    </g>
   </g>
   <g id="matplotlib.axis_8">
    <g id="ytick_16">
     <g id="line2d_43">
      <g>
       <use style="stroke:#000000;stroke-width:0.8;" x="324.82" xlink:href="#mb866102f97" y="397.049455"/>
      </g>
     </g>
     <g id="text_43">
      <!-- 0.00 -->
      <g transform="translate(295.554375 400.848673)scale(0.1 -0.1)">
       <use xlink:href="#DejaVuSans-48"/>
       <use x="63.623047" xlink:href="#DejaVuSans-46"/>
       <use x="95.410156" xlink:href="#DejaVuSans-48"/>
       <use x="159.033203" xlink:href="#DejaVuSans-48"/>
      </g>
     </g>
    </g>
    <g id="ytick_17">
     <g id="line2d_44">
      <g>
       <use style="stroke:#000000;stroke-width:0.8;" x="324.82" xlink:href="#mb866102f97" y="372.908702"/>
      </g>
     </g>
     <g id="text_44">
      <!-- 0.02 -->
      <g transform="translate(295.554375 376.70792)scale(0.1 -0.1)">
       <use xlink:href="#DejaVuSans-48"/>
       <use x="63.623047" xlink:href="#DejaVuSans-46"/>
       <use x="95.410156" xlink:href="#DejaVuSans-48"/>
       <use x="159.033203" xlink:href="#DejaVuSans-50"/>
      </g>
     </g>
    </g>
    <g id="ytick_18">
     <g id="line2d_45">
      <g>
       <use style="stroke:#000000;stroke-width:0.8;" x="324.82" xlink:href="#mb866102f97" y="348.767949"/>
      </g>
     </g>
     <g id="text_45">
      <!-- 0.04 -->
      <g transform="translate(295.554375 352.567168)scale(0.1 -0.1)">
       <use xlink:href="#DejaVuSans-48"/>
       <use x="63.623047" xlink:href="#DejaVuSans-46"/>
       <use x="95.410156" xlink:href="#DejaVuSans-48"/>
       <use x="159.033203" xlink:href="#DejaVuSans-52"/>
      </g>
     </g>
    </g>
    <g id="ytick_19">
     <g id="line2d_46">
      <g>
       <use style="stroke:#000000;stroke-width:0.8;" x="324.82" xlink:href="#mb866102f97" y="324.627196"/>
      </g>
     </g>
     <g id="text_46">
      <!-- 0.06 -->
      <g transform="translate(295.554375 328.426415)scale(0.1 -0.1)">
       <use xlink:href="#DejaVuSans-48"/>
       <use x="63.623047" xlink:href="#DejaVuSans-46"/>
       <use x="95.410156" xlink:href="#DejaVuSans-48"/>
       <use x="159.033203" xlink:href="#DejaVuSans-54"/>
      </g>
     </g>
    </g>
    <g id="ytick_20">
     <g id="line2d_47">
      <g>
       <use style="stroke:#000000;stroke-width:0.8;" x="324.82" xlink:href="#mb866102f97" y="300.486443"/>
      </g>
     </g>
     <g id="text_47">
      <!-- 0.08 -->
      <g transform="translate(295.554375 304.285662)scale(0.1 -0.1)">
       <use xlink:href="#DejaVuSans-48"/>
       <use x="63.623047" xlink:href="#DejaVuSans-46"/>
       <use x="95.410156" xlink:href="#DejaVuSans-48"/>
       <use x="159.033203" xlink:href="#DejaVuSans-56"/>
      </g>
     </g>
    </g>
    <g id="ytick_21">
     <g id="line2d_48">
      <g>
       <use style="stroke:#000000;stroke-width:0.8;" x="324.82" xlink:href="#mb866102f97" y="276.34569"/>
      </g>
     </g>
     <g id="text_48">
      <!-- 0.10 -->
      <g transform="translate(295.554375 280.144909)scale(0.1 -0.1)">
       <use xlink:href="#DejaVuSans-48"/>
       <use x="63.623047" xlink:href="#DejaVuSans-46"/>
       <use x="95.410156" xlink:href="#DejaVuSans-49"/>
       <use x="159.033203" xlink:href="#DejaVuSans-48"/>
      </g>
     </g>
    </g>
    <g id="ytick_22">
     <g id="line2d_49">
      <g>
       <use style="stroke:#000000;stroke-width:0.8;" x="324.82" xlink:href="#mb866102f97" y="252.204937"/>
      </g>
     </g>
     <g id="text_49">
      <!-- 0.12 -->
      <g transform="translate(295.554375 256.004156)scale(0.1 -0.1)">
       <use xlink:href="#DejaVuSans-48"/>
       <use x="63.623047" xlink:href="#DejaVuSans-46"/>
       <use x="95.410156" xlink:href="#DejaVuSans-49"/>
       <use x="159.033203" xlink:href="#DejaVuSans-50"/>
      </g>
     </g>
    </g>
   </g>
   <g id="line2d_50">
    <path clip-path="url(#p97de3cbb2d)" d="M 335.496039 397.049455 
L 337.652815 397.049455 
L 339.80959 381.174957 
L 341.966366 397.049455 
L 344.123141 397.049455 
L 346.279917 368.376277 
L 348.436692 376.841205 
L 350.593468 307.352215 
L 352.750243 397.049455 
L 354.907019 397.049455 
L 357.063794 383.400477 
L 359.22057 397.049455 
L 361.377346 397.049455 
L 363.534121 397.049455 
L 365.690897 397.049455 
L 367.847672 397.049455 
L 370.004448 397.049455 
L 372.161223 370.227755 
L 374.317999 397.049455 
L 376.474774 397.049455 
L 378.63155 397.049455 
L 380.788325 397.049455 
L 382.945101 397.049455 
L 385.101877 341.346783 
L 387.258652 397.049455 
L 389.415428 368.640922 
L 391.572203 397.049455 
L 393.728979 397.049455 
L 395.885754 397.049455 
L 398.04253 397.049455 
L 400.199305 397.049455 
L 402.356081 397.049455 
L 404.512856 397.049455 
L 406.669632 397.049455 
L 408.826408 397.049455 
L 410.983183 255.638545 
L 413.139959 397.049455 
L 415.296734 397.049455 
L 417.45351 378.674751 
L 419.610285 395.921811 
L 421.767061 397.049455 
L 423.923836 397.049455 
L 426.080612 397.049455 
L 428.237388 397.049455 
L 430.394163 323.479819 
L 432.550939 397.049455 
L 434.707714 397.049455 
L 436.86449 397.049455 
L 439.021265 397.049455 
L 441.178041 397.049455 
L 443.334816 397.049455 
L 445.491592 397.049455 
L 447.648367 397.049455 
L 449.805143 397.049455 
L 451.961919 397.049455 
L 454.118694 397.049455 
L 456.27547 325.964423 
L 458.432245 345.56641 
L 460.589021 397.049455 
L 462.745796 310.677063 
L 464.902572 397.049455 
L 467.059347 397.049455 
L 469.216123 397.049455 
L 471.372898 397.049455 
L 473.529674 323.525611 
L 475.68645 397.049455 
L 477.843225 397.049455 
L 480.000001 397.049455 
L 482.156776 397.049455 
L 484.313552 360.068931 
L 486.470327 397.049455 
L 488.627103 397.049455 
L 490.783878 397.049455 
L 492.940654 397.049455 
L 495.097429 366.304372 
L 497.254205 397.049455 
L 499.410981 397.049455 
L 501.567756 397.049455 
L 503.724532 302.345899 
L 505.881307 358.021752 
L 508.038083 355.683847 
L 510.194858 325.57475 
L 512.351634 397.049455 
L 514.508409 397.049455 
L 516.665185 397.049455 
L 518.821961 397.049455 
L 520.978736 383.598137 
L 523.135512 397.049455 
L 525.292287 335.083775 
L 527.449063 375.708231 
L 529.605838 397.049455 
L 531.762614 397.049455 
L 533.919389 397.049455 
L 536.076165 397.049455 
L 538.23294 397.049455 
L 540.389716 397.049455 
L 542.546492 397.049455 
L 544.703267 397.049455 
L 546.860043 397.049455 
L 549.016818 397.049455 
" style="fill:none;stroke:#008000;stroke-linecap:square;stroke-width:1.5;"/>
   </g>
   <g id="patch_18">
    <path d="M 324.82 404.12 
L 324.82 248.568 
" style="fill:none;stroke:#000000;stroke-linecap:square;stroke-linejoin:miter;stroke-width:0.8;"/>
   </g>
   <g id="patch_19">
    <path d="M 559.692857 404.12 
L 559.692857 248.568 
" style="fill:none;stroke:#000000;stroke-linecap:square;stroke-linejoin:miter;stroke-width:0.8;"/>
   </g>
   <g id="patch_20">
    <path d="M 324.82 404.12 
L 559.692857 404.12 
" style="fill:none;stroke:#000000;stroke-linecap:square;stroke-linejoin:miter;stroke-width:0.8;"/>
   </g>
   <g id="patch_21">
    <path d="M 324.82 248.568 
L 559.692857 248.568 
" style="fill:none;stroke:#000000;stroke-linecap:square;stroke-linejoin:miter;stroke-width:0.8;"/>
   </g>
   <g id="text_50">
    <!-- Estimated input signal(Normalized) 4  -->
    <g transform="translate(328.507679 229.130625)scale(0.12 -0.12)">
     <use xlink:href="#DejaVuSans-69"/>
     <use x="63.183594" xlink:href="#DejaVuSans-115"/>
     <use x="115.283203" xlink:href="#DejaVuSans-116"/>
     <use x="154.492188" xlink:href="#DejaVuSans-105"/>
     <use x="182.275391" xlink:href="#DejaVuSans-109"/>
     <use x="279.6875" xlink:href="#DejaVuSans-97"/>
     <use x="340.966797" xlink:href="#DejaVuSans-116"/>
     <use x="380.175781" xlink:href="#DejaVuSans-101"/>
     <use x="441.699219" xlink:href="#DejaVuSans-100"/>
     <use x="505.175781" xlink:href="#DejaVuSans-32"/>
     <use x="536.962891" xlink:href="#DejaVuSans-105"/>
     <use x="564.746094" xlink:href="#DejaVuSans-110"/>
     <use x="628.125" xlink:href="#DejaVuSans-112"/>
     <use x="691.601562" xlink:href="#DejaVuSans-117"/>
     <use x="754.980469" xlink:href="#DejaVuSans-116"/>
     <use x="794.189453" xlink:href="#DejaVuSans-32"/>
     <use x="825.976562" xlink:href="#DejaVuSans-115"/>
     <use x="878.076172" xlink:href="#DejaVuSans-105"/>
     <use x="905.859375" xlink:href="#DejaVuSans-103"/>
     <use x="969.335938" xlink:href="#DejaVuSans-110"/>
     <use x="1032.714844" xlink:href="#DejaVuSans-97"/>
     <use x="1093.994141" xlink:href="#DejaVuSans-108"/>
     <use x="1121.777344" xlink:href="#DejaVuSans-40"/>
     <use x="1160.791016" xlink:href="#DejaVuSans-78"/>
     <use x="1235.595703" xlink:href="#DejaVuSans-111"/>
     <use x="1296.777344" xlink:href="#DejaVuSans-114"/>
     <use x="1337.875" xlink:href="#DejaVuSans-109"/>
     <use x="1435.287109" xlink:href="#DejaVuSans-97"/>
     <use x="1496.566406" xlink:href="#DejaVuSans-108"/>
     <use x="1524.349609" xlink:href="#DejaVuSans-105"/>
     <use x="1552.132812" xlink:href="#DejaVuSans-122"/>
     <use x="1604.623047" xlink:href="#DejaVuSans-101"/>
     <use x="1666.146484" xlink:href="#DejaVuSans-100"/>
     <use x="1729.623047" xlink:href="#DejaVuSans-41"/>
     <use x="1768.636719" xlink:href="#DejaVuSans-32"/>
     <use x="1800.423828" xlink:href="#DejaVuSans-52"/>
     <use x="1864.046875" xlink:href="#DejaVuSans-32"/>
    </g>
    <!--  Error rate: 6.698946807485417e-16 -->
    <g transform="translate(330.989241 242.568)scale(0.12 -0.12)">
     <use xlink:href="#DejaVuSans-32"/>
     <use x="31.787109" xlink:href="#DejaVuSans-69"/>
     <use x="94.970703" xlink:href="#DejaVuSans-114"/>
     <use x="136.068359" xlink:href="#DejaVuSans-114"/>
     <use x="177.150391" xlink:href="#DejaVuSans-111"/>
     <use x="238.332031" xlink:href="#DejaVuSans-114"/>
     <use x="279.445312" xlink:href="#DejaVuSans-32"/>
     <use x="311.232422" xlink:href="#DejaVuSans-114"/>
     <use x="352.345703" xlink:href="#DejaVuSans-97"/>
     <use x="413.625" xlink:href="#DejaVuSans-116"/>
     <use x="452.833984" xlink:href="#DejaVuSans-101"/>
     <use x="514.357422" xlink:href="#DejaVuSans-58"/>
     <use x="548.048828" xlink:href="#DejaVuSans-32"/>
     <use x="579.835938" xlink:href="#DejaVuSans-54"/>
     <use x="643.458984" xlink:href="#DejaVuSans-46"/>
     <use x="675.246094" xlink:href="#DejaVuSans-54"/>
     <use x="738.869141" xlink:href="#DejaVuSans-57"/>
     <use x="802.492188" xlink:href="#DejaVuSans-56"/>
     <use x="866.115234" xlink:href="#DejaVuSans-57"/>
     <use x="929.738281" xlink:href="#DejaVuSans-52"/>
     <use x="993.361328" xlink:href="#DejaVuSans-54"/>
     <use x="1056.984375" xlink:href="#DejaVuSans-56"/>
     <use x="1120.607422" xlink:href="#DejaVuSans-48"/>
     <use x="1184.230469" xlink:href="#DejaVuSans-55"/>
     <use x="1247.853516" xlink:href="#DejaVuSans-52"/>
     <use x="1311.476562" xlink:href="#DejaVuSans-56"/>
     <use x="1375.099609" xlink:href="#DejaVuSans-53"/>
     <use x="1438.722656" xlink:href="#DejaVuSans-52"/>
     <use x="1502.345703" xlink:href="#DejaVuSans-49"/>
     <use x="1565.96875" xlink:href="#DejaVuSans-55"/>
     <use x="1629.591797" xlink:href="#DejaVuSans-101"/>
     <use x="1691.115234" xlink:href="#DejaVuSans-45"/>
     <use x="1727.199219" xlink:href="#DejaVuSans-49"/>
     <use x="1790.822266" xlink:href="#DejaVuSans-54"/>
    </g>
   </g>
  </g>
  <g id="axes_5">
   <g id="patch_22">
    <path d="M 609.61 404.12 
L 844.482857 404.12 
L 844.482857 248.568 
L 609.61 248.568 
z
" style="fill:#ffffff;"/>
   </g>
   <g id="matplotlib.axis_9">
    <g id="xtick_25">
     <g id="line2d_51">
      <g>
       <use style="stroke:#000000;stroke-width:0.8;" x="620.286039" xlink:href="#mab3e7cb1dd" y="404.12"/>
      </g>
     </g>
     <g id="text_51">
      <!-- 0 -->
      <g transform="translate(617.104789 418.718438)scale(0.1 -0.1)">
       <use xlink:href="#DejaVuSans-48"/>
      </g>
     </g>
    </g>
    <g id="xtick_26">
     <g id="line2d_52">
      <g>
       <use style="stroke:#000000;stroke-width:0.8;" x="663.42155" xlink:href="#mab3e7cb1dd" y="404.12"/>
      </g>
     </g>
     <g id="text_52">
      <!-- 20 -->
      <g transform="translate(657.05905 418.718438)scale(0.1 -0.1)">
       <use xlink:href="#DejaVuSans-50"/>
       <use x="63.623047" xlink:href="#DejaVuSans-48"/>
      </g>
     </g>
    </g>
    <g id="xtick_27">
     <g id="line2d_53">
      <g>
       <use style="stroke:#000000;stroke-width:0.8;" x="706.557061" xlink:href="#mab3e7cb1dd" y="404.12"/>
      </g>
     </g>
     <g id="text_53">
      <!-- 40 -->
      <g transform="translate(700.194561 418.718438)scale(0.1 -0.1)">
       <use xlink:href="#DejaVuSans-52"/>
       <use x="63.623047" xlink:href="#DejaVuSans-48"/>
      </g>
     </g>
    </g>
    <g id="xtick_28">
     <g id="line2d_54">
      <g>
       <use style="stroke:#000000;stroke-width:0.8;" x="749.692572" xlink:href="#mab3e7cb1dd" y="404.12"/>
      </g>
     </g>
     <g id="text_54">
      <!-- 60 -->
      <g transform="translate(743.330072 418.718438)scale(0.1 -0.1)">
       <use xlink:href="#DejaVuSans-54"/>
       <use x="63.623047" xlink:href="#DejaVuSans-48"/>
      </g>
     </g>
    </g>
    <g id="xtick_29">
     <g id="line2d_55">
      <g>
       <use style="stroke:#000000;stroke-width:0.8;" x="792.828083" xlink:href="#mab3e7cb1dd" y="404.12"/>
      </g>
     </g>
     <g id="text_55">
      <!-- 80 -->
      <g transform="translate(786.465583 418.718438)scale(0.1 -0.1)">
       <use xlink:href="#DejaVuSans-56"/>
       <use x="63.623047" xlink:href="#DejaVuSans-48"/>
      </g>
     </g>
    </g>
    <g id="xtick_30">
     <g id="line2d_56">
      <g>
       <use style="stroke:#000000;stroke-width:0.8;" x="835.963594" xlink:href="#mab3e7cb1dd" y="404.12"/>
      </g>
     </g>
     <g id="text_56">
      <!-- 100 -->
      <g transform="translate(826.419844 418.718438)scale(0.1 -0.1)">
       <use xlink:href="#DejaVuSans-49"/>
       <use x="63.623047" xlink:href="#DejaVuSans-48"/>
       <use x="127.246094" xlink:href="#DejaVuSans-48"/>
      </g>
     </g>
    </g>
   </g>
   <g id="matplotlib.axis_10">
    <g id="ytick_23">
     <g id="line2d_57">
      <g>
       <use style="stroke:#000000;stroke-width:0.8;" x="609.61" xlink:href="#mb866102f97" y="397.049455"/>
      </g>
     </g>
     <g id="text_57">
      <!-- 0.00 -->
      <g transform="translate(580.344375 400.848673)scale(0.1 -0.1)">
       <use xlink:href="#DejaVuSans-48"/>
       <use x="63.623047" xlink:href="#DejaVuSans-46"/>
       <use x="95.410156" xlink:href="#DejaVuSans-48"/>
       <use x="159.033203" xlink:href="#DejaVuSans-48"/>
      </g>
     </g>
    </g>
    <g id="ytick_24">
     <g id="line2d_58">
      <g>
       <use style="stroke:#000000;stroke-width:0.8;" x="609.61" xlink:href="#mb866102f97" y="373.613668"/>
      </g>
     </g>
     <g id="text_58">
      <!-- 0.02 -->
      <g transform="translate(580.344375 377.412887)scale(0.1 -0.1)">
       <use xlink:href="#DejaVuSans-48"/>
       <use x="63.623047" xlink:href="#DejaVuSans-46"/>
       <use x="95.410156" xlink:href="#DejaVuSans-48"/>
       <use x="159.033203" xlink:href="#DejaVuSans-50"/>
      </g>
     </g>
    </g>
    <g id="ytick_25">
     <g id="line2d_59">
      <g>
       <use style="stroke:#000000;stroke-width:0.8;" x="609.61" xlink:href="#mb866102f97" y="350.177881"/>
      </g>
     </g>
     <g id="text_59">
      <!-- 0.04 -->
      <g transform="translate(580.344375 353.9771)scale(0.1 -0.1)">
       <use xlink:href="#DejaVuSans-48"/>
       <use x="63.623047" xlink:href="#DejaVuSans-46"/>
       <use x="95.410156" xlink:href="#DejaVuSans-48"/>
       <use x="159.033203" xlink:href="#DejaVuSans-52"/>
      </g>
     </g>
    </g>
    <g id="ytick_26">
     <g id="line2d_60">
      <g>
       <use style="stroke:#000000;stroke-width:0.8;" x="609.61" xlink:href="#mb866102f97" y="326.742094"/>
      </g>
     </g>
     <g id="text_60">
      <!-- 0.06 -->
      <g transform="translate(580.344375 330.541313)scale(0.1 -0.1)">
       <use xlink:href="#DejaVuSans-48"/>
       <use x="63.623047" xlink:href="#DejaVuSans-46"/>
       <use x="95.410156" xlink:href="#DejaVuSans-48"/>
       <use x="159.033203" xlink:href="#DejaVuSans-54"/>
      </g>
     </g>
    </g>
    <g id="ytick_27">
     <g id="line2d_61">
      <g>
       <use style="stroke:#000000;stroke-width:0.8;" x="609.61" xlink:href="#mb866102f97" y="303.306308"/>
      </g>
     </g>
     <g id="text_61">
      <!-- 0.08 -->
      <g transform="translate(580.344375 307.105526)scale(0.1 -0.1)">
       <use xlink:href="#DejaVuSans-48"/>
       <use x="63.623047" xlink:href="#DejaVuSans-46"/>
       <use x="95.410156" xlink:href="#DejaVuSans-48"/>
       <use x="159.033203" xlink:href="#DejaVuSans-56"/>
      </g>
     </g>
    </g>
    <g id="ytick_28">
     <g id="line2d_62">
      <g>
       <use style="stroke:#000000;stroke-width:0.8;" x="609.61" xlink:href="#mb866102f97" y="279.870521"/>
      </g>
     </g>
     <g id="text_62">
      <!-- 0.10 -->
      <g transform="translate(580.344375 283.66974)scale(0.1 -0.1)">
       <use xlink:href="#DejaVuSans-48"/>
       <use x="63.623047" xlink:href="#DejaVuSans-46"/>
       <use x="95.410156" xlink:href="#DejaVuSans-49"/>
       <use x="159.033203" xlink:href="#DejaVuSans-48"/>
      </g>
     </g>
    </g>
    <g id="ytick_29">
     <g id="line2d_63">
      <g>
       <use style="stroke:#000000;stroke-width:0.8;" x="609.61" xlink:href="#mb866102f97" y="256.434734"/>
      </g>
     </g>
     <g id="text_63">
      <!-- 0.12 -->
      <g transform="translate(580.344375 260.233953)scale(0.1 -0.1)">
       <use xlink:href="#DejaVuSans-48"/>
       <use x="63.623047" xlink:href="#DejaVuSans-46"/>
       <use x="95.410156" xlink:href="#DejaVuSans-49"/>
       <use x="159.033203" xlink:href="#DejaVuSans-50"/>
      </g>
     </g>
    </g>
   </g>
   <g id="line2d_64">
    <path clip-path="url(#pb196651056)" d="M 620.286039 397.049455 
L 622.442815 397.049455 
L 624.59959 397.049455 
L 626.756366 363.688932 
L 628.913141 397.049455 
L 631.069917 397.049455 
L 633.226692 397.049455 
L 635.383468 397.049455 
L 637.540243 397.049455 
L 639.697019 397.049455 
L 641.853794 397.049455 
L 644.01057 397.049455 
L 646.167346 397.049455 
L 648.324121 368.840501 
L 650.480897 397.049455 
L 652.637672 397.049455 
L 654.794448 258.9823 
L 656.951223 397.049455 
L 659.107999 397.049455 
L 661.264774 397.049455 
L 663.42155 397.049455 
L 665.578325 349.697517 
L 667.735101 397.049455 
L 669.891877 397.049455 
L 672.048652 397.049455 
L 674.205428 397.049455 
L 676.362203 397.049455 
L 678.518979 397.049455 
L 680.675754 397.049455 
L 682.83253 315.083165 
L 684.989305 397.049455 
L 687.146081 397.049455 
L 689.302856 397.049455 
L 691.459632 397.049455 
L 693.616408 274.867553 
L 695.773183 397.049455 
L 697.929959 397.049455 
L 700.086734 397.049455 
L 702.24351 397.049455 
L 704.400285 397.049455 
L 706.557061 397.049455 
L 708.713836 255.638545 
L 710.870612 397.049455 
L 713.027388 397.049455 
L 715.184163 397.049455 
L 717.340939 270.738591 
L 719.497714 397.049455 
L 721.65449 397.049455 
L 723.811265 397.049455 
L 725.968041 397.049455 
L 728.124816 397.049455 
L 730.281592 397.049455 
L 732.438367 379.68748 
L 734.595143 350.424037 
L 736.751919 295.440675 
L 738.908694 394.18116 
L 741.06547 397.049455 
L 743.222245 397.049455 
L 745.379021 397.049455 
L 747.535796 397.049455 
L 749.692572 397.049455 
L 751.849347 397.049455 
L 754.006123 397.049455 
L 756.162898 397.049455 
L 758.319674 397.049455 
L 760.47645 342.599119 
L 762.633225 397.049455 
L 764.790001 397.049455 
L 766.946776 397.049455 
L 769.103552 397.049455 
L 771.260327 397.049455 
L 773.417103 397.049455 
L 775.573878 397.049455 
L 777.730654 397.049455 
L 779.887429 397.049455 
L 782.044205 397.049455 
L 784.200981 397.049455 
L 786.357756 397.049455 
L 788.514532 397.049455 
L 790.671307 397.049455 
L 792.828083 397.049455 
L 794.984858 397.049455 
L 797.141634 353.619844 
L 799.298409 397.049455 
L 801.455185 281.554338 
L 803.611961 397.049455 
L 805.768736 397.049455 
L 807.925512 397.049455 
L 810.082287 397.049455 
L 812.239063 397.049455 
L 814.395838 397.049455 
L 816.552614 397.049455 
L 818.709389 397.049455 
L 820.866165 397.049455 
L 823.02294 397.049455 
L 825.179716 397.049455 
L 827.336492 397.049455 
L 829.493267 325.958181 
L 831.650043 397.049455 
L 833.806818 397.049455 
" style="fill:none;stroke:#008000;stroke-linecap:square;stroke-width:1.5;"/>
   </g>
   <g id="patch_23">
    <path d="M 609.61 404.12 
L 609.61 248.568 
" style="fill:none;stroke:#000000;stroke-linecap:square;stroke-linejoin:miter;stroke-width:0.8;"/>
   </g>
   <g id="patch_24">
    <path d="M 844.482857 404.12 
L 844.482857 248.568 
" style="fill:none;stroke:#000000;stroke-linecap:square;stroke-linejoin:miter;stroke-width:0.8;"/>
   </g>
   <g id="patch_25">
    <path d="M 609.61 404.12 
L 844.482857 404.12 
" style="fill:none;stroke:#000000;stroke-linecap:square;stroke-linejoin:miter;stroke-width:0.8;"/>
   </g>
   <g id="patch_26">
    <path d="M 609.61 248.568 
L 844.482857 248.568 
" style="fill:none;stroke:#000000;stroke-linecap:square;stroke-linejoin:miter;stroke-width:0.8;"/>
   </g>
   <g id="text_64">
    <!-- Estimated input signal(Normalized) 5  -->
    <g transform="translate(613.297679 229.130625)scale(0.12 -0.12)">
     <use xlink:href="#DejaVuSans-69"/>
     <use x="63.183594" xlink:href="#DejaVuSans-115"/>
     <use x="115.283203" xlink:href="#DejaVuSans-116"/>
     <use x="154.492188" xlink:href="#DejaVuSans-105"/>
     <use x="182.275391" xlink:href="#DejaVuSans-109"/>
     <use x="279.6875" xlink:href="#DejaVuSans-97"/>
     <use x="340.966797" xlink:href="#DejaVuSans-116"/>
     <use x="380.175781" xlink:href="#DejaVuSans-101"/>
     <use x="441.699219" xlink:href="#DejaVuSans-100"/>
     <use x="505.175781" xlink:href="#DejaVuSans-32"/>
     <use x="536.962891" xlink:href="#DejaVuSans-105"/>
     <use x="564.746094" xlink:href="#DejaVuSans-110"/>
     <use x="628.125" xlink:href="#DejaVuSans-112"/>
     <use x="691.601562" xlink:href="#DejaVuSans-117"/>
     <use x="754.980469" xlink:href="#DejaVuSans-116"/>
     <use x="794.189453" xlink:href="#DejaVuSans-32"/>
     <use x="825.976562" xlink:href="#DejaVuSans-115"/>
     <use x="878.076172" xlink:href="#DejaVuSans-105"/>
     <use x="905.859375" xlink:href="#DejaVuSans-103"/>
     <use x="969.335938" xlink:href="#DejaVuSans-110"/>
     <use x="1032.714844" xlink:href="#DejaVuSans-97"/>
     <use x="1093.994141" xlink:href="#DejaVuSans-108"/>
     <use x="1121.777344" xlink:href="#DejaVuSans-40"/>
     <use x="1160.791016" xlink:href="#DejaVuSans-78"/>
     <use x="1235.595703" xlink:href="#DejaVuSans-111"/>
     <use x="1296.777344" xlink:href="#DejaVuSans-114"/>
     <use x="1337.875" xlink:href="#DejaVuSans-109"/>
     <use x="1435.287109" xlink:href="#DejaVuSans-97"/>
     <use x="1496.566406" xlink:href="#DejaVuSans-108"/>
     <use x="1524.349609" xlink:href="#DejaVuSans-105"/>
     <use x="1552.132812" xlink:href="#DejaVuSans-122"/>
     <use x="1604.623047" xlink:href="#DejaVuSans-101"/>
     <use x="1666.146484" xlink:href="#DejaVuSans-100"/>
     <use x="1729.623047" xlink:href="#DejaVuSans-41"/>
     <use x="1768.636719" xlink:href="#DejaVuSans-32"/>
     <use x="1800.423828" xlink:href="#DejaVuSans-53"/>
     <use x="1864.046875" xlink:href="#DejaVuSans-32"/>
    </g>
    <!--  Error rate: 6.354345458737404e-16 -->
    <g transform="translate(615.779241 242.568)scale(0.12 -0.12)">
     <use xlink:href="#DejaVuSans-32"/>
     <use x="31.787109" xlink:href="#DejaVuSans-69"/>
     <use x="94.970703" xlink:href="#DejaVuSans-114"/>
     <use x="136.068359" xlink:href="#DejaVuSans-114"/>
     <use x="177.150391" xlink:href="#DejaVuSans-111"/>
     <use x="238.332031" xlink:href="#DejaVuSans-114"/>
     <use x="279.445312" xlink:href="#DejaVuSans-32"/>
     <use x="311.232422" xlink:href="#DejaVuSans-114"/>
     <use x="352.345703" xlink:href="#DejaVuSans-97"/>
     <use x="413.625" xlink:href="#DejaVuSans-116"/>
     <use x="452.833984" xlink:href="#DejaVuSans-101"/>
     <use x="514.357422" xlink:href="#DejaVuSans-58"/>
     <use x="548.048828" xlink:href="#DejaVuSans-32"/>
     <use x="579.835938" xlink:href="#DejaVuSans-54"/>
     <use x="643.458984" xlink:href="#DejaVuSans-46"/>
     <use x="675.246094" xlink:href="#DejaVuSans-51"/>
     <use x="738.869141" xlink:href="#DejaVuSans-53"/>
     <use x="802.492188" xlink:href="#DejaVuSans-52"/>
     <use x="866.115234" xlink:href="#DejaVuSans-51"/>
     <use x="929.738281" xlink:href="#DejaVuSans-52"/>
     <use x="993.361328" xlink:href="#DejaVuSans-53"/>
     <use x="1056.984375" xlink:href="#DejaVuSans-52"/>
     <use x="1120.607422" xlink:href="#DejaVuSans-53"/>
     <use x="1184.230469" xlink:href="#DejaVuSans-56"/>
     <use x="1247.853516" xlink:href="#DejaVuSans-55"/>
     <use x="1311.476562" xlink:href="#DejaVuSans-51"/>
     <use x="1375.099609" xlink:href="#DejaVuSans-55"/>
     <use x="1438.722656" xlink:href="#DejaVuSans-52"/>
     <use x="1502.345703" xlink:href="#DejaVuSans-48"/>
     <use x="1565.96875" xlink:href="#DejaVuSans-52"/>
     <use x="1629.591797" xlink:href="#DejaVuSans-101"/>
     <use x="1691.115234" xlink:href="#DejaVuSans-45"/>
     <use x="1727.199219" xlink:href="#DejaVuSans-49"/>
     <use x="1790.822266" xlink:href="#DejaVuSans-54"/>
    </g>
   </g>
  </g>
 </g>
 <defs>
  <clipPath id="p2a1d113a16">
   <rect height="155.552" width="377.267857" x="40.03" y="37.968"/>
  </clipPath>
  <clipPath id="pd0465e87da">
   <rect height="155.552" width="377.267857" x="467.215" y="37.968"/>
  </clipPath>
  <clipPath id="pa5ebbb349e">
   <rect height="155.552" width="234.872857" x="40.03" y="248.568"/>
  </clipPath>
  <clipPath id="p97de3cbb2d">
   <rect height="155.552" width="234.872857" x="324.82" y="248.568"/>
  </clipPath>
  <clipPath id="pb196651056">
   <rect height="155.552" width="234.872857" x="609.61" y="248.568"/>
  </clipPath>
 </defs>
</svg>
