<?xml version="1.0" encoding="utf-8" standalone="no"?>
<!DOCTYPE svg PUBLIC "-//W3C//DTD SVG 1.1//EN"
  "http://www.w3.org/Graphics/SVG/1.1/DTD/svg11.dtd">
<!-- Created with matplotlib (https://matplotlib.org/) -->
<svg height="576pt" version="1.1" viewBox="0 0 864 576" width="864pt" xmlns="http://www.w3.org/2000/svg" xmlns:xlink="http://www.w3.org/1999/xlink">
 <defs>
  <style type="text/css">
*{stroke-linecap:butt;stroke-linejoin:round;}
  </style>
 </defs>
 <g id="figure_1">
  <g id="patch_1">
   <path d="M 0 576 
L 864 576 
L 864 0 
L 0 0 
z
" style="fill:#ffffff;"/>
  </g>
  <g id="axes_1">
   <g id="patch_2">
    <path d="M 108 512.64 
L 777.6 512.64 
L 777.6 69.12 
L 108 69.12 
z
" style="fill:#ffffff;"/>
   </g>
   <g id="PathCollection_1">
    <defs>
     <path d="M 0 3 
C 0.795609 3 1.55874 2.683901 2.12132 2.12132 
C 2.683901 1.55874 3 0.795609 3 0 
C 3 -0.795609 2.683901 -1.55874 2.12132 -2.12132 
C 1.55874 -2.683901 0.795609 -3 0 -3 
C -0.795609 -3 -1.55874 -2.683901 -2.12132 -2.12132 
C -2.683901 -1.55874 -3 -0.795609 -3 0 
C -3 0.795609 -2.683901 1.55874 -2.12132 2.12132 
C -1.55874 2.683901 -0.795609 3 0 3 
z
" id="mb685bfd100" style="stroke:#ffc0cb;stroke-width:5;"/>
    </defs>
    <g clip-path="url(#pece7fd5517)">
     <use style="fill:#ffc0cb;stroke:#ffc0cb;stroke-width:5;" x="140.588726" xlink:href="#mb685bfd100" y="490.338102"/>
    </g>
   </g>
   <g id="PathCollection_2">
    <g clip-path="url(#pece7fd5517)">
     <use style="fill:#ffc0cb;stroke:#ffc0cb;stroke-width:5;" x="142.184976" xlink:href="#mb685bfd100" y="490.302351"/>
    </g>
   </g>
   <g id="PathCollection_3">
    <g clip-path="url(#pece7fd5517)">
     <use style="fill:#ffc0cb;stroke:#ffc0cb;stroke-width:5;" x="188.476219" xlink:href="#mb685bfd100" y="457.707034"/>
    </g>
   </g>
   <g id="PathCollection_4">
    <g clip-path="url(#pece7fd5517)">
     <use style="fill:#ffc0cb;stroke:#ffc0cb;stroke-width:5;" x="236.363712" xlink:href="#mb685bfd100" y="370.77865"/>
    </g>
   </g>
   <g id="PathCollection_5">
    <g clip-path="url(#pece7fd5517)">
     <use style="fill:#ffc0cb;stroke:#ffc0cb;stroke-width:5;" x="284.251205" xlink:href="#mb685bfd100" y="280.708137"/>
    </g>
   </g>
   <g id="PathCollection_6">
    <g clip-path="url(#pece7fd5517)">
     <use style="fill:#ffc0cb;stroke:#ffc0cb;stroke-width:5;" x="300.213703" xlink:href="#mb685bfd100" y="254.924805"/>
    </g>
   </g>
   <g id="PathCollection_7">
    <g clip-path="url(#pece7fd5517)">
     <use style="fill:#ffc0cb;stroke:#ffc0cb;stroke-width:5;" x="340.119947" xlink:href="#mb685bfd100" y="202.026484"/>
    </g>
   </g>
   <g id="PathCollection_8">
    <g clip-path="url(#pece7fd5517)">
     <use style="fill:#ffc0cb;stroke:#ffc0cb;stroke-width:5;" x="380.026191" xlink:href="#mb685bfd100" y="164.294894"/>
    </g>
   </g>
   <g id="PathCollection_9">
    <g clip-path="url(#pece7fd5517)">
     <use style="fill:#ffc0cb;stroke:#ffc0cb;stroke-width:5;" x="587.53866" xlink:href="#mb685bfd100" y="97.035881"/>
    </g>
   </g>
   <g id="PathCollection_10">
    <g clip-path="url(#pece7fd5517)">
     <use style="fill:#ffc0cb;stroke:#ffc0cb;stroke-width:5;" x="699.276143" xlink:href="#mb685bfd100" y="91.433373"/>
    </g>
   </g>
   <g id="matplotlib.axis_1">
    <g id="xtick_1">
     <g id="line2d_1">
      <defs>
       <path d="M 0 0 
L 0 3.5 
" id="m36d8a2e017" style="stroke:#000000;stroke-width:0.8;"/>
      </defs>
      <g>
       <use style="stroke:#000000;stroke-width:0.8;" x="140.588726" xlink:href="#m36d8a2e017" y="512.64"/>
      </g>
     </g>
     <g id="text_1">
      <!-- 0 -->
      <defs>
       <path d="M 31.78125 66.40625 
Q 24.171875 66.40625 20.328125 58.90625 
Q 16.5 51.421875 16.5 36.375 
Q 16.5 21.390625 20.328125 13.890625 
Q 24.171875 6.390625 31.78125 6.390625 
Q 39.453125 6.390625 43.28125 13.890625 
Q 47.125 21.390625 47.125 36.375 
Q 47.125 51.421875 43.28125 58.90625 
Q 39.453125 66.40625 31.78125 66.40625 
z
M 31.78125 74.21875 
Q 44.046875 74.21875 50.515625 64.515625 
Q 56.984375 54.828125 56.984375 36.375 
Q 56.984375 17.96875 50.515625 8.265625 
Q 44.046875 -1.421875 31.78125 -1.421875 
Q 19.53125 -1.421875 13.0625 8.265625 
Q 6.59375 17.96875 6.59375 36.375 
Q 6.59375 54.828125 13.0625 64.515625 
Q 19.53125 74.21875 31.78125 74.21875 
z
" id="DejaVuSans-48"/>
      </defs>
      <g transform="translate(137.407476 527.238438)scale(0.1 -0.1)">
       <use xlink:href="#DejaVuSans-48"/>
      </g>
     </g>
    </g>
    <g id="xtick_2">
     <g id="line2d_2">
      <g>
       <use style="stroke:#000000;stroke-width:0.8;" x="220.401214" xlink:href="#m36d8a2e017" y="512.64"/>
      </g>
     </g>
     <g id="text_2">
      <!-- 50 -->
      <defs>
       <path d="M 10.796875 72.90625 
L 49.515625 72.90625 
L 49.515625 64.59375 
L 19.828125 64.59375 
L 19.828125 46.734375 
Q 21.96875 47.46875 24.109375 47.828125 
Q 26.265625 48.1875 28.421875 48.1875 
Q 40.625 48.1875 47.75 41.5 
Q 54.890625 34.8125 54.890625 23.390625 
Q 54.890625 11.625 47.5625 5.09375 
Q 40.234375 -1.421875 26.90625 -1.421875 
Q 22.3125 -1.421875 17.546875 -0.640625 
Q 12.796875 0.140625 7.71875 1.703125 
L 7.71875 11.625 
Q 12.109375 9.234375 16.796875 8.0625 
Q 21.484375 6.890625 26.703125 6.890625 
Q 35.15625 6.890625 40.078125 11.328125 
Q 45.015625 15.765625 45.015625 23.390625 
Q 45.015625 31 40.078125 35.4375 
Q 35.15625 39.890625 26.703125 39.890625 
Q 22.75 39.890625 18.8125 39.015625 
Q 14.890625 38.140625 10.796875 36.28125 
z
" id="DejaVuSans-53"/>
      </defs>
      <g transform="translate(214.038714 527.238438)scale(0.1 -0.1)">
       <use xlink:href="#DejaVuSans-53"/>
       <use x="63.623047" xlink:href="#DejaVuSans-48"/>
      </g>
     </g>
    </g>
    <g id="xtick_3">
     <g id="line2d_3">
      <g>
       <use style="stroke:#000000;stroke-width:0.8;" x="300.213703" xlink:href="#m36d8a2e017" y="512.64"/>
      </g>
     </g>
     <g id="text_3">
      <!-- 100 -->
      <defs>
       <path d="M 12.40625 8.296875 
L 28.515625 8.296875 
L 28.515625 63.921875 
L 10.984375 60.40625 
L 10.984375 69.390625 
L 28.421875 72.90625 
L 38.28125 72.90625 
L 38.28125 8.296875 
L 54.390625 8.296875 
L 54.390625 0 
L 12.40625 0 
z
" id="DejaVuSans-49"/>
      </defs>
      <g transform="translate(290.669953 527.238438)scale(0.1 -0.1)">
       <use xlink:href="#DejaVuSans-49"/>
       <use x="63.623047" xlink:href="#DejaVuSans-48"/>
       <use x="127.246094" xlink:href="#DejaVuSans-48"/>
      </g>
     </g>
    </g>
    <g id="xtick_4">
     <g id="line2d_4">
      <g>
       <use style="stroke:#000000;stroke-width:0.8;" x="380.026191" xlink:href="#m36d8a2e017" y="512.64"/>
      </g>
     </g>
     <g id="text_4">
      <!-- 150 -->
      <g transform="translate(370.482441 527.238438)scale(0.1 -0.1)">
       <use xlink:href="#DejaVuSans-49"/>
       <use x="63.623047" xlink:href="#DejaVuSans-53"/>
       <use x="127.246094" xlink:href="#DejaVuSans-48"/>
      </g>
     </g>
    </g>
    <g id="xtick_5">
     <g id="line2d_5">
      <g>
       <use style="stroke:#000000;stroke-width:0.8;" x="459.838679" xlink:href="#m36d8a2e017" y="512.64"/>
      </g>
     </g>
     <g id="text_5">
      <!-- 200 -->
      <defs>
       <path d="M 19.1875 8.296875 
L 53.609375 8.296875 
L 53.609375 0 
L 7.328125 0 
L 7.328125 8.296875 
Q 12.9375 14.109375 22.625 23.890625 
Q 32.328125 33.6875 34.8125 36.53125 
Q 39.546875 41.84375 41.421875 45.53125 
Q 43.3125 49.21875 43.3125 52.78125 
Q 43.3125 58.59375 39.234375 62.25 
Q 35.15625 65.921875 28.609375 65.921875 
Q 23.96875 65.921875 18.8125 64.3125 
Q 13.671875 62.703125 7.8125 59.421875 
L 7.8125 69.390625 
Q 13.765625 71.78125 18.9375 73 
Q 24.125 74.21875 28.421875 74.21875 
Q 39.75 74.21875 46.484375 68.546875 
Q 53.21875 62.890625 53.21875 53.421875 
Q 53.21875 48.921875 51.53125 44.890625 
Q 49.859375 40.875 45.40625 35.40625 
Q 44.1875 33.984375 37.640625 27.21875 
Q 31.109375 20.453125 19.1875 8.296875 
z
" id="DejaVuSans-50"/>
      </defs>
      <g transform="translate(450.294929 527.238438)scale(0.1 -0.1)">
       <use xlink:href="#DejaVuSans-50"/>
       <use x="63.623047" xlink:href="#DejaVuSans-48"/>
       <use x="127.246094" xlink:href="#DejaVuSans-48"/>
      </g>
     </g>
    </g>
    <g id="xtick_6">
     <g id="line2d_6">
      <g>
       <use style="stroke:#000000;stroke-width:0.8;" x="539.651167" xlink:href="#m36d8a2e017" y="512.64"/>
      </g>
     </g>
     <g id="text_6">
      <!-- 250 -->
      <g transform="translate(530.107417 527.238438)scale(0.1 -0.1)">
       <use xlink:href="#DejaVuSans-50"/>
       <use x="63.623047" xlink:href="#DejaVuSans-53"/>
       <use x="127.246094" xlink:href="#DejaVuSans-48"/>
      </g>
     </g>
    </g>
    <g id="xtick_7">
     <g id="line2d_7">
      <g>
       <use style="stroke:#000000;stroke-width:0.8;" x="619.463655" xlink:href="#m36d8a2e017" y="512.64"/>
      </g>
     </g>
     <g id="text_7">
      <!-- 300 -->
      <defs>
       <path d="M 40.578125 39.3125 
Q 47.65625 37.796875 51.625 33 
Q 55.609375 28.21875 55.609375 21.1875 
Q 55.609375 10.40625 48.1875 4.484375 
Q 40.765625 -1.421875 27.09375 -1.421875 
Q 22.515625 -1.421875 17.65625 -0.515625 
Q 12.796875 0.390625 7.625 2.203125 
L 7.625 11.71875 
Q 11.71875 9.328125 16.59375 8.109375 
Q 21.484375 6.890625 26.8125 6.890625 
Q 36.078125 6.890625 40.9375 10.546875 
Q 45.796875 14.203125 45.796875 21.1875 
Q 45.796875 27.640625 41.28125 31.265625 
Q 36.765625 34.90625 28.71875 34.90625 
L 20.21875 34.90625 
L 20.21875 43.015625 
L 29.109375 43.015625 
Q 36.375 43.015625 40.234375 45.921875 
Q 44.09375 48.828125 44.09375 54.296875 
Q 44.09375 59.90625 40.109375 62.90625 
Q 36.140625 65.921875 28.71875 65.921875 
Q 24.65625 65.921875 20.015625 65.03125 
Q 15.375 64.15625 9.8125 62.3125 
L 9.8125 71.09375 
Q 15.4375 72.65625 20.34375 73.4375 
Q 25.25 74.21875 29.59375 74.21875 
Q 40.828125 74.21875 47.359375 69.109375 
Q 53.90625 64.015625 53.90625 55.328125 
Q 53.90625 49.265625 50.4375 45.09375 
Q 46.96875 40.921875 40.578125 39.3125 
z
" id="DejaVuSans-51"/>
      </defs>
      <g transform="translate(609.919905 527.238438)scale(0.1 -0.1)">
       <use xlink:href="#DejaVuSans-51"/>
       <use x="63.623047" xlink:href="#DejaVuSans-48"/>
       <use x="127.246094" xlink:href="#DejaVuSans-48"/>
      </g>
     </g>
    </g>
    <g id="xtick_8">
     <g id="line2d_8">
      <g>
       <use style="stroke:#000000;stroke-width:0.8;" x="699.276143" xlink:href="#m36d8a2e017" y="512.64"/>
      </g>
     </g>
     <g id="text_8">
      <!-- 350 -->
      <g transform="translate(689.732393 527.238438)scale(0.1 -0.1)">
       <use xlink:href="#DejaVuSans-51"/>
       <use x="63.623047" xlink:href="#DejaVuSans-53"/>
       <use x="127.246094" xlink:href="#DejaVuSans-48"/>
      </g>
     </g>
    </g>
    <g id="text_9">
     <!-- Time $t$/year -->
     <defs>
      <path d="M -0.296875 72.90625 
L 61.375 72.90625 
L 61.375 64.59375 
L 35.5 64.59375 
L 35.5 0 
L 25.59375 0 
L 25.59375 64.59375 
L -0.296875 64.59375 
z
" id="DejaVuSans-84"/>
      <path d="M 9.421875 54.6875 
L 18.40625 54.6875 
L 18.40625 0 
L 9.421875 0 
z
M 9.421875 75.984375 
L 18.40625 75.984375 
L 18.40625 64.59375 
L 9.421875 64.59375 
z
" id="DejaVuSans-105"/>
      <path d="M 52 44.1875 
Q 55.375 50.25 60.0625 53.125 
Q 64.75 56 71.09375 56 
Q 79.640625 56 84.28125 50.015625 
Q 88.921875 44.046875 88.921875 33.015625 
L 88.921875 0 
L 79.890625 0 
L 79.890625 32.71875 
Q 79.890625 40.578125 77.09375 44.375 
Q 74.3125 48.1875 68.609375 48.1875 
Q 61.625 48.1875 57.5625 43.546875 
Q 53.515625 38.921875 53.515625 30.90625 
L 53.515625 0 
L 44.484375 0 
L 44.484375 32.71875 
Q 44.484375 40.625 41.703125 44.40625 
Q 38.921875 48.1875 33.109375 48.1875 
Q 26.21875 48.1875 22.15625 43.53125 
Q 18.109375 38.875 18.109375 30.90625 
L 18.109375 0 
L 9.078125 0 
L 9.078125 54.6875 
L 18.109375 54.6875 
L 18.109375 46.1875 
Q 21.1875 51.21875 25.484375 53.609375 
Q 29.78125 56 35.6875 56 
Q 41.65625 56 45.828125 52.96875 
Q 50 49.953125 52 44.1875 
z
" id="DejaVuSans-109"/>
      <path d="M 56.203125 29.59375 
L 56.203125 25.203125 
L 14.890625 25.203125 
Q 15.484375 15.921875 20.484375 11.0625 
Q 25.484375 6.203125 34.421875 6.203125 
Q 39.59375 6.203125 44.453125 7.46875 
Q 49.3125 8.734375 54.109375 11.28125 
L 54.109375 2.78125 
Q 49.265625 0.734375 44.1875 -0.34375 
Q 39.109375 -1.421875 33.890625 -1.421875 
Q 20.796875 -1.421875 13.15625 6.1875 
Q 5.515625 13.8125 5.515625 26.8125 
Q 5.515625 40.234375 12.765625 48.109375 
Q 20.015625 56 32.328125 56 
Q 43.359375 56 49.78125 48.890625 
Q 56.203125 41.796875 56.203125 29.59375 
z
M 47.21875 32.234375 
Q 47.125 39.59375 43.09375 43.984375 
Q 39.0625 48.390625 32.421875 48.390625 
Q 24.90625 48.390625 20.390625 44.140625 
Q 15.875 39.890625 15.1875 32.171875 
z
" id="DejaVuSans-101"/>
      <path id="DejaVuSans-32"/>
      <path d="M 42.28125 54.6875 
L 40.921875 47.703125 
L 23 47.703125 
L 17.1875 18.015625 
Q 16.890625 16.359375 16.75 15.234375 
Q 16.609375 14.109375 16.609375 13.484375 
Q 16.609375 10.359375 18.484375 8.9375 
Q 20.359375 7.515625 24.515625 7.515625 
L 33.59375 7.515625 
L 32.078125 0 
L 23.484375 0 
Q 15.484375 0 11.546875 3.125 
Q 7.625 6.25 7.625 12.59375 
Q 7.625 13.71875 7.765625 15.0625 
Q 7.90625 16.40625 8.203125 18.015625 
L 14.015625 47.703125 
L 6.390625 47.703125 
L 7.8125 54.6875 
L 15.28125 54.6875 
L 18.3125 70.21875 
L 27.296875 70.21875 
L 24.3125 54.6875 
z
" id="DejaVuSans-Oblique-116"/>
      <path d="M 25.390625 72.90625 
L 33.6875 72.90625 
L 8.296875 -9.28125 
L 0 -9.28125 
z
" id="DejaVuSans-47"/>
      <path d="M 32.171875 -5.078125 
Q 28.375 -14.84375 24.75 -17.8125 
Q 21.140625 -20.796875 15.09375 -20.796875 
L 7.90625 -20.796875 
L 7.90625 -13.28125 
L 13.1875 -13.28125 
Q 16.890625 -13.28125 18.9375 -11.515625 
Q 21 -9.765625 23.484375 -3.21875 
L 25.09375 0.875 
L 2.984375 54.6875 
L 12.5 54.6875 
L 29.59375 11.921875 
L 46.6875 54.6875 
L 56.203125 54.6875 
z
" id="DejaVuSans-121"/>
      <path d="M 34.28125 27.484375 
Q 23.390625 27.484375 19.1875 25 
Q 14.984375 22.515625 14.984375 16.5 
Q 14.984375 11.71875 18.140625 8.90625 
Q 21.296875 6.109375 26.703125 6.109375 
Q 34.1875 6.109375 38.703125 11.40625 
Q 43.21875 16.703125 43.21875 25.484375 
L 43.21875 27.484375 
z
M 52.203125 31.203125 
L 52.203125 0 
L 43.21875 0 
L 43.21875 8.296875 
Q 40.140625 3.328125 35.546875 0.953125 
Q 30.953125 -1.421875 24.3125 -1.421875 
Q 15.921875 -1.421875 10.953125 3.296875 
Q 6 8.015625 6 15.921875 
Q 6 25.140625 12.171875 29.828125 
Q 18.359375 34.515625 30.609375 34.515625 
L 43.21875 34.515625 
L 43.21875 35.40625 
Q 43.21875 41.609375 39.140625 45 
Q 35.0625 48.390625 27.6875 48.390625 
Q 23 48.390625 18.546875 47.265625 
Q 14.109375 46.140625 10.015625 43.890625 
L 10.015625 52.203125 
Q 14.9375 54.109375 19.578125 55.046875 
Q 24.21875 56 28.609375 56 
Q 40.484375 56 46.34375 49.84375 
Q 52.203125 43.703125 52.203125 31.203125 
z
" id="DejaVuSans-97"/>
      <path d="M 41.109375 46.296875 
Q 39.59375 47.171875 37.8125 47.578125 
Q 36.03125 48 33.890625 48 
Q 26.265625 48 22.1875 43.046875 
Q 18.109375 38.09375 18.109375 28.8125 
L 18.109375 0 
L 9.078125 0 
L 9.078125 54.6875 
L 18.109375 54.6875 
L 18.109375 46.1875 
Q 20.953125 51.171875 25.484375 53.578125 
Q 30.03125 56 36.53125 56 
Q 37.453125 56 38.578125 55.875 
Q 39.703125 55.765625 41.0625 55.515625 
z
" id="DejaVuSans-114"/>
     </defs>
     <g transform="translate(414 540.918125)scale(0.1 -0.1)">
      <use transform="translate(0 0.015625)" xlink:href="#DejaVuSans-84"/>
      <use transform="translate(61.083984 0.015625)" xlink:href="#DejaVuSans-105"/>
      <use transform="translate(88.867188 0.015625)" xlink:href="#DejaVuSans-109"/>
      <use transform="translate(186.279297 0.015625)" xlink:href="#DejaVuSans-101"/>
      <use transform="translate(247.802734 0.015625)" xlink:href="#DejaVuSans-32"/>
      <use transform="translate(279.589844 0.015625)" xlink:href="#DejaVuSans-Oblique-116"/>
      <use transform="translate(318.798828 0.015625)" xlink:href="#DejaVuSans-47"/>
      <use transform="translate(352.490234 0.015625)" xlink:href="#DejaVuSans-121"/>
      <use transform="translate(411.669922 0.015625)" xlink:href="#DejaVuSans-101"/>
      <use transform="translate(473.193359 0.015625)" xlink:href="#DejaVuSans-97"/>
      <use transform="translate(534.472656 0.015625)" xlink:href="#DejaVuSans-114"/>
     </g>
    </g>
   </g>
   <g id="matplotlib.axis_2">
    <g id="ytick_1">
     <g id="line2d_9">
      <defs>
       <path d="M 0 0 
L -3.5 0 
" id="m134104d550" style="stroke:#000000;stroke-width:0.8;"/>
      </defs>
      <g>
       <use style="stroke:#000000;stroke-width:0.8;" x="108" xlink:href="#m134104d550" y="490.352349"/>
      </g>
     </g>
     <g id="text_10">
      <!-- 0 -->
      <g transform="translate(94.6375 494.151567)scale(0.1 -0.1)">
       <use xlink:href="#DejaVuSans-48"/>
      </g>
     </g>
    </g>
    <g id="ytick_2">
     <g id="line2d_10">
      <g>
       <use style="stroke:#000000;stroke-width:0.8;" x="108" xlink:href="#m134104d550" y="419.117954"/>
      </g>
     </g>
     <g id="text_11">
      <!-- 50000 -->
      <g transform="translate(69.1875 422.917172)scale(0.1 -0.1)">
       <use xlink:href="#DejaVuSans-53"/>
       <use x="63.623047" xlink:href="#DejaVuSans-48"/>
       <use x="127.246094" xlink:href="#DejaVuSans-48"/>
       <use x="190.869141" xlink:href="#DejaVuSans-48"/>
       <use x="254.492188" xlink:href="#DejaVuSans-48"/>
      </g>
     </g>
    </g>
    <g id="ytick_3">
     <g id="line2d_11">
      <g>
       <use style="stroke:#000000;stroke-width:0.8;" x="108" xlink:href="#m134104d550" y="347.883559"/>
      </g>
     </g>
     <g id="text_12">
      <!-- 100000 -->
      <g transform="translate(62.825 351.682777)scale(0.1 -0.1)">
       <use xlink:href="#DejaVuSans-49"/>
       <use x="63.623047" xlink:href="#DejaVuSans-48"/>
       <use x="127.246094" xlink:href="#DejaVuSans-48"/>
       <use x="190.869141" xlink:href="#DejaVuSans-48"/>
       <use x="254.492188" xlink:href="#DejaVuSans-48"/>
       <use x="318.115234" xlink:href="#DejaVuSans-48"/>
      </g>
     </g>
    </g>
    <g id="ytick_4">
     <g id="line2d_12">
      <g>
       <use style="stroke:#000000;stroke-width:0.8;" x="108" xlink:href="#m134104d550" y="276.649163"/>
      </g>
     </g>
     <g id="text_13">
      <!-- 150000 -->
      <g transform="translate(62.825 280.448382)scale(0.1 -0.1)">
       <use xlink:href="#DejaVuSans-49"/>
       <use x="63.623047" xlink:href="#DejaVuSans-53"/>
       <use x="127.246094" xlink:href="#DejaVuSans-48"/>
       <use x="190.869141" xlink:href="#DejaVuSans-48"/>
       <use x="254.492188" xlink:href="#DejaVuSans-48"/>
       <use x="318.115234" xlink:href="#DejaVuSans-48"/>
      </g>
     </g>
    </g>
    <g id="ytick_5">
     <g id="line2d_13">
      <g>
       <use style="stroke:#000000;stroke-width:0.8;" x="108" xlink:href="#m134104d550" y="205.414768"/>
      </g>
     </g>
     <g id="text_14">
      <!-- 200000 -->
      <g transform="translate(62.825 209.213987)scale(0.1 -0.1)">
       <use xlink:href="#DejaVuSans-50"/>
       <use x="63.623047" xlink:href="#DejaVuSans-48"/>
       <use x="127.246094" xlink:href="#DejaVuSans-48"/>
       <use x="190.869141" xlink:href="#DejaVuSans-48"/>
       <use x="254.492188" xlink:href="#DejaVuSans-48"/>
       <use x="318.115234" xlink:href="#DejaVuSans-48"/>
      </g>
     </g>
    </g>
    <g id="ytick_6">
     <g id="line2d_14">
      <g>
       <use style="stroke:#000000;stroke-width:0.8;" x="108" xlink:href="#m134104d550" y="134.180373"/>
      </g>
     </g>
     <g id="text_15">
      <!-- 250000 -->
      <g transform="translate(62.825 137.979592)scale(0.1 -0.1)">
       <use xlink:href="#DejaVuSans-50"/>
       <use x="63.623047" xlink:href="#DejaVuSans-53"/>
       <use x="127.246094" xlink:href="#DejaVuSans-48"/>
       <use x="190.869141" xlink:href="#DejaVuSans-48"/>
       <use x="254.492188" xlink:href="#DejaVuSans-48"/>
       <use x="318.115234" xlink:href="#DejaVuSans-48"/>
      </g>
     </g>
    </g>
    <g id="text_16">
     <!-- Weight of the dragon $y$/kg -->
     <defs>
      <path d="M 3.328125 72.90625 
L 13.28125 72.90625 
L 28.609375 11.28125 
L 43.890625 72.90625 
L 54.984375 72.90625 
L 70.3125 11.28125 
L 85.59375 72.90625 
L 95.609375 72.90625 
L 77.296875 0 
L 64.890625 0 
L 49.515625 63.28125 
L 33.984375 0 
L 21.578125 0 
z
" id="DejaVuSans-87"/>
      <path d="M 45.40625 27.984375 
Q 45.40625 37.75 41.375 43.109375 
Q 37.359375 48.484375 30.078125 48.484375 
Q 22.859375 48.484375 18.828125 43.109375 
Q 14.796875 37.75 14.796875 27.984375 
Q 14.796875 18.265625 18.828125 12.890625 
Q 22.859375 7.515625 30.078125 7.515625 
Q 37.359375 7.515625 41.375 12.890625 
Q 45.40625 18.265625 45.40625 27.984375 
z
M 54.390625 6.78125 
Q 54.390625 -7.171875 48.1875 -13.984375 
Q 42 -20.796875 29.203125 -20.796875 
Q 24.46875 -20.796875 20.265625 -20.09375 
Q 16.0625 -19.390625 12.109375 -17.921875 
L 12.109375 -9.1875 
Q 16.0625 -11.328125 19.921875 -12.34375 
Q 23.78125 -13.375 27.78125 -13.375 
Q 36.625 -13.375 41.015625 -8.765625 
Q 45.40625 -4.15625 45.40625 5.171875 
L 45.40625 9.625 
Q 42.625 4.78125 38.28125 2.390625 
Q 33.9375 0 27.875 0 
Q 17.828125 0 11.671875 7.65625 
Q 5.515625 15.328125 5.515625 27.984375 
Q 5.515625 40.671875 11.671875 48.328125 
Q 17.828125 56 27.875 56 
Q 33.9375 56 38.28125 53.609375 
Q 42.625 51.21875 45.40625 46.390625 
L 45.40625 54.6875 
L 54.390625 54.6875 
z
" id="DejaVuSans-103"/>
      <path d="M 54.890625 33.015625 
L 54.890625 0 
L 45.90625 0 
L 45.90625 32.71875 
Q 45.90625 40.484375 42.875 44.328125 
Q 39.84375 48.1875 33.796875 48.1875 
Q 26.515625 48.1875 22.3125 43.546875 
Q 18.109375 38.921875 18.109375 30.90625 
L 18.109375 0 
L 9.078125 0 
L 9.078125 75.984375 
L 18.109375 75.984375 
L 18.109375 46.1875 
Q 21.34375 51.125 25.703125 53.5625 
Q 30.078125 56 35.796875 56 
Q 45.21875 56 50.046875 50.171875 
Q 54.890625 44.34375 54.890625 33.015625 
z
" id="DejaVuSans-104"/>
      <path d="M 18.3125 70.21875 
L 18.3125 54.6875 
L 36.8125 54.6875 
L 36.8125 47.703125 
L 18.3125 47.703125 
L 18.3125 18.015625 
Q 18.3125 11.328125 20.140625 9.421875 
Q 21.96875 7.515625 27.59375 7.515625 
L 36.8125 7.515625 
L 36.8125 0 
L 27.59375 0 
Q 17.1875 0 13.234375 3.875 
Q 9.28125 7.765625 9.28125 18.015625 
L 9.28125 47.703125 
L 2.6875 47.703125 
L 2.6875 54.6875 
L 9.28125 54.6875 
L 9.28125 70.21875 
z
" id="DejaVuSans-116"/>
      <path d="M 30.609375 48.390625 
Q 23.390625 48.390625 19.1875 42.75 
Q 14.984375 37.109375 14.984375 27.296875 
Q 14.984375 17.484375 19.15625 11.84375 
Q 23.34375 6.203125 30.609375 6.203125 
Q 37.796875 6.203125 41.984375 11.859375 
Q 46.1875 17.53125 46.1875 27.296875 
Q 46.1875 37.015625 41.984375 42.703125 
Q 37.796875 48.390625 30.609375 48.390625 
z
M 30.609375 56 
Q 42.328125 56 49.015625 48.375 
Q 55.71875 40.765625 55.71875 27.296875 
Q 55.71875 13.875 49.015625 6.21875 
Q 42.328125 -1.421875 30.609375 -1.421875 
Q 18.84375 -1.421875 12.171875 6.21875 
Q 5.515625 13.875 5.515625 27.296875 
Q 5.515625 40.765625 12.171875 48.375 
Q 18.84375 56 30.609375 56 
z
" id="DejaVuSans-111"/>
      <path d="M 37.109375 75.984375 
L 37.109375 68.5 
L 28.515625 68.5 
Q 23.6875 68.5 21.796875 66.546875 
Q 19.921875 64.59375 19.921875 59.515625 
L 19.921875 54.6875 
L 34.71875 54.6875 
L 34.71875 47.703125 
L 19.921875 47.703125 
L 19.921875 0 
L 10.890625 0 
L 10.890625 47.703125 
L 2.296875 47.703125 
L 2.296875 54.6875 
L 10.890625 54.6875 
L 10.890625 58.5 
Q 10.890625 67.625 15.140625 71.796875 
Q 19.390625 75.984375 28.609375 75.984375 
z
" id="DejaVuSans-102"/>
      <path d="M 45.40625 46.390625 
L 45.40625 75.984375 
L 54.390625 75.984375 
L 54.390625 0 
L 45.40625 0 
L 45.40625 8.203125 
Q 42.578125 3.328125 38.25 0.953125 
Q 33.9375 -1.421875 27.875 -1.421875 
Q 17.96875 -1.421875 11.734375 6.484375 
Q 5.515625 14.40625 5.515625 27.296875 
Q 5.515625 40.1875 11.734375 48.09375 
Q 17.96875 56 27.875 56 
Q 33.9375 56 38.25 53.625 
Q 42.578125 51.265625 45.40625 46.390625 
z
M 14.796875 27.296875 
Q 14.796875 17.390625 18.875 11.75 
Q 22.953125 6.109375 30.078125 6.109375 
Q 37.203125 6.109375 41.296875 11.75 
Q 45.40625 17.390625 45.40625 27.296875 
Q 45.40625 37.203125 41.296875 42.84375 
Q 37.203125 48.484375 30.078125 48.484375 
Q 22.953125 48.484375 18.875 42.84375 
Q 14.796875 37.203125 14.796875 27.296875 
z
" id="DejaVuSans-100"/>
      <path d="M 54.890625 33.015625 
L 54.890625 0 
L 45.90625 0 
L 45.90625 32.71875 
Q 45.90625 40.484375 42.875 44.328125 
Q 39.84375 48.1875 33.796875 48.1875 
Q 26.515625 48.1875 22.3125 43.546875 
Q 18.109375 38.921875 18.109375 30.90625 
L 18.109375 0 
L 9.078125 0 
L 9.078125 54.6875 
L 18.109375 54.6875 
L 18.109375 46.1875 
Q 21.34375 51.125 25.703125 53.5625 
Q 30.078125 56 35.796875 56 
Q 45.21875 56 50.046875 50.171875 
Q 54.890625 44.34375 54.890625 33.015625 
z
" id="DejaVuSans-110"/>
      <path d="M 24.8125 -5.078125 
Q 18.5625 -15.578125 14.625 -18.1875 
Q 10.6875 -20.796875 4.59375 -20.796875 
L -2.484375 -20.796875 
L -0.984375 -13.28125 
L 4.203125 -13.28125 
Q 7.953125 -13.28125 10.59375 -11.234375 
Q 13.234375 -9.1875 16.5 -3.21875 
L 19.28125 2 
L 7.171875 54.6875 
L 16.703125 54.6875 
L 25.78125 12.796875 
L 50.875 54.6875 
L 60.296875 54.6875 
z
" id="DejaVuSans-Oblique-121"/>
      <path d="M 9.078125 75.984375 
L 18.109375 75.984375 
L 18.109375 31.109375 
L 44.921875 54.6875 
L 56.390625 54.6875 
L 27.390625 29.109375 
L 57.625 0 
L 45.90625 0 
L 18.109375 26.703125 
L 18.109375 0 
L 9.078125 0 
z
" id="DejaVuSans-107"/>
     </defs>
     <g transform="translate(56.725 356.43)rotate(-90)scale(0.1 -0.1)">
      <use transform="translate(0 0.015625)" xlink:href="#DejaVuSans-87"/>
      <use transform="translate(98.876953 0.015625)" xlink:href="#DejaVuSans-101"/>
      <use transform="translate(160.400391 0.015625)" xlink:href="#DejaVuSans-105"/>
      <use transform="translate(188.183594 0.015625)" xlink:href="#DejaVuSans-103"/>
      <use transform="translate(251.660156 0.015625)" xlink:href="#DejaVuSans-104"/>
      <use transform="translate(315.039062 0.015625)" xlink:href="#DejaVuSans-116"/>
      <use transform="translate(354.248047 0.015625)" xlink:href="#DejaVuSans-32"/>
      <use transform="translate(386.035156 0.015625)" xlink:href="#DejaVuSans-111"/>
      <use transform="translate(447.216797 0.015625)" xlink:href="#DejaVuSans-102"/>
      <use transform="translate(482.421875 0.015625)" xlink:href="#DejaVuSans-32"/>
      <use transform="translate(514.208984 0.015625)" xlink:href="#DejaVuSans-116"/>
      <use transform="translate(553.417969 0.015625)" xlink:href="#DejaVuSans-104"/>
      <use transform="translate(616.796875 0.015625)" xlink:href="#DejaVuSans-101"/>
      <use transform="translate(678.320312 0.015625)" xlink:href="#DejaVuSans-32"/>
      <use transform="translate(710.107422 0.015625)" xlink:href="#DejaVuSans-100"/>
      <use transform="translate(773.583984 0.015625)" xlink:href="#DejaVuSans-114"/>
      <use transform="translate(814.697266 0.015625)" xlink:href="#DejaVuSans-97"/>
      <use transform="translate(875.976562 0.015625)" xlink:href="#DejaVuSans-103"/>
      <use transform="translate(939.453125 0.015625)" xlink:href="#DejaVuSans-111"/>
      <use transform="translate(1000.634766 0.015625)" xlink:href="#DejaVuSans-110"/>
      <use transform="translate(1064.013672 0.015625)" xlink:href="#DejaVuSans-32"/>
      <use transform="translate(1095.800781 0.015625)" xlink:href="#DejaVuSans-Oblique-121"/>
      <use transform="translate(1154.980469 0.015625)" xlink:href="#DejaVuSans-47"/>
      <use transform="translate(1188.671875 0.015625)" xlink:href="#DejaVuSans-107"/>
      <use transform="translate(1246.582031 0.015625)" xlink:href="#DejaVuSans-103"/>
     </g>
    </g>
   </g>
   <g id="line2d_15">
    <path clip-path="url(#pece7fd5517)" d="M 140.588726 490.338102 
L 145.390111 490.121198 
L 148.591034 489.737273 
L 151.791957 489.096563 
L 154.99288 488.158808 
L 158.193803 486.895422 
L 161.394726 485.287684 
L 164.595649 483.325157 
L 167.796572 481.004305 
L 170.997495 478.327302 
L 174.198418 475.300987 
L 177.399341 471.935971 
L 180.600264 468.245857 
L 183.801187 464.246579 
L 187.00211 459.955827 
L 190.203033 455.392559 
L 195.004417 448.080185 
L 199.805802 440.26806 
L 204.607186 432.025365 
L 211.009032 420.482596 
L 217.410878 408.44941 
L 225.413186 392.935872 
L 241.417801 361.255156 
L 254.221493 336.150764 
L 263.824262 317.864656 
L 271.82657 303.131039 
L 279.828877 288.939242 
L 286.230723 278.01389 
L 292.632569 267.491302 
L 299.034415 257.385188 
L 305.436261 247.703762 
L 311.838107 238.45054 
L 318.239953 229.625066 
L 324.641799 221.223563 
L 331.043645 213.239507 
L 337.445491 205.664143 
L 343.847337 198.486927 
L 350.249183 191.695918 
L 356.651029 185.278116 
L 363.052875 179.219753 
L 369.454721 173.506534 
L 375.856567 168.123854 
L 382.258413 163.056973 
L 388.660259 158.291158 
L 395.062105 153.81181 
L 401.463951 149.604561 
L 407.865797 145.655351 
L 414.267643 141.950495 
L 420.669489 138.47673 
L 427.071335 135.221248 
L 433.473182 132.171726 
L 441.475489 128.631495 
L 449.477797 125.372673 
L 457.480104 122.374546 
L 465.482412 119.617641 
L 473.484719 117.083708 
L 481.487027 114.75568 
L 491.089796 112.2115 
L 500.692565 109.915512 
L 510.295334 107.844417 
L 519.898103 105.976922 
L 531.101333 104.029694 
L 542.304564 102.305356 
L 555.108256 100.57574 
L 567.911948 99.07176 
L 582.316101 97.613583 
L 598.320716 96.24206 
L 614.325332 95.091939 
L 631.930408 94.040443 
L 652.736408 93.034618 
L 675.142869 92.181383 
L 700.750253 91.433373 
L 731.159021 90.781405 
L 747.163636 90.517105 
L 747.163636 90.517105 
" style="fill:none;stroke:#1f77b4;stroke-linecap:square;stroke-width:1.5;"/>
   </g>
   <g id="line2d_16">
    <path clip-path="url(#pece7fd5517)" d="M 108 89.160236 
L 777.6 89.160236 
" style="fill:none;stroke:#ff0000;stroke-dasharray:7.4,3.2;stroke-dashoffset:0;stroke-width:2;"/>
   </g>
   <g id="line2d_17">
    <path clip-path="url(#pece7fd5517)" d="M 699.276143 512.64 
L 699.276143 69.12 
" style="fill:none;stroke:#ff0000;stroke-dasharray:7.4,3.2;stroke-dashoffset:0;stroke-width:2;"/>
   </g>
   <g id="patch_3">
    <path d="M 108 512.64 
L 108 69.12 
" style="fill:none;stroke:#000000;stroke-linecap:square;stroke-linejoin:miter;stroke-width:0.8;"/>
   </g>
   <g id="patch_4">
    <path d="M 777.6 512.64 
L 777.6 69.12 
" style="fill:none;stroke:#000000;stroke-linecap:square;stroke-linejoin:miter;stroke-width:0.8;"/>
   </g>
   <g id="patch_5">
    <path d="M 108 512.64 
L 777.6 512.64 
" style="fill:none;stroke:#000000;stroke-linecap:square;stroke-linejoin:miter;stroke-width:0.8;"/>
   </g>
   <g id="patch_6">
    <path d="M 108 69.12 
L 777.6 69.12 
" style="fill:none;stroke:#000000;stroke-linecap:square;stroke-linejoin:miter;stroke-width:0.8;"/>
   </g>
   <g id="text_17">
    <!-- (0.00, 10.00) -->
    <defs>
     <path d="M 31 75.875 
Q 24.46875 64.65625 21.28125 53.65625 
Q 18.109375 42.671875 18.109375 31.390625 
Q 18.109375 20.125 21.3125 9.0625 
Q 24.515625 -2 31 -13.1875 
L 23.1875 -13.1875 
Q 15.875 -1.703125 12.234375 9.375 
Q 8.59375 20.453125 8.59375 31.390625 
Q 8.59375 42.28125 12.203125 53.3125 
Q 15.828125 64.359375 23.1875 75.875 
z
" id="DejaVuSans-40"/>
     <path d="M 10.6875 12.40625 
L 21 12.40625 
L 21 0 
L 10.6875 0 
z
" id="DejaVuSans-46"/>
     <path d="M 11.71875 12.40625 
L 22.015625 12.40625 
L 22.015625 4 
L 14.015625 -11.625 
L 7.71875 -11.625 
L 11.71875 4 
z
" id="DejaVuSans-44"/>
     <path d="M 8.015625 75.875 
L 15.828125 75.875 
Q 23.140625 64.359375 26.78125 53.3125 
Q 30.421875 42.28125 30.421875 31.390625 
Q 30.421875 20.453125 26.78125 9.375 
Q 23.140625 -1.703125 15.828125 -13.1875 
L 8.015625 -13.1875 
Q 14.5 -2 17.703125 9.0625 
Q 20.90625 20.125 20.90625 31.390625 
Q 20.90625 42.671875 17.703125 53.65625 
Q 14.5 64.65625 8.015625 75.875 
z
" id="DejaVuSans-41"/>
    </defs>
    <g transform="translate(140.588726 490.338529)scale(0.1 -0.1)">
     <use xlink:href="#DejaVuSans-40"/>
     <use x="39.013672" xlink:href="#DejaVuSans-48"/>
     <use x="102.636719" xlink:href="#DejaVuSans-46"/>
     <use x="134.423828" xlink:href="#DejaVuSans-48"/>
     <use x="198.046875" xlink:href="#DejaVuSans-48"/>
     <use x="261.669922" xlink:href="#DejaVuSans-44"/>
     <use x="293.457031" xlink:href="#DejaVuSans-32"/>
     <use x="325.244141" xlink:href="#DejaVuSans-49"/>
     <use x="388.867188" xlink:href="#DejaVuSans-48"/>
     <use x="452.490234" xlink:href="#DejaVuSans-46"/>
     <use x="484.277344" xlink:href="#DejaVuSans-48"/>
     <use x="547.900391" xlink:href="#DejaVuSans-48"/>
     <use x="611.523438" xlink:href="#DejaVuSans-41"/>
    </g>
   </g>
   <g id="text_18">
    <!-- (1.00, 35.09) -->
    <defs>
     <path d="M 10.984375 1.515625 
L 10.984375 10.5 
Q 14.703125 8.734375 18.5 7.8125 
Q 22.3125 6.890625 25.984375 6.890625 
Q 35.75 6.890625 40.890625 13.453125 
Q 46.046875 20.015625 46.78125 33.40625 
Q 43.953125 29.203125 39.59375 26.953125 
Q 35.25 24.703125 29.984375 24.703125 
Q 19.046875 24.703125 12.671875 31.3125 
Q 6.296875 37.9375 6.296875 49.421875 
Q 6.296875 60.640625 12.9375 67.421875 
Q 19.578125 74.21875 30.609375 74.21875 
Q 43.265625 74.21875 49.921875 64.515625 
Q 56.59375 54.828125 56.59375 36.375 
Q 56.59375 19.140625 48.40625 8.859375 
Q 40.234375 -1.421875 26.421875 -1.421875 
Q 22.703125 -1.421875 18.890625 -0.6875 
Q 15.09375 0.046875 10.984375 1.515625 
z
M 30.609375 32.421875 
Q 37.25 32.421875 41.125 36.953125 
Q 45.015625 41.5 45.015625 49.421875 
Q 45.015625 57.28125 41.125 61.84375 
Q 37.25 66.40625 30.609375 66.40625 
Q 23.96875 66.40625 20.09375 61.84375 
Q 16.21875 57.28125 16.21875 49.421875 
Q 16.21875 41.5 20.09375 36.953125 
Q 23.96875 32.421875 30.609375 32.421875 
z
" id="DejaVuSans-57"/>
    </defs>
    <g transform="translate(188.476219 480.352801)scale(0.1 -0.1)">
     <use xlink:href="#DejaVuSans-40"/>
     <use x="39.013672" xlink:href="#DejaVuSans-49"/>
     <use x="102.636719" xlink:href="#DejaVuSans-46"/>
     <use x="134.423828" xlink:href="#DejaVuSans-48"/>
     <use x="198.046875" xlink:href="#DejaVuSans-48"/>
     <use x="261.669922" xlink:href="#DejaVuSans-44"/>
     <use x="293.457031" xlink:href="#DejaVuSans-32"/>
     <use x="325.244141" xlink:href="#DejaVuSans-51"/>
     <use x="388.867188" xlink:href="#DejaVuSans-53"/>
     <use x="452.490234" xlink:href="#DejaVuSans-46"/>
     <use x="484.277344" xlink:href="#DejaVuSans-48"/>
     <use x="547.900391" xlink:href="#DejaVuSans-57"/>
     <use x="611.523438" xlink:href="#DejaVuSans-41"/>
    </g>
   </g>
   <g id="text_19">
    <!-- (30.00, 22914.01) -->
    <defs>
     <path d="M 37.796875 64.3125 
L 12.890625 25.390625 
L 37.796875 25.390625 
z
M 35.203125 72.90625 
L 47.609375 72.90625 
L 47.609375 25.390625 
L 58.015625 25.390625 
L 58.015625 17.1875 
L 47.609375 17.1875 
L 47.609375 0 
L 37.796875 0 
L 37.796875 17.1875 
L 4.890625 17.1875 
L 4.890625 26.703125 
z
" id="DejaVuSans-52"/>
    </defs>
    <g transform="translate(189.912844 458.686394)scale(0.1 -0.1)">
     <use xlink:href="#DejaVuSans-40"/>
     <use x="39.013672" xlink:href="#DejaVuSans-51"/>
     <use x="102.636719" xlink:href="#DejaVuSans-48"/>
     <use x="166.259766" xlink:href="#DejaVuSans-46"/>
     <use x="198.046875" xlink:href="#DejaVuSans-48"/>
     <use x="261.669922" xlink:href="#DejaVuSans-48"/>
     <use x="325.292969" xlink:href="#DejaVuSans-44"/>
     <use x="357.080078" xlink:href="#DejaVuSans-32"/>
     <use x="388.867188" xlink:href="#DejaVuSans-50"/>
     <use x="452.490234" xlink:href="#DejaVuSans-50"/>
     <use x="516.113281" xlink:href="#DejaVuSans-57"/>
     <use x="579.736328" xlink:href="#DejaVuSans-49"/>
     <use x="643.359375" xlink:href="#DejaVuSans-52"/>
     <use x="706.982422" xlink:href="#DejaVuSans-46"/>
     <use x="738.769531" xlink:href="#DejaVuSans-48"/>
     <use x="802.392578" xlink:href="#DejaVuSans-49"/>
     <use x="866.015625" xlink:href="#DejaVuSans-41"/>
    </g>
   </g>
   <g id="text_20">
    <!-- (60.00, 83929.75) -->
    <defs>
     <path d="M 33.015625 40.375 
Q 26.375 40.375 22.484375 35.828125 
Q 18.609375 31.296875 18.609375 23.390625 
Q 18.609375 15.53125 22.484375 10.953125 
Q 26.375 6.390625 33.015625 6.390625 
Q 39.65625 6.390625 43.53125 10.953125 
Q 47.40625 15.53125 47.40625 23.390625 
Q 47.40625 31.296875 43.53125 35.828125 
Q 39.65625 40.375 33.015625 40.375 
z
M 52.59375 71.296875 
L 52.59375 62.3125 
Q 48.875 64.0625 45.09375 64.984375 
Q 41.3125 65.921875 37.59375 65.921875 
Q 27.828125 65.921875 22.671875 59.328125 
Q 17.53125 52.734375 16.796875 39.40625 
Q 19.671875 43.65625 24.015625 45.921875 
Q 28.375 48.1875 33.59375 48.1875 
Q 44.578125 48.1875 50.953125 41.515625 
Q 57.328125 34.859375 57.328125 23.390625 
Q 57.328125 12.15625 50.6875 5.359375 
Q 44.046875 -1.421875 33.015625 -1.421875 
Q 20.359375 -1.421875 13.671875 8.265625 
Q 6.984375 17.96875 6.984375 36.375 
Q 6.984375 53.65625 15.1875 63.9375 
Q 23.390625 74.21875 37.203125 74.21875 
Q 40.921875 74.21875 44.703125 73.484375 
Q 48.484375 72.75 52.59375 71.296875 
z
" id="DejaVuSans-54"/>
     <path d="M 31.78125 34.625 
Q 24.75 34.625 20.71875 30.859375 
Q 16.703125 27.09375 16.703125 20.515625 
Q 16.703125 13.921875 20.71875 10.15625 
Q 24.75 6.390625 31.78125 6.390625 
Q 38.8125 6.390625 42.859375 10.171875 
Q 46.921875 13.96875 46.921875 20.515625 
Q 46.921875 27.09375 42.890625 30.859375 
Q 38.875 34.625 31.78125 34.625 
z
M 21.921875 38.8125 
Q 15.578125 40.375 12.03125 44.71875 
Q 8.5 49.078125 8.5 55.328125 
Q 8.5 64.0625 14.71875 69.140625 
Q 20.953125 74.21875 31.78125 74.21875 
Q 42.671875 74.21875 48.875 69.140625 
Q 55.078125 64.0625 55.078125 55.328125 
Q 55.078125 49.078125 51.53125 44.71875 
Q 48 40.375 41.703125 38.8125 
Q 48.828125 37.15625 52.796875 32.3125 
Q 56.78125 27.484375 56.78125 20.515625 
Q 56.78125 9.90625 50.3125 4.234375 
Q 43.84375 -1.421875 31.78125 -1.421875 
Q 19.734375 -1.421875 13.25 4.234375 
Q 6.78125 9.90625 6.78125 20.515625 
Q 6.78125 27.484375 10.78125 32.3125 
Q 14.796875 37.15625 21.921875 38.8125 
z
M 18.3125 54.390625 
Q 18.3125 48.734375 21.84375 45.5625 
Q 25.390625 42.390625 31.78125 42.390625 
Q 38.140625 42.390625 41.71875 45.5625 
Q 45.3125 48.734375 45.3125 54.390625 
Q 45.3125 60.0625 41.71875 63.234375 
Q 38.140625 66.40625 31.78125 66.40625 
Q 25.390625 66.40625 21.84375 63.234375 
Q 18.3125 60.0625 18.3125 54.390625 
z
" id="DejaVuSans-56"/>
     <path d="M 8.203125 72.90625 
L 55.078125 72.90625 
L 55.078125 68.703125 
L 28.609375 0 
L 18.3125 0 
L 43.21875 64.59375 
L 8.203125 64.59375 
z
" id="DejaVuSans-55"/>
    </defs>
    <g transform="translate(239.236962 374.365861)scale(0.1 -0.1)">
     <use xlink:href="#DejaVuSans-40"/>
     <use x="39.013672" xlink:href="#DejaVuSans-54"/>
     <use x="102.636719" xlink:href="#DejaVuSans-48"/>
     <use x="166.259766" xlink:href="#DejaVuSans-46"/>
     <use x="198.046875" xlink:href="#DejaVuSans-48"/>
     <use x="261.669922" xlink:href="#DejaVuSans-48"/>
     <use x="325.292969" xlink:href="#DejaVuSans-44"/>
     <use x="357.080078" xlink:href="#DejaVuSans-32"/>
     <use x="388.867188" xlink:href="#DejaVuSans-56"/>
     <use x="452.490234" xlink:href="#DejaVuSans-51"/>
     <use x="516.113281" xlink:href="#DejaVuSans-57"/>
     <use x="579.736328" xlink:href="#DejaVuSans-50"/>
     <use x="643.359375" xlink:href="#DejaVuSans-57"/>
     <use x="706.982422" xlink:href="#DejaVuSans-46"/>
     <use x="738.769531" xlink:href="#DejaVuSans-55"/>
     <use x="802.392578" xlink:href="#DejaVuSans-53"/>
     <use x="866.015625" xlink:href="#DejaVuSans-41"/>
    </g>
   </g>
   <g id="text_21">
    <!-- (90.00, 147150.97) -->
    <g transform="translate(288.561079 286.997464)scale(0.1 -0.1)">
     <use xlink:href="#DejaVuSans-40"/>
     <use x="39.013672" xlink:href="#DejaVuSans-57"/>
     <use x="102.636719" xlink:href="#DejaVuSans-48"/>
     <use x="166.259766" xlink:href="#DejaVuSans-46"/>
     <use x="198.046875" xlink:href="#DejaVuSans-48"/>
     <use x="261.669922" xlink:href="#DejaVuSans-48"/>
     <use x="325.292969" xlink:href="#DejaVuSans-44"/>
     <use x="357.080078" xlink:href="#DejaVuSans-32"/>
     <use x="388.867188" xlink:href="#DejaVuSans-49"/>
     <use x="452.490234" xlink:href="#DejaVuSans-52"/>
     <use x="516.113281" xlink:href="#DejaVuSans-55"/>
     <use x="579.736328" xlink:href="#DejaVuSans-49"/>
     <use x="643.359375" xlink:href="#DejaVuSans-53"/>
     <use x="706.982422" xlink:href="#DejaVuSans-48"/>
     <use x="770.605469" xlink:href="#DejaVuSans-46"/>
     <use x="802.392578" xlink:href="#DejaVuSans-57"/>
     <use x="866.015625" xlink:href="#DejaVuSans-55"/>
     <use x="929.638672" xlink:href="#DejaVuSans-41"/>
    </g>
   </g>
   <g id="text_22">
    <!-- (100.00, 165248.50) -->
    <g transform="translate(305.002452 261.987631)scale(0.1 -0.1)">
     <use xlink:href="#DejaVuSans-40"/>
     <use x="39.013672" xlink:href="#DejaVuSans-49"/>
     <use x="102.636719" xlink:href="#DejaVuSans-48"/>
     <use x="166.259766" xlink:href="#DejaVuSans-48"/>
     <use x="229.882812" xlink:href="#DejaVuSans-46"/>
     <use x="261.669922" xlink:href="#DejaVuSans-48"/>
     <use x="325.292969" xlink:href="#DejaVuSans-48"/>
     <use x="388.916016" xlink:href="#DejaVuSans-44"/>
     <use x="420.703125" xlink:href="#DejaVuSans-32"/>
     <use x="452.490234" xlink:href="#DejaVuSans-49"/>
     <use x="516.113281" xlink:href="#DejaVuSans-54"/>
     <use x="579.736328" xlink:href="#DejaVuSans-53"/>
     <use x="643.359375" xlink:href="#DejaVuSans-50"/>
     <use x="706.982422" xlink:href="#DejaVuSans-52"/>
     <use x="770.605469" xlink:href="#DejaVuSans-56"/>
     <use x="834.228516" xlink:href="#DejaVuSans-46"/>
     <use x="866.015625" xlink:href="#DejaVuSans-53"/>
     <use x="929.638672" xlink:href="#DejaVuSans-48"/>
     <use x="993.261719" xlink:href="#DejaVuSans-41"/>
    </g>
   </g>
   <g id="text_23">
    <!-- (125.00, 202378.26) -->
    <g transform="translate(346.105883 210.67626)scale(0.1 -0.1)">
     <use xlink:href="#DejaVuSans-40"/>
     <use x="39.013672" xlink:href="#DejaVuSans-49"/>
     <use x="102.636719" xlink:href="#DejaVuSans-50"/>
     <use x="166.259766" xlink:href="#DejaVuSans-53"/>
     <use x="229.882812" xlink:href="#DejaVuSans-46"/>
     <use x="261.669922" xlink:href="#DejaVuSans-48"/>
     <use x="325.292969" xlink:href="#DejaVuSans-48"/>
     <use x="388.916016" xlink:href="#DejaVuSans-44"/>
     <use x="420.703125" xlink:href="#DejaVuSans-32"/>
     <use x="452.490234" xlink:href="#DejaVuSans-50"/>
     <use x="516.113281" xlink:href="#DejaVuSans-48"/>
     <use x="579.736328" xlink:href="#DejaVuSans-50"/>
     <use x="643.359375" xlink:href="#DejaVuSans-51"/>
     <use x="706.982422" xlink:href="#DejaVuSans-55"/>
     <use x="770.605469" xlink:href="#DejaVuSans-56"/>
     <use x="834.228516" xlink:href="#DejaVuSans-46"/>
     <use x="866.015625" xlink:href="#DejaVuSans-50"/>
     <use x="929.638672" xlink:href="#DejaVuSans-54"/>
     <use x="993.261719" xlink:href="#DejaVuSans-41"/>
    </g>
   </g>
   <g id="text_24">
    <!-- (150.00, 228862.37) -->
    <g transform="translate(387.209315 174.076618)scale(0.1 -0.1)">
     <use xlink:href="#DejaVuSans-40"/>
     <use x="39.013672" xlink:href="#DejaVuSans-49"/>
     <use x="102.636719" xlink:href="#DejaVuSans-53"/>
     <use x="166.259766" xlink:href="#DejaVuSans-48"/>
     <use x="229.882812" xlink:href="#DejaVuSans-46"/>
     <use x="261.669922" xlink:href="#DejaVuSans-48"/>
     <use x="325.292969" xlink:href="#DejaVuSans-48"/>
     <use x="388.916016" xlink:href="#DejaVuSans-44"/>
     <use x="420.703125" xlink:href="#DejaVuSans-32"/>
     <use x="452.490234" xlink:href="#DejaVuSans-50"/>
     <use x="516.113281" xlink:href="#DejaVuSans-50"/>
     <use x="579.736328" xlink:href="#DejaVuSans-56"/>
     <use x="643.359375" xlink:href="#DejaVuSans-56"/>
     <use x="706.982422" xlink:href="#DejaVuSans-54"/>
     <use x="770.605469" xlink:href="#DejaVuSans-50"/>
     <use x="834.228516" xlink:href="#DejaVuSans-46"/>
     <use x="866.015625" xlink:href="#DejaVuSans-51"/>
     <use x="929.638672" xlink:href="#DejaVuSans-55"/>
     <use x="993.261719" xlink:href="#DejaVuSans-41"/>
    </g>
   </g>
   <g id="text_25">
    <!-- (280.00, 276072.02) -->
    <g transform="translate(600.947158 108.835375)scale(0.1 -0.1)">
     <use xlink:href="#DejaVuSans-40"/>
     <use x="39.013672" xlink:href="#DejaVuSans-50"/>
     <use x="102.636719" xlink:href="#DejaVuSans-56"/>
     <use x="166.259766" xlink:href="#DejaVuSans-48"/>
     <use x="229.882812" xlink:href="#DejaVuSans-46"/>
     <use x="261.669922" xlink:href="#DejaVuSans-48"/>
     <use x="325.292969" xlink:href="#DejaVuSans-48"/>
     <use x="388.916016" xlink:href="#DejaVuSans-44"/>
     <use x="420.703125" xlink:href="#DejaVuSans-32"/>
     <use x="452.490234" xlink:href="#DejaVuSans-50"/>
     <use x="516.113281" xlink:href="#DejaVuSans-55"/>
     <use x="579.736328" xlink:href="#DejaVuSans-54"/>
     <use x="643.359375" xlink:href="#DejaVuSans-48"/>
     <use x="706.982422" xlink:href="#DejaVuSans-55"/>
     <use x="770.605469" xlink:href="#DejaVuSans-50"/>
     <use x="834.228516" xlink:href="#DejaVuSans-46"/>
     <use x="866.015625" xlink:href="#DejaVuSans-48"/>
     <use x="929.638672" xlink:href="#DejaVuSans-50"/>
     <use x="993.261719" xlink:href="#DejaVuSans-41"/>
    </g>
   </g>
   <g id="text_26">
    <!-- (350.00, 280004.47) -->
    <g transform="translate(716.036766 103.400942)scale(0.1 -0.1)">
     <use xlink:href="#DejaVuSans-40"/>
     <use x="39.013672" xlink:href="#DejaVuSans-51"/>
     <use x="102.636719" xlink:href="#DejaVuSans-53"/>
     <use x="166.259766" xlink:href="#DejaVuSans-48"/>
     <use x="229.882812" xlink:href="#DejaVuSans-46"/>
     <use x="261.669922" xlink:href="#DejaVuSans-48"/>
     <use x="325.292969" xlink:href="#DejaVuSans-48"/>
     <use x="388.916016" xlink:href="#DejaVuSans-44"/>
     <use x="420.703125" xlink:href="#DejaVuSans-32"/>
     <use x="452.490234" xlink:href="#DejaVuSans-50"/>
     <use x="516.113281" xlink:href="#DejaVuSans-56"/>
     <use x="579.736328" xlink:href="#DejaVuSans-48"/>
     <use x="643.359375" xlink:href="#DejaVuSans-48"/>
     <use x="706.982422" xlink:href="#DejaVuSans-48"/>
     <use x="770.605469" xlink:href="#DejaVuSans-52"/>
     <use x="834.228516" xlink:href="#DejaVuSans-46"/>
     <use x="866.015625" xlink:href="#DejaVuSans-52"/>
     <use x="929.638672" xlink:href="#DejaVuSans-55"/>
     <use x="993.261719" xlink:href="#DejaVuSans-41"/>
    </g>
   </g>
   <g id="text_27">
    <!-- y = 281600.0 -->
    <defs>
     <path d="M 10.59375 45.40625 
L 73.1875 45.40625 
L 73.1875 37.203125 
L 10.59375 37.203125 
z
M 10.59375 25.484375 
L 73.1875 25.484375 
L 73.1875 17.1875 
L 10.59375 17.1875 
z
" id="DejaVuSans-61"/>
    </defs>
    <g transform="translate(156.551224 109.219841)scale(0.1 -0.1)">
     <use xlink:href="#DejaVuSans-121"/>
     <use x="59.179688" xlink:href="#DejaVuSans-32"/>
     <use x="90.966797" xlink:href="#DejaVuSans-61"/>
     <use x="174.755859" xlink:href="#DejaVuSans-32"/>
     <use x="206.542969" xlink:href="#DejaVuSans-50"/>
     <use x="270.166016" xlink:href="#DejaVuSans-56"/>
     <use x="333.789062" xlink:href="#DejaVuSans-49"/>
     <use x="397.412109" xlink:href="#DejaVuSans-54"/>
     <use x="461.035156" xlink:href="#DejaVuSans-48"/>
     <use x="524.658203" xlink:href="#DejaVuSans-48"/>
     <use x="588.28125" xlink:href="#DejaVuSans-46"/>
     <use x="620.068359" xlink:href="#DejaVuSans-48"/>
    </g>
   </g>
   <g id="text_28">
    <!-- x = 350 -->
    <defs>
     <path d="M 54.890625 54.6875 
L 35.109375 28.078125 
L 55.90625 0 
L 45.3125 0 
L 29.390625 21.484375 
L 13.484375 0 
L 2.875 0 
L 24.125 28.609375 
L 4.6875 54.6875 
L 15.28125 54.6875 
L 29.78125 35.203125 
L 44.28125 54.6875 
z
" id="DejaVuSans-120"/>
    </defs>
    <g transform="translate(710.449892 490.338102)scale(0.1 -0.1)">
     <use xlink:href="#DejaVuSans-120"/>
     <use x="59.179688" xlink:href="#DejaVuSans-32"/>
     <use x="90.966797" xlink:href="#DejaVuSans-61"/>
     <use x="174.755859" xlink:href="#DejaVuSans-32"/>
     <use x="206.542969" xlink:href="#DejaVuSans-51"/>
     <use x="270.166016" xlink:href="#DejaVuSans-53"/>
     <use x="333.789062" xlink:href="#DejaVuSans-48"/>
    </g>
   </g>
   <g id="text_29">
    <!-- Growth curve of Dragon  -->
    <defs>
     <path d="M 59.515625 10.40625 
L 59.515625 29.984375 
L 43.40625 29.984375 
L 43.40625 38.09375 
L 69.28125 38.09375 
L 69.28125 6.78125 
Q 63.578125 2.734375 56.6875 0.65625 
Q 49.8125 -1.421875 42 -1.421875 
Q 24.90625 -1.421875 15.25 8.5625 
Q 5.609375 18.5625 5.609375 36.375 
Q 5.609375 54.25 15.25 64.234375 
Q 24.90625 74.21875 42 74.21875 
Q 49.125 74.21875 55.546875 72.453125 
Q 61.96875 70.703125 67.390625 67.28125 
L 67.390625 56.78125 
Q 61.921875 61.421875 55.765625 63.765625 
Q 49.609375 66.109375 42.828125 66.109375 
Q 29.4375 66.109375 22.71875 58.640625 
Q 16.015625 51.171875 16.015625 36.375 
Q 16.015625 21.625 22.71875 14.15625 
Q 29.4375 6.6875 42.828125 6.6875 
Q 48.046875 6.6875 52.140625 7.59375 
Q 56.25 8.5 59.515625 10.40625 
z
" id="DejaVuSans-71"/>
     <path d="M 4.203125 54.6875 
L 13.1875 54.6875 
L 24.421875 12.015625 
L 35.59375 54.6875 
L 46.1875 54.6875 
L 57.421875 12.015625 
L 68.609375 54.6875 
L 77.59375 54.6875 
L 63.28125 0 
L 52.6875 0 
L 40.921875 44.828125 
L 29.109375 0 
L 18.5 0 
z
" id="DejaVuSans-119"/>
     <path d="M 48.78125 52.59375 
L 48.78125 44.1875 
Q 44.96875 46.296875 41.140625 47.34375 
Q 37.3125 48.390625 33.40625 48.390625 
Q 24.65625 48.390625 19.8125 42.84375 
Q 14.984375 37.3125 14.984375 27.296875 
Q 14.984375 17.28125 19.8125 11.734375 
Q 24.65625 6.203125 33.40625 6.203125 
Q 37.3125 6.203125 41.140625 7.25 
Q 44.96875 8.296875 48.78125 10.40625 
L 48.78125 2.09375 
Q 45.015625 0.34375 40.984375 -0.53125 
Q 36.96875 -1.421875 32.421875 -1.421875 
Q 20.0625 -1.421875 12.78125 6.34375 
Q 5.515625 14.109375 5.515625 27.296875 
Q 5.515625 40.671875 12.859375 48.328125 
Q 20.21875 56 33.015625 56 
Q 37.15625 56 41.109375 55.140625 
Q 45.0625 54.296875 48.78125 52.59375 
z
" id="DejaVuSans-99"/>
     <path d="M 8.5 21.578125 
L 8.5 54.6875 
L 17.484375 54.6875 
L 17.484375 21.921875 
Q 17.484375 14.15625 20.5 10.265625 
Q 23.53125 6.390625 29.59375 6.390625 
Q 36.859375 6.390625 41.078125 11.03125 
Q 45.3125 15.671875 45.3125 23.6875 
L 45.3125 54.6875 
L 54.296875 54.6875 
L 54.296875 0 
L 45.3125 0 
L 45.3125 8.40625 
Q 42.046875 3.421875 37.71875 1 
Q 33.40625 -1.421875 27.6875 -1.421875 
Q 18.265625 -1.421875 13.375 4.4375 
Q 8.5 10.296875 8.5 21.578125 
z
M 31.109375 56 
z
" id="DejaVuSans-117"/>
     <path d="M 2.984375 54.6875 
L 12.5 54.6875 
L 29.59375 8.796875 
L 46.6875 54.6875 
L 56.203125 54.6875 
L 35.6875 0 
L 23.484375 0 
z
" id="DejaVuSans-118"/>
     <path d="M 19.671875 64.796875 
L 19.671875 8.109375 
L 31.59375 8.109375 
Q 46.6875 8.109375 53.6875 14.9375 
Q 60.6875 21.78125 60.6875 36.53125 
Q 60.6875 51.171875 53.6875 57.984375 
Q 46.6875 64.796875 31.59375 64.796875 
z
M 9.8125 72.90625 
L 30.078125 72.90625 
Q 51.265625 72.90625 61.171875 64.09375 
Q 71.09375 55.28125 71.09375 36.53125 
Q 71.09375 17.671875 61.125 8.828125 
Q 51.171875 0 30.078125 0 
L 9.8125 0 
z
" id="DejaVuSans-68"/>
    </defs>
    <g transform="translate(368.685 36.192375)scale(0.12 -0.12)">
     <use xlink:href="#DejaVuSans-71"/>
     <use x="77.490234" xlink:href="#DejaVuSans-114"/>
     <use x="118.572266" xlink:href="#DejaVuSans-111"/>
     <use x="179.753906" xlink:href="#DejaVuSans-119"/>
     <use x="261.541016" xlink:href="#DejaVuSans-116"/>
     <use x="300.75" xlink:href="#DejaVuSans-104"/>
     <use x="364.128906" xlink:href="#DejaVuSans-32"/>
     <use x="395.916016" xlink:href="#DejaVuSans-99"/>
     <use x="450.896484" xlink:href="#DejaVuSans-117"/>
     <use x="514.275391" xlink:href="#DejaVuSans-114"/>
     <use x="555.388672" xlink:href="#DejaVuSans-118"/>
     <use x="614.568359" xlink:href="#DejaVuSans-101"/>
     <use x="676.091797" xlink:href="#DejaVuSans-32"/>
     <use x="707.878906" xlink:href="#DejaVuSans-111"/>
     <use x="769.060547" xlink:href="#DejaVuSans-102"/>
     <use x="804.265625" xlink:href="#DejaVuSans-32"/>
     <use x="836.052734" xlink:href="#DejaVuSans-68"/>
     <use x="913.054688" xlink:href="#DejaVuSans-114"/>
     <use x="954.167969" xlink:href="#DejaVuSans-97"/>
     <use x="1015.447266" xlink:href="#DejaVuSans-103"/>
     <use x="1078.923828" xlink:href="#DejaVuSans-111"/>
     <use x="1140.105469" xlink:href="#DejaVuSans-110"/>
     <use x="1203.484375" xlink:href="#DejaVuSans-32"/>
    </g>
    <!--  $A$ = 281600.00, $y(1)$ = 35.00  -->
    <defs>
     <path d="M 36.8125 72.90625 
L 48 72.90625 
L 61.53125 0 
L 51.21875 0 
L 48.1875 18.703125 
L 15.375 18.703125 
L 5.078125 0 
L -5.328125 0 
z
M 40.375 63.1875 
L 19.921875 26.90625 
L 46.6875 26.90625 
z
" id="DejaVuSans-Oblique-65"/>
    </defs>
    <g transform="translate(351.66 49.632)scale(0.12 -0.12)">
     <use transform="translate(0 0.125)" xlink:href="#DejaVuSans-32"/>
     <use transform="translate(31.787109 0.125)" xlink:href="#DejaVuSans-Oblique-65"/>
     <use transform="translate(100.195312 0.125)" xlink:href="#DejaVuSans-32"/>
     <use transform="translate(131.982422 0.125)" xlink:href="#DejaVuSans-61"/>
     <use transform="translate(215.771484 0.125)" xlink:href="#DejaVuSans-32"/>
     <use transform="translate(247.558594 0.125)" xlink:href="#DejaVuSans-50"/>
     <use transform="translate(311.181641 0.125)" xlink:href="#DejaVuSans-56"/>
     <use transform="translate(374.804688 0.125)" xlink:href="#DejaVuSans-49"/>
     <use transform="translate(438.427734 0.125)" xlink:href="#DejaVuSans-54"/>
     <use transform="translate(502.050781 0.125)" xlink:href="#DejaVuSans-48"/>
     <use transform="translate(565.673828 0.125)" xlink:href="#DejaVuSans-48"/>
     <use transform="translate(629.296875 0.125)" xlink:href="#DejaVuSans-46"/>
     <use transform="translate(661.083984 0.125)" xlink:href="#DejaVuSans-48"/>
     <use transform="translate(724.707031 0.125)" xlink:href="#DejaVuSans-48"/>
     <use transform="translate(788.330078 0.125)" xlink:href="#DejaVuSans-44"/>
     <use transform="translate(820.117188 0.125)" xlink:href="#DejaVuSans-32"/>
     <use transform="translate(851.904297 0.125)" xlink:href="#DejaVuSans-Oblique-121"/>
     <use transform="translate(911.083984 0.125)" xlink:href="#DejaVuSans-40"/>
     <use transform="translate(950.097656 0.125)" xlink:href="#DejaVuSans-49"/>
     <use transform="translate(1013.720703 0.125)" xlink:href="#DejaVuSans-41"/>
     <use transform="translate(1052.734375 0.125)" xlink:href="#DejaVuSans-32"/>
     <use transform="translate(1084.521484 0.125)" xlink:href="#DejaVuSans-61"/>
     <use transform="translate(1168.310547 0.125)" xlink:href="#DejaVuSans-32"/>
     <use transform="translate(1200.097656 0.125)" xlink:href="#DejaVuSans-51"/>
     <use transform="translate(1263.720703 0.125)" xlink:href="#DejaVuSans-53"/>
     <use transform="translate(1327.34375 0.125)" xlink:href="#DejaVuSans-46"/>
     <use transform="translate(1359.130859 0.125)" xlink:href="#DejaVuSans-48"/>
     <use transform="translate(1422.753906 0.125)" xlink:href="#DejaVuSans-48"/>
     <use transform="translate(1486.376953 0.125)" xlink:href="#DejaVuSans-32"/>
    </g>
    <!--  $\mu_m$ = 2224.25, $\lambda$ = 22.42 -->
    <defs>
     <path d="M -1.3125 -20.796875 
L 13.375 54.6875 
L 22.40625 54.6875 
L 15.765625 20.65625 
Q 15.578125 19.625 15.421875 18.359375 
Q 15.28125 17.09375 15.28125 15.828125 
Q 15.28125 11.28125 18.140625 8.828125 
Q 21 6.390625 26.3125 6.390625 
Q 33.546875 6.390625 37.984375 10.484375 
Q 42.4375 14.59375 44 22.796875 
L 50.203125 54.6875 
L 59.1875 54.6875 
L 51.03125 12.640625 
Q 50.828125 11.71875 50.75 11.03125 
Q 50.6875 10.359375 50.6875 9.8125 
Q 50.6875 8.296875 51.296875 7.59375 
Q 51.90625 6.890625 53.21875 6.890625 
Q 53.71875 6.890625 54.5625 7.125 
Q 55.421875 7.375 56.984375 8.015625 
L 55.609375 0.78125 
Q 53.46875 -0.296875 51.515625 -0.859375 
Q 49.5625 -1.421875 47.703125 -1.421875 
Q 44.484375 -1.421875 42.65625 0.625 
Q 40.828125 2.6875 40.828125 6.296875 
Q 38.09375 2.390625 34.296875 0.484375 
Q 30.515625 -1.421875 25.390625 -1.421875 
Q 20.84375 -1.421875 17.453125 0.671875 
Q 14.0625 2.78125 12.984375 6.203125 
L 7.71875 -20.796875 
z
" id="DejaVuSans-Oblique-956"/>
     <path d="M 89.796875 33.015625 
L 83.40625 0 
L 74.421875 0 
L 80.71875 32.71875 
Q 81.109375 34.8125 81.296875 36.328125 
Q 81.5 37.84375 81.5 38.921875 
Q 81.5 43.3125 79.046875 45.75 
Q 76.609375 48.1875 72.21875 48.1875 
Q 65.671875 48.1875 60.546875 43.28125 
Q 55.421875 38.375 53.90625 30.515625 
L 47.90625 0 
L 38.921875 0 
L 45.3125 32.71875 
Q 45.703125 34.515625 45.890625 36.046875 
Q 46.09375 37.59375 46.09375 38.8125 
Q 46.09375 43.265625 43.65625 45.71875 
Q 41.21875 48.1875 36.921875 48.1875 
Q 30.28125 48.1875 25.140625 43.28125 
Q 20.015625 38.375 18.5 30.515625 
L 12.5 0 
L 3.515625 0 
L 14.203125 54.6875 
L 23.1875 54.6875 
L 21.484375 46.1875 
Q 25.140625 50.984375 30.046875 53.484375 
Q 34.96875 56 40.578125 56 
Q 46.53125 56 50.359375 52.875 
Q 54.203125 49.75 54.984375 44.1875 
Q 59.078125 49.953125 64.46875 52.96875 
Q 69.875 56 75.875 56 
Q 82.90625 56 86.734375 51.953125 
Q 90.578125 47.90625 90.578125 40.484375 
Q 90.578125 38.875 90.375 36.9375 
Q 90.1875 35.015625 89.796875 33.015625 
z
" id="DejaVuSans-Oblique-109"/>
     <path d="M 36.71875 67.4375 
L 48.828125 0 
L 39.3125 0 
L 31.84375 40.4375 
L 5.125 0 
L -4.390625 0 
L 29.734375 52.4375 
L 28.03125 62.109375 
Q 26.953125 68.265625 21.734375 68.265625 
L 17.046875 68.265625 
L 18.5 75.984375 
L 24.21875 75.875 
Q 35.203125 75.734375 36.71875 67.4375 
z
" id="DejaVuSans-Oblique-955"/>
    </defs>
    <g transform="translate(365.76 63.096)scale(0.12 -0.12)">
     <use transform="translate(0 0.015625)" xlink:href="#DejaVuSans-32"/>
     <use transform="translate(31.787109 0.015625)" xlink:href="#DejaVuSans-Oblique-956"/>
     <use transform="translate(95.410156 -16.390625)scale(0.7)" xlink:href="#DejaVuSans-Oblique-109"/>
     <use transform="translate(166.333008 0.015625)" xlink:href="#DejaVuSans-32"/>
     <use transform="translate(198.120117 0.015625)" xlink:href="#DejaVuSans-61"/>
     <use transform="translate(281.90918 0.015625)" xlink:href="#DejaVuSans-32"/>
     <use transform="translate(313.696289 0.015625)" xlink:href="#DejaVuSans-50"/>
     <use transform="translate(377.319336 0.015625)" xlink:href="#DejaVuSans-50"/>
     <use transform="translate(440.942383 0.015625)" xlink:href="#DejaVuSans-50"/>
     <use transform="translate(504.56543 0.015625)" xlink:href="#DejaVuSans-52"/>
     <use transform="translate(568.188477 0.015625)" xlink:href="#DejaVuSans-46"/>
     <use transform="translate(599.897461 0.015625)" xlink:href="#DejaVuSans-50"/>
     <use transform="translate(663.520508 0.015625)" xlink:href="#DejaVuSans-53"/>
     <use transform="translate(727.143555 0.015625)" xlink:href="#DejaVuSans-44"/>
     <use transform="translate(758.930664 0.015625)" xlink:href="#DejaVuSans-32"/>
     <use transform="translate(790.717773 0.015625)" xlink:href="#DejaVuSans-Oblique-955"/>
     <use transform="translate(849.897461 0.015625)" xlink:href="#DejaVuSans-32"/>
     <use transform="translate(881.68457 0.015625)" xlink:href="#DejaVuSans-61"/>
     <use transform="translate(965.473633 0.015625)" xlink:href="#DejaVuSans-32"/>
     <use transform="translate(997.260742 0.015625)" xlink:href="#DejaVuSans-50"/>
     <use transform="translate(1060.883789 0.015625)" xlink:href="#DejaVuSans-50"/>
     <use transform="translate(1124.506836 0.015625)" xlink:href="#DejaVuSans-46"/>
     <use transform="translate(1156.293945 0.015625)" xlink:href="#DejaVuSans-52"/>
     <use transform="translate(1219.916992 0.015625)" xlink:href="#DejaVuSans-50"/>
    </g>
   </g>
  </g>
 </g>
 <defs>
  <clipPath id="pece7fd5517">
   <rect height="443.52" width="669.6" x="108" y="69.12"/>
  </clipPath>
 </defs>
</svg>
