<?xml version="1.0" encoding="utf-8" standalone="no"?>
<!DOCTYPE svg PUBLIC "-//W3C//DTD SVG 1.1//EN"
  "http://www.w3.org/Graphics/SVG/1.1/DTD/svg11.dtd">
<!-- Created with matplotlib (https://matplotlib.org/) -->
<svg height="576pt" version="1.1" viewBox="0 0 864 576" width="864pt" xmlns="http://www.w3.org/2000/svg" xmlns:xlink="http://www.w3.org/1999/xlink">
 <defs>
  <style type="text/css">
*{stroke-linecap:butt;stroke-linejoin:round;}
  </style>
 </defs>
 <g id="figure_1">
  <g id="patch_1">
   <path d="M 0 576 
L 864 576 
L 864 0 
L 0 0 
z
" style="fill:#ffffff;"/>
  </g>
  <g id="axes_1">
   <g id="patch_2">
    <path d="M 40.03 171.32 
L 420.93 171.32 
L 420.93 25.44 
L 40.03 25.44 
z
" style="fill:#ffffff;"/>
   </g>
   <g id="matplotlib.axis_1">
    <g id="xtick_1">
     <g id="line2d_1">
      <defs>
       <path d="M 0 0 
L 0 3.5 
" id="m84f957a4be" style="stroke:#000000;stroke-width:0.8;"/>
      </defs>
      <g>
       <use style="stroke:#000000;stroke-width:0.8;" x="57.343636" xlink:href="#m84f957a4be" y="171.32"/>
      </g>
     </g>
     <g id="text_1">
      <!-- 0 -->
      <defs>
       <path d="M 31.78125 66.40625 
Q 24.171875 66.40625 20.328125 58.90625 
Q 16.5 51.421875 16.5 36.375 
Q 16.5 21.390625 20.328125 13.890625 
Q 24.171875 6.390625 31.78125 6.390625 
Q 39.453125 6.390625 43.28125 13.890625 
Q 47.125 21.390625 47.125 36.375 
Q 47.125 51.421875 43.28125 58.90625 
Q 39.453125 66.40625 31.78125 66.40625 
z
M 31.78125 74.21875 
Q 44.046875 74.21875 50.515625 64.515625 
Q 56.984375 54.828125 56.984375 36.375 
Q 56.984375 17.96875 50.515625 8.265625 
Q 44.046875 -1.421875 31.78125 -1.421875 
Q 19.53125 -1.421875 13.0625 8.265625 
Q 6.59375 17.96875 6.59375 36.375 
Q 6.59375 54.828125 13.0625 64.515625 
Q 19.53125 74.21875 31.78125 74.21875 
z
" id="DejaVuSans-48"/>
      </defs>
      <g transform="translate(54.162386 185.918438)scale(0.1 -0.1)">
       <use xlink:href="#DejaVuSans-48"/>
      </g>
     </g>
    </g>
    <g id="xtick_2">
     <g id="line2d_2">
      <g>
       <use style="stroke:#000000;stroke-width:0.8;" x="127.297723" xlink:href="#m84f957a4be" y="171.32"/>
      </g>
     </g>
     <g id="text_2">
      <!-- 20 -->
      <defs>
       <path d="M 19.1875 8.296875 
L 53.609375 8.296875 
L 53.609375 0 
L 7.328125 0 
L 7.328125 8.296875 
Q 12.9375 14.109375 22.625 23.890625 
Q 32.328125 33.6875 34.8125 36.53125 
Q 39.546875 41.84375 41.421875 45.53125 
Q 43.3125 49.21875 43.3125 52.78125 
Q 43.3125 58.59375 39.234375 62.25 
Q 35.15625 65.921875 28.609375 65.921875 
Q 23.96875 65.921875 18.8125 64.3125 
Q 13.671875 62.703125 7.8125 59.421875 
L 7.8125 69.390625 
Q 13.765625 71.78125 18.9375 73 
Q 24.125 74.21875 28.421875 74.21875 
Q 39.75 74.21875 46.484375 68.546875 
Q 53.21875 62.890625 53.21875 53.421875 
Q 53.21875 48.921875 51.53125 44.890625 
Q 49.859375 40.875 45.40625 35.40625 
Q 44.1875 33.984375 37.640625 27.21875 
Q 31.109375 20.453125 19.1875 8.296875 
z
" id="DejaVuSans-50"/>
      </defs>
      <g transform="translate(120.935223 185.918438)scale(0.1 -0.1)">
       <use xlink:href="#DejaVuSans-50"/>
       <use x="63.623047" xlink:href="#DejaVuSans-48"/>
      </g>
     </g>
    </g>
    <g id="xtick_3">
     <g id="line2d_3">
      <g>
       <use style="stroke:#000000;stroke-width:0.8;" x="197.251809" xlink:href="#m84f957a4be" y="171.32"/>
      </g>
     </g>
     <g id="text_3">
      <!-- 40 -->
      <defs>
       <path d="M 37.796875 64.3125 
L 12.890625 25.390625 
L 37.796875 25.390625 
z
M 35.203125 72.90625 
L 47.609375 72.90625 
L 47.609375 25.390625 
L 58.015625 25.390625 
L 58.015625 17.1875 
L 47.609375 17.1875 
L 47.609375 0 
L 37.796875 0 
L 37.796875 17.1875 
L 4.890625 17.1875 
L 4.890625 26.703125 
z
" id="DejaVuSans-52"/>
      </defs>
      <g transform="translate(190.889309 185.918438)scale(0.1 -0.1)">
       <use xlink:href="#DejaVuSans-52"/>
       <use x="63.623047" xlink:href="#DejaVuSans-48"/>
      </g>
     </g>
    </g>
    <g id="xtick_4">
     <g id="line2d_4">
      <g>
       <use style="stroke:#000000;stroke-width:0.8;" x="267.205895" xlink:href="#m84f957a4be" y="171.32"/>
      </g>
     </g>
     <g id="text_4">
      <!-- 60 -->
      <defs>
       <path d="M 33.015625 40.375 
Q 26.375 40.375 22.484375 35.828125 
Q 18.609375 31.296875 18.609375 23.390625 
Q 18.609375 15.53125 22.484375 10.953125 
Q 26.375 6.390625 33.015625 6.390625 
Q 39.65625 6.390625 43.53125 10.953125 
Q 47.40625 15.53125 47.40625 23.390625 
Q 47.40625 31.296875 43.53125 35.828125 
Q 39.65625 40.375 33.015625 40.375 
z
M 52.59375 71.296875 
L 52.59375 62.3125 
Q 48.875 64.0625 45.09375 64.984375 
Q 41.3125 65.921875 37.59375 65.921875 
Q 27.828125 65.921875 22.671875 59.328125 
Q 17.53125 52.734375 16.796875 39.40625 
Q 19.671875 43.65625 24.015625 45.921875 
Q 28.375 48.1875 33.59375 48.1875 
Q 44.578125 48.1875 50.953125 41.515625 
Q 57.328125 34.859375 57.328125 23.390625 
Q 57.328125 12.15625 50.6875 5.359375 
Q 44.046875 -1.421875 33.015625 -1.421875 
Q 20.359375 -1.421875 13.671875 8.265625 
Q 6.984375 17.96875 6.984375 36.375 
Q 6.984375 53.65625 15.1875 63.9375 
Q 23.390625 74.21875 37.203125 74.21875 
Q 40.921875 74.21875 44.703125 73.484375 
Q 48.484375 72.75 52.59375 71.296875 
z
" id="DejaVuSans-54"/>
      </defs>
      <g transform="translate(260.843395 185.918438)scale(0.1 -0.1)">
       <use xlink:href="#DejaVuSans-54"/>
       <use x="63.623047" xlink:href="#DejaVuSans-48"/>
      </g>
     </g>
    </g>
    <g id="xtick_5">
     <g id="line2d_5">
      <g>
       <use style="stroke:#000000;stroke-width:0.8;" x="337.159982" xlink:href="#m84f957a4be" y="171.32"/>
      </g>
     </g>
     <g id="text_5">
      <!-- 80 -->
      <defs>
       <path d="M 31.78125 34.625 
Q 24.75 34.625 20.71875 30.859375 
Q 16.703125 27.09375 16.703125 20.515625 
Q 16.703125 13.921875 20.71875 10.15625 
Q 24.75 6.390625 31.78125 6.390625 
Q 38.8125 6.390625 42.859375 10.171875 
Q 46.921875 13.96875 46.921875 20.515625 
Q 46.921875 27.09375 42.890625 30.859375 
Q 38.875 34.625 31.78125 34.625 
z
M 21.921875 38.8125 
Q 15.578125 40.375 12.03125 44.71875 
Q 8.5 49.078125 8.5 55.328125 
Q 8.5 64.0625 14.71875 69.140625 
Q 20.953125 74.21875 31.78125 74.21875 
Q 42.671875 74.21875 48.875 69.140625 
Q 55.078125 64.0625 55.078125 55.328125 
Q 55.078125 49.078125 51.53125 44.71875 
Q 48 40.375 41.703125 38.8125 
Q 48.828125 37.15625 52.796875 32.3125 
Q 56.78125 27.484375 56.78125 20.515625 
Q 56.78125 9.90625 50.3125 4.234375 
Q 43.84375 -1.421875 31.78125 -1.421875 
Q 19.734375 -1.421875 13.25 4.234375 
Q 6.78125 9.90625 6.78125 20.515625 
Q 6.78125 27.484375 10.78125 32.3125 
Q 14.796875 37.15625 21.921875 38.8125 
z
M 18.3125 54.390625 
Q 18.3125 48.734375 21.84375 45.5625 
Q 25.390625 42.390625 31.78125 42.390625 
Q 38.140625 42.390625 41.71875 45.5625 
Q 45.3125 48.734375 45.3125 54.390625 
Q 45.3125 60.0625 41.71875 63.234375 
Q 38.140625 66.40625 31.78125 66.40625 
Q 25.390625 66.40625 21.84375 63.234375 
Q 18.3125 60.0625 18.3125 54.390625 
z
" id="DejaVuSans-56"/>
      </defs>
      <g transform="translate(330.797482 185.918438)scale(0.1 -0.1)">
       <use xlink:href="#DejaVuSans-56"/>
       <use x="63.623047" xlink:href="#DejaVuSans-48"/>
      </g>
     </g>
    </g>
    <g id="xtick_6">
     <g id="line2d_6">
      <g>
       <use style="stroke:#000000;stroke-width:0.8;" x="407.114068" xlink:href="#m84f957a4be" y="171.32"/>
      </g>
     </g>
     <g id="text_6">
      <!-- 100 -->
      <defs>
       <path d="M 12.40625 8.296875 
L 28.515625 8.296875 
L 28.515625 63.921875 
L 10.984375 60.40625 
L 10.984375 69.390625 
L 28.421875 72.90625 
L 38.28125 72.90625 
L 38.28125 8.296875 
L 54.390625 8.296875 
L 54.390625 0 
L 12.40625 0 
z
" id="DejaVuSans-49"/>
      </defs>
      <g transform="translate(397.570318 185.918438)scale(0.1 -0.1)">
       <use xlink:href="#DejaVuSans-49"/>
       <use x="63.623047" xlink:href="#DejaVuSans-48"/>
       <use x="127.246094" xlink:href="#DejaVuSans-48"/>
      </g>
     </g>
    </g>
   </g>
   <g id="matplotlib.axis_2">
    <g id="ytick_1">
     <g id="line2d_7">
      <defs>
       <path d="M 0 0 
L -3.5 0 
" id="m8372d79737" style="stroke:#000000;stroke-width:0.8;"/>
      </defs>
      <g>
       <use style="stroke:#000000;stroke-width:0.8;" x="40.03" xlink:href="#m8372d79737" y="164.689091"/>
      </g>
     </g>
     <g id="text_7">
      <!-- 0.00 -->
      <defs>
       <path d="M 10.6875 12.40625 
L 21 12.40625 
L 21 0 
L 10.6875 0 
z
" id="DejaVuSans-46"/>
      </defs>
      <g transform="translate(10.764375 168.48831)scale(0.1 -0.1)">
       <use xlink:href="#DejaVuSans-48"/>
       <use x="63.623047" xlink:href="#DejaVuSans-46"/>
       <use x="95.410156" xlink:href="#DejaVuSans-48"/>
       <use x="159.033203" xlink:href="#DejaVuSans-48"/>
      </g>
     </g>
    </g>
    <g id="ytick_2">
     <g id="line2d_8">
      <g>
       <use style="stroke:#000000;stroke-width:0.8;" x="40.03" xlink:href="#m8372d79737" y="124.361602"/>
      </g>
     </g>
     <g id="text_8">
      <!-- 0.05 -->
      <defs>
       <path d="M 10.796875 72.90625 
L 49.515625 72.90625 
L 49.515625 64.59375 
L 19.828125 64.59375 
L 19.828125 46.734375 
Q 21.96875 47.46875 24.109375 47.828125 
Q 26.265625 48.1875 28.421875 48.1875 
Q 40.625 48.1875 47.75 41.5 
Q 54.890625 34.8125 54.890625 23.390625 
Q 54.890625 11.625 47.5625 5.09375 
Q 40.234375 -1.421875 26.90625 -1.421875 
Q 22.3125 -1.421875 17.546875 -0.640625 
Q 12.796875 0.140625 7.71875 1.703125 
L 7.71875 11.625 
Q 12.109375 9.234375 16.796875 8.0625 
Q 21.484375 6.890625 26.703125 6.890625 
Q 35.15625 6.890625 40.078125 11.328125 
Q 45.015625 15.765625 45.015625 23.390625 
Q 45.015625 31 40.078125 35.4375 
Q 35.15625 39.890625 26.703125 39.890625 
Q 22.75 39.890625 18.8125 39.015625 
Q 14.890625 38.140625 10.796875 36.28125 
z
" id="DejaVuSans-53"/>
      </defs>
      <g transform="translate(10.764375 128.160821)scale(0.1 -0.1)">
       <use xlink:href="#DejaVuSans-48"/>
       <use x="63.623047" xlink:href="#DejaVuSans-46"/>
       <use x="95.410156" xlink:href="#DejaVuSans-48"/>
       <use x="159.033203" xlink:href="#DejaVuSans-53"/>
      </g>
     </g>
    </g>
    <g id="ytick_3">
     <g id="line2d_9">
      <g>
       <use style="stroke:#000000;stroke-width:0.8;" x="40.03" xlink:href="#m8372d79737" y="84.034114"/>
      </g>
     </g>
     <g id="text_9">
      <!-- 0.10 -->
      <g transform="translate(10.764375 87.833333)scale(0.1 -0.1)">
       <use xlink:href="#DejaVuSans-48"/>
       <use x="63.623047" xlink:href="#DejaVuSans-46"/>
       <use x="95.410156" xlink:href="#DejaVuSans-49"/>
       <use x="159.033203" xlink:href="#DejaVuSans-48"/>
      </g>
     </g>
    </g>
    <g id="ytick_4">
     <g id="line2d_10">
      <g>
       <use style="stroke:#000000;stroke-width:0.8;" x="40.03" xlink:href="#m8372d79737" y="43.706625"/>
      </g>
     </g>
     <g id="text_10">
      <!-- 0.15 -->
      <g transform="translate(10.764375 47.505844)scale(0.1 -0.1)">
       <use xlink:href="#DejaVuSans-48"/>
       <use x="63.623047" xlink:href="#DejaVuSans-46"/>
       <use x="95.410156" xlink:href="#DejaVuSans-49"/>
       <use x="159.033203" xlink:href="#DejaVuSans-53"/>
      </g>
     </g>
    </g>
   </g>
   <g id="line2d_11">
    <path clip-path="url(#pe56789e208)" d="M 57.343636 160.602436 
L 60.841341 164.689091 
L 64.339045 164.689091 
L 67.836749 164.689091 
L 71.334454 164.689091 
L 74.832158 164.689091 
L 78.329862 164.689091 
L 81.827567 164.689091 
L 85.325271 164.689091 
L 88.822975 164.689091 
L 92.32068 164.689091 
L 95.818384 164.689091 
L 99.316088 148.51384 
L 102.813792 164.689091 
L 106.311497 164.689091 
L 109.809201 164.689091 
L 113.306905 164.689091 
L 116.80461 164.689091 
L 120.302314 164.689091 
L 123.800018 67.182008 
L 127.297723 164.689091 
L 130.795427 164.689091 
L 134.293131 164.689091 
L 137.790836 164.689091 
L 141.28854 164.689091 
L 144.786244 164.689091 
L 148.283949 164.689091 
L 151.781653 164.689091 
L 155.279357 164.689091 
L 158.777062 164.689091 
L 162.274766 164.689091 
L 165.77247 164.689091 
L 169.270174 154.501067 
L 172.767879 164.689091 
L 176.265583 164.689091 
L 179.763287 164.689091 
L 183.260992 164.689091 
L 186.758696 32.070909 
L 190.2564 164.689091 
L 193.754105 164.689091 
L 197.251809 92.461788 
L 200.749513 164.689091 
L 204.247218 149.01746 
L 207.744922 93.757687 
L 211.242626 164.689091 
L 214.740331 164.689091 
L 218.238035 164.689091 
L 221.735739 104.409165 
L 225.233444 87.184705 
L 228.731148 121.898551 
L 232.228852 164.689091 
L 235.726556 164.689091 
L 239.224261 164.689091 
L 242.721965 164.689091 
L 246.219669 164.689091 
L 249.717374 164.689091 
L 253.215078 164.689091 
L 256.712782 164.689091 
L 260.210487 164.689091 
L 263.708191 164.689091 
L 267.205895 164.689091 
L 270.7036 164.689091 
L 274.201304 164.689091 
L 277.699008 164.689091 
L 281.196713 164.689091 
L 284.694417 164.689091 
L 288.192121 164.689091 
L 291.689826 164.689091 
L 295.18753 164.689091 
L 298.685234 164.689091 
L 302.182938 164.689091 
L 305.680643 164.689091 
L 309.178347 164.689091 
L 312.676051 164.689091 
L 316.173756 164.689091 
L 319.67146 154.171903 
L 323.169164 164.689091 
L 326.666869 80.389588 
L 330.164573 164.689091 
L 333.662277 164.689091 
L 337.159982 164.689091 
L 340.657686 164.689091 
L 344.15539 164.689091 
L 347.653095 139.546171 
L 351.150799 164.689091 
L 354.648503 164.689091 
L 358.146208 164.689091 
L 361.643912 78.079314 
L 365.141616 164.689091 
L 368.63932 164.689091 
L 372.137025 164.689091 
L 375.634729 164.689091 
L 379.132433 164.689091 
L 382.630138 164.689091 
L 386.127842 164.689091 
L 389.625546 164.689091 
L 393.123251 164.689091 
L 396.620955 164.689091 
L 400.118659 164.689091 
L 403.616364 164.689091 
" style="fill:none;stroke:#bfbf00;stroke-linecap:square;stroke-width:1.5;"/>
   </g>
   <g id="patch_3">
    <path d="M 40.03 171.32 
L 40.03 25.44 
" style="fill:none;stroke:#000000;stroke-linecap:square;stroke-linejoin:miter;stroke-width:0.8;"/>
   </g>
   <g id="patch_4">
    <path d="M 420.93 171.32 
L 420.93 25.44 
" style="fill:none;stroke:#000000;stroke-linecap:square;stroke-linejoin:miter;stroke-width:0.8;"/>
   </g>
   <g id="patch_5">
    <path d="M 40.03 171.32 
L 420.93 171.32 
" style="fill:none;stroke:#000000;stroke-linecap:square;stroke-linejoin:miter;stroke-width:0.8;"/>
   </g>
   <g id="patch_6">
    <path d="M 40.03 25.44 
L 420.93 25.44 
" style="fill:none;stroke:#000000;stroke-linecap:square;stroke-linejoin:miter;stroke-width:0.8;"/>
   </g>
   <g id="text_11">
    <!-- Input signal 1 -->
    <defs>
     <path d="M 9.8125 72.90625 
L 19.671875 72.90625 
L 19.671875 0 
L 9.8125 0 
z
" id="DejaVuSans-73"/>
     <path d="M 54.890625 33.015625 
L 54.890625 0 
L 45.90625 0 
L 45.90625 32.71875 
Q 45.90625 40.484375 42.875 44.328125 
Q 39.84375 48.1875 33.796875 48.1875 
Q 26.515625 48.1875 22.3125 43.546875 
Q 18.109375 38.921875 18.109375 30.90625 
L 18.109375 0 
L 9.078125 0 
L 9.078125 54.6875 
L 18.109375 54.6875 
L 18.109375 46.1875 
Q 21.34375 51.125 25.703125 53.5625 
Q 30.078125 56 35.796875 56 
Q 45.21875 56 50.046875 50.171875 
Q 54.890625 44.34375 54.890625 33.015625 
z
" id="DejaVuSans-110"/>
     <path d="M 18.109375 8.203125 
L 18.109375 -20.796875 
L 9.078125 -20.796875 
L 9.078125 54.6875 
L 18.109375 54.6875 
L 18.109375 46.390625 
Q 20.953125 51.265625 25.265625 53.625 
Q 29.59375 56 35.59375 56 
Q 45.5625 56 51.78125 48.09375 
Q 58.015625 40.1875 58.015625 27.296875 
Q 58.015625 14.40625 51.78125 6.484375 
Q 45.5625 -1.421875 35.59375 -1.421875 
Q 29.59375 -1.421875 25.265625 0.953125 
Q 20.953125 3.328125 18.109375 8.203125 
z
M 48.6875 27.296875 
Q 48.6875 37.203125 44.609375 42.84375 
Q 40.53125 48.484375 33.40625 48.484375 
Q 26.265625 48.484375 22.1875 42.84375 
Q 18.109375 37.203125 18.109375 27.296875 
Q 18.109375 17.390625 22.1875 11.75 
Q 26.265625 6.109375 33.40625 6.109375 
Q 40.53125 6.109375 44.609375 11.75 
Q 48.6875 17.390625 48.6875 27.296875 
z
" id="DejaVuSans-112"/>
     <path d="M 8.5 21.578125 
L 8.5 54.6875 
L 17.484375 54.6875 
L 17.484375 21.921875 
Q 17.484375 14.15625 20.5 10.265625 
Q 23.53125 6.390625 29.59375 6.390625 
Q 36.859375 6.390625 41.078125 11.03125 
Q 45.3125 15.671875 45.3125 23.6875 
L 45.3125 54.6875 
L 54.296875 54.6875 
L 54.296875 0 
L 45.3125 0 
L 45.3125 8.40625 
Q 42.046875 3.421875 37.71875 1 
Q 33.40625 -1.421875 27.6875 -1.421875 
Q 18.265625 -1.421875 13.375 4.4375 
Q 8.5 10.296875 8.5 21.578125 
z
M 31.109375 56 
z
" id="DejaVuSans-117"/>
     <path d="M 18.3125 70.21875 
L 18.3125 54.6875 
L 36.8125 54.6875 
L 36.8125 47.703125 
L 18.3125 47.703125 
L 18.3125 18.015625 
Q 18.3125 11.328125 20.140625 9.421875 
Q 21.96875 7.515625 27.59375 7.515625 
L 36.8125 7.515625 
L 36.8125 0 
L 27.59375 0 
Q 17.1875 0 13.234375 3.875 
Q 9.28125 7.765625 9.28125 18.015625 
L 9.28125 47.703125 
L 2.6875 47.703125 
L 2.6875 54.6875 
L 9.28125 54.6875 
L 9.28125 70.21875 
z
" id="DejaVuSans-116"/>
     <path id="DejaVuSans-32"/>
     <path d="M 44.28125 53.078125 
L 44.28125 44.578125 
Q 40.484375 46.53125 36.375 47.5 
Q 32.28125 48.484375 27.875 48.484375 
Q 21.1875 48.484375 17.84375 46.4375 
Q 14.5 44.390625 14.5 40.28125 
Q 14.5 37.15625 16.890625 35.375 
Q 19.28125 33.59375 26.515625 31.984375 
L 29.59375 31.296875 
Q 39.15625 29.25 43.1875 25.515625 
Q 47.21875 21.78125 47.21875 15.09375 
Q 47.21875 7.46875 41.1875 3.015625 
Q 35.15625 -1.421875 24.609375 -1.421875 
Q 20.21875 -1.421875 15.453125 -0.5625 
Q 10.6875 0.296875 5.421875 2 
L 5.421875 11.28125 
Q 10.40625 8.6875 15.234375 7.390625 
Q 20.0625 6.109375 24.8125 6.109375 
Q 31.15625 6.109375 34.5625 8.28125 
Q 37.984375 10.453125 37.984375 14.40625 
Q 37.984375 18.0625 35.515625 20.015625 
Q 33.0625 21.96875 24.703125 23.78125 
L 21.578125 24.515625 
Q 13.234375 26.265625 9.515625 29.90625 
Q 5.8125 33.546875 5.8125 39.890625 
Q 5.8125 47.609375 11.28125 51.796875 
Q 16.75 56 26.8125 56 
Q 31.78125 56 36.171875 55.265625 
Q 40.578125 54.546875 44.28125 53.078125 
z
" id="DejaVuSans-115"/>
     <path d="M 9.421875 54.6875 
L 18.40625 54.6875 
L 18.40625 0 
L 9.421875 0 
z
M 9.421875 75.984375 
L 18.40625 75.984375 
L 18.40625 64.59375 
L 9.421875 64.59375 
z
" id="DejaVuSans-105"/>
     <path d="M 45.40625 27.984375 
Q 45.40625 37.75 41.375 43.109375 
Q 37.359375 48.484375 30.078125 48.484375 
Q 22.859375 48.484375 18.828125 43.109375 
Q 14.796875 37.75 14.796875 27.984375 
Q 14.796875 18.265625 18.828125 12.890625 
Q 22.859375 7.515625 30.078125 7.515625 
Q 37.359375 7.515625 41.375 12.890625 
Q 45.40625 18.265625 45.40625 27.984375 
z
M 54.390625 6.78125 
Q 54.390625 -7.171875 48.1875 -13.984375 
Q 42 -20.796875 29.203125 -20.796875 
Q 24.46875 -20.796875 20.265625 -20.09375 
Q 16.0625 -19.390625 12.109375 -17.921875 
L 12.109375 -9.1875 
Q 16.0625 -11.328125 19.921875 -12.34375 
Q 23.78125 -13.375 27.78125 -13.375 
Q 36.625 -13.375 41.015625 -8.765625 
Q 45.40625 -4.15625 45.40625 5.171875 
L 45.40625 9.625 
Q 42.625 4.78125 38.28125 2.390625 
Q 33.9375 0 27.875 0 
Q 17.828125 0 11.671875 7.65625 
Q 5.515625 15.328125 5.515625 27.984375 
Q 5.515625 40.671875 11.671875 48.328125 
Q 17.828125 56 27.875 56 
Q 33.9375 56 38.28125 53.609375 
Q 42.625 51.21875 45.40625 46.390625 
L 45.40625 54.6875 
L 54.390625 54.6875 
z
" id="DejaVuSans-103"/>
     <path d="M 34.28125 27.484375 
Q 23.390625 27.484375 19.1875 25 
Q 14.984375 22.515625 14.984375 16.5 
Q 14.984375 11.71875 18.140625 8.90625 
Q 21.296875 6.109375 26.703125 6.109375 
Q 34.1875 6.109375 38.703125 11.40625 
Q 43.21875 16.703125 43.21875 25.484375 
L 43.21875 27.484375 
z
M 52.203125 31.203125 
L 52.203125 0 
L 43.21875 0 
L 43.21875 8.296875 
Q 40.140625 3.328125 35.546875 0.953125 
Q 30.953125 -1.421875 24.3125 -1.421875 
Q 15.921875 -1.421875 10.953125 3.296875 
Q 6 8.015625 6 15.921875 
Q 6 25.140625 12.171875 29.828125 
Q 18.359375 34.515625 30.609375 34.515625 
L 43.21875 34.515625 
L 43.21875 35.40625 
Q 43.21875 41.609375 39.140625 45 
Q 35.0625 48.390625 27.6875 48.390625 
Q 23 48.390625 18.546875 47.265625 
Q 14.109375 46.140625 10.015625 43.890625 
L 10.015625 52.203125 
Q 14.9375 54.109375 19.578125 55.046875 
Q 24.21875 56 28.609375 56 
Q 40.484375 56 46.34375 49.84375 
Q 52.203125 43.703125 52.203125 31.203125 
z
" id="DejaVuSans-97"/>
     <path d="M 9.421875 75.984375 
L 18.40625 75.984375 
L 18.40625 0 
L 9.421875 0 
z
" id="DejaVuSans-108"/>
    </defs>
    <g transform="translate(189.564687 19.44)scale(0.12 -0.12)">
     <use xlink:href="#DejaVuSans-73"/>
     <use x="29.492188" xlink:href="#DejaVuSans-110"/>
     <use x="92.871094" xlink:href="#DejaVuSans-112"/>
     <use x="156.347656" xlink:href="#DejaVuSans-117"/>
     <use x="219.726562" xlink:href="#DejaVuSans-116"/>
     <use x="258.935547" xlink:href="#DejaVuSans-32"/>
     <use x="290.722656" xlink:href="#DejaVuSans-115"/>
     <use x="342.822266" xlink:href="#DejaVuSans-105"/>
     <use x="370.605469" xlink:href="#DejaVuSans-103"/>
     <use x="434.082031" xlink:href="#DejaVuSans-110"/>
     <use x="497.460938" xlink:href="#DejaVuSans-97"/>
     <use x="558.740234" xlink:href="#DejaVuSans-108"/>
     <use x="586.523438" xlink:href="#DejaVuSans-32"/>
     <use x="618.310547" xlink:href="#DejaVuSans-49"/>
    </g>
   </g>
  </g>
  <g id="axes_2">
   <g id="patch_7">
    <path d="M 469.78 171.32 
L 850.68 171.32 
L 850.68 25.44 
L 469.78 25.44 
z
" style="fill:#ffffff;"/>
   </g>
   <g id="matplotlib.axis_3">
    <g id="xtick_7">
     <g id="line2d_12">
      <g>
       <use style="stroke:#000000;stroke-width:0.8;" x="487.093636" xlink:href="#m84f957a4be" y="171.32"/>
      </g>
     </g>
     <g id="text_12">
      <!-- 0 -->
      <g transform="translate(483.912386 185.918438)scale(0.1 -0.1)">
       <use xlink:href="#DejaVuSans-48"/>
      </g>
     </g>
    </g>
    <g id="xtick_8">
     <g id="line2d_13">
      <g>
       <use style="stroke:#000000;stroke-width:0.8;" x="557.047723" xlink:href="#m84f957a4be" y="171.32"/>
      </g>
     </g>
     <g id="text_13">
      <!-- 20 -->
      <g transform="translate(550.685223 185.918438)scale(0.1 -0.1)">
       <use xlink:href="#DejaVuSans-50"/>
       <use x="63.623047" xlink:href="#DejaVuSans-48"/>
      </g>
     </g>
    </g>
    <g id="xtick_9">
     <g id="line2d_14">
      <g>
       <use style="stroke:#000000;stroke-width:0.8;" x="627.001809" xlink:href="#m84f957a4be" y="171.32"/>
      </g>
     </g>
     <g id="text_14">
      <!-- 40 -->
      <g transform="translate(620.639309 185.918438)scale(0.1 -0.1)">
       <use xlink:href="#DejaVuSans-52"/>
       <use x="63.623047" xlink:href="#DejaVuSans-48"/>
      </g>
     </g>
    </g>
    <g id="xtick_10">
     <g id="line2d_15">
      <g>
       <use style="stroke:#000000;stroke-width:0.8;" x="696.955895" xlink:href="#m84f957a4be" y="171.32"/>
      </g>
     </g>
     <g id="text_15">
      <!-- 60 -->
      <g transform="translate(690.593395 185.918438)scale(0.1 -0.1)">
       <use xlink:href="#DejaVuSans-54"/>
       <use x="63.623047" xlink:href="#DejaVuSans-48"/>
      </g>
     </g>
    </g>
    <g id="xtick_11">
     <g id="line2d_16">
      <g>
       <use style="stroke:#000000;stroke-width:0.8;" x="766.909982" xlink:href="#m84f957a4be" y="171.32"/>
      </g>
     </g>
     <g id="text_16">
      <!-- 80 -->
      <g transform="translate(760.547482 185.918438)scale(0.1 -0.1)">
       <use xlink:href="#DejaVuSans-56"/>
       <use x="63.623047" xlink:href="#DejaVuSans-48"/>
      </g>
     </g>
    </g>
    <g id="xtick_12">
     <g id="line2d_17">
      <g>
       <use style="stroke:#000000;stroke-width:0.8;" x="836.864068" xlink:href="#m84f957a4be" y="171.32"/>
      </g>
     </g>
     <g id="text_17">
      <!-- 100 -->
      <g transform="translate(827.320318 185.918438)scale(0.1 -0.1)">
       <use xlink:href="#DejaVuSans-49"/>
       <use x="63.623047" xlink:href="#DejaVuSans-48"/>
       <use x="127.246094" xlink:href="#DejaVuSans-48"/>
      </g>
     </g>
    </g>
   </g>
   <g id="matplotlib.axis_4">
    <g id="ytick_5">
     <g id="line2d_18">
      <g>
       <use style="stroke:#000000;stroke-width:0.8;" x="469.78" xlink:href="#m8372d79737" y="164.689091"/>
      </g>
     </g>
     <g id="text_18">
      <!-- 0.00 -->
      <g transform="translate(440.514375 168.48831)scale(0.1 -0.1)">
       <use xlink:href="#DejaVuSans-48"/>
       <use x="63.623047" xlink:href="#DejaVuSans-46"/>
       <use x="95.410156" xlink:href="#DejaVuSans-48"/>
       <use x="159.033203" xlink:href="#DejaVuSans-48"/>
      </g>
     </g>
    </g>
    <g id="ytick_6">
     <g id="line2d_19">
      <g>
       <use style="stroke:#000000;stroke-width:0.8;" x="469.78" xlink:href="#m8372d79737" y="132.08042"/>
      </g>
     </g>
     <g id="text_19">
      <!-- 0.02 -->
      <g transform="translate(440.514375 135.879639)scale(0.1 -0.1)">
       <use xlink:href="#DejaVuSans-48"/>
       <use x="63.623047" xlink:href="#DejaVuSans-46"/>
       <use x="95.410156" xlink:href="#DejaVuSans-48"/>
       <use x="159.033203" xlink:href="#DejaVuSans-50"/>
      </g>
     </g>
    </g>
    <g id="ytick_7">
     <g id="line2d_20">
      <g>
       <use style="stroke:#000000;stroke-width:0.8;" x="469.78" xlink:href="#m8372d79737" y="99.47175"/>
      </g>
     </g>
     <g id="text_20">
      <!-- 0.04 -->
      <g transform="translate(440.514375 103.270968)scale(0.1 -0.1)">
       <use xlink:href="#DejaVuSans-48"/>
       <use x="63.623047" xlink:href="#DejaVuSans-46"/>
       <use x="95.410156" xlink:href="#DejaVuSans-48"/>
       <use x="159.033203" xlink:href="#DejaVuSans-52"/>
      </g>
     </g>
    </g>
    <g id="ytick_8">
     <g id="line2d_21">
      <g>
       <use style="stroke:#000000;stroke-width:0.8;" x="469.78" xlink:href="#m8372d79737" y="66.863079"/>
      </g>
     </g>
     <g id="text_21">
      <!-- 0.06 -->
      <g transform="translate(440.514375 70.662298)scale(0.1 -0.1)">
       <use xlink:href="#DejaVuSans-48"/>
       <use x="63.623047" xlink:href="#DejaVuSans-46"/>
       <use x="95.410156" xlink:href="#DejaVuSans-48"/>
       <use x="159.033203" xlink:href="#DejaVuSans-54"/>
      </g>
     </g>
    </g>
    <g id="ytick_9">
     <g id="line2d_22">
      <g>
       <use style="stroke:#000000;stroke-width:0.8;" x="469.78" xlink:href="#m8372d79737" y="34.254409"/>
      </g>
     </g>
     <g id="text_22">
      <!-- 0.08 -->
      <g transform="translate(440.514375 38.053627)scale(0.1 -0.1)">
       <use xlink:href="#DejaVuSans-48"/>
       <use x="63.623047" xlink:href="#DejaVuSans-46"/>
       <use x="95.410156" xlink:href="#DejaVuSans-48"/>
       <use x="159.033203" xlink:href="#DejaVuSans-56"/>
      </g>
     </g>
    </g>
   </g>
   <g id="line2d_23">
    <path clip-path="url(#pe5ac6cef53)" d="M 487.093636 164.689091 
L 490.591341 164.689091 
L 494.089045 164.689091 
L 497.586749 164.689091 
L 501.084454 36.93725 
L 504.582158 164.689091 
L 508.079862 164.689091 
L 511.577567 164.689091 
L 515.075271 154.885539 
L 518.572975 136.592885 
L 522.07068 164.689091 
L 525.568384 164.689091 
L 529.066088 164.689091 
L 532.563792 164.689091 
L 536.061497 32.070909 
L 539.559201 118.676651 
L 543.056905 164.689091 
L 546.55461 164.689091 
L 550.052314 164.689091 
L 553.550018 164.689091 
L 557.047723 164.689091 
L 560.545427 164.689091 
L 564.043131 161.759175 
L 567.540836 164.689091 
L 571.03854 123.869246 
L 574.536244 164.689091 
L 578.033949 164.689091 
L 581.531653 113.350186 
L 585.029357 105.710071 
L 588.527062 164.689091 
L 592.024766 164.689091 
L 595.52247 164.689091 
L 599.020174 164.689091 
L 602.517879 114.985178 
L 606.015583 164.689091 
L 609.513287 164.689091 
L 613.010992 79.315354 
L 616.508696 164.689091 
L 620.0064 164.689091 
L 623.504105 164.689091 
L 627.001809 164.689091 
L 630.499513 164.689091 
L 633.997218 164.689091 
L 637.494922 164.689091 
L 640.992626 164.689091 
L 644.490331 164.689091 
L 647.988035 164.689091 
L 651.485739 164.689091 
L 654.983444 164.689091 
L 658.481148 164.689091 
L 661.978852 164.689091 
L 665.476556 164.689091 
L 668.974261 164.689091 
L 672.471965 164.689091 
L 675.969669 164.689091 
L 679.467374 164.689091 
L 682.965078 164.689091 
L 686.462782 164.689091 
L 689.960487 164.689091 
L 693.458191 164.689091 
L 696.955895 164.689091 
L 700.4536 164.689091 
L 703.951304 151.718645 
L 707.449008 164.689091 
L 710.946713 164.689091 
L 714.444417 164.689091 
L 717.942121 90.173315 
L 721.439826 34.585132 
L 724.93753 164.689091 
L 728.435234 164.689091 
L 731.932938 164.689091 
L 735.430643 58.886545 
L 738.928347 63.319875 
L 742.426051 141.546114 
L 745.923756 164.689091 
L 749.42146 164.689091 
L 752.919164 123.850531 
L 756.416869 164.689091 
L 759.914573 164.689091 
L 763.412277 164.689091 
L 766.909982 164.689091 
L 770.407686 164.689091 
L 773.90539 164.689091 
L 777.403095 164.689091 
L 780.900799 164.689091 
L 784.398503 68.355306 
L 787.896208 164.689091 
L 791.393912 164.689091 
L 794.891616 164.689091 
L 798.38932 164.689091 
L 801.887025 163.874008 
L 805.384729 86.619729 
L 808.882433 85.131939 
L 812.380138 46.03399 
L 815.877842 71.184605 
L 819.375546 164.689091 
L 822.873251 123.361567 
L 826.370955 164.689091 
L 829.868659 164.689091 
L 833.366364 164.689091 
" style="fill:none;stroke:#bfbf00;stroke-linecap:square;stroke-width:1.5;"/>
   </g>
   <g id="patch_8">
    <path d="M 469.78 171.32 
L 469.78 25.44 
" style="fill:none;stroke:#000000;stroke-linecap:square;stroke-linejoin:miter;stroke-width:0.8;"/>
   </g>
   <g id="patch_9">
    <path d="M 850.68 171.32 
L 850.68 25.44 
" style="fill:none;stroke:#000000;stroke-linecap:square;stroke-linejoin:miter;stroke-width:0.8;"/>
   </g>
   <g id="patch_10">
    <path d="M 469.78 171.32 
L 850.68 171.32 
" style="fill:none;stroke:#000000;stroke-linecap:square;stroke-linejoin:miter;stroke-width:0.8;"/>
   </g>
   <g id="patch_11">
    <path d="M 469.78 25.44 
L 850.68 25.44 
" style="fill:none;stroke:#000000;stroke-linecap:square;stroke-linejoin:miter;stroke-width:0.8;"/>
   </g>
   <g id="text_23">
    <!-- Input signal 2 -->
    <g transform="translate(619.314687 19.44)scale(0.12 -0.12)">
     <use xlink:href="#DejaVuSans-73"/>
     <use x="29.492188" xlink:href="#DejaVuSans-110"/>
     <use x="92.871094" xlink:href="#DejaVuSans-112"/>
     <use x="156.347656" xlink:href="#DejaVuSans-117"/>
     <use x="219.726562" xlink:href="#DejaVuSans-116"/>
     <use x="258.935547" xlink:href="#DejaVuSans-32"/>
     <use x="290.722656" xlink:href="#DejaVuSans-115"/>
     <use x="342.822266" xlink:href="#DejaVuSans-105"/>
     <use x="370.605469" xlink:href="#DejaVuSans-103"/>
     <use x="434.082031" xlink:href="#DejaVuSans-110"/>
     <use x="497.460938" xlink:href="#DejaVuSans-97"/>
     <use x="558.740234" xlink:href="#DejaVuSans-108"/>
     <use x="586.523438" xlink:href="#DejaVuSans-32"/>
     <use x="618.310547" xlink:href="#DejaVuSans-50"/>
    </g>
   </g>
  </g>
  <g id="axes_3">
   <g id="patch_12">
    <path d="M 40.03 359.72 
L 277.68 359.72 
L 277.68 213.84 
L 40.03 213.84 
z
" style="fill:#ffffff;"/>
   </g>
   <g id="matplotlib.axis_5">
    <g id="xtick_13">
     <g id="line2d_24">
      <g>
       <use style="stroke:#000000;stroke-width:0.8;" x="50.832273" xlink:href="#m84f957a4be" y="359.72"/>
      </g>
     </g>
     <g id="text_24">
      <!-- 0 -->
      <g transform="translate(47.651023 374.318438)scale(0.1 -0.1)">
       <use xlink:href="#DejaVuSans-48"/>
      </g>
     </g>
    </g>
    <g id="xtick_14">
     <g id="line2d_25">
      <g>
       <use style="stroke:#000000;stroke-width:0.8;" x="94.477819" xlink:href="#m84f957a4be" y="359.72"/>
      </g>
     </g>
     <g id="text_25">
      <!-- 20 -->
      <g transform="translate(88.115319 374.318438)scale(0.1 -0.1)">
       <use xlink:href="#DejaVuSans-50"/>
       <use x="63.623047" xlink:href="#DejaVuSans-48"/>
      </g>
     </g>
    </g>
    <g id="xtick_15">
     <g id="line2d_26">
      <g>
       <use style="stroke:#000000;stroke-width:0.8;" x="138.123365" xlink:href="#m84f957a4be" y="359.72"/>
      </g>
     </g>
     <g id="text_26">
      <!-- 40 -->
      <g transform="translate(131.760865 374.318438)scale(0.1 -0.1)">
       <use xlink:href="#DejaVuSans-52"/>
       <use x="63.623047" xlink:href="#DejaVuSans-48"/>
      </g>
     </g>
    </g>
    <g id="xtick_16">
     <g id="line2d_27">
      <g>
       <use style="stroke:#000000;stroke-width:0.8;" x="181.768912" xlink:href="#m84f957a4be" y="359.72"/>
      </g>
     </g>
     <g id="text_27">
      <!-- 60 -->
      <g transform="translate(175.406412 374.318438)scale(0.1 -0.1)">
       <use xlink:href="#DejaVuSans-54"/>
       <use x="63.623047" xlink:href="#DejaVuSans-48"/>
      </g>
     </g>
    </g>
    <g id="xtick_17">
     <g id="line2d_28">
      <g>
       <use style="stroke:#000000;stroke-width:0.8;" x="225.414458" xlink:href="#m84f957a4be" y="359.72"/>
      </g>
     </g>
     <g id="text_28">
      <!-- 80 -->
      <g transform="translate(219.051958 374.318438)scale(0.1 -0.1)">
       <use xlink:href="#DejaVuSans-56"/>
       <use x="63.623047" xlink:href="#DejaVuSans-48"/>
      </g>
     </g>
    </g>
    <g id="xtick_18">
     <g id="line2d_29">
      <g>
       <use style="stroke:#000000;stroke-width:0.8;" x="269.060005" xlink:href="#m84f957a4be" y="359.72"/>
      </g>
     </g>
     <g id="text_29">
      <!-- 100 -->
      <g transform="translate(259.516255 374.318438)scale(0.1 -0.1)">
       <use xlink:href="#DejaVuSans-49"/>
       <use x="63.623047" xlink:href="#DejaVuSans-48"/>
       <use x="127.246094" xlink:href="#DejaVuSans-48"/>
      </g>
     </g>
    </g>
   </g>
   <g id="matplotlib.axis_6">
    <g id="ytick_10">
     <g id="line2d_30">
      <g>
       <use style="stroke:#000000;stroke-width:0.8;" x="40.03" xlink:href="#m8372d79737" y="353.089091"/>
      </g>
     </g>
     <g id="text_30">
      <!-- 0.00 -->
      <g transform="translate(10.764375 356.88831)scale(0.1 -0.1)">
       <use xlink:href="#DejaVuSans-48"/>
       <use x="63.623047" xlink:href="#DejaVuSans-46"/>
       <use x="95.410156" xlink:href="#DejaVuSans-48"/>
       <use x="159.033203" xlink:href="#DejaVuSans-48"/>
      </g>
     </g>
    </g>
    <g id="ytick_11">
     <g id="line2d_31">
      <g>
       <use style="stroke:#000000;stroke-width:0.8;" x="40.03" xlink:href="#m8372d79737" y="326.945592"/>
      </g>
     </g>
     <g id="text_31">
      <!-- 0.02 -->
      <g transform="translate(10.764375 330.74481)scale(0.1 -0.1)">
       <use xlink:href="#DejaVuSans-48"/>
       <use x="63.623047" xlink:href="#DejaVuSans-46"/>
       <use x="95.410156" xlink:href="#DejaVuSans-48"/>
       <use x="159.033203" xlink:href="#DejaVuSans-50"/>
      </g>
     </g>
    </g>
    <g id="ytick_12">
     <g id="line2d_32">
      <g>
       <use style="stroke:#000000;stroke-width:0.8;" x="40.03" xlink:href="#m8372d79737" y="300.802092"/>
      </g>
     </g>
     <g id="text_32">
      <!-- 0.04 -->
      <g transform="translate(10.764375 304.601311)scale(0.1 -0.1)">
       <use xlink:href="#DejaVuSans-48"/>
       <use x="63.623047" xlink:href="#DejaVuSans-46"/>
       <use x="95.410156" xlink:href="#DejaVuSans-48"/>
       <use x="159.033203" xlink:href="#DejaVuSans-52"/>
      </g>
     </g>
    </g>
    <g id="ytick_13">
     <g id="line2d_33">
      <g>
       <use style="stroke:#000000;stroke-width:0.8;" x="40.03" xlink:href="#m8372d79737" y="274.658593"/>
      </g>
     </g>
     <g id="text_33">
      <!-- 0.06 -->
      <g transform="translate(10.764375 278.457812)scale(0.1 -0.1)">
       <use xlink:href="#DejaVuSans-48"/>
       <use x="63.623047" xlink:href="#DejaVuSans-46"/>
       <use x="95.410156" xlink:href="#DejaVuSans-48"/>
       <use x="159.033203" xlink:href="#DejaVuSans-54"/>
      </g>
     </g>
    </g>
    <g id="ytick_14">
     <g id="line2d_34">
      <g>
       <use style="stroke:#000000;stroke-width:0.8;" x="40.03" xlink:href="#m8372d79737" y="248.515093"/>
      </g>
     </g>
     <g id="text_34">
      <!-- 0.08 -->
      <g transform="translate(10.764375 252.314312)scale(0.1 -0.1)">
       <use xlink:href="#DejaVuSans-48"/>
       <use x="63.623047" xlink:href="#DejaVuSans-46"/>
       <use x="95.410156" xlink:href="#DejaVuSans-48"/>
       <use x="159.033203" xlink:href="#DejaVuSans-56"/>
      </g>
     </g>
    </g>
    <g id="ytick_15">
     <g id="line2d_35">
      <g>
       <use style="stroke:#000000;stroke-width:0.8;" x="40.03" xlink:href="#m8372d79737" y="222.371594"/>
      </g>
     </g>
     <g id="text_35">
      <!-- 0.10 -->
      <g transform="translate(10.764375 226.170813)scale(0.1 -0.1)">
       <use xlink:href="#DejaVuSans-48"/>
       <use x="63.623047" xlink:href="#DejaVuSans-46"/>
       <use x="95.410156" xlink:href="#DejaVuSans-49"/>
       <use x="159.033203" xlink:href="#DejaVuSans-48"/>
      </g>
     </g>
    </g>
   </g>
   <g id="line2d_36">
    <path clip-path="url(#pabe21a0275)" d="M 50.832273 353.089091 
L 53.01455 270.45791 
L 55.196827 353.089091 
L 57.379105 353.089091 
L 59.561382 353.089091 
L 61.743659 353.089091 
L 63.925937 353.089091 
L 66.108214 353.089091 
L 68.290491 353.089091 
L 70.472769 353.089091 
L 72.655046 353.089091 
L 74.837323 331.994204 
L 77.019601 353.089091 
L 79.201878 353.089091 
L 81.384155 353.089091 
L 83.566433 353.089091 
L 85.74871 353.089091 
L 87.930987 353.089091 
L 90.113264 270.230136 
L 92.295542 353.089091 
L 94.477819 272.001099 
L 96.660096 353.089091 
L 98.842374 353.089091 
L 101.024651 353.089091 
L 103.206928 353.089091 
L 105.389206 353.089091 
L 107.571483 313.594835 
L 109.75376 353.089091 
L 111.936038 353.089091 
L 114.118315 353.089091 
L 116.300592 328.966467 
L 118.48287 233.00161 
L 120.665147 353.089091 
L 122.847424 353.089091 
L 125.029702 353.089091 
L 127.211979 353.089091 
L 129.394256 353.089091 
L 131.576534 353.089091 
L 133.758811 353.089091 
L 135.941088 353.089091 
L 138.123365 353.089091 
L 140.305643 353.089091 
L 142.48792 353.089091 
L 144.670197 353.089091 
L 146.852475 353.089091 
L 149.034752 353.089091 
L 151.217029 258.962589 
L 153.399307 353.089091 
L 155.581584 353.089091 
L 157.763861 353.089091 
L 159.946139 349.034924 
L 162.128416 220.470909 
L 164.310693 353.089091 
L 166.492971 353.089091 
L 168.675248 353.089091 
L 170.857525 353.089091 
L 173.039803 353.089091 
L 175.22208 353.089091 
L 177.404357 258.339978 
L 179.586635 353.089091 
L 181.768912 331.598185 
L 183.951189 254.282189 
L 186.133466 353.089091 
L 188.315744 222.683834 
L 190.498021 353.089091 
L 192.680298 353.089091 
L 194.862576 353.089091 
L 197.044853 353.089091 
L 199.22713 331.249353 
L 201.409408 353.089091 
L 203.591685 245.729907 
L 205.773962 353.089091 
L 207.95624 353.089091 
L 210.138517 353.089091 
L 212.320794 353.089091 
L 214.503072 353.089091 
L 216.685349 353.089091 
L 218.867626 353.089091 
L 221.049904 353.089091 
L 223.232181 353.089091 
L 225.414458 353.089091 
L 227.596736 353.089091 
L 229.779013 353.089091 
L 231.96129 353.089091 
L 234.143567 353.089091 
L 236.325845 353.089091 
L 238.508122 353.089091 
L 240.690399 353.089091 
L 242.872677 353.089091 
L 245.054954 353.089091 
L 247.237231 353.089091 
L 249.419509 353.089091 
L 251.601786 353.089091 
L 253.784063 353.089091 
L 255.966341 353.089091 
L 258.148618 227.984272 
L 260.330895 353.089091 
L 262.513173 353.089091 
L 264.69545 344.266277 
L 266.877727 336.66908 
" style="fill:none;stroke:#bfbf00;stroke-linecap:square;stroke-width:1.5;"/>
   </g>
   <g id="patch_13">
    <path d="M 40.03 359.72 
L 40.03 213.84 
" style="fill:none;stroke:#000000;stroke-linecap:square;stroke-linejoin:miter;stroke-width:0.8;"/>
   </g>
   <g id="patch_14">
    <path d="M 277.68 359.72 
L 277.68 213.84 
" style="fill:none;stroke:#000000;stroke-linecap:square;stroke-linejoin:miter;stroke-width:0.8;"/>
   </g>
   <g id="patch_15">
    <path d="M 40.03 359.72 
L 277.68 359.72 
" style="fill:none;stroke:#000000;stroke-linecap:square;stroke-linejoin:miter;stroke-width:0.8;"/>
   </g>
   <g id="patch_16">
    <path d="M 40.03 213.84 
L 277.68 213.84 
" style="fill:none;stroke:#000000;stroke-linecap:square;stroke-linejoin:miter;stroke-width:0.8;"/>
   </g>
   <g id="text_36">
    <!-- Input signal 3 -->
    <defs>
     <path d="M 40.578125 39.3125 
Q 47.65625 37.796875 51.625 33 
Q 55.609375 28.21875 55.609375 21.1875 
Q 55.609375 10.40625 48.1875 4.484375 
Q 40.765625 -1.421875 27.09375 -1.421875 
Q 22.515625 -1.421875 17.65625 -0.515625 
Q 12.796875 0.390625 7.625 2.203125 
L 7.625 11.71875 
Q 11.71875 9.328125 16.59375 8.109375 
Q 21.484375 6.890625 26.8125 6.890625 
Q 36.078125 6.890625 40.9375 10.546875 
Q 45.796875 14.203125 45.796875 21.1875 
Q 45.796875 27.640625 41.28125 31.265625 
Q 36.765625 34.90625 28.71875 34.90625 
L 20.21875 34.90625 
L 20.21875 43.015625 
L 29.109375 43.015625 
Q 36.375 43.015625 40.234375 45.921875 
Q 44.09375 48.828125 44.09375 54.296875 
Q 44.09375 59.90625 40.109375 62.90625 
Q 36.140625 65.921875 28.71875 65.921875 
Q 24.65625 65.921875 20.015625 65.03125 
Q 15.375 64.15625 9.8125 62.3125 
L 9.8125 71.09375 
Q 15.4375 72.65625 20.34375 73.4375 
Q 25.25 74.21875 29.59375 74.21875 
Q 40.828125 74.21875 47.359375 69.109375 
Q 53.90625 64.015625 53.90625 55.328125 
Q 53.90625 49.265625 50.4375 45.09375 
Q 46.96875 40.921875 40.578125 39.3125 
z
" id="DejaVuSans-51"/>
    </defs>
    <g transform="translate(117.939687 207.84)scale(0.12 -0.12)">
     <use xlink:href="#DejaVuSans-73"/>
     <use x="29.492188" xlink:href="#DejaVuSans-110"/>
     <use x="92.871094" xlink:href="#DejaVuSans-112"/>
     <use x="156.347656" xlink:href="#DejaVuSans-117"/>
     <use x="219.726562" xlink:href="#DejaVuSans-116"/>
     <use x="258.935547" xlink:href="#DejaVuSans-32"/>
     <use x="290.722656" xlink:href="#DejaVuSans-115"/>
     <use x="342.822266" xlink:href="#DejaVuSans-105"/>
     <use x="370.605469" xlink:href="#DejaVuSans-103"/>
     <use x="434.082031" xlink:href="#DejaVuSans-110"/>
     <use x="497.460938" xlink:href="#DejaVuSans-97"/>
     <use x="558.740234" xlink:href="#DejaVuSans-108"/>
     <use x="586.523438" xlink:href="#DejaVuSans-32"/>
     <use x="618.310547" xlink:href="#DejaVuSans-51"/>
    </g>
   </g>
  </g>
  <g id="axes_4">
   <g id="patch_17">
    <path d="M 326.53 359.72 
L 564.18 359.72 
L 564.18 213.84 
L 326.53 213.84 
z
" style="fill:#ffffff;"/>
   </g>
   <g id="matplotlib.axis_7">
    <g id="xtick_19">
     <g id="line2d_37">
      <g>
       <use style="stroke:#000000;stroke-width:0.8;" x="337.332273" xlink:href="#m84f957a4be" y="359.72"/>
      </g>
     </g>
     <g id="text_37">
      <!-- 0 -->
      <g transform="translate(334.151023 374.318438)scale(0.1 -0.1)">
       <use xlink:href="#DejaVuSans-48"/>
      </g>
     </g>
    </g>
    <g id="xtick_20">
     <g id="line2d_38">
      <g>
       <use style="stroke:#000000;stroke-width:0.8;" x="380.977819" xlink:href="#m84f957a4be" y="359.72"/>
      </g>
     </g>
     <g id="text_38">
      <!-- 20 -->
      <g transform="translate(374.615319 374.318438)scale(0.1 -0.1)">
       <use xlink:href="#DejaVuSans-50"/>
       <use x="63.623047" xlink:href="#DejaVuSans-48"/>
      </g>
     </g>
    </g>
    <g id="xtick_21">
     <g id="line2d_39">
      <g>
       <use style="stroke:#000000;stroke-width:0.8;" x="424.623365" xlink:href="#m84f957a4be" y="359.72"/>
      </g>
     </g>
     <g id="text_39">
      <!-- 40 -->
      <g transform="translate(418.260865 374.318438)scale(0.1 -0.1)">
       <use xlink:href="#DejaVuSans-52"/>
       <use x="63.623047" xlink:href="#DejaVuSans-48"/>
      </g>
     </g>
    </g>
    <g id="xtick_22">
     <g id="line2d_40">
      <g>
       <use style="stroke:#000000;stroke-width:0.8;" x="468.268912" xlink:href="#m84f957a4be" y="359.72"/>
      </g>
     </g>
     <g id="text_40">
      <!-- 60 -->
      <g transform="translate(461.906412 374.318438)scale(0.1 -0.1)">
       <use xlink:href="#DejaVuSans-54"/>
       <use x="63.623047" xlink:href="#DejaVuSans-48"/>
      </g>
     </g>
    </g>
    <g id="xtick_23">
     <g id="line2d_41">
      <g>
       <use style="stroke:#000000;stroke-width:0.8;" x="511.914458" xlink:href="#m84f957a4be" y="359.72"/>
      </g>
     </g>
     <g id="text_41">
      <!-- 80 -->
      <g transform="translate(505.551958 374.318438)scale(0.1 -0.1)">
       <use xlink:href="#DejaVuSans-56"/>
       <use x="63.623047" xlink:href="#DejaVuSans-48"/>
      </g>
     </g>
    </g>
    <g id="xtick_24">
     <g id="line2d_42">
      <g>
       <use style="stroke:#000000;stroke-width:0.8;" x="555.560005" xlink:href="#m84f957a4be" y="359.72"/>
      </g>
     </g>
     <g id="text_42">
      <!-- 100 -->
      <g transform="translate(546.016255 374.318438)scale(0.1 -0.1)">
       <use xlink:href="#DejaVuSans-49"/>
       <use x="63.623047" xlink:href="#DejaVuSans-48"/>
       <use x="127.246094" xlink:href="#DejaVuSans-48"/>
      </g>
     </g>
    </g>
   </g>
   <g id="matplotlib.axis_8">
    <g id="ytick_16">
     <g id="line2d_43">
      <g>
       <use style="stroke:#000000;stroke-width:0.8;" x="326.53" xlink:href="#m8372d79737" y="353.089091"/>
      </g>
     </g>
     <g id="text_43">
      <!-- 0.00 -->
      <g transform="translate(297.264375 356.88831)scale(0.1 -0.1)">
       <use xlink:href="#DejaVuSans-48"/>
       <use x="63.623047" xlink:href="#DejaVuSans-46"/>
       <use x="95.410156" xlink:href="#DejaVuSans-48"/>
       <use x="159.033203" xlink:href="#DejaVuSans-48"/>
      </g>
     </g>
    </g>
    <g id="ytick_17">
     <g id="line2d_44">
      <g>
       <use style="stroke:#000000;stroke-width:0.8;" x="326.53" xlink:href="#m8372d79737" y="330.449375"/>
      </g>
     </g>
     <g id="text_44">
      <!-- 0.02 -->
      <g transform="translate(297.264375 334.248594)scale(0.1 -0.1)">
       <use xlink:href="#DejaVuSans-48"/>
       <use x="63.623047" xlink:href="#DejaVuSans-46"/>
       <use x="95.410156" xlink:href="#DejaVuSans-48"/>
       <use x="159.033203" xlink:href="#DejaVuSans-50"/>
      </g>
     </g>
    </g>
    <g id="ytick_18">
     <g id="line2d_45">
      <g>
       <use style="stroke:#000000;stroke-width:0.8;" x="326.53" xlink:href="#m8372d79737" y="307.80966"/>
      </g>
     </g>
     <g id="text_45">
      <!-- 0.04 -->
      <g transform="translate(297.264375 311.608879)scale(0.1 -0.1)">
       <use xlink:href="#DejaVuSans-48"/>
       <use x="63.623047" xlink:href="#DejaVuSans-46"/>
       <use x="95.410156" xlink:href="#DejaVuSans-48"/>
       <use x="159.033203" xlink:href="#DejaVuSans-52"/>
      </g>
     </g>
    </g>
    <g id="ytick_19">
     <g id="line2d_46">
      <g>
       <use style="stroke:#000000;stroke-width:0.8;" x="326.53" xlink:href="#m8372d79737" y="285.169944"/>
      </g>
     </g>
     <g id="text_46">
      <!-- 0.06 -->
      <g transform="translate(297.264375 288.969163)scale(0.1 -0.1)">
       <use xlink:href="#DejaVuSans-48"/>
       <use x="63.623047" xlink:href="#DejaVuSans-46"/>
       <use x="95.410156" xlink:href="#DejaVuSans-48"/>
       <use x="159.033203" xlink:href="#DejaVuSans-54"/>
      </g>
     </g>
    </g>
    <g id="ytick_20">
     <g id="line2d_47">
      <g>
       <use style="stroke:#000000;stroke-width:0.8;" x="326.53" xlink:href="#m8372d79737" y="262.530229"/>
      </g>
     </g>
     <g id="text_47">
      <!-- 0.08 -->
      <g transform="translate(297.264375 266.329448)scale(0.1 -0.1)">
       <use xlink:href="#DejaVuSans-48"/>
       <use x="63.623047" xlink:href="#DejaVuSans-46"/>
       <use x="95.410156" xlink:href="#DejaVuSans-48"/>
       <use x="159.033203" xlink:href="#DejaVuSans-56"/>
      </g>
     </g>
    </g>
    <g id="ytick_21">
     <g id="line2d_48">
      <g>
       <use style="stroke:#000000;stroke-width:0.8;" x="326.53" xlink:href="#m8372d79737" y="239.890513"/>
      </g>
     </g>
     <g id="text_48">
      <!-- 0.10 -->
      <g transform="translate(297.264375 243.689732)scale(0.1 -0.1)">
       <use xlink:href="#DejaVuSans-48"/>
       <use x="63.623047" xlink:href="#DejaVuSans-46"/>
       <use x="95.410156" xlink:href="#DejaVuSans-49"/>
       <use x="159.033203" xlink:href="#DejaVuSans-48"/>
      </g>
     </g>
    </g>
    <g id="ytick_22">
     <g id="line2d_49">
      <g>
       <use style="stroke:#000000;stroke-width:0.8;" x="326.53" xlink:href="#m8372d79737" y="217.250798"/>
      </g>
     </g>
     <g id="text_49">
      <!-- 0.12 -->
      <g transform="translate(297.264375 221.050016)scale(0.1 -0.1)">
       <use xlink:href="#DejaVuSans-48"/>
       <use x="63.623047" xlink:href="#DejaVuSans-46"/>
       <use x="95.410156" xlink:href="#DejaVuSans-49"/>
       <use x="159.033203" xlink:href="#DejaVuSans-50"/>
      </g>
     </g>
    </g>
   </g>
   <g id="line2d_50">
    <path clip-path="url(#p02df3b9ccc)" d="M 337.332273 353.089091 
L 339.51455 353.089091 
L 341.696827 338.201647 
L 343.879105 353.089091 
L 346.061382 353.089091 
L 348.243659 326.198771 
L 350.425937 334.137361 
L 352.608214 268.969097 
L 354.790491 353.089091 
L 356.972769 353.089091 
L 359.155046 340.288787 
L 361.337323 353.089091 
L 363.519601 353.089091 
L 365.701878 353.089091 
L 367.884155 353.089091 
L 370.066433 353.089091 
L 372.24871 353.089091 
L 374.430987 327.935126 
L 376.613264 353.089091 
L 378.795542 353.089091 
L 380.977819 353.089091 
L 383.160096 353.089091 
L 385.342374 353.089091 
L 387.524651 300.849931 
L 389.706928 353.089091 
L 391.889206 326.44696 
L 394.071483 353.089091 
L 396.25376 353.089091 
L 398.436038 353.089091 
L 400.618315 353.089091 
L 402.800592 353.089091 
L 404.98287 353.089091 
L 407.165147 353.089091 
L 409.347424 353.089091 
L 411.529702 353.089091 
L 413.711979 220.470909 
L 415.894256 353.089091 
L 418.076534 353.089091 
L 420.258811 335.8569 
L 422.441088 352.031563 
L 424.623365 353.089091 
L 426.805643 353.089091 
L 428.98792 353.089091 
L 431.170197 353.089091 
L 433.352475 284.09391 
L 435.534752 353.089091 
L 437.717029 353.089091 
L 439.899307 353.089091 
L 442.081584 353.089091 
L 444.263861 353.089091 
L 446.446139 353.089091 
L 448.628416 353.089091 
L 450.810693 353.089091 
L 452.992971 353.089091 
L 455.175248 353.089091 
L 457.357525 353.089091 
L 459.539803 286.424025 
L 461.72208 304.807188 
L 463.904357 353.089091 
L 466.086635 272.087211 
L 468.268912 353.089091 
L 470.451189 353.089091 
L 472.633466 353.089091 
L 474.815744 353.089091 
L 476.998021 284.136855 
L 479.180298 353.089091 
L 481.362576 353.089091 
L 483.544853 353.089091 
L 485.72713 353.089091 
L 487.909408 318.407963 
L 490.091685 353.089091 
L 492.273962 353.089091 
L 494.45624 353.089091 
L 496.638517 353.089091 
L 498.820794 324.255693 
L 501.003072 353.089091 
L 503.185349 353.089091 
L 505.367626 353.089091 
L 507.549904 264.274066 
L 509.732181 316.488075 
L 511.914458 314.295537 
L 514.096736 286.058581 
L 516.279013 353.089091 
L 518.46129 353.089091 
L 520.643567 353.089091 
L 522.825845 353.089091 
L 525.008122 340.474157 
L 527.190399 353.089091 
L 529.372677 294.976348 
L 531.554954 333.074834 
L 533.737231 353.089091 
L 535.919509 353.089091 
L 538.101786 353.089091 
L 540.284063 353.089091 
L 542.466341 353.089091 
L 544.648618 353.089091 
L 546.830895 353.089091 
L 549.013173 353.089091 
L 551.19545 353.089091 
L 553.377727 353.089091 
" style="fill:none;stroke:#bfbf00;stroke-linecap:square;stroke-width:1.5;"/>
   </g>
   <g id="patch_18">
    <path d="M 326.53 359.72 
L 326.53 213.84 
" style="fill:none;stroke:#000000;stroke-linecap:square;stroke-linejoin:miter;stroke-width:0.8;"/>
   </g>
   <g id="patch_19">
    <path d="M 564.18 359.72 
L 564.18 213.84 
" style="fill:none;stroke:#000000;stroke-linecap:square;stroke-linejoin:miter;stroke-width:0.8;"/>
   </g>
   <g id="patch_20">
    <path d="M 326.53 359.72 
L 564.18 359.72 
" style="fill:none;stroke:#000000;stroke-linecap:square;stroke-linejoin:miter;stroke-width:0.8;"/>
   </g>
   <g id="patch_21">
    <path d="M 326.53 213.84 
L 564.18 213.84 
" style="fill:none;stroke:#000000;stroke-linecap:square;stroke-linejoin:miter;stroke-width:0.8;"/>
   </g>
   <g id="text_50">
    <!-- Input signal 4 -->
    <g transform="translate(404.439687 207.84)scale(0.12 -0.12)">
     <use xlink:href="#DejaVuSans-73"/>
     <use x="29.492188" xlink:href="#DejaVuSans-110"/>
     <use x="92.871094" xlink:href="#DejaVuSans-112"/>
     <use x="156.347656" xlink:href="#DejaVuSans-117"/>
     <use x="219.726562" xlink:href="#DejaVuSans-116"/>
     <use x="258.935547" xlink:href="#DejaVuSans-32"/>
     <use x="290.722656" xlink:href="#DejaVuSans-115"/>
     <use x="342.822266" xlink:href="#DejaVuSans-105"/>
     <use x="370.605469" xlink:href="#DejaVuSans-103"/>
     <use x="434.082031" xlink:href="#DejaVuSans-110"/>
     <use x="497.460938" xlink:href="#DejaVuSans-97"/>
     <use x="558.740234" xlink:href="#DejaVuSans-108"/>
     <use x="586.523438" xlink:href="#DejaVuSans-32"/>
     <use x="618.310547" xlink:href="#DejaVuSans-52"/>
    </g>
   </g>
  </g>
  <g id="axes_5">
   <g id="patch_22">
    <path d="M 613.03 359.72 
L 850.68 359.72 
L 850.68 213.84 
L 613.03 213.84 
z
" style="fill:#ffffff;"/>
   </g>
   <g id="matplotlib.axis_9">
    <g id="xtick_25">
     <g id="line2d_51">
      <g>
       <use style="stroke:#000000;stroke-width:0.8;" x="623.832273" xlink:href="#m84f957a4be" y="359.72"/>
      </g>
     </g>
     <g id="text_51">
      <!-- 0 -->
      <g transform="translate(620.651023 374.318438)scale(0.1 -0.1)">
       <use xlink:href="#DejaVuSans-48"/>
      </g>
     </g>
    </g>
    <g id="xtick_26">
     <g id="line2d_52">
      <g>
       <use style="stroke:#000000;stroke-width:0.8;" x="667.477819" xlink:href="#m84f957a4be" y="359.72"/>
      </g>
     </g>
     <g id="text_52">
      <!-- 20 -->
      <g transform="translate(661.115319 374.318438)scale(0.1 -0.1)">
       <use xlink:href="#DejaVuSans-50"/>
       <use x="63.623047" xlink:href="#DejaVuSans-48"/>
      </g>
     </g>
    </g>
    <g id="xtick_27">
     <g id="line2d_53">
      <g>
       <use style="stroke:#000000;stroke-width:0.8;" x="711.123365" xlink:href="#m84f957a4be" y="359.72"/>
      </g>
     </g>
     <g id="text_53">
      <!-- 40 -->
      <g transform="translate(704.760865 374.318438)scale(0.1 -0.1)">
       <use xlink:href="#DejaVuSans-52"/>
       <use x="63.623047" xlink:href="#DejaVuSans-48"/>
      </g>
     </g>
    </g>
    <g id="xtick_28">
     <g id="line2d_54">
      <g>
       <use style="stroke:#000000;stroke-width:0.8;" x="754.768912" xlink:href="#m84f957a4be" y="359.72"/>
      </g>
     </g>
     <g id="text_54">
      <!-- 60 -->
      <g transform="translate(748.406412 374.318438)scale(0.1 -0.1)">
       <use xlink:href="#DejaVuSans-54"/>
       <use x="63.623047" xlink:href="#DejaVuSans-48"/>
      </g>
     </g>
    </g>
    <g id="xtick_29">
     <g id="line2d_55">
      <g>
       <use style="stroke:#000000;stroke-width:0.8;" x="798.414458" xlink:href="#m84f957a4be" y="359.72"/>
      </g>
     </g>
     <g id="text_55">
      <!-- 80 -->
      <g transform="translate(792.051958 374.318438)scale(0.1 -0.1)">
       <use xlink:href="#DejaVuSans-56"/>
       <use x="63.623047" xlink:href="#DejaVuSans-48"/>
      </g>
     </g>
    </g>
    <g id="xtick_30">
     <g id="line2d_56">
      <g>
       <use style="stroke:#000000;stroke-width:0.8;" x="842.060005" xlink:href="#m84f957a4be" y="359.72"/>
      </g>
     </g>
     <g id="text_56">
      <!-- 100 -->
      <g transform="translate(832.516255 374.318438)scale(0.1 -0.1)">
       <use xlink:href="#DejaVuSans-49"/>
       <use x="63.623047" xlink:href="#DejaVuSans-48"/>
       <use x="127.246094" xlink:href="#DejaVuSans-48"/>
      </g>
     </g>
    </g>
   </g>
   <g id="matplotlib.axis_10">
    <g id="ytick_23">
     <g id="line2d_57">
      <g>
       <use style="stroke:#000000;stroke-width:0.8;" x="613.03" xlink:href="#m8372d79737" y="353.089091"/>
      </g>
     </g>
     <g id="text_57">
      <!-- 0.00 -->
      <g transform="translate(583.764375 356.88831)scale(0.1 -0.1)">
       <use xlink:href="#DejaVuSans-48"/>
       <use x="63.623047" xlink:href="#DejaVuSans-46"/>
       <use x="95.410156" xlink:href="#DejaVuSans-48"/>
       <use x="159.033203" xlink:href="#DejaVuSans-48"/>
      </g>
     </g>
    </g>
    <g id="ytick_24">
     <g id="line2d_58">
      <g>
       <use style="stroke:#000000;stroke-width:0.8;" x="613.03" xlink:href="#m8372d79737" y="331.110508"/>
      </g>
     </g>
     <g id="text_58">
      <!-- 0.02 -->
      <g transform="translate(583.764375 334.909727)scale(0.1 -0.1)">
       <use xlink:href="#DejaVuSans-48"/>
       <use x="63.623047" xlink:href="#DejaVuSans-46"/>
       <use x="95.410156" xlink:href="#DejaVuSans-48"/>
       <use x="159.033203" xlink:href="#DejaVuSans-50"/>
      </g>
     </g>
    </g>
    <g id="ytick_25">
     <g id="line2d_59">
      <g>
       <use style="stroke:#000000;stroke-width:0.8;" x="613.03" xlink:href="#m8372d79737" y="309.131925"/>
      </g>
     </g>
     <g id="text_59">
      <!-- 0.04 -->
      <g transform="translate(583.764375 312.931143)scale(0.1 -0.1)">
       <use xlink:href="#DejaVuSans-48"/>
       <use x="63.623047" xlink:href="#DejaVuSans-46"/>
       <use x="95.410156" xlink:href="#DejaVuSans-48"/>
       <use x="159.033203" xlink:href="#DejaVuSans-52"/>
      </g>
     </g>
    </g>
    <g id="ytick_26">
     <g id="line2d_60">
      <g>
       <use style="stroke:#000000;stroke-width:0.8;" x="613.03" xlink:href="#m8372d79737" y="287.153342"/>
      </g>
     </g>
     <g id="text_60">
      <!-- 0.06 -->
      <g transform="translate(583.764375 290.95256)scale(0.1 -0.1)">
       <use xlink:href="#DejaVuSans-48"/>
       <use x="63.623047" xlink:href="#DejaVuSans-46"/>
       <use x="95.410156" xlink:href="#DejaVuSans-48"/>
       <use x="159.033203" xlink:href="#DejaVuSans-54"/>
      </g>
     </g>
    </g>
    <g id="ytick_27">
     <g id="line2d_61">
      <g>
       <use style="stroke:#000000;stroke-width:0.8;" x="613.03" xlink:href="#m8372d79737" y="265.174758"/>
      </g>
     </g>
     <g id="text_61">
      <!-- 0.08 -->
      <g transform="translate(583.764375 268.973977)scale(0.1 -0.1)">
       <use xlink:href="#DejaVuSans-48"/>
       <use x="63.623047" xlink:href="#DejaVuSans-46"/>
       <use x="95.410156" xlink:href="#DejaVuSans-48"/>
       <use x="159.033203" xlink:href="#DejaVuSans-56"/>
      </g>
     </g>
    </g>
    <g id="ytick_28">
     <g id="line2d_62">
      <g>
       <use style="stroke:#000000;stroke-width:0.8;" x="613.03" xlink:href="#m8372d79737" y="243.196175"/>
      </g>
     </g>
     <g id="text_62">
      <!-- 0.10 -->
      <g transform="translate(583.764375 246.995394)scale(0.1 -0.1)">
       <use xlink:href="#DejaVuSans-48"/>
       <use x="63.623047" xlink:href="#DejaVuSans-46"/>
       <use x="95.410156" xlink:href="#DejaVuSans-49"/>
       <use x="159.033203" xlink:href="#DejaVuSans-48"/>
      </g>
     </g>
    </g>
    <g id="ytick_29">
     <g id="line2d_63">
      <g>
       <use style="stroke:#000000;stroke-width:0.8;" x="613.03" xlink:href="#m8372d79737" y="221.217592"/>
      </g>
     </g>
     <g id="text_63">
      <!-- 0.12 -->
      <g transform="translate(583.764375 225.016811)scale(0.1 -0.1)">
       <use xlink:href="#DejaVuSans-48"/>
       <use x="63.623047" xlink:href="#DejaVuSans-46"/>
       <use x="95.410156" xlink:href="#DejaVuSans-49"/>
       <use x="159.033203" xlink:href="#DejaVuSans-50"/>
      </g>
     </g>
    </g>
   </g>
   <g id="line2d_64">
    <path clip-path="url(#p3692567c2c)" d="M 623.832273 353.089091 
L 626.01455 353.089091 
L 628.196827 353.089091 
L 630.379105 321.802878 
L 632.561382 353.089091 
L 634.743659 353.089091 
L 636.925937 353.089091 
L 639.108214 353.089091 
L 641.290491 353.089091 
L 643.472769 353.089091 
L 645.655046 353.089091 
L 647.837323 353.089091 
L 650.019601 353.089091 
L 652.201878 326.634129 
L 654.384155 353.089091 
L 656.566433 353.089091 
L 658.74871 223.606754 
L 660.930987 353.089091 
L 663.113264 353.089091 
L 665.295542 353.089091 
L 667.477819 353.089091 
L 669.660096 308.681428 
L 671.842374 353.089091 
L 674.024651 353.089091 
L 676.206928 353.089091 
L 678.389206 353.089091 
L 680.571483 353.089091 
L 682.75376 353.089091 
L 684.936038 353.089091 
L 687.118315 276.219347 
L 689.300592 353.089091 
L 691.48287 353.089091 
L 693.665147 353.089091 
L 695.847424 353.089091 
L 698.029702 238.504285 
L 700.211979 353.089091 
L 702.394256 353.089091 
L 704.576534 353.089091 
L 706.758811 353.089091 
L 708.941088 353.089091 
L 711.123365 353.089091 
L 713.305643 220.470909 
L 715.48792 353.089091 
L 717.670197 353.089091 
L 719.852475 353.089091 
L 722.034752 234.632056 
L 724.217029 353.089091 
L 726.399307 353.089091 
L 728.581584 353.089091 
L 730.763861 353.089091 
L 732.946139 353.089091 
L 735.128416 353.089091 
L 737.310693 336.806659 
L 739.492971 309.362775 
L 741.675248 257.7982 
L 743.857525 350.399143 
L 746.039803 353.089091 
L 748.22208 353.089091 
L 750.404357 353.089091 
L 752.586635 353.089091 
L 754.768912 353.089091 
L 756.951189 353.089091 
L 759.133466 353.089091 
L 761.315744 353.089091 
L 763.498021 353.089091 
L 765.680298 302.024399 
L 767.862576 353.089091 
L 770.044853 353.089091 
L 772.22713 353.089091 
L 774.409408 353.089091 
L 776.591685 353.089091 
L 778.773962 353.089091 
L 780.95624 353.089091 
L 783.138517 353.089091 
L 785.320794 353.089091 
L 787.503072 353.089091 
L 789.685349 353.089091 
L 791.867626 353.089091 
L 794.049904 353.089091 
L 796.232181 353.089091 
L 798.414458 353.089091 
L 800.596736 353.089091 
L 802.779013 312.359871 
L 804.96129 353.089091 
L 807.143567 244.775295 
L 809.325845 353.089091 
L 811.508122 353.089091 
L 813.690399 353.089091 
L 815.872677 353.089091 
L 818.054954 353.089091 
L 820.237231 353.089091 
L 822.419509 353.089091 
L 824.601786 353.089091 
L 826.784063 353.089091 
L 828.966341 353.089091 
L 831.148618 353.089091 
L 833.330895 353.089091 
L 835.513173 286.41817 
L 837.69545 353.089091 
L 839.877727 353.089091 
" style="fill:none;stroke:#bfbf00;stroke-linecap:square;stroke-width:1.5;"/>
   </g>
   <g id="patch_23">
    <path d="M 613.03 359.72 
L 613.03 213.84 
" style="fill:none;stroke:#000000;stroke-linecap:square;stroke-linejoin:miter;stroke-width:0.8;"/>
   </g>
   <g id="patch_24">
    <path d="M 850.68 359.72 
L 850.68 213.84 
" style="fill:none;stroke:#000000;stroke-linecap:square;stroke-linejoin:miter;stroke-width:0.8;"/>
   </g>
   <g id="patch_25">
    <path d="M 613.03 359.72 
L 850.68 359.72 
" style="fill:none;stroke:#000000;stroke-linecap:square;stroke-linejoin:miter;stroke-width:0.8;"/>
   </g>
   <g id="patch_26">
    <path d="M 613.03 213.84 
L 850.68 213.84 
" style="fill:none;stroke:#000000;stroke-linecap:square;stroke-linejoin:miter;stroke-width:0.8;"/>
   </g>
   <g id="text_64">
    <!-- Input signal 5 -->
    <g transform="translate(690.939687 207.84)scale(0.12 -0.12)">
     <use xlink:href="#DejaVuSans-73"/>
     <use x="29.492188" xlink:href="#DejaVuSans-110"/>
     <use x="92.871094" xlink:href="#DejaVuSans-112"/>
     <use x="156.347656" xlink:href="#DejaVuSans-117"/>
     <use x="219.726562" xlink:href="#DejaVuSans-116"/>
     <use x="258.935547" xlink:href="#DejaVuSans-32"/>
     <use x="290.722656" xlink:href="#DejaVuSans-115"/>
     <use x="342.822266" xlink:href="#DejaVuSans-105"/>
     <use x="370.605469" xlink:href="#DejaVuSans-103"/>
     <use x="434.082031" xlink:href="#DejaVuSans-110"/>
     <use x="497.460938" xlink:href="#DejaVuSans-97"/>
     <use x="558.740234" xlink:href="#DejaVuSans-108"/>
     <use x="586.523438" xlink:href="#DejaVuSans-32"/>
     <use x="618.310547" xlink:href="#DejaVuSans-53"/>
    </g>
   </g>
  </g>
  <g id="axes_6">
   <g id="patch_27">
    <path d="M 40.03 548.12 
L 277.68 548.12 
L 277.68 402.24 
L 40.03 402.24 
z
" style="fill:#ffffff;"/>
   </g>
   <g id="matplotlib.axis_11">
    <g id="xtick_31">
     <g id="line2d_65">
      <g>
       <use style="stroke:#000000;stroke-width:0.8;" x="50.832273" xlink:href="#m84f957a4be" y="548.12"/>
      </g>
     </g>
     <g id="text_65">
      <!-- 0 -->
      <g transform="translate(47.651023 562.718438)scale(0.1 -0.1)">
       <use xlink:href="#DejaVuSans-48"/>
      </g>
     </g>
    </g>
    <g id="xtick_32">
     <g id="line2d_66">
      <g>
       <use style="stroke:#000000;stroke-width:0.8;" x="94.477819" xlink:href="#m84f957a4be" y="548.12"/>
      </g>
     </g>
     <g id="text_66">
      <!-- 20 -->
      <g transform="translate(88.115319 562.718438)scale(0.1 -0.1)">
       <use xlink:href="#DejaVuSans-50"/>
       <use x="63.623047" xlink:href="#DejaVuSans-48"/>
      </g>
     </g>
    </g>
    <g id="xtick_33">
     <g id="line2d_67">
      <g>
       <use style="stroke:#000000;stroke-width:0.8;" x="138.123365" xlink:href="#m84f957a4be" y="548.12"/>
      </g>
     </g>
     <g id="text_67">
      <!-- 40 -->
      <g transform="translate(131.760865 562.718438)scale(0.1 -0.1)">
       <use xlink:href="#DejaVuSans-52"/>
       <use x="63.623047" xlink:href="#DejaVuSans-48"/>
      </g>
     </g>
    </g>
    <g id="xtick_34">
     <g id="line2d_68">
      <g>
       <use style="stroke:#000000;stroke-width:0.8;" x="181.768912" xlink:href="#m84f957a4be" y="548.12"/>
      </g>
     </g>
     <g id="text_68">
      <!-- 60 -->
      <g transform="translate(175.406412 562.718438)scale(0.1 -0.1)">
       <use xlink:href="#DejaVuSans-54"/>
       <use x="63.623047" xlink:href="#DejaVuSans-48"/>
      </g>
     </g>
    </g>
    <g id="xtick_35">
     <g id="line2d_69">
      <g>
       <use style="stroke:#000000;stroke-width:0.8;" x="225.414458" xlink:href="#m84f957a4be" y="548.12"/>
      </g>
     </g>
     <g id="text_69">
      <!-- 80 -->
      <g transform="translate(219.051958 562.718438)scale(0.1 -0.1)">
       <use xlink:href="#DejaVuSans-56"/>
       <use x="63.623047" xlink:href="#DejaVuSans-48"/>
      </g>
     </g>
    </g>
    <g id="xtick_36">
     <g id="line2d_70">
      <g>
       <use style="stroke:#000000;stroke-width:0.8;" x="269.060005" xlink:href="#m84f957a4be" y="548.12"/>
      </g>
     </g>
     <g id="text_70">
      <!-- 100 -->
      <g transform="translate(259.516255 562.718438)scale(0.1 -0.1)">
       <use xlink:href="#DejaVuSans-49"/>
       <use x="63.623047" xlink:href="#DejaVuSans-48"/>
       <use x="127.246094" xlink:href="#DejaVuSans-48"/>
      </g>
     </g>
    </g>
   </g>
   <g id="matplotlib.axis_12">
    <g id="ytick_30">
     <g id="line2d_71">
      <g>
       <use style="stroke:#000000;stroke-width:0.8;" x="40.03" xlink:href="#m8372d79737" y="541.960035"/>
      </g>
     </g>
     <g id="text_71">
      <!-- 0 -->
      <g transform="translate(26.6675 545.759254)scale(0.1 -0.1)">
       <use xlink:href="#DejaVuSans-48"/>
      </g>
     </g>
    </g>
    <g id="ytick_31">
     <g id="line2d_72">
      <g>
       <use style="stroke:#000000;stroke-width:0.8;" x="40.03" xlink:href="#m8372d79737" y="513.133737"/>
      </g>
     </g>
     <g id="text_72">
      <!-- 10 -->
      <g transform="translate(20.305 516.932956)scale(0.1 -0.1)">
       <use xlink:href="#DejaVuSans-49"/>
       <use x="63.623047" xlink:href="#DejaVuSans-48"/>
      </g>
     </g>
    </g>
    <g id="ytick_32">
     <g id="line2d_73">
      <g>
       <use style="stroke:#000000;stroke-width:0.8;" x="40.03" xlink:href="#m8372d79737" y="484.307439"/>
      </g>
     </g>
     <g id="text_73">
      <!-- 20 -->
      <g transform="translate(20.305 488.106657)scale(0.1 -0.1)">
       <use xlink:href="#DejaVuSans-50"/>
       <use x="63.623047" xlink:href="#DejaVuSans-48"/>
      </g>
     </g>
    </g>
    <g id="ytick_33">
     <g id="line2d_74">
      <g>
       <use style="stroke:#000000;stroke-width:0.8;" x="40.03" xlink:href="#m8372d79737" y="455.48114"/>
      </g>
     </g>
     <g id="text_74">
      <!-- 30 -->
      <g transform="translate(20.305 459.280359)scale(0.1 -0.1)">
       <use xlink:href="#DejaVuSans-51"/>
       <use x="63.623047" xlink:href="#DejaVuSans-48"/>
      </g>
     </g>
    </g>
    <g id="ytick_34">
     <g id="line2d_75">
      <g>
       <use style="stroke:#000000;stroke-width:0.8;" x="40.03" xlink:href="#m8372d79737" y="426.654842"/>
      </g>
     </g>
     <g id="text_75">
      <!-- 40 -->
      <g transform="translate(20.305 430.454061)scale(0.1 -0.1)">
       <use xlink:href="#DejaVuSans-52"/>
       <use x="63.623047" xlink:href="#DejaVuSans-48"/>
      </g>
     </g>
    </g>
   </g>
   <g id="line2d_76">
    <path clip-path="url(#p2770dd052b)" d="M 50.832273 537.858868 
L 53.01455 523.647045 
L 55.196827 535.330275 
L 57.379105 512.559183 
L 59.561382 455.146232 
L 61.743659 529.985086 
L 63.925937 533.520344 
L 66.108214 504.499246 
L 68.290491 535.298028 
L 70.472769 522.86725 
L 72.655046 536.259732 
L 74.837323 537.284918 
L 77.019601 525.727344 
L 79.201878 517.099295 
L 81.384155 451.839309 
L 83.566433 510.692267 
L 85.74871 420.280526 
L 87.930987 530.75833 
L 90.113264 523.596565 
L 92.295542 444.106693 
L 94.477819 523.989051 
L 96.660096 500.228455 
L 98.842374 539.96901 
L 101.024651 518.696598 
L 103.206928 514.220897 
L 105.389206 530.095612 
L 107.571483 533.20719 
L 109.75376 507.072666 
L 111.936038 501.880824 
L 114.118315 469.722595 
L 116.300592 536.613901 
L 118.48287 515.345858 
L 120.665147 531.735832 
L 122.847424 508.183726 
L 125.029702 434.280307 
L 127.211979 482.90176 
L 129.394256 483.944286 
L 131.576534 408.870909 
L 133.758811 534.286099 
L 135.941088 541.489091 
L 138.123365 469.476244 
L 140.305643 417.333653 
L 142.48792 526.232753 
L 144.670197 470.776745 
L 146.852475 511.234713 
L 149.034752 430.641425 
L 151.217029 521.099414 
L 153.399307 481.466048 
L 155.581584 464.180422 
L 157.763861 499.017541 
L 159.946139 541.061538 
L 162.128416 512.568763 
L 164.310693 526.658811 
L 166.492971 500.868742 
L 168.675248 452.411537 
L 170.857525 539.432188 
L 173.039803 512.272373 
L 175.22208 520.458867 
L 177.404357 520.961429 
L 179.586635 505.887822 
L 181.768912 537.197151 
L 183.951189 520.062129 
L 186.133466 533.145965 
L 188.315744 513.059199 
L 190.498021 511.253837 
L 192.680298 493.972589 
L 194.862576 491.322816 
L 197.044853 453.54785 
L 199.22713 537.119842 
L 201.409408 526.51564 
L 203.591685 518.166744 
L 205.773962 470.061882 
L 207.95624 473.074553 
L 210.138517 526.233218 
L 212.320794 529.119784 
L 214.503072 531.4055 
L 216.685349 514.208179 
L 218.867626 457.361173 
L 221.049904 502.408428 
L 223.232181 525.660665 
L 225.414458 524.684272 
L 227.596736 512.109631 
L 229.779013 503.685229 
L 231.96129 516.727829 
L 234.143567 440.173415 
L 236.325845 476.496382 
L 238.508122 536.342282 
L 240.690399 455.042696 
L 242.872677 516.080941 
L 245.054954 533.047174 
L 247.237231 541.406145 
L 249.419509 488.907976 
L 251.601786 487.896948 
L 253.784063 461.327925 
L 255.966341 478.419033 
L 258.148618 514.233899 
L 260.330895 513.875904 
L 262.513173 479.306819 
L 264.69545 540.004695 
L 266.877727 538.320979 
" style="fill:none;stroke:#ff0000;stroke-linecap:square;stroke-width:1.5;"/>
   </g>
   <g id="patch_28">
    <path d="M 40.03 548.12 
L 40.03 402.24 
" style="fill:none;stroke:#000000;stroke-linecap:square;stroke-linejoin:miter;stroke-width:0.8;"/>
   </g>
   <g id="patch_29">
    <path d="M 277.68 548.12 
L 277.68 402.24 
" style="fill:none;stroke:#000000;stroke-linecap:square;stroke-linejoin:miter;stroke-width:0.8;"/>
   </g>
   <g id="patch_30">
    <path d="M 40.03 548.12 
L 277.68 548.12 
" style="fill:none;stroke:#000000;stroke-linecap:square;stroke-linejoin:miter;stroke-width:0.8;"/>
   </g>
   <g id="patch_31">
    <path d="M 40.03 402.24 
L 277.68 402.24 
" style="fill:none;stroke:#000000;stroke-linecap:square;stroke-linejoin:miter;stroke-width:0.8;"/>
   </g>
   <g id="text_76">
    <!-- Output signal 1 -->
    <defs>
     <path d="M 39.40625 66.21875 
Q 28.65625 66.21875 22.328125 58.203125 
Q 16.015625 50.203125 16.015625 36.375 
Q 16.015625 22.609375 22.328125 14.59375 
Q 28.65625 6.59375 39.40625 6.59375 
Q 50.140625 6.59375 56.421875 14.59375 
Q 62.703125 22.609375 62.703125 36.375 
Q 62.703125 50.203125 56.421875 58.203125 
Q 50.140625 66.21875 39.40625 66.21875 
z
M 39.40625 74.21875 
Q 54.734375 74.21875 63.90625 63.9375 
Q 73.09375 53.65625 73.09375 36.375 
Q 73.09375 19.140625 63.90625 8.859375 
Q 54.734375 -1.421875 39.40625 -1.421875 
Q 24.03125 -1.421875 14.8125 8.828125 
Q 5.609375 19.09375 5.609375 36.375 
Q 5.609375 53.65625 14.8125 63.9375 
Q 24.03125 74.21875 39.40625 74.21875 
z
" id="DejaVuSans-79"/>
    </defs>
    <g transform="translate(112.634375 396.24)scale(0.12 -0.12)">
     <use xlink:href="#DejaVuSans-79"/>
     <use x="78.710938" xlink:href="#DejaVuSans-117"/>
     <use x="142.089844" xlink:href="#DejaVuSans-116"/>
     <use x="181.298828" xlink:href="#DejaVuSans-112"/>
     <use x="244.775391" xlink:href="#DejaVuSans-117"/>
     <use x="308.154297" xlink:href="#DejaVuSans-116"/>
     <use x="347.363281" xlink:href="#DejaVuSans-32"/>
     <use x="379.150391" xlink:href="#DejaVuSans-115"/>
     <use x="431.25" xlink:href="#DejaVuSans-105"/>
     <use x="459.033203" xlink:href="#DejaVuSans-103"/>
     <use x="522.509766" xlink:href="#DejaVuSans-110"/>
     <use x="585.888672" xlink:href="#DejaVuSans-97"/>
     <use x="647.167969" xlink:href="#DejaVuSans-108"/>
     <use x="674.951172" xlink:href="#DejaVuSans-32"/>
     <use x="706.738281" xlink:href="#DejaVuSans-49"/>
    </g>
   </g>
  </g>
  <g id="axes_7">
   <g id="patch_32">
    <path d="M 326.53 548.12 
L 564.18 548.12 
L 564.18 402.24 
L 326.53 402.24 
z
" style="fill:#ffffff;"/>
   </g>
   <g id="matplotlib.axis_13">
    <g id="xtick_37">
     <g id="line2d_77">
      <g>
       <use style="stroke:#000000;stroke-width:0.8;" x="337.332273" xlink:href="#m84f957a4be" y="548.12"/>
      </g>
     </g>
     <g id="text_77">
      <!-- 0 -->
      <g transform="translate(334.151023 562.718438)scale(0.1 -0.1)">
       <use xlink:href="#DejaVuSans-48"/>
      </g>
     </g>
    </g>
    <g id="xtick_38">
     <g id="line2d_78">
      <g>
       <use style="stroke:#000000;stroke-width:0.8;" x="380.977819" xlink:href="#m84f957a4be" y="548.12"/>
      </g>
     </g>
     <g id="text_78">
      <!-- 20 -->
      <g transform="translate(374.615319 562.718438)scale(0.1 -0.1)">
       <use xlink:href="#DejaVuSans-50"/>
       <use x="63.623047" xlink:href="#DejaVuSans-48"/>
      </g>
     </g>
    </g>
    <g id="xtick_39">
     <g id="line2d_79">
      <g>
       <use style="stroke:#000000;stroke-width:0.8;" x="424.623365" xlink:href="#m84f957a4be" y="548.12"/>
      </g>
     </g>
     <g id="text_79">
      <!-- 40 -->
      <g transform="translate(418.260865 562.718438)scale(0.1 -0.1)">
       <use xlink:href="#DejaVuSans-52"/>
       <use x="63.623047" xlink:href="#DejaVuSans-48"/>
      </g>
     </g>
    </g>
    <g id="xtick_40">
     <g id="line2d_80">
      <g>
       <use style="stroke:#000000;stroke-width:0.8;" x="468.268912" xlink:href="#m84f957a4be" y="548.12"/>
      </g>
     </g>
     <g id="text_80">
      <!-- 60 -->
      <g transform="translate(461.906412 562.718438)scale(0.1 -0.1)">
       <use xlink:href="#DejaVuSans-54"/>
       <use x="63.623047" xlink:href="#DejaVuSans-48"/>
      </g>
     </g>
    </g>
    <g id="xtick_41">
     <g id="line2d_81">
      <g>
       <use style="stroke:#000000;stroke-width:0.8;" x="511.914458" xlink:href="#m84f957a4be" y="548.12"/>
      </g>
     </g>
     <g id="text_81">
      <!-- 80 -->
      <g transform="translate(505.551958 562.718438)scale(0.1 -0.1)">
       <use xlink:href="#DejaVuSans-56"/>
       <use x="63.623047" xlink:href="#DejaVuSans-48"/>
      </g>
     </g>
    </g>
    <g id="xtick_42">
     <g id="line2d_82">
      <g>
       <use style="stroke:#000000;stroke-width:0.8;" x="555.560005" xlink:href="#m84f957a4be" y="548.12"/>
      </g>
     </g>
     <g id="text_82">
      <!-- 100 -->
      <g transform="translate(546.016255 562.718438)scale(0.1 -0.1)">
       <use xlink:href="#DejaVuSans-49"/>
       <use x="63.623047" xlink:href="#DejaVuSans-48"/>
       <use x="127.246094" xlink:href="#DejaVuSans-48"/>
      </g>
     </g>
    </g>
   </g>
   <g id="matplotlib.axis_14">
    <g id="ytick_35">
     <g id="line2d_83">
      <g>
       <use style="stroke:#000000;stroke-width:0.8;" x="326.53" xlink:href="#m8372d79737" y="541.894616"/>
      </g>
     </g>
     <g id="text_83">
      <!-- 0 -->
      <g transform="translate(313.1675 545.693835)scale(0.1 -0.1)">
       <use xlink:href="#DejaVuSans-48"/>
      </g>
     </g>
    </g>
    <g id="ytick_36">
     <g id="line2d_84">
      <g>
       <use style="stroke:#000000;stroke-width:0.8;" x="326.53" xlink:href="#m8372d79737" y="516.267237"/>
      </g>
     </g>
     <g id="text_84">
      <!-- 10 -->
      <g transform="translate(306.805 520.066456)scale(0.1 -0.1)">
       <use xlink:href="#DejaVuSans-49"/>
       <use x="63.623047" xlink:href="#DejaVuSans-48"/>
      </g>
     </g>
    </g>
    <g id="ytick_37">
     <g id="line2d_85">
      <g>
       <use style="stroke:#000000;stroke-width:0.8;" x="326.53" xlink:href="#m8372d79737" y="490.639858"/>
      </g>
     </g>
     <g id="text_85">
      <!-- 20 -->
      <g transform="translate(306.805 494.439076)scale(0.1 -0.1)">
       <use xlink:href="#DejaVuSans-50"/>
       <use x="63.623047" xlink:href="#DejaVuSans-48"/>
      </g>
     </g>
    </g>
    <g id="ytick_38">
     <g id="line2d_86">
      <g>
       <use style="stroke:#000000;stroke-width:0.8;" x="326.53" xlink:href="#m8372d79737" y="465.012478"/>
      </g>
     </g>
     <g id="text_86">
      <!-- 30 -->
      <g transform="translate(306.805 468.811697)scale(0.1 -0.1)">
       <use xlink:href="#DejaVuSans-51"/>
       <use x="63.623047" xlink:href="#DejaVuSans-48"/>
      </g>
     </g>
    </g>
    <g id="ytick_39">
     <g id="line2d_87">
      <g>
       <use style="stroke:#000000;stroke-width:0.8;" x="326.53" xlink:href="#m8372d79737" y="439.385099"/>
      </g>
     </g>
     <g id="text_87">
      <!-- 40 -->
      <g transform="translate(306.805 443.184318)scale(0.1 -0.1)">
       <use xlink:href="#DejaVuSans-52"/>
       <use x="63.623047" xlink:href="#DejaVuSans-48"/>
      </g>
     </g>
    </g>
    <g id="ytick_40">
     <g id="line2d_88">
      <g>
       <use style="stroke:#000000;stroke-width:0.8;" x="326.53" xlink:href="#m8372d79737" y="413.75772"/>
      </g>
     </g>
     <g id="text_88">
      <!-- 50 -->
      <g transform="translate(306.805 417.556938)scale(0.1 -0.1)">
       <use xlink:href="#DejaVuSans-53"/>
       <use x="63.623047" xlink:href="#DejaVuSans-48"/>
      </g>
     </g>
    </g>
   </g>
   <g id="line2d_89">
    <path clip-path="url(#pb3af559f7b)" d="M 337.332273 541.243536 
L 339.51455 459.010762 
L 341.696827 529.302801 
L 343.879105 530.858498 
L 346.061382 478.334714 
L 348.243659 519.150757 
L 350.425937 525.865224 
L 352.608214 470.745842 
L 354.790491 537.017091 
L 356.972769 527.916014 
L 359.155046 531.068107 
L 361.337323 520.735224 
L 363.519601 539.317596 
L 365.701878 532.562708 
L 367.884155 475.913582 
L 370.066433 519.002217 
L 372.24871 496.22011 
L 374.430987 520.619368 
L 376.613264 458.782292 
L 378.795542 526.359913 
L 380.977819 460.55867 
L 383.160096 526.229947 
L 385.342374 540.436906 
L 387.524651 497.710683 
L 389.706928 521.58567 
L 391.889206 519.360675 
L 394.071483 502.279594 
L 396.25376 516.35216 
L 398.436038 512.551002 
L 400.618315 514.779045 
L 402.800592 517.698229 
L 404.98287 421.439927 
L 407.165147 540.271473 
L 409.347424 517.165612 
L 411.529702 501.47517 
L 413.711979 429.726026 
L 415.894256 499.418936 
L 418.076534 520.766058 
L 420.258811 527.319612 
L 422.441088 541.000158 
L 424.623365 530.387455 
L 426.805643 495.113951 
L 428.98792 539.397832 
L 431.170197 530.593916 
L 433.352475 483.538423 
L 435.534752 500.109253 
L 437.717029 447.480291 
L 439.899307 532.290896 
L 442.081584 529.546717 
L 444.263861 535.077282 
L 446.446139 537.828052 
L 448.628416 408.870909 
L 450.810693 536.151037 
L 452.992971 526.47029 
L 455.175248 508.28104 
L 457.357525 540.945745 
L 459.539803 485.509237 
L 461.72208 501.057735 
L 463.904357 446.855775 
L 466.086635 473.383145 
L 468.268912 520.337995 
L 470.451189 442.785579 
L 472.633466 535.441478 
L 474.815744 411.090601 
L 476.998021 483.574746 
L 479.180298 523.881699 
L 481.362576 504.821057 
L 483.544853 477.164474 
L 485.72713 519.988096 
L 487.909408 512.561284 
L 490.091685 434.207145 
L 492.273962 489.255066 
L 494.45624 491.460764 
L 496.638517 530.380376 
L 498.820794 517.5073 
L 501.003072 540.219031 
L 503.185349 521.576358 
L 505.367626 528.464128 
L 507.549904 466.77478 
L 509.732181 510.937441 
L 511.914458 509.08299 
L 514.096736 485.200144 
L 516.279013 527.527506 
L 518.46129 537.888878 
L 520.643567 503.68725 
L 522.825845 493.966024 
L 525.008122 531.224892 
L 527.190399 528.096058 
L 529.372677 492.742801 
L 531.554954 524.966538 
L 533.737231 541.489091 
L 535.919509 503.053055 
L 538.101786 502.31284 
L 540.284063 482.860582 
L 542.466341 495.373674 
L 544.648618 416.407246 
L 546.830895 521.333086 
L 549.013173 518.376649 
L 551.19545 533.044823 
L 553.377727 525.424395 
" style="fill:none;stroke:#ff0000;stroke-linecap:square;stroke-width:1.5;"/>
   </g>
   <g id="patch_33">
    <path d="M 326.53 548.12 
L 326.53 402.24 
" style="fill:none;stroke:#000000;stroke-linecap:square;stroke-linejoin:miter;stroke-width:0.8;"/>
   </g>
   <g id="patch_34">
    <path d="M 564.18 548.12 
L 564.18 402.24 
" style="fill:none;stroke:#000000;stroke-linecap:square;stroke-linejoin:miter;stroke-width:0.8;"/>
   </g>
   <g id="patch_35">
    <path d="M 326.53 548.12 
L 564.18 548.12 
" style="fill:none;stroke:#000000;stroke-linecap:square;stroke-linejoin:miter;stroke-width:0.8;"/>
   </g>
   <g id="patch_36">
    <path d="M 326.53 402.24 
L 564.18 402.24 
" style="fill:none;stroke:#000000;stroke-linecap:square;stroke-linejoin:miter;stroke-width:0.8;"/>
   </g>
   <g id="text_89">
    <!-- Output signal 2 -->
    <g transform="translate(399.134375 396.24)scale(0.12 -0.12)">
     <use xlink:href="#DejaVuSans-79"/>
     <use x="78.710938" xlink:href="#DejaVuSans-117"/>
     <use x="142.089844" xlink:href="#DejaVuSans-116"/>
     <use x="181.298828" xlink:href="#DejaVuSans-112"/>
     <use x="244.775391" xlink:href="#DejaVuSans-117"/>
     <use x="308.154297" xlink:href="#DejaVuSans-116"/>
     <use x="347.363281" xlink:href="#DejaVuSans-32"/>
     <use x="379.150391" xlink:href="#DejaVuSans-115"/>
     <use x="431.25" xlink:href="#DejaVuSans-105"/>
     <use x="459.033203" xlink:href="#DejaVuSans-103"/>
     <use x="522.509766" xlink:href="#DejaVuSans-110"/>
     <use x="585.888672" xlink:href="#DejaVuSans-97"/>
     <use x="647.167969" xlink:href="#DejaVuSans-108"/>
     <use x="674.951172" xlink:href="#DejaVuSans-32"/>
     <use x="706.738281" xlink:href="#DejaVuSans-50"/>
    </g>
   </g>
  </g>
  <g id="axes_8">
   <g id="patch_37">
    <path d="M 613.03 548.12 
L 850.68 548.12 
L 850.68 402.24 
L 613.03 402.24 
z
" style="fill:#ffffff;"/>
   </g>
   <g id="matplotlib.axis_15">
    <g id="xtick_43">
     <g id="line2d_90">
      <g>
       <use style="stroke:#000000;stroke-width:0.8;" x="623.832273" xlink:href="#m84f957a4be" y="548.12"/>
      </g>
     </g>
     <g id="text_90">
      <!-- 0 -->
      <g transform="translate(620.651023 562.718438)scale(0.1 -0.1)">
       <use xlink:href="#DejaVuSans-48"/>
      </g>
     </g>
    </g>
    <g id="xtick_44">
     <g id="line2d_91">
      <g>
       <use style="stroke:#000000;stroke-width:0.8;" x="667.477819" xlink:href="#m84f957a4be" y="548.12"/>
      </g>
     </g>
     <g id="text_91">
      <!-- 20 -->
      <g transform="translate(661.115319 562.718438)scale(0.1 -0.1)">
       <use xlink:href="#DejaVuSans-50"/>
       <use x="63.623047" xlink:href="#DejaVuSans-48"/>
      </g>
     </g>
    </g>
    <g id="xtick_45">
     <g id="line2d_92">
      <g>
       <use style="stroke:#000000;stroke-width:0.8;" x="711.123365" xlink:href="#m84f957a4be" y="548.12"/>
      </g>
     </g>
     <g id="text_92">
      <!-- 40 -->
      <g transform="translate(704.760865 562.718438)scale(0.1 -0.1)">
       <use xlink:href="#DejaVuSans-52"/>
       <use x="63.623047" xlink:href="#DejaVuSans-48"/>
      </g>
     </g>
    </g>
    <g id="xtick_46">
     <g id="line2d_93">
      <g>
       <use style="stroke:#000000;stroke-width:0.8;" x="754.768912" xlink:href="#m84f957a4be" y="548.12"/>
      </g>
     </g>
     <g id="text_93">
      <!-- 60 -->
      <g transform="translate(748.406412 562.718438)scale(0.1 -0.1)">
       <use xlink:href="#DejaVuSans-54"/>
       <use x="63.623047" xlink:href="#DejaVuSans-48"/>
      </g>
     </g>
    </g>
    <g id="xtick_47">
     <g id="line2d_94">
      <g>
       <use style="stroke:#000000;stroke-width:0.8;" x="798.414458" xlink:href="#m84f957a4be" y="548.12"/>
      </g>
     </g>
     <g id="text_94">
      <!-- 80 -->
      <g transform="translate(792.051958 562.718438)scale(0.1 -0.1)">
       <use xlink:href="#DejaVuSans-56"/>
       <use x="63.623047" xlink:href="#DejaVuSans-48"/>
      </g>
     </g>
    </g>
    <g id="xtick_48">
     <g id="line2d_95">
      <g>
       <use style="stroke:#000000;stroke-width:0.8;" x="842.060005" xlink:href="#m84f957a4be" y="548.12"/>
      </g>
     </g>
     <g id="text_95">
      <!-- 100 -->
      <g transform="translate(832.516255 562.718438)scale(0.1 -0.1)">
       <use xlink:href="#DejaVuSans-49"/>
       <use x="63.623047" xlink:href="#DejaVuSans-48"/>
       <use x="127.246094" xlink:href="#DejaVuSans-48"/>
      </g>
     </g>
    </g>
   </g>
   <g id="matplotlib.axis_16">
    <g id="ytick_41">
     <g id="line2d_96">
      <g>
       <use style="stroke:#000000;stroke-width:0.8;" x="613.03" xlink:href="#m8372d79737" y="541.836711"/>
      </g>
     </g>
     <g id="text_96">
      <!-- 0 -->
      <g transform="translate(599.6675 545.635929)scale(0.1 -0.1)">
       <use xlink:href="#DejaVuSans-48"/>
      </g>
     </g>
    </g>
    <g id="ytick_42">
     <g id="line2d_97">
      <g>
       <use style="stroke:#000000;stroke-width:0.8;" x="613.03" xlink:href="#m8372d79737" y="503.392685"/>
      </g>
     </g>
     <g id="text_97">
      <!-- 20 -->
      <g transform="translate(593.305 507.191904)scale(0.1 -0.1)">
       <use xlink:href="#DejaVuSans-50"/>
       <use x="63.623047" xlink:href="#DejaVuSans-48"/>
      </g>
     </g>
    </g>
    <g id="ytick_43">
     <g id="line2d_98">
      <g>
       <use style="stroke:#000000;stroke-width:0.8;" x="613.03" xlink:href="#m8372d79737" y="464.948659"/>
      </g>
     </g>
     <g id="text_98">
      <!-- 40 -->
      <g transform="translate(593.305 468.747878)scale(0.1 -0.1)">
       <use xlink:href="#DejaVuSans-52"/>
       <use x="63.623047" xlink:href="#DejaVuSans-48"/>
      </g>
     </g>
    </g>
    <g id="ytick_44">
     <g id="line2d_99">
      <g>
       <use style="stroke:#000000;stroke-width:0.8;" x="613.03" xlink:href="#m8372d79737" y="426.504634"/>
      </g>
     </g>
     <g id="text_99">
      <!-- 60 -->
      <g transform="translate(593.305 430.303852)scale(0.1 -0.1)">
       <use xlink:href="#DejaVuSans-54"/>
       <use x="63.623047" xlink:href="#DejaVuSans-48"/>
      </g>
     </g>
    </g>
   </g>
   <g id="line2d_100">
    <path clip-path="url(#p5c3f70e83c)" d="M 623.832273 540.81118 
L 626.01455 480.779176 
L 628.196827 528.975996 
L 630.379105 510.46849 
L 632.561382 487.352605 
L 634.743659 518.607153 
L 636.925937 525.465009 
L 639.108214 469.168544 
L 641.290491 537.655653 
L 643.472769 529.85413 
L 645.655046 530.778999 
L 647.837323 526.249353 
L 650.019601 537.777592 
L 652.201878 515.312405 
L 654.384155 485.277189 
L 656.566433 522.213145 
L 658.74871 412.014973 
L 660.930987 520.107126 
L 663.113264 480.61087 
L 665.295542 517.367671 
L 667.477819 481.919464 
L 669.660096 497.312647 
L 671.842374 540.587149 
L 674.024651 496.709223 
L 676.206928 524.427703 
L 678.389206 518.821554 
L 680.571483 512.653758 
L 682.75376 519.941493 
L 684.936038 516.683107 
L 687.118315 464.765476 
L 689.300592 524.012108 
L 691.48287 453.102102 
L 693.665147 539.280064 
L 695.847424 520.638791 
L 698.029702 426.951554 
L 700.211979 427.272744 
L 702.394256 505.426185 
L 704.576534 508.556672 
L 706.758811 526.950455 
L 708.941088 540.923151 
L 711.123365 523.711538 
L 713.305643 408.870909 
L 715.48792 537.903973 
L 717.670197 524.036739 
L 719.852475 482.234313 
L 722.034752 423.069175 
L 724.217029 472.285095 
L 726.399307 526.709688 
L 728.581584 522.387274 
L 730.763861 531.098584 
L 732.946139 538.84102 
L 735.128416 443.842961 
L 737.310693 525.511599 
L 739.492971 497.995779 
L 741.675248 446.296042 
L 743.857525 539.139712 
L 746.039803 484.247214 
L 748.22208 500.127752 
L 750.404357 471.825037 
L 752.586635 471.862167 
L 754.768912 525.956728 
L 756.951189 468.826671 
L 759.133466 536.305024 
L 761.315744 445.478128 
L 763.498021 482.271411 
L 765.680298 490.638167 
L 767.862576 510.05693 
L 770.044853 486.349464 
L 772.22713 525.698971 
L 774.409408 511.876961 
L 776.591685 462.507249 
L 778.773962 496.713626 
L 780.95624 498.60437 
L 783.138517 531.966603 
L 785.320794 516.9286 
L 787.503072 539.197462 
L 789.685349 524.419722 
L 791.867626 520.682064 
L 794.049904 465.112679 
L 796.232181 510.21844 
L 798.414458 508.324387 
L 800.596736 483.93152 
L 802.779013 501.000731 
L 804.96129 535.527188 
L 807.143567 433.239002 
L 809.325845 500.7519 
L 811.508122 530.939133 
L 813.690399 520.10231 
L 815.872677 491.635251 
L 818.054954 524.547131 
L 820.237231 541.489091 
L 822.419509 508.541383 
L 824.601786 507.906865 
L 826.784063 491.232218 
L 828.966341 501.958551 
L 831.148618 449.394708 
L 833.330895 524.211186 
L 835.513173 474.991032 
L 837.69545 535.317389 
L 839.877727 529.703695 
" style="fill:none;stroke:#ff0000;stroke-linecap:square;stroke-width:1.5;"/>
   </g>
   <g id="patch_38">
    <path d="M 613.03 548.12 
L 613.03 402.24 
" style="fill:none;stroke:#000000;stroke-linecap:square;stroke-linejoin:miter;stroke-width:0.8;"/>
   </g>
   <g id="patch_39">
    <path d="M 850.68 548.12 
L 850.68 402.24 
" style="fill:none;stroke:#000000;stroke-linecap:square;stroke-linejoin:miter;stroke-width:0.8;"/>
   </g>
   <g id="patch_40">
    <path d="M 613.03 548.12 
L 850.68 548.12 
" style="fill:none;stroke:#000000;stroke-linecap:square;stroke-linejoin:miter;stroke-width:0.8;"/>
   </g>
   <g id="patch_41">
    <path d="M 613.03 402.24 
L 850.68 402.24 
" style="fill:none;stroke:#000000;stroke-linecap:square;stroke-linejoin:miter;stroke-width:0.8;"/>
   </g>
   <g id="text_100">
    <!-- Output signal 3 -->
    <g transform="translate(685.634375 396.24)scale(0.12 -0.12)">
     <use xlink:href="#DejaVuSans-79"/>
     <use x="78.710938" xlink:href="#DejaVuSans-117"/>
     <use x="142.089844" xlink:href="#DejaVuSans-116"/>
     <use x="181.298828" xlink:href="#DejaVuSans-112"/>
     <use x="244.775391" xlink:href="#DejaVuSans-117"/>
     <use x="308.154297" xlink:href="#DejaVuSans-116"/>
     <use x="347.363281" xlink:href="#DejaVuSans-32"/>
     <use x="379.150391" xlink:href="#DejaVuSans-115"/>
     <use x="431.25" xlink:href="#DejaVuSans-105"/>
     <use x="459.033203" xlink:href="#DejaVuSans-103"/>
     <use x="522.509766" xlink:href="#DejaVuSans-110"/>
     <use x="585.888672" xlink:href="#DejaVuSans-97"/>
     <use x="647.167969" xlink:href="#DejaVuSans-108"/>
     <use x="674.951172" xlink:href="#DejaVuSans-32"/>
     <use x="706.738281" xlink:href="#DejaVuSans-51"/>
    </g>
   </g>
  </g>
 </g>
 <defs>
  <clipPath id="pe56789e208">
   <rect height="145.88" width="380.9" x="40.03" y="25.44"/>
  </clipPath>
  <clipPath id="pe5ac6cef53">
   <rect height="145.88" width="380.9" x="469.78" y="25.44"/>
  </clipPath>
  <clipPath id="pabe21a0275">
   <rect height="145.88" width="237.65" x="40.03" y="213.84"/>
  </clipPath>
  <clipPath id="p02df3b9ccc">
   <rect height="145.88" width="237.65" x="326.53" y="213.84"/>
  </clipPath>
  <clipPath id="p3692567c2c">
   <rect height="145.88" width="237.65" x="613.03" y="213.84"/>
  </clipPath>
  <clipPath id="p2770dd052b">
   <rect height="145.88" width="237.65" x="40.03" y="402.24"/>
  </clipPath>
  <clipPath id="pb3af559f7b">
   <rect height="145.88" width="237.65" x="326.53" y="402.24"/>
  </clipPath>
  <clipPath id="p5c3f70e83c">
   <rect height="145.88" width="237.65" x="613.03" y="402.24"/>
  </clipPath>
 </defs>
</svg>
