<?xml version="1.0" encoding="utf-8" standalone="no"?>
<!DOCTYPE svg PUBLIC "-//W3C//DTD SVG 1.1//EN"
  "http://www.w3.org/Graphics/SVG/1.1/DTD/svg11.dtd">
<!-- Created with matplotlib (https://matplotlib.org/) -->
<svg height="576pt" version="1.1" viewBox="0 0 864 576" width="864pt" xmlns="http://www.w3.org/2000/svg" xmlns:xlink="http://www.w3.org/1999/xlink">
 <defs>
  <style type="text/css">
*{stroke-linecap:butt;stroke-linejoin:round;}
  </style>
 </defs>
 <g id="figure_1">
  <g id="patch_1">
   <path d="M 0 576 
L 864 576 
L 864 0 
L 0 0 
z
" style="fill:#ffffff;"/>
  </g>
  <g id="axes_1">
   <g id="patch_2">
    <path d="M 46.33 171.32 
L 424.08 171.32 
L 424.08 25.44 
L 46.33 25.44 
z
" style="fill:#ffffff;"/>
   </g>
   <g id="matplotlib.axis_1">
    <g id="xtick_1">
     <g id="line2d_1">
      <defs>
       <path d="M 0 0 
L 0 3.5 
" id="mfe441f589b" style="stroke:#000000;stroke-width:0.8;"/>
      </defs>
      <g>
       <use style="stroke:#000000;stroke-width:0.8;" x="63.500455" xlink:href="#mfe441f589b" y="171.32"/>
      </g>
     </g>
     <g id="text_1">
      <!-- 0 -->
      <defs>
       <path d="M 31.78125 66.40625 
Q 24.171875 66.40625 20.328125 58.90625 
Q 16.5 51.421875 16.5 36.375 
Q 16.5 21.390625 20.328125 13.890625 
Q 24.171875 6.390625 31.78125 6.390625 
Q 39.453125 6.390625 43.28125 13.890625 
Q 47.125 21.390625 47.125 36.375 
Q 47.125 51.421875 43.28125 58.90625 
Q 39.453125 66.40625 31.78125 66.40625 
z
M 31.78125 74.21875 
Q 44.046875 74.21875 50.515625 64.515625 
Q 56.984375 54.828125 56.984375 36.375 
Q 56.984375 17.96875 50.515625 8.265625 
Q 44.046875 -1.421875 31.78125 -1.421875 
Q 19.53125 -1.421875 13.0625 8.265625 
Q 6.59375 17.96875 6.59375 36.375 
Q 6.59375 54.828125 13.0625 64.515625 
Q 19.53125 74.21875 31.78125 74.21875 
z
" id="DejaVuSans-48"/>
      </defs>
      <g transform="translate(60.319205 185.918438)scale(0.1 -0.1)">
       <use xlink:href="#DejaVuSans-48"/>
      </g>
     </g>
    </g>
    <g id="xtick_2">
     <g id="line2d_2">
      <g>
       <use style="stroke:#000000;stroke-width:0.8;" x="132.876028" xlink:href="#mfe441f589b" y="171.32"/>
      </g>
     </g>
     <g id="text_2">
      <!-- 20 -->
      <defs>
       <path d="M 19.1875 8.296875 
L 53.609375 8.296875 
L 53.609375 0 
L 7.328125 0 
L 7.328125 8.296875 
Q 12.9375 14.109375 22.625 23.890625 
Q 32.328125 33.6875 34.8125 36.53125 
Q 39.546875 41.84375 41.421875 45.53125 
Q 43.3125 49.21875 43.3125 52.78125 
Q 43.3125 58.59375 39.234375 62.25 
Q 35.15625 65.921875 28.609375 65.921875 
Q 23.96875 65.921875 18.8125 64.3125 
Q 13.671875 62.703125 7.8125 59.421875 
L 7.8125 69.390625 
Q 13.765625 71.78125 18.9375 73 
Q 24.125 74.21875 28.421875 74.21875 
Q 39.75 74.21875 46.484375 68.546875 
Q 53.21875 62.890625 53.21875 53.421875 
Q 53.21875 48.921875 51.53125 44.890625 
Q 49.859375 40.875 45.40625 35.40625 
Q 44.1875 33.984375 37.640625 27.21875 
Q 31.109375 20.453125 19.1875 8.296875 
z
" id="DejaVuSans-50"/>
      </defs>
      <g transform="translate(126.513528 185.918438)scale(0.1 -0.1)">
       <use xlink:href="#DejaVuSans-50"/>
       <use x="63.623047" xlink:href="#DejaVuSans-48"/>
      </g>
     </g>
    </g>
    <g id="xtick_3">
     <g id="line2d_3">
      <g>
       <use style="stroke:#000000;stroke-width:0.8;" x="202.251602" xlink:href="#mfe441f589b" y="171.32"/>
      </g>
     </g>
     <g id="text_3">
      <!-- 40 -->
      <defs>
       <path d="M 37.796875 64.3125 
L 12.890625 25.390625 
L 37.796875 25.390625 
z
M 35.203125 72.90625 
L 47.609375 72.90625 
L 47.609375 25.390625 
L 58.015625 25.390625 
L 58.015625 17.1875 
L 47.609375 17.1875 
L 47.609375 0 
L 37.796875 0 
L 37.796875 17.1875 
L 4.890625 17.1875 
L 4.890625 26.703125 
z
" id="DejaVuSans-52"/>
      </defs>
      <g transform="translate(195.889102 185.918438)scale(0.1 -0.1)">
       <use xlink:href="#DejaVuSans-52"/>
       <use x="63.623047" xlink:href="#DejaVuSans-48"/>
      </g>
     </g>
    </g>
    <g id="xtick_4">
     <g id="line2d_4">
      <g>
       <use style="stroke:#000000;stroke-width:0.8;" x="271.627176" xlink:href="#mfe441f589b" y="171.32"/>
      </g>
     </g>
     <g id="text_4">
      <!-- 60 -->
      <defs>
       <path d="M 33.015625 40.375 
Q 26.375 40.375 22.484375 35.828125 
Q 18.609375 31.296875 18.609375 23.390625 
Q 18.609375 15.53125 22.484375 10.953125 
Q 26.375 6.390625 33.015625 6.390625 
Q 39.65625 6.390625 43.53125 10.953125 
Q 47.40625 15.53125 47.40625 23.390625 
Q 47.40625 31.296875 43.53125 35.828125 
Q 39.65625 40.375 33.015625 40.375 
z
M 52.59375 71.296875 
L 52.59375 62.3125 
Q 48.875 64.0625 45.09375 64.984375 
Q 41.3125 65.921875 37.59375 65.921875 
Q 27.828125 65.921875 22.671875 59.328125 
Q 17.53125 52.734375 16.796875 39.40625 
Q 19.671875 43.65625 24.015625 45.921875 
Q 28.375 48.1875 33.59375 48.1875 
Q 44.578125 48.1875 50.953125 41.515625 
Q 57.328125 34.859375 57.328125 23.390625 
Q 57.328125 12.15625 50.6875 5.359375 
Q 44.046875 -1.421875 33.015625 -1.421875 
Q 20.359375 -1.421875 13.671875 8.265625 
Q 6.984375 17.96875 6.984375 36.375 
Q 6.984375 53.65625 15.1875 63.9375 
Q 23.390625 74.21875 37.203125 74.21875 
Q 40.921875 74.21875 44.703125 73.484375 
Q 48.484375 72.75 52.59375 71.296875 
z
" id="DejaVuSans-54"/>
      </defs>
      <g transform="translate(265.264676 185.918438)scale(0.1 -0.1)">
       <use xlink:href="#DejaVuSans-54"/>
       <use x="63.623047" xlink:href="#DejaVuSans-48"/>
      </g>
     </g>
    </g>
    <g id="xtick_5">
     <g id="line2d_5">
      <g>
       <use style="stroke:#000000;stroke-width:0.8;" x="341.00275" xlink:href="#mfe441f589b" y="171.32"/>
      </g>
     </g>
     <g id="text_5">
      <!-- 80 -->
      <defs>
       <path d="M 31.78125 34.625 
Q 24.75 34.625 20.71875 30.859375 
Q 16.703125 27.09375 16.703125 20.515625 
Q 16.703125 13.921875 20.71875 10.15625 
Q 24.75 6.390625 31.78125 6.390625 
Q 38.8125 6.390625 42.859375 10.171875 
Q 46.921875 13.96875 46.921875 20.515625 
Q 46.921875 27.09375 42.890625 30.859375 
Q 38.875 34.625 31.78125 34.625 
z
M 21.921875 38.8125 
Q 15.578125 40.375 12.03125 44.71875 
Q 8.5 49.078125 8.5 55.328125 
Q 8.5 64.0625 14.71875 69.140625 
Q 20.953125 74.21875 31.78125 74.21875 
Q 42.671875 74.21875 48.875 69.140625 
Q 55.078125 64.0625 55.078125 55.328125 
Q 55.078125 49.078125 51.53125 44.71875 
Q 48 40.375 41.703125 38.8125 
Q 48.828125 37.15625 52.796875 32.3125 
Q 56.78125 27.484375 56.78125 20.515625 
Q 56.78125 9.90625 50.3125 4.234375 
Q 43.84375 -1.421875 31.78125 -1.421875 
Q 19.734375 -1.421875 13.25 4.234375 
Q 6.78125 9.90625 6.78125 20.515625 
Q 6.78125 27.484375 10.78125 32.3125 
Q 14.796875 37.15625 21.921875 38.8125 
z
M 18.3125 54.390625 
Q 18.3125 48.734375 21.84375 45.5625 
Q 25.390625 42.390625 31.78125 42.390625 
Q 38.140625 42.390625 41.71875 45.5625 
Q 45.3125 48.734375 45.3125 54.390625 
Q 45.3125 60.0625 41.71875 63.234375 
Q 38.140625 66.40625 31.78125 66.40625 
Q 25.390625 66.40625 21.84375 63.234375 
Q 18.3125 60.0625 18.3125 54.390625 
z
" id="DejaVuSans-56"/>
      </defs>
      <g transform="translate(334.64025 185.918438)scale(0.1 -0.1)">
       <use xlink:href="#DejaVuSans-56"/>
       <use x="63.623047" xlink:href="#DejaVuSans-48"/>
      </g>
     </g>
    </g>
    <g id="xtick_6">
     <g id="line2d_6">
      <g>
       <use style="stroke:#000000;stroke-width:0.8;" x="410.378324" xlink:href="#mfe441f589b" y="171.32"/>
      </g>
     </g>
     <g id="text_6">
      <!-- 100 -->
      <defs>
       <path d="M 12.40625 8.296875 
L 28.515625 8.296875 
L 28.515625 63.921875 
L 10.984375 60.40625 
L 10.984375 69.390625 
L 28.421875 72.90625 
L 38.28125 72.90625 
L 38.28125 8.296875 
L 54.390625 8.296875 
L 54.390625 0 
L 12.40625 0 
z
" id="DejaVuSans-49"/>
      </defs>
      <g transform="translate(400.834574 185.918438)scale(0.1 -0.1)">
       <use xlink:href="#DejaVuSans-49"/>
       <use x="63.623047" xlink:href="#DejaVuSans-48"/>
       <use x="127.246094" xlink:href="#DejaVuSans-48"/>
      </g>
     </g>
    </g>
   </g>
   <g id="matplotlib.axis_2">
    <g id="ytick_1">
     <g id="line2d_7">
      <defs>
       <path d="M 0 0 
L -3.5 0 
" id="mf4dcb1f25f" style="stroke:#000000;stroke-width:0.8;"/>
      </defs>
      <g>
       <use style="stroke:#000000;stroke-width:0.8;" x="46.33" xlink:href="#mf4dcb1f25f" y="166.745671"/>
      </g>
     </g>
     <g id="text_7">
      <!-- 0.000 -->
      <defs>
       <path d="M 10.6875 12.40625 
L 21 12.40625 
L 21 0 
L 10.6875 0 
z
" id="DejaVuSans-46"/>
      </defs>
      <g transform="translate(10.701875 170.54489)scale(0.1 -0.1)">
       <use xlink:href="#DejaVuSans-48"/>
       <use x="63.623047" xlink:href="#DejaVuSans-46"/>
       <use x="95.410156" xlink:href="#DejaVuSans-48"/>
       <use x="159.033203" xlink:href="#DejaVuSans-48"/>
       <use x="222.65625" xlink:href="#DejaVuSans-48"/>
      </g>
     </g>
    </g>
    <g id="ytick_2">
     <g id="line2d_8">
      <g>
       <use style="stroke:#000000;stroke-width:0.8;" x="46.33" xlink:href="#mf4dcb1f25f" y="130.997991"/>
      </g>
     </g>
     <g id="text_8">
      <!-- 0.005 -->
      <defs>
       <path d="M 10.796875 72.90625 
L 49.515625 72.90625 
L 49.515625 64.59375 
L 19.828125 64.59375 
L 19.828125 46.734375 
Q 21.96875 47.46875 24.109375 47.828125 
Q 26.265625 48.1875 28.421875 48.1875 
Q 40.625 48.1875 47.75 41.5 
Q 54.890625 34.8125 54.890625 23.390625 
Q 54.890625 11.625 47.5625 5.09375 
Q 40.234375 -1.421875 26.90625 -1.421875 
Q 22.3125 -1.421875 17.546875 -0.640625 
Q 12.796875 0.140625 7.71875 1.703125 
L 7.71875 11.625 
Q 12.109375 9.234375 16.796875 8.0625 
Q 21.484375 6.890625 26.703125 6.890625 
Q 35.15625 6.890625 40.078125 11.328125 
Q 45.015625 15.765625 45.015625 23.390625 
Q 45.015625 31 40.078125 35.4375 
Q 35.15625 39.890625 26.703125 39.890625 
Q 22.75 39.890625 18.8125 39.015625 
Q 14.890625 38.140625 10.796875 36.28125 
z
" id="DejaVuSans-53"/>
      </defs>
      <g transform="translate(10.701875 134.79721)scale(0.1 -0.1)">
       <use xlink:href="#DejaVuSans-48"/>
       <use x="63.623047" xlink:href="#DejaVuSans-46"/>
       <use x="95.410156" xlink:href="#DejaVuSans-48"/>
       <use x="159.033203" xlink:href="#DejaVuSans-48"/>
       <use x="222.65625" xlink:href="#DejaVuSans-53"/>
      </g>
     </g>
    </g>
    <g id="ytick_3">
     <g id="line2d_9">
      <g>
       <use style="stroke:#000000;stroke-width:0.8;" x="46.33" xlink:href="#mf4dcb1f25f" y="95.250311"/>
      </g>
     </g>
     <g id="text_9">
      <!-- 0.010 -->
      <g transform="translate(10.701875 99.04953)scale(0.1 -0.1)">
       <use xlink:href="#DejaVuSans-48"/>
       <use x="63.623047" xlink:href="#DejaVuSans-46"/>
       <use x="95.410156" xlink:href="#DejaVuSans-48"/>
       <use x="159.033203" xlink:href="#DejaVuSans-49"/>
       <use x="222.65625" xlink:href="#DejaVuSans-48"/>
      </g>
     </g>
    </g>
    <g id="ytick_4">
     <g id="line2d_10">
      <g>
       <use style="stroke:#000000;stroke-width:0.8;" x="46.33" xlink:href="#mf4dcb1f25f" y="59.502631"/>
      </g>
     </g>
     <g id="text_10">
      <!-- 0.015 -->
      <g transform="translate(10.701875 63.30185)scale(0.1 -0.1)">
       <use xlink:href="#DejaVuSans-48"/>
       <use x="63.623047" xlink:href="#DejaVuSans-46"/>
       <use x="95.410156" xlink:href="#DejaVuSans-48"/>
       <use x="159.033203" xlink:href="#DejaVuSans-49"/>
       <use x="222.65625" xlink:href="#DejaVuSans-53"/>
      </g>
     </g>
    </g>
   </g>
   <g id="line2d_11">
    <path clip-path="url(#pcd278fd48f)" d="M 63.500455 164.689091 
L 66.969233 87.773442 
L 70.438012 59.990977 
L 73.906791 116.394118 
L 77.375569 161.769087 
L 80.844348 83.374921 
L 84.313127 32.070909 
L 87.781905 69.243246 
L 91.250684 63.191826 
L 94.719463 35.33651 
L 98.188242 40.215417 
L 101.65702 90.17094 
L 105.125799 104.503061 
L 108.594578 119.596908 
L 112.063356 57.828485 
L 115.532135 43.795281 
L 119.000914 127.706973 
L 122.469692 89.379667 
L 125.938471 87.481802 
L 129.40725 112.670026 
L 132.876028 46.455615 
L 136.344807 146.129724 
L 139.813586 88.836235 
L 143.282365 157.494814 
L 146.751143 37.554257 
L 150.219922 45.535306 
L 153.688701 34.120586 
L 157.157479 132.308063 
L 160.626258 90.998341 
L 164.095037 104.576831 
L 167.563815 83.033311 
L 171.032594 108.730842 
L 174.501373 102.560088 
L 177.970152 49.658651 
L 181.43893 101.268442 
L 184.907709 90.914795 
L 188.376488 129.533899 
L 191.845266 33.659853 
L 195.314045 38.965592 
L 198.782824 116.079092 
L 202.251602 111.912717 
L 205.720381 81.184659 
L 209.18916 123.637758 
L 212.657938 49.534468 
L 216.126717 107.699671 
L 219.595496 38.590507 
L 223.064275 154.118109 
L 226.533053 57.021326 
L 230.001832 161.884707 
L 233.470611 94.497165 
L 236.939389 100.541188 
L 240.408168 77.72578 
L 243.876947 36.448583 
L 247.345725 130.996964 
L 250.814504 79.969303 
L 254.283283 150.551081 
L 257.752062 85.13671 
L 261.22084 115.184075 
L 264.689619 110.227208 
L 268.158398 149.613676 
L 271.627176 39.983271 
L 275.095955 84.845919 
L 278.564734 69.223972 
L 282.033512 149.057348 
L 285.502291 103.617234 
L 288.97107 95.35848 
L 292.439848 134.132907 
L 295.908627 143.325834 
L 299.377406 47.140592 
L 302.846185 106.240347 
L 306.314963 147.030032 
L 309.783742 122.854617 
L 313.252521 99.597884 
L 316.721299 85.331793 
L 320.190078 92.818151 
L 323.658857 69.25112 
L 327.127635 134.667836 
L 330.596414 144.468821 
L 334.065193 54.548815 
L 337.533972 72.607329 
L 341.00275 109.798557 
L 344.471529 154.467731 
L 347.940308 133.378955 
L 351.409086 88.753822 
L 354.877865 33.849166 
L 358.346644 98.117467 
L 361.815422 162.952925 
L 365.284201 76.050026 
L 368.75298 106.902003 
L 372.221758 99.910318 
L 375.690537 139.130512 
L 379.159316 62.665461 
L 382.628095 37.261375 
L 386.096873 81.677833 
L 389.565652 106.720445 
L 393.034431 143.071062 
L 396.503209 71.147313 
L 399.971988 106.838302 
L 403.440767 61.414274 
L 406.909545 152.748604 
" style="fill:none;stroke:#bfbf00;stroke-linecap:square;stroke-width:1.5;"/>
   </g>
   <g id="patch_3">
    <path d="M 46.33 171.32 
L 46.33 25.44 
" style="fill:none;stroke:#000000;stroke-linecap:square;stroke-linejoin:miter;stroke-width:0.8;"/>
   </g>
   <g id="patch_4">
    <path d="M 424.08 171.32 
L 424.08 25.44 
" style="fill:none;stroke:#000000;stroke-linecap:square;stroke-linejoin:miter;stroke-width:0.8;"/>
   </g>
   <g id="patch_5">
    <path d="M 46.33 171.32 
L 424.08 171.32 
" style="fill:none;stroke:#000000;stroke-linecap:square;stroke-linejoin:miter;stroke-width:0.8;"/>
   </g>
   <g id="patch_6">
    <path d="M 46.33 25.44 
L 424.08 25.44 
" style="fill:none;stroke:#000000;stroke-linecap:square;stroke-linejoin:miter;stroke-width:0.8;"/>
   </g>
   <g id="text_11">
    <!-- Input signal 1 -->
    <defs>
     <path d="M 9.8125 72.90625 
L 19.671875 72.90625 
L 19.671875 0 
L 9.8125 0 
z
" id="DejaVuSans-73"/>
     <path d="M 54.890625 33.015625 
L 54.890625 0 
L 45.90625 0 
L 45.90625 32.71875 
Q 45.90625 40.484375 42.875 44.328125 
Q 39.84375 48.1875 33.796875 48.1875 
Q 26.515625 48.1875 22.3125 43.546875 
Q 18.109375 38.921875 18.109375 30.90625 
L 18.109375 0 
L 9.078125 0 
L 9.078125 54.6875 
L 18.109375 54.6875 
L 18.109375 46.1875 
Q 21.34375 51.125 25.703125 53.5625 
Q 30.078125 56 35.796875 56 
Q 45.21875 56 50.046875 50.171875 
Q 54.890625 44.34375 54.890625 33.015625 
z
" id="DejaVuSans-110"/>
     <path d="M 18.109375 8.203125 
L 18.109375 -20.796875 
L 9.078125 -20.796875 
L 9.078125 54.6875 
L 18.109375 54.6875 
L 18.109375 46.390625 
Q 20.953125 51.265625 25.265625 53.625 
Q 29.59375 56 35.59375 56 
Q 45.5625 56 51.78125 48.09375 
Q 58.015625 40.1875 58.015625 27.296875 
Q 58.015625 14.40625 51.78125 6.484375 
Q 45.5625 -1.421875 35.59375 -1.421875 
Q 29.59375 -1.421875 25.265625 0.953125 
Q 20.953125 3.328125 18.109375 8.203125 
z
M 48.6875 27.296875 
Q 48.6875 37.203125 44.609375 42.84375 
Q 40.53125 48.484375 33.40625 48.484375 
Q 26.265625 48.484375 22.1875 42.84375 
Q 18.109375 37.203125 18.109375 27.296875 
Q 18.109375 17.390625 22.1875 11.75 
Q 26.265625 6.109375 33.40625 6.109375 
Q 40.53125 6.109375 44.609375 11.75 
Q 48.6875 17.390625 48.6875 27.296875 
z
" id="DejaVuSans-112"/>
     <path d="M 8.5 21.578125 
L 8.5 54.6875 
L 17.484375 54.6875 
L 17.484375 21.921875 
Q 17.484375 14.15625 20.5 10.265625 
Q 23.53125 6.390625 29.59375 6.390625 
Q 36.859375 6.390625 41.078125 11.03125 
Q 45.3125 15.671875 45.3125 23.6875 
L 45.3125 54.6875 
L 54.296875 54.6875 
L 54.296875 0 
L 45.3125 0 
L 45.3125 8.40625 
Q 42.046875 3.421875 37.71875 1 
Q 33.40625 -1.421875 27.6875 -1.421875 
Q 18.265625 -1.421875 13.375 4.4375 
Q 8.5 10.296875 8.5 21.578125 
z
M 31.109375 56 
z
" id="DejaVuSans-117"/>
     <path d="M 18.3125 70.21875 
L 18.3125 54.6875 
L 36.8125 54.6875 
L 36.8125 47.703125 
L 18.3125 47.703125 
L 18.3125 18.015625 
Q 18.3125 11.328125 20.140625 9.421875 
Q 21.96875 7.515625 27.59375 7.515625 
L 36.8125 7.515625 
L 36.8125 0 
L 27.59375 0 
Q 17.1875 0 13.234375 3.875 
Q 9.28125 7.765625 9.28125 18.015625 
L 9.28125 47.703125 
L 2.6875 47.703125 
L 2.6875 54.6875 
L 9.28125 54.6875 
L 9.28125 70.21875 
z
" id="DejaVuSans-116"/>
     <path id="DejaVuSans-32"/>
     <path d="M 44.28125 53.078125 
L 44.28125 44.578125 
Q 40.484375 46.53125 36.375 47.5 
Q 32.28125 48.484375 27.875 48.484375 
Q 21.1875 48.484375 17.84375 46.4375 
Q 14.5 44.390625 14.5 40.28125 
Q 14.5 37.15625 16.890625 35.375 
Q 19.28125 33.59375 26.515625 31.984375 
L 29.59375 31.296875 
Q 39.15625 29.25 43.1875 25.515625 
Q 47.21875 21.78125 47.21875 15.09375 
Q 47.21875 7.46875 41.1875 3.015625 
Q 35.15625 -1.421875 24.609375 -1.421875 
Q 20.21875 -1.421875 15.453125 -0.5625 
Q 10.6875 0.296875 5.421875 2 
L 5.421875 11.28125 
Q 10.40625 8.6875 15.234375 7.390625 
Q 20.0625 6.109375 24.8125 6.109375 
Q 31.15625 6.109375 34.5625 8.28125 
Q 37.984375 10.453125 37.984375 14.40625 
Q 37.984375 18.0625 35.515625 20.015625 
Q 33.0625 21.96875 24.703125 23.78125 
L 21.578125 24.515625 
Q 13.234375 26.265625 9.515625 29.90625 
Q 5.8125 33.546875 5.8125 39.890625 
Q 5.8125 47.609375 11.28125 51.796875 
Q 16.75 56 26.8125 56 
Q 31.78125 56 36.171875 55.265625 
Q 40.578125 54.546875 44.28125 53.078125 
z
" id="DejaVuSans-115"/>
     <path d="M 9.421875 54.6875 
L 18.40625 54.6875 
L 18.40625 0 
L 9.421875 0 
z
M 9.421875 75.984375 
L 18.40625 75.984375 
L 18.40625 64.59375 
L 9.421875 64.59375 
z
" id="DejaVuSans-105"/>
     <path d="M 45.40625 27.984375 
Q 45.40625 37.75 41.375 43.109375 
Q 37.359375 48.484375 30.078125 48.484375 
Q 22.859375 48.484375 18.828125 43.109375 
Q 14.796875 37.75 14.796875 27.984375 
Q 14.796875 18.265625 18.828125 12.890625 
Q 22.859375 7.515625 30.078125 7.515625 
Q 37.359375 7.515625 41.375 12.890625 
Q 45.40625 18.265625 45.40625 27.984375 
z
M 54.390625 6.78125 
Q 54.390625 -7.171875 48.1875 -13.984375 
Q 42 -20.796875 29.203125 -20.796875 
Q 24.46875 -20.796875 20.265625 -20.09375 
Q 16.0625 -19.390625 12.109375 -17.921875 
L 12.109375 -9.1875 
Q 16.0625 -11.328125 19.921875 -12.34375 
Q 23.78125 -13.375 27.78125 -13.375 
Q 36.625 -13.375 41.015625 -8.765625 
Q 45.40625 -4.15625 45.40625 5.171875 
L 45.40625 9.625 
Q 42.625 4.78125 38.28125 2.390625 
Q 33.9375 0 27.875 0 
Q 17.828125 0 11.671875 7.65625 
Q 5.515625 15.328125 5.515625 27.984375 
Q 5.515625 40.671875 11.671875 48.328125 
Q 17.828125 56 27.875 56 
Q 33.9375 56 38.28125 53.609375 
Q 42.625 51.21875 45.40625 46.390625 
L 45.40625 54.6875 
L 54.390625 54.6875 
z
" id="DejaVuSans-103"/>
     <path d="M 34.28125 27.484375 
Q 23.390625 27.484375 19.1875 25 
Q 14.984375 22.515625 14.984375 16.5 
Q 14.984375 11.71875 18.140625 8.90625 
Q 21.296875 6.109375 26.703125 6.109375 
Q 34.1875 6.109375 38.703125 11.40625 
Q 43.21875 16.703125 43.21875 25.484375 
L 43.21875 27.484375 
z
M 52.203125 31.203125 
L 52.203125 0 
L 43.21875 0 
L 43.21875 8.296875 
Q 40.140625 3.328125 35.546875 0.953125 
Q 30.953125 -1.421875 24.3125 -1.421875 
Q 15.921875 -1.421875 10.953125 3.296875 
Q 6 8.015625 6 15.921875 
Q 6 25.140625 12.171875 29.828125 
Q 18.359375 34.515625 30.609375 34.515625 
L 43.21875 34.515625 
L 43.21875 35.40625 
Q 43.21875 41.609375 39.140625 45 
Q 35.0625 48.390625 27.6875 48.390625 
Q 23 48.390625 18.546875 47.265625 
Q 14.109375 46.140625 10.015625 43.890625 
L 10.015625 52.203125 
Q 14.9375 54.109375 19.578125 55.046875 
Q 24.21875 56 28.609375 56 
Q 40.484375 56 46.34375 49.84375 
Q 52.203125 43.703125 52.203125 31.203125 
z
" id="DejaVuSans-97"/>
     <path d="M 9.421875 75.984375 
L 18.40625 75.984375 
L 18.40625 0 
L 9.421875 0 
z
" id="DejaVuSans-108"/>
    </defs>
    <g transform="translate(194.289687 19.44)scale(0.12 -0.12)">
     <use xlink:href="#DejaVuSans-73"/>
     <use x="29.492188" xlink:href="#DejaVuSans-110"/>
     <use x="92.871094" xlink:href="#DejaVuSans-112"/>
     <use x="156.347656" xlink:href="#DejaVuSans-117"/>
     <use x="219.726562" xlink:href="#DejaVuSans-116"/>
     <use x="258.935547" xlink:href="#DejaVuSans-32"/>
     <use x="290.722656" xlink:href="#DejaVuSans-115"/>
     <use x="342.822266" xlink:href="#DejaVuSans-105"/>
     <use x="370.605469" xlink:href="#DejaVuSans-103"/>
     <use x="434.082031" xlink:href="#DejaVuSans-110"/>
     <use x="497.460938" xlink:href="#DejaVuSans-97"/>
     <use x="558.740234" xlink:href="#DejaVuSans-108"/>
     <use x="586.523438" xlink:href="#DejaVuSans-32"/>
     <use x="618.310547" xlink:href="#DejaVuSans-49"/>
    </g>
   </g>
  </g>
  <g id="axes_2">
   <g id="patch_7">
    <path d="M 472.93 171.32 
L 850.68 171.32 
L 850.68 25.44 
L 472.93 25.44 
z
" style="fill:#ffffff;"/>
   </g>
   <g id="matplotlib.axis_3">
    <g id="xtick_7">
     <g id="line2d_12">
      <g>
       <use style="stroke:#000000;stroke-width:0.8;" x="490.100455" xlink:href="#mfe441f589b" y="171.32"/>
      </g>
     </g>
     <g id="text_12">
      <!-- 0 -->
      <g transform="translate(486.919205 185.918438)scale(0.1 -0.1)">
       <use xlink:href="#DejaVuSans-48"/>
      </g>
     </g>
    </g>
    <g id="xtick_8">
     <g id="line2d_13">
      <g>
       <use style="stroke:#000000;stroke-width:0.8;" x="559.476028" xlink:href="#mfe441f589b" y="171.32"/>
      </g>
     </g>
     <g id="text_13">
      <!-- 20 -->
      <g transform="translate(553.113528 185.918438)scale(0.1 -0.1)">
       <use xlink:href="#DejaVuSans-50"/>
       <use x="63.623047" xlink:href="#DejaVuSans-48"/>
      </g>
     </g>
    </g>
    <g id="xtick_9">
     <g id="line2d_14">
      <g>
       <use style="stroke:#000000;stroke-width:0.8;" x="628.851602" xlink:href="#mfe441f589b" y="171.32"/>
      </g>
     </g>
     <g id="text_14">
      <!-- 40 -->
      <g transform="translate(622.489102 185.918438)scale(0.1 -0.1)">
       <use xlink:href="#DejaVuSans-52"/>
       <use x="63.623047" xlink:href="#DejaVuSans-48"/>
      </g>
     </g>
    </g>
    <g id="xtick_10">
     <g id="line2d_15">
      <g>
       <use style="stroke:#000000;stroke-width:0.8;" x="698.227176" xlink:href="#mfe441f589b" y="171.32"/>
      </g>
     </g>
     <g id="text_15">
      <!-- 60 -->
      <g transform="translate(691.864676 185.918438)scale(0.1 -0.1)">
       <use xlink:href="#DejaVuSans-54"/>
       <use x="63.623047" xlink:href="#DejaVuSans-48"/>
      </g>
     </g>
    </g>
    <g id="xtick_11">
     <g id="line2d_16">
      <g>
       <use style="stroke:#000000;stroke-width:0.8;" x="767.60275" xlink:href="#mfe441f589b" y="171.32"/>
      </g>
     </g>
     <g id="text_16">
      <!-- 80 -->
      <g transform="translate(761.24025 185.918438)scale(0.1 -0.1)">
       <use xlink:href="#DejaVuSans-56"/>
       <use x="63.623047" xlink:href="#DejaVuSans-48"/>
      </g>
     </g>
    </g>
    <g id="xtick_12">
     <g id="line2d_17">
      <g>
       <use style="stroke:#000000;stroke-width:0.8;" x="836.978324" xlink:href="#mfe441f589b" y="171.32"/>
      </g>
     </g>
     <g id="text_17">
      <!-- 100 -->
      <g transform="translate(827.434574 185.918438)scale(0.1 -0.1)">
       <use xlink:href="#DejaVuSans-49"/>
       <use x="63.623047" xlink:href="#DejaVuSans-48"/>
       <use x="127.246094" xlink:href="#DejaVuSans-48"/>
      </g>
     </g>
    </g>
   </g>
   <g id="matplotlib.axis_4">
    <g id="ytick_5">
     <g id="line2d_18">
      <g>
       <use style="stroke:#000000;stroke-width:0.8;" x="472.93" xlink:href="#mf4dcb1f25f" y="165.044384"/>
      </g>
     </g>
     <g id="text_18">
      <!-- 0.000 -->
      <g transform="translate(437.301875 168.843602)scale(0.1 -0.1)">
       <use xlink:href="#DejaVuSans-48"/>
       <use x="63.623047" xlink:href="#DejaVuSans-46"/>
       <use x="95.410156" xlink:href="#DejaVuSans-48"/>
       <use x="159.033203" xlink:href="#DejaVuSans-48"/>
       <use x="222.65625" xlink:href="#DejaVuSans-48"/>
      </g>
     </g>
    </g>
    <g id="ytick_6">
     <g id="line2d_19">
      <g>
       <use style="stroke:#000000;stroke-width:0.8;" x="472.93" xlink:href="#mf4dcb1f25f" y="130.742249"/>
      </g>
     </g>
     <g id="text_19">
      <!-- 0.005 -->
      <g transform="translate(437.301875 134.541468)scale(0.1 -0.1)">
       <use xlink:href="#DejaVuSans-48"/>
       <use x="63.623047" xlink:href="#DejaVuSans-46"/>
       <use x="95.410156" xlink:href="#DejaVuSans-48"/>
       <use x="159.033203" xlink:href="#DejaVuSans-48"/>
       <use x="222.65625" xlink:href="#DejaVuSans-53"/>
      </g>
     </g>
    </g>
    <g id="ytick_7">
     <g id="line2d_20">
      <g>
       <use style="stroke:#000000;stroke-width:0.8;" x="472.93" xlink:href="#mf4dcb1f25f" y="96.440115"/>
      </g>
     </g>
     <g id="text_20">
      <!-- 0.010 -->
      <g transform="translate(437.301875 100.239334)scale(0.1 -0.1)">
       <use xlink:href="#DejaVuSans-48"/>
       <use x="63.623047" xlink:href="#DejaVuSans-46"/>
       <use x="95.410156" xlink:href="#DejaVuSans-48"/>
       <use x="159.033203" xlink:href="#DejaVuSans-49"/>
       <use x="222.65625" xlink:href="#DejaVuSans-48"/>
      </g>
     </g>
    </g>
    <g id="ytick_8">
     <g id="line2d_21">
      <g>
       <use style="stroke:#000000;stroke-width:0.8;" x="472.93" xlink:href="#mf4dcb1f25f" y="62.137981"/>
      </g>
     </g>
     <g id="text_21">
      <!-- 0.015 -->
      <g transform="translate(437.301875 65.937199)scale(0.1 -0.1)">
       <use xlink:href="#DejaVuSans-48"/>
       <use x="63.623047" xlink:href="#DejaVuSans-46"/>
       <use x="95.410156" xlink:href="#DejaVuSans-48"/>
       <use x="159.033203" xlink:href="#DejaVuSans-49"/>
       <use x="222.65625" xlink:href="#DejaVuSans-53"/>
      </g>
     </g>
    </g>
    <g id="ytick_9">
     <g id="line2d_22">
      <g>
       <use style="stroke:#000000;stroke-width:0.8;" x="472.93" xlink:href="#mf4dcb1f25f" y="27.835846"/>
      </g>
     </g>
     <g id="text_22">
      <!-- 0.020 -->
      <g transform="translate(437.301875 31.635065)scale(0.1 -0.1)">
       <use xlink:href="#DejaVuSans-48"/>
       <use x="63.623047" xlink:href="#DejaVuSans-46"/>
       <use x="95.410156" xlink:href="#DejaVuSans-48"/>
       <use x="159.033203" xlink:href="#DejaVuSans-50"/>
       <use x="222.65625" xlink:href="#DejaVuSans-48"/>
      </g>
     </g>
    </g>
   </g>
   <g id="line2d_23">
    <path clip-path="url(#pfab3c36767)" d="M 490.100455 109.030148 
L 493.569233 38.015741 
L 497.038012 138.732923 
L 500.506791 32.070909 
L 503.975569 103.662287 
L 507.444348 121.658367 
L 510.913127 107.513851 
L 514.381905 44.185854 
L 517.850684 156.731586 
L 521.319463 75.859941 
L 524.788242 43.050775 
L 528.25702 152.536105 
L 531.725799 95.524494 
L 535.194578 59.334822 
L 538.663356 79.363127 
L 542.132135 121.732557 
L 545.600914 112.771129 
L 549.069692 89.657713 
L 552.538471 98.658073 
L 556.00725 37.176339 
L 559.476028 109.228325 
L 562.944807 144.069838 
L 566.413586 164.689091 
L 569.882365 155.056073 
L 573.351143 52.563023 
L 576.819922 36.694687 
L 580.288701 48.875507 
L 583.757479 54.811969 
L 587.226258 83.530575 
L 590.695037 149.548832 
L 594.163815 57.616685 
L 597.632594 109.390995 
L 601.101373 32.6399 
L 604.570152 132.323556 
L 608.03893 105.301595 
L 611.507709 50.506952 
L 614.976488 109.166234 
L 618.445266 148.356717 
L 621.914045 83.573501 
L 625.382824 59.259507 
L 628.851602 55.183178 
L 632.320381 157.823715 
L 635.78916 41.886926 
L 639.257938 41.450772 
L 642.726717 77.296574 
L 646.195496 164.441727 
L 649.664275 44.087481 
L 653.133053 50.619698 
L 656.601832 127.828806 
L 660.070611 99.280842 
L 663.539389 59.109996 
L 667.008168 90.097411 
L 670.476947 36.820492 
L 673.945725 47.419788 
L 677.414504 137.508383 
L 680.883283 145.072366 
L 684.352062 130.84085 
L 687.82084 63.529691 
L 691.289619 140.416793 
L 694.758398 55.33098 
L 698.227176 79.272579 
L 701.695955 78.200016 
L 705.164734 84.864344 
L 708.633512 129.701757 
L 712.102291 101.277992 
L 715.57107 85.22508 
L 719.039848 53.24361 
L 722.508627 124.659509 
L 725.977406 110.165602 
L 729.446185 38.608633 
L 732.914963 149.978079 
L 736.383742 69.777893 
L 739.852521 113.159745 
L 743.321299 145.615279 
L 746.790078 80.292825 
L 750.258857 86.555169 
L 753.727635 61.095879 
L 757.196414 73.053658 
L 760.665193 137.811452 
L 764.133972 98.850888 
L 767.60275 146.718398 
L 771.071529 94.456685 
L 774.540308 153.14479 
L 778.009086 158.341205 
L 781.477865 127.554661 
L 784.946644 147.805969 
L 788.415422 117.294677 
L 791.884201 69.506707 
L 795.35298 81.7623 
L 798.821758 139.02898 
L 802.290537 69.449738 
L 805.759316 103.961164 
L 809.228095 90.278657 
L 812.696873 89.272521 
L 816.165652 65.64778 
L 819.634431 96.072184 
L 823.103209 149.793876 
L 826.571988 144.558249 
L 830.040767 134.910199 
L 833.509545 92.525989 
" style="fill:none;stroke:#bfbf00;stroke-linecap:square;stroke-width:1.5;"/>
   </g>
   <g id="patch_8">
    <path d="M 472.93 171.32 
L 472.93 25.44 
" style="fill:none;stroke:#000000;stroke-linecap:square;stroke-linejoin:miter;stroke-width:0.8;"/>
   </g>
   <g id="patch_9">
    <path d="M 850.68 171.32 
L 850.68 25.44 
" style="fill:none;stroke:#000000;stroke-linecap:square;stroke-linejoin:miter;stroke-width:0.8;"/>
   </g>
   <g id="patch_10">
    <path d="M 472.93 171.32 
L 850.68 171.32 
" style="fill:none;stroke:#000000;stroke-linecap:square;stroke-linejoin:miter;stroke-width:0.8;"/>
   </g>
   <g id="patch_11">
    <path d="M 472.93 25.44 
L 850.68 25.44 
" style="fill:none;stroke:#000000;stroke-linecap:square;stroke-linejoin:miter;stroke-width:0.8;"/>
   </g>
   <g id="text_23">
    <!-- Input signal 2 -->
    <g transform="translate(620.889687 19.44)scale(0.12 -0.12)">
     <use xlink:href="#DejaVuSans-73"/>
     <use x="29.492188" xlink:href="#DejaVuSans-110"/>
     <use x="92.871094" xlink:href="#DejaVuSans-112"/>
     <use x="156.347656" xlink:href="#DejaVuSans-117"/>
     <use x="219.726562" xlink:href="#DejaVuSans-116"/>
     <use x="258.935547" xlink:href="#DejaVuSans-32"/>
     <use x="290.722656" xlink:href="#DejaVuSans-115"/>
     <use x="342.822266" xlink:href="#DejaVuSans-105"/>
     <use x="370.605469" xlink:href="#DejaVuSans-103"/>
     <use x="434.082031" xlink:href="#DejaVuSans-110"/>
     <use x="497.460938" xlink:href="#DejaVuSans-97"/>
     <use x="558.740234" xlink:href="#DejaVuSans-108"/>
     <use x="586.523438" xlink:href="#DejaVuSans-32"/>
     <use x="618.310547" xlink:href="#DejaVuSans-50"/>
    </g>
   </g>
  </g>
  <g id="axes_3">
   <g id="patch_12">
    <path d="M 46.33 359.72 
L 281.88 359.72 
L 281.88 213.84 
L 46.33 213.84 
z
" style="fill:#ffffff;"/>
   </g>
   <g id="matplotlib.axis_5">
    <g id="xtick_13">
     <g id="line2d_24">
      <g>
       <use style="stroke:#000000;stroke-width:0.8;" x="57.036818" xlink:href="#mfe441f589b" y="359.72"/>
      </g>
     </g>
     <g id="text_24">
      <!-- 0 -->
      <g transform="translate(53.855568 374.318438)scale(0.1 -0.1)">
       <use xlink:href="#DejaVuSans-48"/>
      </g>
     </g>
    </g>
    <g id="xtick_14">
     <g id="line2d_25">
      <g>
       <use style="stroke:#000000;stroke-width:0.8;" x="100.29669" xlink:href="#mfe441f589b" y="359.72"/>
      </g>
     </g>
     <g id="text_25">
      <!-- 20 -->
      <g transform="translate(93.93419 374.318438)scale(0.1 -0.1)">
       <use xlink:href="#DejaVuSans-50"/>
       <use x="63.623047" xlink:href="#DejaVuSans-48"/>
      </g>
     </g>
    </g>
    <g id="xtick_15">
     <g id="line2d_26">
      <g>
       <use style="stroke:#000000;stroke-width:0.8;" x="143.556561" xlink:href="#mfe441f589b" y="359.72"/>
      </g>
     </g>
     <g id="text_26">
      <!-- 40 -->
      <g transform="translate(137.194061 374.318438)scale(0.1 -0.1)">
       <use xlink:href="#DejaVuSans-52"/>
       <use x="63.623047" xlink:href="#DejaVuSans-48"/>
      </g>
     </g>
    </g>
    <g id="xtick_16">
     <g id="line2d_27">
      <g>
       <use style="stroke:#000000;stroke-width:0.8;" x="186.816433" xlink:href="#mfe441f589b" y="359.72"/>
      </g>
     </g>
     <g id="text_27">
      <!-- 60 -->
      <g transform="translate(180.453933 374.318438)scale(0.1 -0.1)">
       <use xlink:href="#DejaVuSans-54"/>
       <use x="63.623047" xlink:href="#DejaVuSans-48"/>
      </g>
     </g>
    </g>
    <g id="xtick_17">
     <g id="line2d_28">
      <g>
       <use style="stroke:#000000;stroke-width:0.8;" x="230.076304" xlink:href="#mfe441f589b" y="359.72"/>
      </g>
     </g>
     <g id="text_28">
      <!-- 80 -->
      <g transform="translate(223.713804 374.318438)scale(0.1 -0.1)">
       <use xlink:href="#DejaVuSans-56"/>
       <use x="63.623047" xlink:href="#DejaVuSans-48"/>
      </g>
     </g>
    </g>
    <g id="xtick_18">
     <g id="line2d_29">
      <g>
       <use style="stroke:#000000;stroke-width:0.8;" x="273.336175" xlink:href="#mfe441f589b" y="359.72"/>
      </g>
     </g>
     <g id="text_29">
      <!-- 100 -->
      <g transform="translate(263.792425 374.318438)scale(0.1 -0.1)">
       <use xlink:href="#DejaVuSans-49"/>
       <use x="63.623047" xlink:href="#DejaVuSans-48"/>
       <use x="127.246094" xlink:href="#DejaVuSans-48"/>
      </g>
     </g>
    </g>
   </g>
   <g id="matplotlib.axis_6">
    <g id="ytick_10">
     <g id="line2d_30">
      <g>
       <use style="stroke:#000000;stroke-width:0.8;" x="46.33" xlink:href="#mf4dcb1f25f" y="356.44015"/>
      </g>
     </g>
     <g id="text_30">
      <!-- 0.000 -->
      <g transform="translate(10.701875 360.239368)scale(0.1 -0.1)">
       <use xlink:href="#DejaVuSans-48"/>
       <use x="63.623047" xlink:href="#DejaVuSans-46"/>
       <use x="95.410156" xlink:href="#DejaVuSans-48"/>
       <use x="159.033203" xlink:href="#DejaVuSans-48"/>
       <use x="222.65625" xlink:href="#DejaVuSans-48"/>
      </g>
     </g>
    </g>
    <g id="ytick_11">
     <g id="line2d_31">
      <g>
       <use style="stroke:#000000;stroke-width:0.8;" x="46.33" xlink:href="#mf4dcb1f25f" y="324.707919"/>
      </g>
     </g>
     <g id="text_31">
      <!-- 0.005 -->
      <g transform="translate(10.701875 328.507137)scale(0.1 -0.1)">
       <use xlink:href="#DejaVuSans-48"/>
       <use x="63.623047" xlink:href="#DejaVuSans-46"/>
       <use x="95.410156" xlink:href="#DejaVuSans-48"/>
       <use x="159.033203" xlink:href="#DejaVuSans-48"/>
       <use x="222.65625" xlink:href="#DejaVuSans-53"/>
      </g>
     </g>
    </g>
    <g id="ytick_12">
     <g id="line2d_32">
      <g>
       <use style="stroke:#000000;stroke-width:0.8;" x="46.33" xlink:href="#mf4dcb1f25f" y="292.975688"/>
      </g>
     </g>
     <g id="text_32">
      <!-- 0.010 -->
      <g transform="translate(10.701875 296.774906)scale(0.1 -0.1)">
       <use xlink:href="#DejaVuSans-48"/>
       <use x="63.623047" xlink:href="#DejaVuSans-46"/>
       <use x="95.410156" xlink:href="#DejaVuSans-48"/>
       <use x="159.033203" xlink:href="#DejaVuSans-49"/>
       <use x="222.65625" xlink:href="#DejaVuSans-48"/>
      </g>
     </g>
    </g>
    <g id="ytick_13">
     <g id="line2d_33">
      <g>
       <use style="stroke:#000000;stroke-width:0.8;" x="46.33" xlink:href="#mf4dcb1f25f" y="261.243457"/>
      </g>
     </g>
     <g id="text_33">
      <!-- 0.015 -->
      <g transform="translate(10.701875 265.042676)scale(0.1 -0.1)">
       <use xlink:href="#DejaVuSans-48"/>
       <use x="63.623047" xlink:href="#DejaVuSans-46"/>
       <use x="95.410156" xlink:href="#DejaVuSans-48"/>
       <use x="159.033203" xlink:href="#DejaVuSans-49"/>
       <use x="222.65625" xlink:href="#DejaVuSans-53"/>
      </g>
     </g>
    </g>
    <g id="ytick_14">
     <g id="line2d_34">
      <g>
       <use style="stroke:#000000;stroke-width:0.8;" x="46.33" xlink:href="#mf4dcb1f25f" y="229.511226"/>
      </g>
     </g>
     <g id="text_34">
      <!-- 0.020 -->
      <g transform="translate(10.701875 233.310445)scale(0.1 -0.1)">
       <use xlink:href="#DejaVuSans-48"/>
       <use x="63.623047" xlink:href="#DejaVuSans-46"/>
       <use x="95.410156" xlink:href="#DejaVuSans-48"/>
       <use x="159.033203" xlink:href="#DejaVuSans-50"/>
       <use x="222.65625" xlink:href="#DejaVuSans-48"/>
      </g>
     </g>
    </g>
   </g>
   <g id="line2d_35">
    <path clip-path="url(#pacdc25839a)" d="M 57.036818 321.982167 
L 59.199812 238.907107 
L 61.362805 339.654263 
L 63.525799 253.963192 
L 65.688792 337.364824 
L 67.851786 333.925595 
L 70.01478 290.788309 
L 72.177773 333.296293 
L 74.340767 290.296817 
L 76.50376 265.231821 
L 78.666754 311.04648 
L 80.829747 268.791289 
L 82.992741 353.089091 
L 85.155735 300.783354 
L 87.318728 302.701518 
L 89.481722 271.494055 
L 91.644715 340.922151 
L 93.807709 346.799945 
L 95.970702 233.230532 
L 98.133696 280.499599 
L 100.29669 251.000989 
L 102.459683 300.53426 
L 104.622677 341.60794 
L 106.78567 220.470909 
L 108.948664 312.926758 
L 111.111657 286.243259 
L 113.274651 260.501415 
L 115.437645 346.255443 
L 117.600638 249.154311 
L 119.763632 260.104792 
L 121.926625 303.704036 
L 124.089619 266.536625 
L 126.252612 302.663735 
L 128.415606 262.760874 
L 130.5786 240.279766 
L 132.741593 348.445403 
L 134.904587 281.887147 
L 137.06758 273.662443 
L 139.230574 252.342072 
L 141.393567 344.031101 
L 143.556561 348.570944 
L 145.719555 242.981267 
L 147.882548 246.465164 
L 150.045542 352.188534 
L 152.208535 340.846752 
L 154.371529 265.718313 
L 156.534522 308.190006 
L 158.697516 299.71344 
L 160.86051 322.248276 
L 163.023503 269.065257 
L 165.186497 330.020923 
L 167.34949 272.967859 
L 169.512484 237.852312 
L 171.675478 330.274739 
L 173.838471 290.125151 
L 176.001465 300.856981 
L 178.164458 281.175882 
L 180.327452 339.883962 
L 182.490445 344.163229 
L 184.653439 259.523188 
L 186.816433 230.93446 
L 188.979426 263.592516 
L 191.14242 248.345717 
L 193.305413 351.227157 
L 195.468407 221.405415 
L 197.6314 316.261103 
L 199.794394 220.674343 
L 201.957388 310.096033 
L 204.120381 277.619196 
L 206.283375 252.170138 
L 208.446368 341.904692 
L 210.609362 301.71634 
L 212.772355 327.483205 
L 214.935349 341.149819 
L 217.098343 246.20093 
L 219.261336 300.29235 
L 221.42433 279.752463 
L 223.587323 339.991683 
L 225.750317 348.078283 
L 227.91331 299.272714 
L 230.076304 257.288462 
L 232.239298 326.589881 
L 234.402291 315.534991 
L 236.565285 241.794468 
L 238.728278 332.490021 
L 240.891272 223.572775 
L 243.054265 301.744517 
L 245.217259 263.34405 
L 247.380253 346.450108 
L 249.543246 306.083281 
L 251.70624 251.004583 
L 253.869233 295.822398 
L 256.032227 328.474091 
L 258.19522 328.194519 
L 260.358214 246.277865 
L 262.521208 288.394159 
L 264.684201 300.166929 
L 266.847195 278.618803 
L 269.010188 254.741647 
L 271.173182 290.098809 
" style="fill:none;stroke:#bfbf00;stroke-linecap:square;stroke-width:1.5;"/>
   </g>
   <g id="patch_13">
    <path d="M 46.33 359.72 
L 46.33 213.84 
" style="fill:none;stroke:#000000;stroke-linecap:square;stroke-linejoin:miter;stroke-width:0.8;"/>
   </g>
   <g id="patch_14">
    <path d="M 281.88 359.72 
L 281.88 213.84 
" style="fill:none;stroke:#000000;stroke-linecap:square;stroke-linejoin:miter;stroke-width:0.8;"/>
   </g>
   <g id="patch_15">
    <path d="M 46.33 359.72 
L 281.88 359.72 
" style="fill:none;stroke:#000000;stroke-linecap:square;stroke-linejoin:miter;stroke-width:0.8;"/>
   </g>
   <g id="patch_16">
    <path d="M 46.33 213.84 
L 281.88 213.84 
" style="fill:none;stroke:#000000;stroke-linecap:square;stroke-linejoin:miter;stroke-width:0.8;"/>
   </g>
   <g id="text_35">
    <!-- Input signal 3 -->
    <defs>
     <path d="M 40.578125 39.3125 
Q 47.65625 37.796875 51.625 33 
Q 55.609375 28.21875 55.609375 21.1875 
Q 55.609375 10.40625 48.1875 4.484375 
Q 40.765625 -1.421875 27.09375 -1.421875 
Q 22.515625 -1.421875 17.65625 -0.515625 
Q 12.796875 0.390625 7.625 2.203125 
L 7.625 11.71875 
Q 11.71875 9.328125 16.59375 8.109375 
Q 21.484375 6.890625 26.8125 6.890625 
Q 36.078125 6.890625 40.9375 10.546875 
Q 45.796875 14.203125 45.796875 21.1875 
Q 45.796875 27.640625 41.28125 31.265625 
Q 36.765625 34.90625 28.71875 34.90625 
L 20.21875 34.90625 
L 20.21875 43.015625 
L 29.109375 43.015625 
Q 36.375 43.015625 40.234375 45.921875 
Q 44.09375 48.828125 44.09375 54.296875 
Q 44.09375 59.90625 40.109375 62.90625 
Q 36.140625 65.921875 28.71875 65.921875 
Q 24.65625 65.921875 20.015625 65.03125 
Q 15.375 64.15625 9.8125 62.3125 
L 9.8125 71.09375 
Q 15.4375 72.65625 20.34375 73.4375 
Q 25.25 74.21875 29.59375 74.21875 
Q 40.828125 74.21875 47.359375 69.109375 
Q 53.90625 64.015625 53.90625 55.328125 
Q 53.90625 49.265625 50.4375 45.09375 
Q 46.96875 40.921875 40.578125 39.3125 
z
" id="DejaVuSans-51"/>
    </defs>
    <g transform="translate(123.189687 207.84)scale(0.12 -0.12)">
     <use xlink:href="#DejaVuSans-73"/>
     <use x="29.492188" xlink:href="#DejaVuSans-110"/>
     <use x="92.871094" xlink:href="#DejaVuSans-112"/>
     <use x="156.347656" xlink:href="#DejaVuSans-117"/>
     <use x="219.726562" xlink:href="#DejaVuSans-116"/>
     <use x="258.935547" xlink:href="#DejaVuSans-32"/>
     <use x="290.722656" xlink:href="#DejaVuSans-115"/>
     <use x="342.822266" xlink:href="#DejaVuSans-105"/>
     <use x="370.605469" xlink:href="#DejaVuSans-103"/>
     <use x="434.082031" xlink:href="#DejaVuSans-110"/>
     <use x="497.460938" xlink:href="#DejaVuSans-97"/>
     <use x="558.740234" xlink:href="#DejaVuSans-108"/>
     <use x="586.523438" xlink:href="#DejaVuSans-32"/>
     <use x="618.310547" xlink:href="#DejaVuSans-51"/>
    </g>
   </g>
  </g>
  <g id="axes_4">
   <g id="patch_17">
    <path d="M 330.73 359.72 
L 566.28 359.72 
L 566.28 213.84 
L 330.73 213.84 
z
" style="fill:#ffffff;"/>
   </g>
   <g id="matplotlib.axis_7">
    <g id="xtick_19">
     <g id="line2d_36">
      <g>
       <use style="stroke:#000000;stroke-width:0.8;" x="341.436818" xlink:href="#mfe441f589b" y="359.72"/>
      </g>
     </g>
     <g id="text_36">
      <!-- 0 -->
      <g transform="translate(338.255568 374.318438)scale(0.1 -0.1)">
       <use xlink:href="#DejaVuSans-48"/>
      </g>
     </g>
    </g>
    <g id="xtick_20">
     <g id="line2d_37">
      <g>
       <use style="stroke:#000000;stroke-width:0.8;" x="384.69669" xlink:href="#mfe441f589b" y="359.72"/>
      </g>
     </g>
     <g id="text_37">
      <!-- 20 -->
      <g transform="translate(378.33419 374.318438)scale(0.1 -0.1)">
       <use xlink:href="#DejaVuSans-50"/>
       <use x="63.623047" xlink:href="#DejaVuSans-48"/>
      </g>
     </g>
    </g>
    <g id="xtick_21">
     <g id="line2d_38">
      <g>
       <use style="stroke:#000000;stroke-width:0.8;" x="427.956561" xlink:href="#mfe441f589b" y="359.72"/>
      </g>
     </g>
     <g id="text_38">
      <!-- 40 -->
      <g transform="translate(421.594061 374.318438)scale(0.1 -0.1)">
       <use xlink:href="#DejaVuSans-52"/>
       <use x="63.623047" xlink:href="#DejaVuSans-48"/>
      </g>
     </g>
    </g>
    <g id="xtick_22">
     <g id="line2d_39">
      <g>
       <use style="stroke:#000000;stroke-width:0.8;" x="471.216433" xlink:href="#mfe441f589b" y="359.72"/>
      </g>
     </g>
     <g id="text_39">
      <!-- 60 -->
      <g transform="translate(464.853933 374.318438)scale(0.1 -0.1)">
       <use xlink:href="#DejaVuSans-54"/>
       <use x="63.623047" xlink:href="#DejaVuSans-48"/>
      </g>
     </g>
    </g>
    <g id="xtick_23">
     <g id="line2d_40">
      <g>
       <use style="stroke:#000000;stroke-width:0.8;" x="514.476304" xlink:href="#mfe441f589b" y="359.72"/>
      </g>
     </g>
     <g id="text_40">
      <!-- 80 -->
      <g transform="translate(508.113804 374.318438)scale(0.1 -0.1)">
       <use xlink:href="#DejaVuSans-56"/>
       <use x="63.623047" xlink:href="#DejaVuSans-48"/>
      </g>
     </g>
    </g>
    <g id="xtick_24">
     <g id="line2d_41">
      <g>
       <use style="stroke:#000000;stroke-width:0.8;" x="557.736175" xlink:href="#mfe441f589b" y="359.72"/>
      </g>
     </g>
     <g id="text_41">
      <!-- 100 -->
      <g transform="translate(548.192425 374.318438)scale(0.1 -0.1)">
       <use xlink:href="#DejaVuSans-49"/>
       <use x="63.623047" xlink:href="#DejaVuSans-48"/>
       <use x="127.246094" xlink:href="#DejaVuSans-48"/>
      </g>
     </g>
    </g>
   </g>
   <g id="matplotlib.axis_8">
    <g id="ytick_15">
     <g id="line2d_42">
      <g>
       <use style="stroke:#000000;stroke-width:0.8;" x="330.73" xlink:href="#mf4dcb1f25f" y="357.2023"/>
      </g>
     </g>
     <g id="text_42">
      <!-- 0.000 -->
      <g transform="translate(295.101875 361.001519)scale(0.1 -0.1)">
       <use xlink:href="#DejaVuSans-48"/>
       <use x="63.623047" xlink:href="#DejaVuSans-46"/>
       <use x="95.410156" xlink:href="#DejaVuSans-48"/>
       <use x="159.033203" xlink:href="#DejaVuSans-48"/>
       <use x="222.65625" xlink:href="#DejaVuSans-48"/>
      </g>
     </g>
    </g>
    <g id="ytick_16">
     <g id="line2d_43">
      <g>
       <use style="stroke:#000000;stroke-width:0.8;" x="330.73" xlink:href="#mf4dcb1f25f" y="320.777383"/>
      </g>
     </g>
     <g id="text_43">
      <!-- 0.005 -->
      <g transform="translate(295.101875 324.576602)scale(0.1 -0.1)">
       <use xlink:href="#DejaVuSans-48"/>
       <use x="63.623047" xlink:href="#DejaVuSans-46"/>
       <use x="95.410156" xlink:href="#DejaVuSans-48"/>
       <use x="159.033203" xlink:href="#DejaVuSans-48"/>
       <use x="222.65625" xlink:href="#DejaVuSans-53"/>
      </g>
     </g>
    </g>
    <g id="ytick_17">
     <g id="line2d_44">
      <g>
       <use style="stroke:#000000;stroke-width:0.8;" x="330.73" xlink:href="#mf4dcb1f25f" y="284.352466"/>
      </g>
     </g>
     <g id="text_44">
      <!-- 0.010 -->
      <g transform="translate(295.101875 288.151685)scale(0.1 -0.1)">
       <use xlink:href="#DejaVuSans-48"/>
       <use x="63.623047" xlink:href="#DejaVuSans-46"/>
       <use x="95.410156" xlink:href="#DejaVuSans-48"/>
       <use x="159.033203" xlink:href="#DejaVuSans-49"/>
       <use x="222.65625" xlink:href="#DejaVuSans-48"/>
      </g>
     </g>
    </g>
    <g id="ytick_18">
     <g id="line2d_45">
      <g>
       <use style="stroke:#000000;stroke-width:0.8;" x="330.73" xlink:href="#mf4dcb1f25f" y="247.927549"/>
      </g>
     </g>
     <g id="text_45">
      <!-- 0.015 -->
      <g transform="translate(295.101875 251.726768)scale(0.1 -0.1)">
       <use xlink:href="#DejaVuSans-48"/>
       <use x="63.623047" xlink:href="#DejaVuSans-46"/>
       <use x="95.410156" xlink:href="#DejaVuSans-48"/>
       <use x="159.033203" xlink:href="#DejaVuSans-49"/>
       <use x="222.65625" xlink:href="#DejaVuSans-53"/>
      </g>
     </g>
    </g>
   </g>
   <g id="line2d_46">
    <path clip-path="url(#p82ed3394dd)" d="M 341.436818 316.82676 
L 343.599812 348.555259 
L 345.762805 273.829486 
L 347.925799 231.419542 
L 350.088792 311.959104 
L 352.251786 226.593587 
L 354.41478 298.605199 
L 356.577773 307.552893 
L 358.740767 229.987818 
L 360.90376 246.285208 
L 363.066754 228.304531 
L 365.229747 352.889204 
L 367.392741 300.701837 
L 369.555735 300.119189 
L 371.718728 304.972343 
L 373.881722 277.031714 
L 376.044715 269.989521 
L 378.207709 350.99987 
L 380.370702 315.719607 
L 382.533696 239.460942 
L 384.69669 259.15335 
L 386.859683 306.869021 
L 389.022677 315.960715 
L 391.18567 349.26765 
L 393.348664 256.888386 
L 395.511657 264.599074 
L 397.674651 260.817736 
L 399.837645 343.532575 
L 402.000638 237.622988 
L 404.163632 258.680074 
L 406.326625 220.484442 
L 408.489619 282.84976 
L 410.652612 240.764567 
L 412.815606 322.686309 
L 414.9786 337.70107 
L 417.141593 262.588872 
L 419.304587 289.055685 
L 421.46758 255.784467 
L 423.630574 264.873879 
L 425.793567 297.216721 
L 427.956561 323.768743 
L 430.119555 246.925757 
L 432.282548 352.099059 
L 434.445542 307.230163 
L 436.608535 344.672805 
L 438.771529 331.418729 
L 440.934522 222.841951 
L 443.097516 269.184456 
L 445.26051 340.184295 
L 447.423503 353.004103 
L 449.586497 285.818283 
L 451.74949 237.652628 
L 453.912484 223.751014 
L 456.075478 257.918746 
L 458.238471 248.860277 
L 460.401465 276.549038 
L 462.564458 272.262877 
L 464.727452 248.501034 
L 466.890445 255.555977 
L 469.053439 238.36078 
L 471.216433 353.089091 
L 473.379426 331.173353 
L 475.54242 281.996357 
L 477.705413 329.315029 
L 479.868407 276.993056 
L 482.0314 315.224401 
L 484.194394 296.849133 
L 486.357388 320.010981 
L 488.520381 275.791894 
L 490.683375 336.598374 
L 492.846368 233.925094 
L 495.009362 228.291016 
L 497.172355 293.772152 
L 499.335349 313.185593 
L 501.498343 270.453499 
L 503.661336 264.9775 
L 505.82433 311.323138 
L 507.987323 274.459364 
L 510.150317 222.731492 
L 512.31331 328.640379 
L 514.476304 283.102098 
L 516.639298 328.105706 
L 518.802291 305.696028 
L 520.965285 223.432841 
L 523.128278 267.355074 
L 525.291272 261.018553 
L 527.454265 245.174634 
L 529.617259 220.470909 
L 531.780253 352.904006 
L 533.943246 235.510275 
L 536.10624 322.785916 
L 538.269233 297.855647 
L 540.432227 309.848872 
L 542.59522 314.566563 
L 544.758214 282.91449 
L 546.921208 220.839523 
L 549.084201 287.427365 
L 551.247195 227.788447 
L 553.410188 288.869541 
L 555.573182 305.017565 
" style="fill:none;stroke:#bfbf00;stroke-linecap:square;stroke-width:1.5;"/>
   </g>
   <g id="patch_18">
    <path d="M 330.73 359.72 
L 330.73 213.84 
" style="fill:none;stroke:#000000;stroke-linecap:square;stroke-linejoin:miter;stroke-width:0.8;"/>
   </g>
   <g id="patch_19">
    <path d="M 566.28 359.72 
L 566.28 213.84 
" style="fill:none;stroke:#000000;stroke-linecap:square;stroke-linejoin:miter;stroke-width:0.8;"/>
   </g>
   <g id="patch_20">
    <path d="M 330.73 359.72 
L 566.28 359.72 
" style="fill:none;stroke:#000000;stroke-linecap:square;stroke-linejoin:miter;stroke-width:0.8;"/>
   </g>
   <g id="patch_21">
    <path d="M 330.73 213.84 
L 566.28 213.84 
" style="fill:none;stroke:#000000;stroke-linecap:square;stroke-linejoin:miter;stroke-width:0.8;"/>
   </g>
   <g id="text_46">
    <!-- Input signal 4 -->
    <g transform="translate(407.589687 207.84)scale(0.12 -0.12)">
     <use xlink:href="#DejaVuSans-73"/>
     <use x="29.492188" xlink:href="#DejaVuSans-110"/>
     <use x="92.871094" xlink:href="#DejaVuSans-112"/>
     <use x="156.347656" xlink:href="#DejaVuSans-117"/>
     <use x="219.726562" xlink:href="#DejaVuSans-116"/>
     <use x="258.935547" xlink:href="#DejaVuSans-32"/>
     <use x="290.722656" xlink:href="#DejaVuSans-115"/>
     <use x="342.822266" xlink:href="#DejaVuSans-105"/>
     <use x="370.605469" xlink:href="#DejaVuSans-103"/>
     <use x="434.082031" xlink:href="#DejaVuSans-110"/>
     <use x="497.460938" xlink:href="#DejaVuSans-97"/>
     <use x="558.740234" xlink:href="#DejaVuSans-108"/>
     <use x="586.523438" xlink:href="#DejaVuSans-32"/>
     <use x="618.310547" xlink:href="#DejaVuSans-52"/>
    </g>
   </g>
  </g>
  <g id="axes_5">
   <g id="patch_22">
    <path d="M 615.13 359.72 
L 850.68 359.72 
L 850.68 213.84 
L 615.13 213.84 
z
" style="fill:#ffffff;"/>
   </g>
   <g id="matplotlib.axis_9">
    <g id="xtick_25">
     <g id="line2d_47">
      <g>
       <use style="stroke:#000000;stroke-width:0.8;" x="625.836818" xlink:href="#mfe441f589b" y="359.72"/>
      </g>
     </g>
     <g id="text_47">
      <!-- 0 -->
      <g transform="translate(622.655568 374.318438)scale(0.1 -0.1)">
       <use xlink:href="#DejaVuSans-48"/>
      </g>
     </g>
    </g>
    <g id="xtick_26">
     <g id="line2d_48">
      <g>
       <use style="stroke:#000000;stroke-width:0.8;" x="669.09669" xlink:href="#mfe441f589b" y="359.72"/>
      </g>
     </g>
     <g id="text_48">
      <!-- 20 -->
      <g transform="translate(662.73419 374.318438)scale(0.1 -0.1)">
       <use xlink:href="#DejaVuSans-50"/>
       <use x="63.623047" xlink:href="#DejaVuSans-48"/>
      </g>
     </g>
    </g>
    <g id="xtick_27">
     <g id="line2d_49">
      <g>
       <use style="stroke:#000000;stroke-width:0.8;" x="712.356561" xlink:href="#mfe441f589b" y="359.72"/>
      </g>
     </g>
     <g id="text_49">
      <!-- 40 -->
      <g transform="translate(705.994061 374.318438)scale(0.1 -0.1)">
       <use xlink:href="#DejaVuSans-52"/>
       <use x="63.623047" xlink:href="#DejaVuSans-48"/>
      </g>
     </g>
    </g>
    <g id="xtick_28">
     <g id="line2d_50">
      <g>
       <use style="stroke:#000000;stroke-width:0.8;" x="755.616433" xlink:href="#mfe441f589b" y="359.72"/>
      </g>
     </g>
     <g id="text_50">
      <!-- 60 -->
      <g transform="translate(749.253933 374.318438)scale(0.1 -0.1)">
       <use xlink:href="#DejaVuSans-54"/>
       <use x="63.623047" xlink:href="#DejaVuSans-48"/>
      </g>
     </g>
    </g>
    <g id="xtick_29">
     <g id="line2d_51">
      <g>
       <use style="stroke:#000000;stroke-width:0.8;" x="798.876304" xlink:href="#mfe441f589b" y="359.72"/>
      </g>
     </g>
     <g id="text_51">
      <!-- 80 -->
      <g transform="translate(792.513804 374.318438)scale(0.1 -0.1)">
       <use xlink:href="#DejaVuSans-56"/>
       <use x="63.623047" xlink:href="#DejaVuSans-48"/>
      </g>
     </g>
    </g>
    <g id="xtick_30">
     <g id="line2d_52">
      <g>
       <use style="stroke:#000000;stroke-width:0.8;" x="842.136175" xlink:href="#mfe441f589b" y="359.72"/>
      </g>
     </g>
     <g id="text_52">
      <!-- 100 -->
      <g transform="translate(832.592425 374.318438)scale(0.1 -0.1)">
       <use xlink:href="#DejaVuSans-49"/>
       <use x="63.623047" xlink:href="#DejaVuSans-48"/>
       <use x="127.246094" xlink:href="#DejaVuSans-48"/>
      </g>
     </g>
    </g>
   </g>
   <g id="matplotlib.axis_10">
    <g id="ytick_19">
     <g id="line2d_53">
      <g>
       <use style="stroke:#000000;stroke-width:0.8;" x="615.13" xlink:href="#mf4dcb1f25f" y="354.016253"/>
      </g>
     </g>
     <g id="text_53">
      <!-- 0.000 -->
      <g transform="translate(579.501875 357.815472)scale(0.1 -0.1)">
       <use xlink:href="#DejaVuSans-48"/>
       <use x="63.623047" xlink:href="#DejaVuSans-46"/>
       <use x="95.410156" xlink:href="#DejaVuSans-48"/>
       <use x="159.033203" xlink:href="#DejaVuSans-48"/>
       <use x="222.65625" xlink:href="#DejaVuSans-48"/>
      </g>
     </g>
    </g>
    <g id="ytick_20">
     <g id="line2d_54">
      <g>
       <use style="stroke:#000000;stroke-width:0.8;" x="615.13" xlink:href="#mf4dcb1f25f" y="322.888603"/>
      </g>
     </g>
     <g id="text_54">
      <!-- 0.005 -->
      <g transform="translate(579.501875 326.687822)scale(0.1 -0.1)">
       <use xlink:href="#DejaVuSans-48"/>
       <use x="63.623047" xlink:href="#DejaVuSans-46"/>
       <use x="95.410156" xlink:href="#DejaVuSans-48"/>
       <use x="159.033203" xlink:href="#DejaVuSans-48"/>
       <use x="222.65625" xlink:href="#DejaVuSans-53"/>
      </g>
     </g>
    </g>
    <g id="ytick_21">
     <g id="line2d_55">
      <g>
       <use style="stroke:#000000;stroke-width:0.8;" x="615.13" xlink:href="#mf4dcb1f25f" y="291.760953"/>
      </g>
     </g>
     <g id="text_55">
      <!-- 0.010 -->
      <g transform="translate(579.501875 295.560172)scale(0.1 -0.1)">
       <use xlink:href="#DejaVuSans-48"/>
       <use x="63.623047" xlink:href="#DejaVuSans-46"/>
       <use x="95.410156" xlink:href="#DejaVuSans-48"/>
       <use x="159.033203" xlink:href="#DejaVuSans-49"/>
       <use x="222.65625" xlink:href="#DejaVuSans-48"/>
      </g>
     </g>
    </g>
    <g id="ytick_22">
     <g id="line2d_56">
      <g>
       <use style="stroke:#000000;stroke-width:0.8;" x="615.13" xlink:href="#mf4dcb1f25f" y="260.633303"/>
      </g>
     </g>
     <g id="text_56">
      <!-- 0.015 -->
      <g transform="translate(579.501875 264.432521)scale(0.1 -0.1)">
       <use xlink:href="#DejaVuSans-48"/>
       <use x="63.623047" xlink:href="#DejaVuSans-46"/>
       <use x="95.410156" xlink:href="#DejaVuSans-48"/>
       <use x="159.033203" xlink:href="#DejaVuSans-49"/>
       <use x="222.65625" xlink:href="#DejaVuSans-53"/>
      </g>
     </g>
    </g>
    <g id="ytick_23">
     <g id="line2d_57">
      <g>
       <use style="stroke:#000000;stroke-width:0.8;" x="615.13" xlink:href="#mf4dcb1f25f" y="229.505652"/>
      </g>
     </g>
     <g id="text_57">
      <!-- 0.020 -->
      <g transform="translate(579.501875 233.304871)scale(0.1 -0.1)">
       <use xlink:href="#DejaVuSans-48"/>
       <use x="63.623047" xlink:href="#DejaVuSans-46"/>
       <use x="95.410156" xlink:href="#DejaVuSans-48"/>
       <use x="159.033203" xlink:href="#DejaVuSans-50"/>
       <use x="222.65625" xlink:href="#DejaVuSans-48"/>
      </g>
     </g>
    </g>
   </g>
   <g id="line2d_58">
    <path clip-path="url(#pb1e40dc100)" d="M 625.836818 277.344147 
L 627.999812 263.801731 
L 630.162805 347.365559 
L 632.325799 276.107513 
L 634.488792 345.70624 
L 636.651786 252.314926 
L 638.81478 221.060445 
L 640.977773 248.412283 
L 643.140767 346.468335 
L 645.30376 251.954387 
L 647.466754 252.337971 
L 649.629747 246.681857 
L 651.792741 256.924392 
L 653.955735 313.021553 
L 656.118728 340.775299 
L 658.281722 313.321405 
L 660.444715 270.599948 
L 662.607709 287.526876 
L 664.770702 238.800363 
L 666.933696 321.276113 
L 669.09669 240.316825 
L 671.259683 345.189616 
L 673.422677 314.841699 
L 675.58567 259.704392 
L 677.748664 247.554199 
L 679.911657 344.969899 
L 682.074651 251.13527 
L 684.237645 252.488722 
L 686.400638 339.393993 
L 688.563632 333.706574 
L 690.726625 267.937909 
L 692.889619 345.411701 
L 695.052612 259.217594 
L 697.215606 224.387377 
L 699.3786 326.072718 
L 701.541593 240.757128 
L 703.704587 324.029329 
L 705.86758 296.619055 
L 708.030574 267.018008 
L 710.193567 254.961819 
L 712.356561 299.322174 
L 714.519555 346.618385 
L 716.682548 335.780966 
L 718.845542 320.745832 
L 721.008535 250.26721 
L 723.171529 340.73324 
L 725.334522 272.442581 
L 727.497516 266.791548 
L 729.66051 312.978088 
L 731.823503 342.201667 
L 733.986497 266.159298 
L 736.14949 345.831069 
L 738.312484 233.993327 
L 740.475478 279.688928 
L 742.638471 327.05061 
L 744.801465 344.530825 
L 746.964458 282.013082 
L 749.127452 250.653206 
L 751.290445 308.301653 
L 753.453439 290.9548 
L 755.616433 316.128943 
L 757.779426 243.593217 
L 759.94242 242.997492 
L 762.105413 353.089091 
L 764.268407 290.669787 
L 766.4314 267.114251 
L 768.594394 263.682024 
L 770.757388 249.413517 
L 772.920381 335.701185 
L 775.083375 236.309735 
L 777.246368 324.831145 
L 779.409362 264.304474 
L 781.572355 289.23329 
L 783.735349 249.898352 
L 785.898343 328.367588 
L 788.061336 302.858867 
L 790.22433 232.415962 
L 792.387323 222.786324 
L 794.550317 283.463268 
L 796.71331 336.216222 
L 798.876304 317.180993 
L 801.039298 316.757683 
L 803.202291 348.918066 
L 805.365285 327.193591 
L 807.528278 332.807703 
L 809.691272 260.557041 
L 811.854265 323.517865 
L 814.017259 220.470909 
L 816.180253 316.28327 
L 818.343246 256.751449 
L 820.50624 349.270634 
L 822.669233 280.69975 
L 824.832227 233.292482 
L 826.99522 318.689334 
L 829.158214 350.012886 
L 831.321208 334.294146 
L 833.484201 275.050984 
L 835.647195 299.221635 
L 837.810188 329.545026 
L 839.973182 327.931444 
" style="fill:none;stroke:#bfbf00;stroke-linecap:square;stroke-width:1.5;"/>
   </g>
   <g id="patch_23">
    <path d="M 615.13 359.72 
L 615.13 213.84 
" style="fill:none;stroke:#000000;stroke-linecap:square;stroke-linejoin:miter;stroke-width:0.8;"/>
   </g>
   <g id="patch_24">
    <path d="M 850.68 359.72 
L 850.68 213.84 
" style="fill:none;stroke:#000000;stroke-linecap:square;stroke-linejoin:miter;stroke-width:0.8;"/>
   </g>
   <g id="patch_25">
    <path d="M 615.13 359.72 
L 850.68 359.72 
" style="fill:none;stroke:#000000;stroke-linecap:square;stroke-linejoin:miter;stroke-width:0.8;"/>
   </g>
   <g id="patch_26">
    <path d="M 615.13 213.84 
L 850.68 213.84 
" style="fill:none;stroke:#000000;stroke-linecap:square;stroke-linejoin:miter;stroke-width:0.8;"/>
   </g>
   <g id="text_58">
    <!-- Input signal 5 -->
    <g transform="translate(691.989687 207.84)scale(0.12 -0.12)">
     <use xlink:href="#DejaVuSans-73"/>
     <use x="29.492188" xlink:href="#DejaVuSans-110"/>
     <use x="92.871094" xlink:href="#DejaVuSans-112"/>
     <use x="156.347656" xlink:href="#DejaVuSans-117"/>
     <use x="219.726562" xlink:href="#DejaVuSans-116"/>
     <use x="258.935547" xlink:href="#DejaVuSans-32"/>
     <use x="290.722656" xlink:href="#DejaVuSans-115"/>
     <use x="342.822266" xlink:href="#DejaVuSans-105"/>
     <use x="370.605469" xlink:href="#DejaVuSans-103"/>
     <use x="434.082031" xlink:href="#DejaVuSans-110"/>
     <use x="497.460938" xlink:href="#DejaVuSans-97"/>
     <use x="558.740234" xlink:href="#DejaVuSans-108"/>
     <use x="586.523438" xlink:href="#DejaVuSans-32"/>
     <use x="618.310547" xlink:href="#DejaVuSans-53"/>
    </g>
   </g>
  </g>
  <g id="axes_6">
   <g id="patch_27">
    <path d="M 46.33 548.12 
L 281.88 548.12 
L 281.88 402.24 
L 46.33 402.24 
z
" style="fill:#ffffff;"/>
   </g>
   <g id="matplotlib.axis_11">
    <g id="xtick_31">
     <g id="line2d_59">
      <g>
       <use style="stroke:#000000;stroke-width:0.8;" x="57.036818" xlink:href="#mfe441f589b" y="548.12"/>
      </g>
     </g>
     <g id="text_59">
      <!-- 0 -->
      <g transform="translate(53.855568 562.718438)scale(0.1 -0.1)">
       <use xlink:href="#DejaVuSans-48"/>
      </g>
     </g>
    </g>
    <g id="xtick_32">
     <g id="line2d_60">
      <g>
       <use style="stroke:#000000;stroke-width:0.8;" x="100.29669" xlink:href="#mfe441f589b" y="548.12"/>
      </g>
     </g>
     <g id="text_60">
      <!-- 20 -->
      <g transform="translate(93.93419 562.718438)scale(0.1 -0.1)">
       <use xlink:href="#DejaVuSans-50"/>
       <use x="63.623047" xlink:href="#DejaVuSans-48"/>
      </g>
     </g>
    </g>
    <g id="xtick_33">
     <g id="line2d_61">
      <g>
       <use style="stroke:#000000;stroke-width:0.8;" x="143.556561" xlink:href="#mfe441f589b" y="548.12"/>
      </g>
     </g>
     <g id="text_61">
      <!-- 40 -->
      <g transform="translate(137.194061 562.718438)scale(0.1 -0.1)">
       <use xlink:href="#DejaVuSans-52"/>
       <use x="63.623047" xlink:href="#DejaVuSans-48"/>
      </g>
     </g>
    </g>
    <g id="xtick_34">
     <g id="line2d_62">
      <g>
       <use style="stroke:#000000;stroke-width:0.8;" x="186.816433" xlink:href="#mfe441f589b" y="548.12"/>
      </g>
     </g>
     <g id="text_62">
      <!-- 60 -->
      <g transform="translate(180.453933 562.718438)scale(0.1 -0.1)">
       <use xlink:href="#DejaVuSans-54"/>
       <use x="63.623047" xlink:href="#DejaVuSans-48"/>
      </g>
     </g>
    </g>
    <g id="xtick_35">
     <g id="line2d_63">
      <g>
       <use style="stroke:#000000;stroke-width:0.8;" x="230.076304" xlink:href="#mfe441f589b" y="548.12"/>
      </g>
     </g>
     <g id="text_63">
      <!-- 80 -->
      <g transform="translate(223.713804 562.718438)scale(0.1 -0.1)">
       <use xlink:href="#DejaVuSans-56"/>
       <use x="63.623047" xlink:href="#DejaVuSans-48"/>
      </g>
     </g>
    </g>
    <g id="xtick_36">
     <g id="line2d_64">
      <g>
       <use style="stroke:#000000;stroke-width:0.8;" x="273.336175" xlink:href="#mfe441f589b" y="548.12"/>
      </g>
     </g>
     <g id="text_64">
      <!-- 100 -->
      <g transform="translate(263.792425 562.718438)scale(0.1 -0.1)">
       <use xlink:href="#DejaVuSans-49"/>
       <use x="63.623047" xlink:href="#DejaVuSans-48"/>
       <use x="127.246094" xlink:href="#DejaVuSans-48"/>
      </g>
     </g>
    </g>
   </g>
   <g id="matplotlib.axis_12">
    <g id="ytick_24">
     <g id="line2d_65">
      <g>
       <use style="stroke:#000000;stroke-width:0.8;" x="46.33" xlink:href="#mf4dcb1f25f" y="538.015637"/>
      </g>
     </g>
     <g id="text_65">
      <!-- 25 -->
      <g transform="translate(26.605 541.814856)scale(0.1 -0.1)">
       <use xlink:href="#DejaVuSans-50"/>
       <use x="63.623047" xlink:href="#DejaVuSans-53"/>
      </g>
     </g>
    </g>
    <g id="ytick_25">
     <g id="line2d_66">
      <g>
       <use style="stroke:#000000;stroke-width:0.8;" x="46.33" xlink:href="#mf4dcb1f25f" y="513.517537"/>
      </g>
     </g>
     <g id="text_66">
      <!-- 50 -->
      <g transform="translate(26.605 517.316756)scale(0.1 -0.1)">
       <use xlink:href="#DejaVuSans-53"/>
       <use x="63.623047" xlink:href="#DejaVuSans-48"/>
      </g>
     </g>
    </g>
    <g id="ytick_26">
     <g id="line2d_67">
      <g>
       <use style="stroke:#000000;stroke-width:0.8;" x="46.33" xlink:href="#mf4dcb1f25f" y="489.019437"/>
      </g>
     </g>
     <g id="text_67">
      <!-- 75 -->
      <defs>
       <path d="M 8.203125 72.90625 
L 55.078125 72.90625 
L 55.078125 68.703125 
L 28.609375 0 
L 18.3125 0 
L 43.21875 64.59375 
L 8.203125 64.59375 
z
" id="DejaVuSans-55"/>
      </defs>
      <g transform="translate(26.605 492.818655)scale(0.1 -0.1)">
       <use xlink:href="#DejaVuSans-55"/>
       <use x="63.623047" xlink:href="#DejaVuSans-53"/>
      </g>
     </g>
    </g>
    <g id="ytick_27">
     <g id="line2d_68">
      <g>
       <use style="stroke:#000000;stroke-width:0.8;" x="46.33" xlink:href="#mf4dcb1f25f" y="464.521336"/>
      </g>
     </g>
     <g id="text_68">
      <!-- 100 -->
      <g transform="translate(20.2425 468.320555)scale(0.1 -0.1)">
       <use xlink:href="#DejaVuSans-49"/>
       <use x="63.623047" xlink:href="#DejaVuSans-48"/>
       <use x="127.246094" xlink:href="#DejaVuSans-48"/>
      </g>
     </g>
    </g>
    <g id="ytick_28">
     <g id="line2d_69">
      <g>
       <use style="stroke:#000000;stroke-width:0.8;" x="46.33" xlink:href="#mf4dcb1f25f" y="440.023236"/>
      </g>
     </g>
     <g id="text_69">
      <!-- 125 -->
      <g transform="translate(20.2425 443.822455)scale(0.1 -0.1)">
       <use xlink:href="#DejaVuSans-49"/>
       <use x="63.623047" xlink:href="#DejaVuSans-50"/>
       <use x="127.246094" xlink:href="#DejaVuSans-53"/>
      </g>
     </g>
    </g>
    <g id="ytick_29">
     <g id="line2d_70">
      <g>
       <use style="stroke:#000000;stroke-width:0.8;" x="46.33" xlink:href="#mf4dcb1f25f" y="415.525136"/>
      </g>
     </g>
     <g id="text_70">
      <!-- 150 -->
      <g transform="translate(20.2425 419.324354)scale(0.1 -0.1)">
       <use xlink:href="#DejaVuSans-49"/>
       <use x="63.623047" xlink:href="#DejaVuSans-53"/>
       <use x="127.246094" xlink:href="#DejaVuSans-48"/>
      </g>
     </g>
    </g>
   </g>
   <g id="line2d_71">
    <path clip-path="url(#pc2d4003562)" d="M 57.036818 514.033481 
L 59.199812 459.245923 
L 61.362805 496.123811 
L 63.525799 456.185357 
L 65.688792 533.996371 
L 67.851786 462.900407 
L 70.01478 436.375015 
L 72.177773 449.335359 
L 74.340767 490.822413 
L 76.50376 429.583908 
L 78.666754 424.357278 
L 80.829747 486.143163 
L 82.992741 479.610672 
L 85.155735 490.60888 
L 87.318728 480.359518 
L 89.481722 469.477742 
L 91.644715 491.935529 
L 93.807709 489.263146 
L 95.970702 460.514632 
L 98.133696 473.85154 
L 100.29669 439.512956 
L 102.459683 533.791659 
L 104.622677 510.546306 
L 106.78567 513.899515 
L 108.948664 428.723182 
L 111.111657 458.511996 
L 113.274651 424.038741 
L 115.437645 485.543635 
L 117.600638 479.620381 
L 119.763632 503.835678 
L 121.926625 448.567498 
L 124.089619 503.631745 
L 126.252612 450.585969 
L 128.415606 452.294859 
L 130.5786 499.878258 
L 132.741593 451.383263 
L 134.904587 507.316833 
L 137.06758 463.426202 
L 139.230574 439.716823 
L 141.393567 473.421618 
L 143.556561 489.532608 
L 145.719555 497.357009 
L 147.882548 499.106094 
L 150.045542 465.406446 
L 152.208535 480.16649 
L 154.371529 494.854626 
L 156.534522 476.239511 
L 158.697516 443.222592 
L 160.86051 532.719332 
L 163.023503 505.508471 
L 165.186497 467.791442 
L 167.34949 479.823685 
L 169.512484 408.870909 
L 171.675478 477.26032 
L 173.838471 489.553228 
L 176.001465 530.896092 
L 178.164458 478.446685 
L 180.327452 464.766055 
L 182.490445 501.83749 
L 184.653439 481.747141 
L 186.816433 467.01893 
L 188.979426 460.739235 
L 191.14242 446.946255 
L 193.305413 541.489091 
L 195.468407 477.420248 
L 197.6314 475.991819 
L 199.794394 472.253689 
L 201.957388 499.798471 
L 204.120381 475.467862 
L 206.283375 457.205468 
L 208.446368 520.902427 
L 210.609362 467.641023 
L 212.772355 489.291227 
L 214.935349 482.999133 
L 217.098343 480.91538 
L 219.261336 468.104045 
L 221.42433 471.284984 
L 223.587323 474.111991 
L 225.750317 465.755781 
L 227.91331 493.1595 
L 230.076304 503.533657 
L 232.239298 521.101856 
L 234.402291 533.070546 
L 236.565285 490.523187 
L 238.728278 476.470118 
L 240.891272 474.691317 
L 243.054265 517.424545 
L 245.217259 430.194258 
L 247.380253 503.952861 
L 249.543246 474.543959 
L 251.70624 512.339912 
L 253.869233 467.407199 
L 256.032227 442.891455 
L 258.19522 488.900407 
L 260.358214 491.85931 
L 262.521208 502.694827 
L 264.684201 479.104008 
L 266.847195 489.028059 
L 269.010188 485.653893 
L 271.173182 517.021021 
" style="fill:none;stroke:#ff0000;stroke-linecap:square;stroke-width:1.5;"/>
   </g>
   <g id="patch_28">
    <path d="M 46.33 548.12 
L 46.33 402.24 
" style="fill:none;stroke:#000000;stroke-linecap:square;stroke-linejoin:miter;stroke-width:0.8;"/>
   </g>
   <g id="patch_29">
    <path d="M 281.88 548.12 
L 281.88 402.24 
" style="fill:none;stroke:#000000;stroke-linecap:square;stroke-linejoin:miter;stroke-width:0.8;"/>
   </g>
   <g id="patch_30">
    <path d="M 46.33 548.12 
L 281.88 548.12 
" style="fill:none;stroke:#000000;stroke-linecap:square;stroke-linejoin:miter;stroke-width:0.8;"/>
   </g>
   <g id="patch_31">
    <path d="M 46.33 402.24 
L 281.88 402.24 
" style="fill:none;stroke:#000000;stroke-linecap:square;stroke-linejoin:miter;stroke-width:0.8;"/>
   </g>
   <g id="text_71">
    <!-- Output signal 1 -->
    <defs>
     <path d="M 39.40625 66.21875 
Q 28.65625 66.21875 22.328125 58.203125 
Q 16.015625 50.203125 16.015625 36.375 
Q 16.015625 22.609375 22.328125 14.59375 
Q 28.65625 6.59375 39.40625 6.59375 
Q 50.140625 6.59375 56.421875 14.59375 
Q 62.703125 22.609375 62.703125 36.375 
Q 62.703125 50.203125 56.421875 58.203125 
Q 50.140625 66.21875 39.40625 66.21875 
z
M 39.40625 74.21875 
Q 54.734375 74.21875 63.90625 63.9375 
Q 73.09375 53.65625 73.09375 36.375 
Q 73.09375 19.140625 63.90625 8.859375 
Q 54.734375 -1.421875 39.40625 -1.421875 
Q 24.03125 -1.421875 14.8125 8.828125 
Q 5.609375 19.09375 5.609375 36.375 
Q 5.609375 53.65625 14.8125 63.9375 
Q 24.03125 74.21875 39.40625 74.21875 
z
" id="DejaVuSans-79"/>
    </defs>
    <g transform="translate(117.884375 396.24)scale(0.12 -0.12)">
     <use xlink:href="#DejaVuSans-79"/>
     <use x="78.710938" xlink:href="#DejaVuSans-117"/>
     <use x="142.089844" xlink:href="#DejaVuSans-116"/>
     <use x="181.298828" xlink:href="#DejaVuSans-112"/>
     <use x="244.775391" xlink:href="#DejaVuSans-117"/>
     <use x="308.154297" xlink:href="#DejaVuSans-116"/>
     <use x="347.363281" xlink:href="#DejaVuSans-32"/>
     <use x="379.150391" xlink:href="#DejaVuSans-115"/>
     <use x="431.25" xlink:href="#DejaVuSans-105"/>
     <use x="459.033203" xlink:href="#DejaVuSans-103"/>
     <use x="522.509766" xlink:href="#DejaVuSans-110"/>
     <use x="585.888672" xlink:href="#DejaVuSans-97"/>
     <use x="647.167969" xlink:href="#DejaVuSans-108"/>
     <use x="674.951172" xlink:href="#DejaVuSans-32"/>
     <use x="706.738281" xlink:href="#DejaVuSans-49"/>
    </g>
   </g>
  </g>
  <g id="axes_7">
   <g id="patch_32">
    <path d="M 330.73 548.12 
L 566.28 548.12 
L 566.28 402.24 
L 330.73 402.24 
z
" style="fill:#ffffff;"/>
   </g>
   <g id="matplotlib.axis_13">
    <g id="xtick_37">
     <g id="line2d_72">
      <g>
       <use style="stroke:#000000;stroke-width:0.8;" x="341.436818" xlink:href="#mfe441f589b" y="548.12"/>
      </g>
     </g>
     <g id="text_72">
      <!-- 0 -->
      <g transform="translate(338.255568 562.718438)scale(0.1 -0.1)">
       <use xlink:href="#DejaVuSans-48"/>
      </g>
     </g>
    </g>
    <g id="xtick_38">
     <g id="line2d_73">
      <g>
       <use style="stroke:#000000;stroke-width:0.8;" x="384.69669" xlink:href="#mfe441f589b" y="548.12"/>
      </g>
     </g>
     <g id="text_73">
      <!-- 20 -->
      <g transform="translate(378.33419 562.718438)scale(0.1 -0.1)">
       <use xlink:href="#DejaVuSans-50"/>
       <use x="63.623047" xlink:href="#DejaVuSans-48"/>
      </g>
     </g>
    </g>
    <g id="xtick_39">
     <g id="line2d_74">
      <g>
       <use style="stroke:#000000;stroke-width:0.8;" x="427.956561" xlink:href="#mfe441f589b" y="548.12"/>
      </g>
     </g>
     <g id="text_74">
      <!-- 40 -->
      <g transform="translate(421.594061 562.718438)scale(0.1 -0.1)">
       <use xlink:href="#DejaVuSans-52"/>
       <use x="63.623047" xlink:href="#DejaVuSans-48"/>
      </g>
     </g>
    </g>
    <g id="xtick_40">
     <g id="line2d_75">
      <g>
       <use style="stroke:#000000;stroke-width:0.8;" x="471.216433" xlink:href="#mfe441f589b" y="548.12"/>
      </g>
     </g>
     <g id="text_75">
      <!-- 60 -->
      <g transform="translate(464.853933 562.718438)scale(0.1 -0.1)">
       <use xlink:href="#DejaVuSans-54"/>
       <use x="63.623047" xlink:href="#DejaVuSans-48"/>
      </g>
     </g>
    </g>
    <g id="xtick_41">
     <g id="line2d_76">
      <g>
       <use style="stroke:#000000;stroke-width:0.8;" x="514.476304" xlink:href="#mfe441f589b" y="548.12"/>
      </g>
     </g>
     <g id="text_76">
      <!-- 80 -->
      <g transform="translate(508.113804 562.718438)scale(0.1 -0.1)">
       <use xlink:href="#DejaVuSans-56"/>
       <use x="63.623047" xlink:href="#DejaVuSans-48"/>
      </g>
     </g>
    </g>
    <g id="xtick_42">
     <g id="line2d_77">
      <g>
       <use style="stroke:#000000;stroke-width:0.8;" x="557.736175" xlink:href="#mfe441f589b" y="548.12"/>
      </g>
     </g>
     <g id="text_77">
      <!-- 100 -->
      <g transform="translate(548.192425 562.718438)scale(0.1 -0.1)">
       <use xlink:href="#DejaVuSans-49"/>
       <use x="63.623047" xlink:href="#DejaVuSans-48"/>
       <use x="127.246094" xlink:href="#DejaVuSans-48"/>
      </g>
     </g>
    </g>
   </g>
   <g id="matplotlib.axis_14">
    <g id="ytick_30">
     <g id="line2d_78">
      <g>
       <use style="stroke:#000000;stroke-width:0.8;" x="330.73" xlink:href="#mf4dcb1f25f" y="541.983041"/>
      </g>
     </g>
     <g id="text_78">
      <!-- 20 -->
      <g transform="translate(311.005 545.78226)scale(0.1 -0.1)">
       <use xlink:href="#DejaVuSans-50"/>
       <use x="63.623047" xlink:href="#DejaVuSans-48"/>
      </g>
     </g>
    </g>
    <g id="ytick_31">
     <g id="line2d_79">
      <g>
       <use style="stroke:#000000;stroke-width:0.8;" x="330.73" xlink:href="#mf4dcb1f25f" y="521.076619"/>
      </g>
     </g>
     <g id="text_79">
      <!-- 40 -->
      <g transform="translate(311.005 524.875838)scale(0.1 -0.1)">
       <use xlink:href="#DejaVuSans-52"/>
       <use x="63.623047" xlink:href="#DejaVuSans-48"/>
      </g>
     </g>
    </g>
    <g id="ytick_32">
     <g id="line2d_80">
      <g>
       <use style="stroke:#000000;stroke-width:0.8;" x="330.73" xlink:href="#mf4dcb1f25f" y="500.170197"/>
      </g>
     </g>
     <g id="text_80">
      <!-- 60 -->
      <g transform="translate(311.005 503.969415)scale(0.1 -0.1)">
       <use xlink:href="#DejaVuSans-54"/>
       <use x="63.623047" xlink:href="#DejaVuSans-48"/>
      </g>
     </g>
    </g>
    <g id="ytick_33">
     <g id="line2d_81">
      <g>
       <use style="stroke:#000000;stroke-width:0.8;" x="330.73" xlink:href="#mf4dcb1f25f" y="479.263775"/>
      </g>
     </g>
     <g id="text_81">
      <!-- 80 -->
      <g transform="translate(311.005 483.062993)scale(0.1 -0.1)">
       <use xlink:href="#DejaVuSans-56"/>
       <use x="63.623047" xlink:href="#DejaVuSans-48"/>
      </g>
     </g>
    </g>
    <g id="ytick_34">
     <g id="line2d_82">
      <g>
       <use style="stroke:#000000;stroke-width:0.8;" x="330.73" xlink:href="#mf4dcb1f25f" y="458.357352"/>
      </g>
     </g>
     <g id="text_82">
      <!-- 100 -->
      <g transform="translate(304.6425 462.156571)scale(0.1 -0.1)">
       <use xlink:href="#DejaVuSans-49"/>
       <use x="63.623047" xlink:href="#DejaVuSans-48"/>
       <use x="127.246094" xlink:href="#DejaVuSans-48"/>
      </g>
     </g>
    </g>
    <g id="ytick_35">
     <g id="line2d_83">
      <g>
       <use style="stroke:#000000;stroke-width:0.8;" x="330.73" xlink:href="#mf4dcb1f25f" y="437.45093"/>
      </g>
     </g>
     <g id="text_83">
      <!-- 120 -->
      <g transform="translate(304.6425 441.250149)scale(0.1 -0.1)">
       <use xlink:href="#DejaVuSans-49"/>
       <use x="63.623047" xlink:href="#DejaVuSans-50"/>
       <use x="127.246094" xlink:href="#DejaVuSans-48"/>
      </g>
     </g>
    </g>
    <g id="ytick_36">
     <g id="line2d_84">
      <g>
       <use style="stroke:#000000;stroke-width:0.8;" x="330.73" xlink:href="#mf4dcb1f25f" y="416.544508"/>
      </g>
     </g>
     <g id="text_84">
      <!-- 140 -->
      <g transform="translate(304.6425 420.343727)scale(0.1 -0.1)">
       <use xlink:href="#DejaVuSans-49"/>
       <use x="63.623047" xlink:href="#DejaVuSans-52"/>
       <use x="127.246094" xlink:href="#DejaVuSans-48"/>
      </g>
     </g>
    </g>
   </g>
   <g id="line2d_85">
    <path clip-path="url(#p05abb23abd)" d="M 341.436818 510.182374 
L 343.599812 462.454179 
L 345.762805 510.951752 
L 347.925799 429.786787 
L 350.088792 523.575557 
L 352.251786 475.91551 
L 354.41478 471.525971 
L 356.577773 486.026083 
L 358.740767 478.132801 
L 360.90376 439.703071 
L 363.066754 446.243318 
L 365.229747 499.484654 
L 367.392741 507.224495 
L 369.555735 485.975992 
L 371.718728 492.148006 
L 373.881722 472.926191 
L 376.044715 498.564982 
L 378.207709 524.481887 
L 380.370702 457.84789 
L 382.533696 451.434629 
L 384.69669 444.627046 
L 386.859683 513.457636 
L 389.022677 530.003475 
L 391.18567 485.082171 
L 393.348664 458.432307 
L 395.511657 461.02291 
L 397.674651 436.770929 
L 399.837645 512.224702 
L 402.000638 448.367237 
L 404.163632 475.196906 
L 406.326625 449.043949 
L 408.489619 479.863785 
L 410.652612 450.643967 
L 412.815606 475.336744 
L 414.9786 483.903995 
L 417.141593 478.414222 
L 419.304587 487.129648 
L 421.46758 468.861008 
L 423.630574 444.95326 
L 425.793567 494.799811 
L 427.956561 511.460334 
L 430.119555 465.512107 
L 432.282548 481.02721 
L 434.445542 502.4017 
L 436.608535 512.982063 
L 438.771529 502.750019 
L 440.934522 455.014977 
L 443.097516 461.02254 
L 445.26051 527.688434 
L 447.423503 502.238076 
L 449.586497 485.102572 
L 451.74949 459.943765 
L 453.912484 408.870909 
L 456.075478 477.018162 
L 458.238471 479.091554 
L 460.401465 503.23151 
L 462.564458 476.018205 
L 464.727452 475.854742 
L 466.890445 504.943606 
L 469.053439 444.443672 
L 471.216433 473.535229 
L 473.379426 472.442599 
L 475.54242 448.487392 
L 477.705413 541.489091 
L 479.868407 448.282464 
L 482.0314 495.122638 
L 484.194394 443.039776 
L 486.357388 503.914668 
L 488.520381 476.100539 
L 490.683375 461.447225 
L 492.846368 503.57455 
L 495.009362 456.179168 
L 497.172355 501.902996 
L 499.335349 514.965454 
L 501.498343 456.660158 
L 503.661336 473.776041 
L 505.82433 470.797161 
L 507.987323 485.467434 
L 510.150317 486.424544 
L 512.31331 503.855058 
L 514.476304 480.099178 
L 516.639298 517.944333 
L 518.802291 521.01332 
L 520.965285 454.490594 
L 523.128278 498.993681 
L 525.291272 448.848258 
L 527.454265 484.265296 
L 529.617259 426.867316 
L 531.780253 528.819481 
L 533.943246 472.848679 
L 536.10624 481.666609 
L 538.269233 483.666243 
L 540.432227 490.149081 
L 542.59522 507.321085 
L 544.758214 462.169505 
L 546.921208 465.243418 
L 549.084201 491.627599 
L 551.247195 466.198295 
L 553.410188 476.546472 
L 555.573182 495.093694 
" style="fill:none;stroke:#ff0000;stroke-linecap:square;stroke-width:1.5;"/>
   </g>
   <g id="patch_33">
    <path d="M 330.73 548.12 
L 330.73 402.24 
" style="fill:none;stroke:#000000;stroke-linecap:square;stroke-linejoin:miter;stroke-width:0.8;"/>
   </g>
   <g id="patch_34">
    <path d="M 566.28 548.12 
L 566.28 402.24 
" style="fill:none;stroke:#000000;stroke-linecap:square;stroke-linejoin:miter;stroke-width:0.8;"/>
   </g>
   <g id="patch_35">
    <path d="M 330.73 548.12 
L 566.28 548.12 
" style="fill:none;stroke:#000000;stroke-linecap:square;stroke-linejoin:miter;stroke-width:0.8;"/>
   </g>
   <g id="patch_36">
    <path d="M 330.73 402.24 
L 566.28 402.24 
" style="fill:none;stroke:#000000;stroke-linecap:square;stroke-linejoin:miter;stroke-width:0.8;"/>
   </g>
   <g id="text_85">
    <!-- Output signal 2 -->
    <g transform="translate(402.284375 396.24)scale(0.12 -0.12)">
     <use xlink:href="#DejaVuSans-79"/>
     <use x="78.710938" xlink:href="#DejaVuSans-117"/>
     <use x="142.089844" xlink:href="#DejaVuSans-116"/>
     <use x="181.298828" xlink:href="#DejaVuSans-112"/>
     <use x="244.775391" xlink:href="#DejaVuSans-117"/>
     <use x="308.154297" xlink:href="#DejaVuSans-116"/>
     <use x="347.363281" xlink:href="#DejaVuSans-32"/>
     <use x="379.150391" xlink:href="#DejaVuSans-115"/>
     <use x="431.25" xlink:href="#DejaVuSans-105"/>
     <use x="459.033203" xlink:href="#DejaVuSans-103"/>
     <use x="522.509766" xlink:href="#DejaVuSans-110"/>
     <use x="585.888672" xlink:href="#DejaVuSans-97"/>
     <use x="647.167969" xlink:href="#DejaVuSans-108"/>
     <use x="674.951172" xlink:href="#DejaVuSans-32"/>
     <use x="706.738281" xlink:href="#DejaVuSans-50"/>
    </g>
   </g>
  </g>
  <g id="axes_8">
   <g id="patch_37">
    <path d="M 615.13 548.12 
L 850.68 548.12 
L 850.68 402.24 
L 615.13 402.24 
z
" style="fill:#ffffff;"/>
   </g>
   <g id="matplotlib.axis_15">
    <g id="xtick_43">
     <g id="line2d_86">
      <g>
       <use style="stroke:#000000;stroke-width:0.8;" x="625.836818" xlink:href="#mfe441f589b" y="548.12"/>
      </g>
     </g>
     <g id="text_86">
      <!-- 0 -->
      <g transform="translate(622.655568 562.718438)scale(0.1 -0.1)">
       <use xlink:href="#DejaVuSans-48"/>
      </g>
     </g>
    </g>
    <g id="xtick_44">
     <g id="line2d_87">
      <g>
       <use style="stroke:#000000;stroke-width:0.8;" x="669.09669" xlink:href="#mfe441f589b" y="548.12"/>
      </g>
     </g>
     <g id="text_87">
      <!-- 20 -->
      <g transform="translate(662.73419 562.718438)scale(0.1 -0.1)">
       <use xlink:href="#DejaVuSans-50"/>
       <use x="63.623047" xlink:href="#DejaVuSans-48"/>
      </g>
     </g>
    </g>
    <g id="xtick_45">
     <g id="line2d_88">
      <g>
       <use style="stroke:#000000;stroke-width:0.8;" x="712.356561" xlink:href="#mfe441f589b" y="548.12"/>
      </g>
     </g>
     <g id="text_88">
      <!-- 40 -->
      <g transform="translate(705.994061 562.718438)scale(0.1 -0.1)">
       <use xlink:href="#DejaVuSans-52"/>
       <use x="63.623047" xlink:href="#DejaVuSans-48"/>
      </g>
     </g>
    </g>
    <g id="xtick_46">
     <g id="line2d_89">
      <g>
       <use style="stroke:#000000;stroke-width:0.8;" x="755.616433" xlink:href="#mfe441f589b" y="548.12"/>
      </g>
     </g>
     <g id="text_89">
      <!-- 60 -->
      <g transform="translate(749.253933 562.718438)scale(0.1 -0.1)">
       <use xlink:href="#DejaVuSans-54"/>
       <use x="63.623047" xlink:href="#DejaVuSans-48"/>
      </g>
     </g>
    </g>
    <g id="xtick_47">
     <g id="line2d_90">
      <g>
       <use style="stroke:#000000;stroke-width:0.8;" x="798.876304" xlink:href="#mfe441f589b" y="548.12"/>
      </g>
     </g>
     <g id="text_90">
      <!-- 80 -->
      <g transform="translate(792.513804 562.718438)scale(0.1 -0.1)">
       <use xlink:href="#DejaVuSans-56"/>
       <use x="63.623047" xlink:href="#DejaVuSans-48"/>
      </g>
     </g>
    </g>
    <g id="xtick_48">
     <g id="line2d_91">
      <g>
       <use style="stroke:#000000;stroke-width:0.8;" x="842.136175" xlink:href="#mfe441f589b" y="548.12"/>
      </g>
     </g>
     <g id="text_91">
      <!-- 100 -->
      <g transform="translate(832.592425 562.718438)scale(0.1 -0.1)">
       <use xlink:href="#DejaVuSans-49"/>
       <use x="63.623047" xlink:href="#DejaVuSans-48"/>
       <use x="127.246094" xlink:href="#DejaVuSans-48"/>
      </g>
     </g>
    </g>
   </g>
   <g id="matplotlib.axis_16">
    <g id="ytick_37">
     <g id="line2d_92">
      <g>
       <use style="stroke:#000000;stroke-width:0.8;" x="615.13" xlink:href="#mf4dcb1f25f" y="525.834919"/>
      </g>
     </g>
     <g id="text_92">
      <!-- 50 -->
      <g transform="translate(595.405 529.634138)scale(0.1 -0.1)">
       <use xlink:href="#DejaVuSans-53"/>
       <use x="63.623047" xlink:href="#DejaVuSans-48"/>
      </g>
     </g>
    </g>
    <g id="ytick_38">
     <g id="line2d_93">
      <g>
       <use style="stroke:#000000;stroke-width:0.8;" x="615.13" xlink:href="#mf4dcb1f25f" y="492.197394"/>
      </g>
     </g>
     <g id="text_93">
      <!-- 100 -->
      <g transform="translate(589.0425 495.996613)scale(0.1 -0.1)">
       <use xlink:href="#DejaVuSans-49"/>
       <use x="63.623047" xlink:href="#DejaVuSans-48"/>
       <use x="127.246094" xlink:href="#DejaVuSans-48"/>
      </g>
     </g>
    </g>
    <g id="ytick_39">
     <g id="line2d_94">
      <g>
       <use style="stroke:#000000;stroke-width:0.8;" x="615.13" xlink:href="#mf4dcb1f25f" y="458.559869"/>
      </g>
     </g>
     <g id="text_94">
      <!-- 150 -->
      <g transform="translate(589.0425 462.359088)scale(0.1 -0.1)">
       <use xlink:href="#DejaVuSans-49"/>
       <use x="63.623047" xlink:href="#DejaVuSans-53"/>
       <use x="127.246094" xlink:href="#DejaVuSans-48"/>
      </g>
     </g>
    </g>
    <g id="ytick_40">
     <g id="line2d_95">
      <g>
       <use style="stroke:#000000;stroke-width:0.8;" x="615.13" xlink:href="#mf4dcb1f25f" y="424.922344"/>
      </g>
     </g>
     <g id="text_95">
      <!-- 200 -->
      <g transform="translate(589.0425 428.721563)scale(0.1 -0.1)">
       <use xlink:href="#DejaVuSans-50"/>
       <use x="63.623047" xlink:href="#DejaVuSans-48"/>
       <use x="127.246094" xlink:href="#DejaVuSans-48"/>
      </g>
     </g>
    </g>
   </g>
   <g id="line2d_96">
    <path clip-path="url(#p47ca1c6012)" d="M 625.836818 501.155463 
L 627.999812 464.326332 
L 630.162805 511.094531 
L 632.325799 438.142069 
L 634.488792 526.836529 
L 636.651786 460.822438 
L 638.81478 452.963999 
L 640.977773 470.72198 
L 643.140767 486.873222 
L 645.30376 435.852544 
L 647.466754 438.050488 
L 649.629747 486.336177 
L 651.792741 488.873242 
L 653.955735 490.123343 
L 656.118728 498.7402 
L 658.281722 477.128636 
L 660.444715 485.984801 
L 662.607709 511.219979 
L 664.770702 453.345077 
L 666.933696 464.277416 
L 669.09669 438.406793 
L 671.259683 519.902089 
L 673.422677 520.474856 
L 675.58567 484.132306 
L 677.748664 447.061 
L 679.911657 474.998433 
L 682.074651 434.376713 
L 684.237645 495.237031 
L 686.400638 466.767409 
L 688.563632 486.31498 
L 690.726625 445.938311 
L 692.889619 493.768765 
L 695.052612 446.956105 
L 697.215606 459.883323 
L 699.3786 495.530648 
L 701.541593 461.328346 
L 703.704587 494.448837 
L 705.86758 468.362332 
L 708.030574 445.118058 
L 710.193567 480.027875 
L 712.356561 504.182419 
L 714.519555 481.438361 
L 716.682548 497.329205 
L 718.845542 498.851496 
L 721.008535 494.370633 
L 723.171529 508.584898 
L 725.334522 454.748331 
L 727.497516 455.853805 
L 729.66051 523.868991 
L 731.823503 512.171061 
L 733.986497 474.972028 
L 736.14949 475.184813 
L 738.312484 408.870909 
L 740.475478 472.405628 
L 742.638471 484.534891 
L 744.801465 510.888678 
L 746.964458 472.963182 
L 749.127452 462.719304 
L 751.290445 498.292773 
L 753.453439 454.276695 
L 755.616433 483.716855 
L 757.779426 464.567605 
L 759.94242 444.260187 
L 762.105413 541.489091 
L 764.268407 458.475872 
L 766.4314 484.42176 
L 768.594394 450.433738 
L 770.757388 489.312455 
L 772.920381 484.820003 
L 775.083375 456.479201 
L 777.246368 502.136391 
L 779.409362 452.66585 
L 781.572355 493.50035 
L 783.735349 493.075574 
L 785.898343 472.011017 
L 788.061336 474.494307 
L 790.22433 461.250965 
L 792.387323 465.597439 
L 794.550317 474.055305 
L 796.71331 508.270912 
L 798.876304 487.438371 
L 801.039298 516.482481 
L 803.202291 525.048408 
L 805.365285 467.761862 
L 807.528278 497.448314 
L 809.691272 450.287123 
L 811.854265 490.717644 
L 814.017259 419.353903 
L 816.180253 522.464052 
L 818.343246 462.136194 
L 820.50624 500.195381 
L 822.669233 477.830487 
L 824.832227 468.823885 
L 826.99522 504.927277 
L 829.158214 482.698966 
L 831.321208 477.812225 
L 833.484201 481.976375 
L 835.647195 468.903757 
L 837.810188 485.980297 
L 839.973182 502.814871 
" style="fill:none;stroke:#ff0000;stroke-linecap:square;stroke-width:1.5;"/>
   </g>
   <g id="patch_38">
    <path d="M 615.13 548.12 
L 615.13 402.24 
" style="fill:none;stroke:#000000;stroke-linecap:square;stroke-linejoin:miter;stroke-width:0.8;"/>
   </g>
   <g id="patch_39">
    <path d="M 850.68 548.12 
L 850.68 402.24 
" style="fill:none;stroke:#000000;stroke-linecap:square;stroke-linejoin:miter;stroke-width:0.8;"/>
   </g>
   <g id="patch_40">
    <path d="M 615.13 548.12 
L 850.68 548.12 
" style="fill:none;stroke:#000000;stroke-linecap:square;stroke-linejoin:miter;stroke-width:0.8;"/>
   </g>
   <g id="patch_41">
    <path d="M 615.13 402.24 
L 850.68 402.24 
" style="fill:none;stroke:#000000;stroke-linecap:square;stroke-linejoin:miter;stroke-width:0.8;"/>
   </g>
   <g id="text_96">
    <!-- Output signal 3 -->
    <g transform="translate(686.684375 396.24)scale(0.12 -0.12)">
     <use xlink:href="#DejaVuSans-79"/>
     <use x="78.710938" xlink:href="#DejaVuSans-117"/>
     <use x="142.089844" xlink:href="#DejaVuSans-116"/>
     <use x="181.298828" xlink:href="#DejaVuSans-112"/>
     <use x="244.775391" xlink:href="#DejaVuSans-117"/>
     <use x="308.154297" xlink:href="#DejaVuSans-116"/>
     <use x="347.363281" xlink:href="#DejaVuSans-32"/>
     <use x="379.150391" xlink:href="#DejaVuSans-115"/>
     <use x="431.25" xlink:href="#DejaVuSans-105"/>
     <use x="459.033203" xlink:href="#DejaVuSans-103"/>
     <use x="522.509766" xlink:href="#DejaVuSans-110"/>
     <use x="585.888672" xlink:href="#DejaVuSans-97"/>
     <use x="647.167969" xlink:href="#DejaVuSans-108"/>
     <use x="674.951172" xlink:href="#DejaVuSans-32"/>
     <use x="706.738281" xlink:href="#DejaVuSans-51"/>
    </g>
   </g>
  </g>
 </g>
 <defs>
  <clipPath id="pcd278fd48f">
   <rect height="145.88" width="377.75" x="46.33" y="25.44"/>
  </clipPath>
  <clipPath id="pfab3c36767">
   <rect height="145.88" width="377.75" x="472.93" y="25.44"/>
  </clipPath>
  <clipPath id="pacdc25839a">
   <rect height="145.88" width="235.55" x="46.33" y="213.84"/>
  </clipPath>
  <clipPath id="p82ed3394dd">
   <rect height="145.88" width="235.55" x="330.73" y="213.84"/>
  </clipPath>
  <clipPath id="pb1e40dc100">
   <rect height="145.88" width="235.55" x="615.13" y="213.84"/>
  </clipPath>
  <clipPath id="pc2d4003562">
   <rect height="145.88" width="235.55" x="46.33" y="402.24"/>
  </clipPath>
  <clipPath id="p05abb23abd">
   <rect height="145.88" width="235.55" x="330.73" y="402.24"/>
  </clipPath>
  <clipPath id="p47ca1c6012">
   <rect height="145.88" width="235.55" x="615.13" y="402.24"/>
  </clipPath>
 </defs>
</svg>
