<?xml version="1.0" encoding="utf-8" standalone="no"?>
<!DOCTYPE svg PUBLIC "-//W3C//DTD SVG 1.1//EN"
  "http://www.w3.org/Graphics/SVG/1.1/DTD/svg11.dtd">
<!-- Created with matplotlib (https://matplotlib.org/) -->
<svg height="576pt" version="1.1" viewBox="0 0 864 576" width="864pt" xmlns="http://www.w3.org/2000/svg" xmlns:xlink="http://www.w3.org/1999/xlink">
 <defs>
  <style type="text/css">
*{stroke-linecap:butt;stroke-linejoin:round;}
  </style>
 </defs>
 <g id="figure_1">
  <g id="patch_1">
   <path d="M 0 576 
L 864 576 
L 864 0 
L 0 0 
z
" style="fill:#ffffff;"/>
  </g>
  <g id="axes_1">
   <g id="patch_2">
    <path d="M 46.33 171.32 
L 425.745 171.32 
L 425.745 25.44 
L 46.33 25.44 
z
" style="fill:#ffffff;"/>
   </g>
   <g id="matplotlib.axis_1">
    <g id="xtick_1">
     <g id="line2d_1">
      <defs>
       <path d="M 0 0 
L 0 3.5 
" id="m773eff557c" style="stroke:#000000;stroke-width:0.8;"/>
      </defs>
      <g>
       <use style="stroke:#000000;stroke-width:0.8;" x="63.576136" xlink:href="#m773eff557c" y="171.32"/>
      </g>
     </g>
     <g id="text_1">
      <!-- 0 -->
      <defs>
       <path d="M 31.78125 66.40625 
Q 24.171875 66.40625 20.328125 58.90625 
Q 16.5 51.421875 16.5 36.375 
Q 16.5 21.390625 20.328125 13.890625 
Q 24.171875 6.390625 31.78125 6.390625 
Q 39.453125 6.390625 43.28125 13.890625 
Q 47.125 21.390625 47.125 36.375 
Q 47.125 51.421875 43.28125 58.90625 
Q 39.453125 66.40625 31.78125 66.40625 
z
M 31.78125 74.21875 
Q 44.046875 74.21875 50.515625 64.515625 
Q 56.984375 54.828125 56.984375 36.375 
Q 56.984375 17.96875 50.515625 8.265625 
Q 44.046875 -1.421875 31.78125 -1.421875 
Q 19.53125 -1.421875 13.0625 8.265625 
Q 6.59375 17.96875 6.59375 36.375 
Q 6.59375 54.828125 13.0625 64.515625 
Q 19.53125 74.21875 31.78125 74.21875 
z
" id="DejaVuSans-48"/>
      </defs>
      <g transform="translate(60.394886 185.918438)scale(0.1 -0.1)">
       <use xlink:href="#DejaVuSans-48"/>
      </g>
     </g>
    </g>
    <g id="xtick_2">
     <g id="line2d_2">
      <g>
       <use style="stroke:#000000;stroke-width:0.8;" x="133.257495" xlink:href="#m773eff557c" y="171.32"/>
      </g>
     </g>
     <g id="text_2">
      <!-- 20 -->
      <defs>
       <path d="M 19.1875 8.296875 
L 53.609375 8.296875 
L 53.609375 0 
L 7.328125 0 
L 7.328125 8.296875 
Q 12.9375 14.109375 22.625 23.890625 
Q 32.328125 33.6875 34.8125 36.53125 
Q 39.546875 41.84375 41.421875 45.53125 
Q 43.3125 49.21875 43.3125 52.78125 
Q 43.3125 58.59375 39.234375 62.25 
Q 35.15625 65.921875 28.609375 65.921875 
Q 23.96875 65.921875 18.8125 64.3125 
Q 13.671875 62.703125 7.8125 59.421875 
L 7.8125 69.390625 
Q 13.765625 71.78125 18.9375 73 
Q 24.125 74.21875 28.421875 74.21875 
Q 39.75 74.21875 46.484375 68.546875 
Q 53.21875 62.890625 53.21875 53.421875 
Q 53.21875 48.921875 51.53125 44.890625 
Q 49.859375 40.875 45.40625 35.40625 
Q 44.1875 33.984375 37.640625 27.21875 
Q 31.109375 20.453125 19.1875 8.296875 
z
" id="DejaVuSans-50"/>
      </defs>
      <g transform="translate(126.894995 185.918438)scale(0.1 -0.1)">
       <use xlink:href="#DejaVuSans-50"/>
       <use x="63.623047" xlink:href="#DejaVuSans-48"/>
      </g>
     </g>
    </g>
    <g id="xtick_3">
     <g id="line2d_3">
      <g>
       <use style="stroke:#000000;stroke-width:0.8;" x="202.938854" xlink:href="#m773eff557c" y="171.32"/>
      </g>
     </g>
     <g id="text_3">
      <!-- 40 -->
      <defs>
       <path d="M 37.796875 64.3125 
L 12.890625 25.390625 
L 37.796875 25.390625 
z
M 35.203125 72.90625 
L 47.609375 72.90625 
L 47.609375 25.390625 
L 58.015625 25.390625 
L 58.015625 17.1875 
L 47.609375 17.1875 
L 47.609375 0 
L 37.796875 0 
L 37.796875 17.1875 
L 4.890625 17.1875 
L 4.890625 26.703125 
z
" id="DejaVuSans-52"/>
      </defs>
      <g transform="translate(196.576354 185.918438)scale(0.1 -0.1)">
       <use xlink:href="#DejaVuSans-52"/>
       <use x="63.623047" xlink:href="#DejaVuSans-48"/>
      </g>
     </g>
    </g>
    <g id="xtick_4">
     <g id="line2d_4">
      <g>
       <use style="stroke:#000000;stroke-width:0.8;" x="272.620213" xlink:href="#m773eff557c" y="171.32"/>
      </g>
     </g>
     <g id="text_4">
      <!-- 60 -->
      <defs>
       <path d="M 33.015625 40.375 
Q 26.375 40.375 22.484375 35.828125 
Q 18.609375 31.296875 18.609375 23.390625 
Q 18.609375 15.53125 22.484375 10.953125 
Q 26.375 6.390625 33.015625 6.390625 
Q 39.65625 6.390625 43.53125 10.953125 
Q 47.40625 15.53125 47.40625 23.390625 
Q 47.40625 31.296875 43.53125 35.828125 
Q 39.65625 40.375 33.015625 40.375 
z
M 52.59375 71.296875 
L 52.59375 62.3125 
Q 48.875 64.0625 45.09375 64.984375 
Q 41.3125 65.921875 37.59375 65.921875 
Q 27.828125 65.921875 22.671875 59.328125 
Q 17.53125 52.734375 16.796875 39.40625 
Q 19.671875 43.65625 24.015625 45.921875 
Q 28.375 48.1875 33.59375 48.1875 
Q 44.578125 48.1875 50.953125 41.515625 
Q 57.328125 34.859375 57.328125 23.390625 
Q 57.328125 12.15625 50.6875 5.359375 
Q 44.046875 -1.421875 33.015625 -1.421875 
Q 20.359375 -1.421875 13.671875 8.265625 
Q 6.984375 17.96875 6.984375 36.375 
Q 6.984375 53.65625 15.1875 63.9375 
Q 23.390625 74.21875 37.203125 74.21875 
Q 40.921875 74.21875 44.703125 73.484375 
Q 48.484375 72.75 52.59375 71.296875 
z
" id="DejaVuSans-54"/>
      </defs>
      <g transform="translate(266.257713 185.918438)scale(0.1 -0.1)">
       <use xlink:href="#DejaVuSans-54"/>
       <use x="63.623047" xlink:href="#DejaVuSans-48"/>
      </g>
     </g>
    </g>
    <g id="xtick_5">
     <g id="line2d_5">
      <g>
       <use style="stroke:#000000;stroke-width:0.8;" x="342.301573" xlink:href="#m773eff557c" y="171.32"/>
      </g>
     </g>
     <g id="text_5">
      <!-- 80 -->
      <defs>
       <path d="M 31.78125 34.625 
Q 24.75 34.625 20.71875 30.859375 
Q 16.703125 27.09375 16.703125 20.515625 
Q 16.703125 13.921875 20.71875 10.15625 
Q 24.75 6.390625 31.78125 6.390625 
Q 38.8125 6.390625 42.859375 10.171875 
Q 46.921875 13.96875 46.921875 20.515625 
Q 46.921875 27.09375 42.890625 30.859375 
Q 38.875 34.625 31.78125 34.625 
z
M 21.921875 38.8125 
Q 15.578125 40.375 12.03125 44.71875 
Q 8.5 49.078125 8.5 55.328125 
Q 8.5 64.0625 14.71875 69.140625 
Q 20.953125 74.21875 31.78125 74.21875 
Q 42.671875 74.21875 48.875 69.140625 
Q 55.078125 64.0625 55.078125 55.328125 
Q 55.078125 49.078125 51.53125 44.71875 
Q 48 40.375 41.703125 38.8125 
Q 48.828125 37.15625 52.796875 32.3125 
Q 56.78125 27.484375 56.78125 20.515625 
Q 56.78125 9.90625 50.3125 4.234375 
Q 43.84375 -1.421875 31.78125 -1.421875 
Q 19.734375 -1.421875 13.25 4.234375 
Q 6.78125 9.90625 6.78125 20.515625 
Q 6.78125 27.484375 10.78125 32.3125 
Q 14.796875 37.15625 21.921875 38.8125 
z
M 18.3125 54.390625 
Q 18.3125 48.734375 21.84375 45.5625 
Q 25.390625 42.390625 31.78125 42.390625 
Q 38.140625 42.390625 41.71875 45.5625 
Q 45.3125 48.734375 45.3125 54.390625 
Q 45.3125 60.0625 41.71875 63.234375 
Q 38.140625 66.40625 31.78125 66.40625 
Q 25.390625 66.40625 21.84375 63.234375 
Q 18.3125 60.0625 18.3125 54.390625 
z
" id="DejaVuSans-56"/>
      </defs>
      <g transform="translate(335.939073 185.918438)scale(0.1 -0.1)">
       <use xlink:href="#DejaVuSans-56"/>
       <use x="63.623047" xlink:href="#DejaVuSans-48"/>
      </g>
     </g>
    </g>
    <g id="xtick_6">
     <g id="line2d_6">
      <g>
       <use style="stroke:#000000;stroke-width:0.8;" x="411.982932" xlink:href="#m773eff557c" y="171.32"/>
      </g>
     </g>
     <g id="text_6">
      <!-- 100 -->
      <defs>
       <path d="M 12.40625 8.296875 
L 28.515625 8.296875 
L 28.515625 63.921875 
L 10.984375 60.40625 
L 10.984375 69.390625 
L 28.421875 72.90625 
L 38.28125 72.90625 
L 38.28125 8.296875 
L 54.390625 8.296875 
L 54.390625 0 
L 12.40625 0 
z
" id="DejaVuSans-49"/>
      </defs>
      <g transform="translate(402.439182 185.918438)scale(0.1 -0.1)">
       <use xlink:href="#DejaVuSans-49"/>
       <use x="63.623047" xlink:href="#DejaVuSans-48"/>
       <use x="127.246094" xlink:href="#DejaVuSans-48"/>
      </g>
     </g>
    </g>
   </g>
   <g id="matplotlib.axis_2">
    <g id="ytick_1">
     <g id="line2d_7">
      <defs>
       <path d="M 0 0 
L -3.5 0 
" id="mfd3d3cbfa1" style="stroke:#000000;stroke-width:0.8;"/>
      </defs>
      <g>
       <use style="stroke:#000000;stroke-width:0.8;" x="46.33" xlink:href="#mfd3d3cbfa1" y="164.689091"/>
      </g>
     </g>
     <g id="text_7">
      <!-- 0.00 -->
      <defs>
       <path d="M 10.6875 12.40625 
L 21 12.40625 
L 21 0 
L 10.6875 0 
z
" id="DejaVuSans-46"/>
      </defs>
      <g transform="translate(17.064375 168.48831)scale(0.1 -0.1)">
       <use xlink:href="#DejaVuSans-48"/>
       <use x="63.623047" xlink:href="#DejaVuSans-46"/>
       <use x="95.410156" xlink:href="#DejaVuSans-48"/>
       <use x="159.033203" xlink:href="#DejaVuSans-48"/>
      </g>
     </g>
    </g>
    <g id="ytick_2">
     <g id="line2d_8">
      <g>
       <use style="stroke:#000000;stroke-width:0.8;" x="46.33" xlink:href="#mfd3d3cbfa1" y="134.959013"/>
      </g>
     </g>
     <g id="text_8">
      <!-- 0.02 -->
      <g transform="translate(17.064375 138.758232)scale(0.1 -0.1)">
       <use xlink:href="#DejaVuSans-48"/>
       <use x="63.623047" xlink:href="#DejaVuSans-46"/>
       <use x="95.410156" xlink:href="#DejaVuSans-48"/>
       <use x="159.033203" xlink:href="#DejaVuSans-50"/>
      </g>
     </g>
    </g>
    <g id="ytick_3">
     <g id="line2d_9">
      <g>
       <use style="stroke:#000000;stroke-width:0.8;" x="46.33" xlink:href="#mfd3d3cbfa1" y="105.228936"/>
      </g>
     </g>
     <g id="text_9">
      <!-- 0.04 -->
      <g transform="translate(17.064375 109.028155)scale(0.1 -0.1)">
       <use xlink:href="#DejaVuSans-48"/>
       <use x="63.623047" xlink:href="#DejaVuSans-46"/>
       <use x="95.410156" xlink:href="#DejaVuSans-48"/>
       <use x="159.033203" xlink:href="#DejaVuSans-52"/>
      </g>
     </g>
    </g>
    <g id="ytick_4">
     <g id="line2d_10">
      <g>
       <use style="stroke:#000000;stroke-width:0.8;" x="46.33" xlink:href="#mfd3d3cbfa1" y="75.498859"/>
      </g>
     </g>
     <g id="text_10">
      <!-- 0.06 -->
      <g transform="translate(17.064375 79.298077)scale(0.1 -0.1)">
       <use xlink:href="#DejaVuSans-48"/>
       <use x="63.623047" xlink:href="#DejaVuSans-46"/>
       <use x="95.410156" xlink:href="#DejaVuSans-48"/>
       <use x="159.033203" xlink:href="#DejaVuSans-54"/>
      </g>
     </g>
    </g>
    <g id="ytick_5">
     <g id="line2d_11">
      <g>
       <use style="stroke:#000000;stroke-width:0.8;" x="46.33" xlink:href="#mfd3d3cbfa1" y="45.768781"/>
      </g>
     </g>
     <g id="text_11">
      <!-- 0.08 -->
      <g transform="translate(17.064375 49.568)scale(0.1 -0.1)">
       <use xlink:href="#DejaVuSans-48"/>
       <use x="63.623047" xlink:href="#DejaVuSans-46"/>
       <use x="95.410156" xlink:href="#DejaVuSans-48"/>
       <use x="159.033203" xlink:href="#DejaVuSans-56"/>
      </g>
     </g>
    </g>
   </g>
   <g id="line2d_12">
    <path clip-path="url(#p5e40f83793)" d="M 63.576136 164.689091 
L 67.060204 164.689091 
L 70.544272 164.689091 
L 74.02834 164.689091 
L 77.512408 164.689091 
L 80.996476 164.689091 
L 84.480544 51.372826 
L 87.964612 104.433088 
L 91.44868 93.507403 
L 94.932748 164.689091 
L 98.416816 164.689091 
L 101.900884 164.689091 
L 105.384952 164.689091 
L 108.86902 37.492433 
L 112.353088 118.650525 
L 115.837156 111.517021 
L 119.321224 164.689091 
L 122.805292 68.114328 
L 126.28936 164.689091 
L 129.773427 42.302461 
L 133.257495 164.689091 
L 136.741563 77.951455 
L 140.225631 164.689091 
L 143.709699 164.689091 
L 147.193767 164.689091 
L 150.677835 164.689091 
L 154.161903 32.070909 
L 157.645971 164.689091 
L 161.130039 164.689091 
L 164.614107 104.339759 
L 168.098175 164.689091 
L 171.582243 164.689091 
L 175.066311 164.689091 
L 178.550379 164.689091 
L 182.034447 108.77128 
L 185.518515 164.689091 
L 189.002583 164.689091 
L 192.486651 164.689091 
L 195.970719 164.689091 
L 199.454787 164.689091 
L 202.938854 164.689091 
L 206.422922 164.689091 
L 209.90699 150.148657 
L 213.391058 164.689091 
L 216.875126 164.689091 
L 220.359194 164.689091 
L 223.843262 164.689091 
L 227.32733 164.689091 
L 230.811398 164.689091 
L 234.295466 164.689091 
L 237.779534 164.689091 
L 241.263602 164.689091 
L 244.74767 164.689091 
L 248.231738 164.689091 
L 251.715806 164.689091 
L 255.199874 49.452708 
L 258.683942 164.689091 
L 262.16801 164.689091 
L 265.652078 164.689091 
L 269.136146 164.689091 
L 272.620213 164.689091 
L 276.104281 164.689091 
L 279.588349 164.689091 
L 283.072417 164.689091 
L 286.556485 61.367397 
L 290.040553 164.689091 
L 293.524621 164.689091 
L 297.008689 164.689091 
L 300.492757 164.689091 
L 303.976825 164.689091 
L 307.460893 164.689091 
L 310.944961 164.689091 
L 314.429029 164.689091 
L 317.913097 164.689091 
L 321.397165 164.689091 
L 324.881233 164.689091 
L 328.365301 164.689091 
L 331.849369 164.689091 
L 335.333437 164.689091 
L 338.817505 164.689091 
L 342.301573 164.689091 
L 345.78564 164.689091 
L 349.269708 164.689091 
L 352.753776 44.421652 
L 356.237844 164.689091 
L 359.721912 137.17992 
L 363.20598 164.689091 
L 366.690048 164.689091 
L 370.174116 164.689091 
L 373.658184 164.689091 
L 377.142252 86.257515 
L 380.62632 164.689091 
L 384.110388 164.689091 
L 387.594456 164.689091 
L 391.078524 164.689091 
L 394.562592 164.689091 
L 398.04666 164.689091 
L 401.530728 163.237516 
L 405.014796 164.689091 
L 408.498864 164.689091 
" style="fill:none;stroke:#bfbf00;stroke-linecap:square;stroke-width:1.5;"/>
   </g>
   <g id="patch_3">
    <path d="M 46.33 171.32 
L 46.33 25.44 
" style="fill:none;stroke:#000000;stroke-linecap:square;stroke-linejoin:miter;stroke-width:0.8;"/>
   </g>
   <g id="patch_4">
    <path d="M 425.745 171.32 
L 425.745 25.44 
" style="fill:none;stroke:#000000;stroke-linecap:square;stroke-linejoin:miter;stroke-width:0.8;"/>
   </g>
   <g id="patch_5">
    <path d="M 46.33 171.32 
L 425.745 171.32 
" style="fill:none;stroke:#000000;stroke-linecap:square;stroke-linejoin:miter;stroke-width:0.8;"/>
   </g>
   <g id="patch_6">
    <path d="M 46.33 25.44 
L 425.745 25.44 
" style="fill:none;stroke:#000000;stroke-linecap:square;stroke-linejoin:miter;stroke-width:0.8;"/>
   </g>
   <g id="text_12">
    <!-- Input signal 1 -->
    <defs>
     <path d="M 9.8125 72.90625 
L 19.671875 72.90625 
L 19.671875 0 
L 9.8125 0 
z
" id="DejaVuSans-73"/>
     <path d="M 54.890625 33.015625 
L 54.890625 0 
L 45.90625 0 
L 45.90625 32.71875 
Q 45.90625 40.484375 42.875 44.328125 
Q 39.84375 48.1875 33.796875 48.1875 
Q 26.515625 48.1875 22.3125 43.546875 
Q 18.109375 38.921875 18.109375 30.90625 
L 18.109375 0 
L 9.078125 0 
L 9.078125 54.6875 
L 18.109375 54.6875 
L 18.109375 46.1875 
Q 21.34375 51.125 25.703125 53.5625 
Q 30.078125 56 35.796875 56 
Q 45.21875 56 50.046875 50.171875 
Q 54.890625 44.34375 54.890625 33.015625 
z
" id="DejaVuSans-110"/>
     <path d="M 18.109375 8.203125 
L 18.109375 -20.796875 
L 9.078125 -20.796875 
L 9.078125 54.6875 
L 18.109375 54.6875 
L 18.109375 46.390625 
Q 20.953125 51.265625 25.265625 53.625 
Q 29.59375 56 35.59375 56 
Q 45.5625 56 51.78125 48.09375 
Q 58.015625 40.1875 58.015625 27.296875 
Q 58.015625 14.40625 51.78125 6.484375 
Q 45.5625 -1.421875 35.59375 -1.421875 
Q 29.59375 -1.421875 25.265625 0.953125 
Q 20.953125 3.328125 18.109375 8.203125 
z
M 48.6875 27.296875 
Q 48.6875 37.203125 44.609375 42.84375 
Q 40.53125 48.484375 33.40625 48.484375 
Q 26.265625 48.484375 22.1875 42.84375 
Q 18.109375 37.203125 18.109375 27.296875 
Q 18.109375 17.390625 22.1875 11.75 
Q 26.265625 6.109375 33.40625 6.109375 
Q 40.53125 6.109375 44.609375 11.75 
Q 48.6875 17.390625 48.6875 27.296875 
z
" id="DejaVuSans-112"/>
     <path d="M 8.5 21.578125 
L 8.5 54.6875 
L 17.484375 54.6875 
L 17.484375 21.921875 
Q 17.484375 14.15625 20.5 10.265625 
Q 23.53125 6.390625 29.59375 6.390625 
Q 36.859375 6.390625 41.078125 11.03125 
Q 45.3125 15.671875 45.3125 23.6875 
L 45.3125 54.6875 
L 54.296875 54.6875 
L 54.296875 0 
L 45.3125 0 
L 45.3125 8.40625 
Q 42.046875 3.421875 37.71875 1 
Q 33.40625 -1.421875 27.6875 -1.421875 
Q 18.265625 -1.421875 13.375 4.4375 
Q 8.5 10.296875 8.5 21.578125 
z
M 31.109375 56 
z
" id="DejaVuSans-117"/>
     <path d="M 18.3125 70.21875 
L 18.3125 54.6875 
L 36.8125 54.6875 
L 36.8125 47.703125 
L 18.3125 47.703125 
L 18.3125 18.015625 
Q 18.3125 11.328125 20.140625 9.421875 
Q 21.96875 7.515625 27.59375 7.515625 
L 36.8125 7.515625 
L 36.8125 0 
L 27.59375 0 
Q 17.1875 0 13.234375 3.875 
Q 9.28125 7.765625 9.28125 18.015625 
L 9.28125 47.703125 
L 2.6875 47.703125 
L 2.6875 54.6875 
L 9.28125 54.6875 
L 9.28125 70.21875 
z
" id="DejaVuSans-116"/>
     <path id="DejaVuSans-32"/>
     <path d="M 44.28125 53.078125 
L 44.28125 44.578125 
Q 40.484375 46.53125 36.375 47.5 
Q 32.28125 48.484375 27.875 48.484375 
Q 21.1875 48.484375 17.84375 46.4375 
Q 14.5 44.390625 14.5 40.28125 
Q 14.5 37.15625 16.890625 35.375 
Q 19.28125 33.59375 26.515625 31.984375 
L 29.59375 31.296875 
Q 39.15625 29.25 43.1875 25.515625 
Q 47.21875 21.78125 47.21875 15.09375 
Q 47.21875 7.46875 41.1875 3.015625 
Q 35.15625 -1.421875 24.609375 -1.421875 
Q 20.21875 -1.421875 15.453125 -0.5625 
Q 10.6875 0.296875 5.421875 2 
L 5.421875 11.28125 
Q 10.40625 8.6875 15.234375 7.390625 
Q 20.0625 6.109375 24.8125 6.109375 
Q 31.15625 6.109375 34.5625 8.28125 
Q 37.984375 10.453125 37.984375 14.40625 
Q 37.984375 18.0625 35.515625 20.015625 
Q 33.0625 21.96875 24.703125 23.78125 
L 21.578125 24.515625 
Q 13.234375 26.265625 9.515625 29.90625 
Q 5.8125 33.546875 5.8125 39.890625 
Q 5.8125 47.609375 11.28125 51.796875 
Q 16.75 56 26.8125 56 
Q 31.78125 56 36.171875 55.265625 
Q 40.578125 54.546875 44.28125 53.078125 
z
" id="DejaVuSans-115"/>
     <path d="M 9.421875 54.6875 
L 18.40625 54.6875 
L 18.40625 0 
L 9.421875 0 
z
M 9.421875 75.984375 
L 18.40625 75.984375 
L 18.40625 64.59375 
L 9.421875 64.59375 
z
" id="DejaVuSans-105"/>
     <path d="M 45.40625 27.984375 
Q 45.40625 37.75 41.375 43.109375 
Q 37.359375 48.484375 30.078125 48.484375 
Q 22.859375 48.484375 18.828125 43.109375 
Q 14.796875 37.75 14.796875 27.984375 
Q 14.796875 18.265625 18.828125 12.890625 
Q 22.859375 7.515625 30.078125 7.515625 
Q 37.359375 7.515625 41.375 12.890625 
Q 45.40625 18.265625 45.40625 27.984375 
z
M 54.390625 6.78125 
Q 54.390625 -7.171875 48.1875 -13.984375 
Q 42 -20.796875 29.203125 -20.796875 
Q 24.46875 -20.796875 20.265625 -20.09375 
Q 16.0625 -19.390625 12.109375 -17.921875 
L 12.109375 -9.1875 
Q 16.0625 -11.328125 19.921875 -12.34375 
Q 23.78125 -13.375 27.78125 -13.375 
Q 36.625 -13.375 41.015625 -8.765625 
Q 45.40625 -4.15625 45.40625 5.171875 
L 45.40625 9.625 
Q 42.625 4.78125 38.28125 2.390625 
Q 33.9375 0 27.875 0 
Q 17.828125 0 11.671875 7.65625 
Q 5.515625 15.328125 5.515625 27.984375 
Q 5.515625 40.671875 11.671875 48.328125 
Q 17.828125 56 27.875 56 
Q 33.9375 56 38.28125 53.609375 
Q 42.625 51.21875 45.40625 46.390625 
L 45.40625 54.6875 
L 54.390625 54.6875 
z
" id="DejaVuSans-103"/>
     <path d="M 34.28125 27.484375 
Q 23.390625 27.484375 19.1875 25 
Q 14.984375 22.515625 14.984375 16.5 
Q 14.984375 11.71875 18.140625 8.90625 
Q 21.296875 6.109375 26.703125 6.109375 
Q 34.1875 6.109375 38.703125 11.40625 
Q 43.21875 16.703125 43.21875 25.484375 
L 43.21875 27.484375 
z
M 52.203125 31.203125 
L 52.203125 0 
L 43.21875 0 
L 43.21875 8.296875 
Q 40.140625 3.328125 35.546875 0.953125 
Q 30.953125 -1.421875 24.3125 -1.421875 
Q 15.921875 -1.421875 10.953125 3.296875 
Q 6 8.015625 6 15.921875 
Q 6 25.140625 12.171875 29.828125 
Q 18.359375 34.515625 30.609375 34.515625 
L 43.21875 34.515625 
L 43.21875 35.40625 
Q 43.21875 41.609375 39.140625 45 
Q 35.0625 48.390625 27.6875 48.390625 
Q 23 48.390625 18.546875 47.265625 
Q 14.109375 46.140625 10.015625 43.890625 
L 10.015625 52.203125 
Q 14.9375 54.109375 19.578125 55.046875 
Q 24.21875 56 28.609375 56 
Q 40.484375 56 46.34375 49.84375 
Q 52.203125 43.703125 52.203125 31.203125 
z
" id="DejaVuSans-97"/>
     <path d="M 9.421875 75.984375 
L 18.40625 75.984375 
L 18.40625 0 
L 9.421875 0 
z
" id="DejaVuSans-108"/>
    </defs>
    <g transform="translate(195.122188 19.44)scale(0.12 -0.12)">
     <use xlink:href="#DejaVuSans-73"/>
     <use x="29.492188" xlink:href="#DejaVuSans-110"/>
     <use x="92.871094" xlink:href="#DejaVuSans-112"/>
     <use x="156.347656" xlink:href="#DejaVuSans-117"/>
     <use x="219.726562" xlink:href="#DejaVuSans-116"/>
     <use x="258.935547" xlink:href="#DejaVuSans-32"/>
     <use x="290.722656" xlink:href="#DejaVuSans-115"/>
     <use x="342.822266" xlink:href="#DejaVuSans-105"/>
     <use x="370.605469" xlink:href="#DejaVuSans-103"/>
     <use x="434.082031" xlink:href="#DejaVuSans-110"/>
     <use x="497.460938" xlink:href="#DejaVuSans-97"/>
     <use x="558.740234" xlink:href="#DejaVuSans-108"/>
     <use x="586.523438" xlink:href="#DejaVuSans-32"/>
     <use x="618.310547" xlink:href="#DejaVuSans-49"/>
    </g>
   </g>
  </g>
  <g id="axes_2">
   <g id="patch_7">
    <path d="M 471.265 171.32 
L 850.68 171.32 
L 850.68 25.44 
L 471.265 25.44 
z
" style="fill:#ffffff;"/>
   </g>
   <g id="matplotlib.axis_3">
    <g id="xtick_7">
     <g id="line2d_13">
      <g>
       <use style="stroke:#000000;stroke-width:0.8;" x="488.511136" xlink:href="#m773eff557c" y="171.32"/>
      </g>
     </g>
     <g id="text_13">
      <!-- 0 -->
      <g transform="translate(485.329886 185.918438)scale(0.1 -0.1)">
       <use xlink:href="#DejaVuSans-48"/>
      </g>
     </g>
    </g>
    <g id="xtick_8">
     <g id="line2d_14">
      <g>
       <use style="stroke:#000000;stroke-width:0.8;" x="558.192495" xlink:href="#m773eff557c" y="171.32"/>
      </g>
     </g>
     <g id="text_14">
      <!-- 20 -->
      <g transform="translate(551.829995 185.918438)scale(0.1 -0.1)">
       <use xlink:href="#DejaVuSans-50"/>
       <use x="63.623047" xlink:href="#DejaVuSans-48"/>
      </g>
     </g>
    </g>
    <g id="xtick_9">
     <g id="line2d_15">
      <g>
       <use style="stroke:#000000;stroke-width:0.8;" x="627.873854" xlink:href="#m773eff557c" y="171.32"/>
      </g>
     </g>
     <g id="text_15">
      <!-- 40 -->
      <g transform="translate(621.511354 185.918438)scale(0.1 -0.1)">
       <use xlink:href="#DejaVuSans-52"/>
       <use x="63.623047" xlink:href="#DejaVuSans-48"/>
      </g>
     </g>
    </g>
    <g id="xtick_10">
     <g id="line2d_16">
      <g>
       <use style="stroke:#000000;stroke-width:0.8;" x="697.555213" xlink:href="#m773eff557c" y="171.32"/>
      </g>
     </g>
     <g id="text_16">
      <!-- 60 -->
      <g transform="translate(691.192713 185.918438)scale(0.1 -0.1)">
       <use xlink:href="#DejaVuSans-54"/>
       <use x="63.623047" xlink:href="#DejaVuSans-48"/>
      </g>
     </g>
    </g>
    <g id="xtick_11">
     <g id="line2d_17">
      <g>
       <use style="stroke:#000000;stroke-width:0.8;" x="767.236573" xlink:href="#m773eff557c" y="171.32"/>
      </g>
     </g>
     <g id="text_17">
      <!-- 80 -->
      <g transform="translate(760.874073 185.918438)scale(0.1 -0.1)">
       <use xlink:href="#DejaVuSans-56"/>
       <use x="63.623047" xlink:href="#DejaVuSans-48"/>
      </g>
     </g>
    </g>
    <g id="xtick_12">
     <g id="line2d_18">
      <g>
       <use style="stroke:#000000;stroke-width:0.8;" x="836.917932" xlink:href="#m773eff557c" y="171.32"/>
      </g>
     </g>
     <g id="text_18">
      <!-- 100 -->
      <g transform="translate(827.374182 185.918438)scale(0.1 -0.1)">
       <use xlink:href="#DejaVuSans-49"/>
       <use x="63.623047" xlink:href="#DejaVuSans-48"/>
       <use x="127.246094" xlink:href="#DejaVuSans-48"/>
      </g>
     </g>
    </g>
   </g>
   <g id="matplotlib.axis_4">
    <g id="ytick_6">
     <g id="line2d_19">
      <g>
       <use style="stroke:#000000;stroke-width:0.8;" x="471.265" xlink:href="#mfd3d3cbfa1" y="164.689091"/>
      </g>
     </g>
     <g id="text_19">
      <!-- 0.00 -->
      <g transform="translate(441.999375 168.48831)scale(0.1 -0.1)">
       <use xlink:href="#DejaVuSans-48"/>
       <use x="63.623047" xlink:href="#DejaVuSans-46"/>
       <use x="95.410156" xlink:href="#DejaVuSans-48"/>
       <use x="159.033203" xlink:href="#DejaVuSans-48"/>
      </g>
     </g>
    </g>
    <g id="ytick_7">
     <g id="line2d_20">
      <g>
       <use style="stroke:#000000;stroke-width:0.8;" x="471.265" xlink:href="#mfd3d3cbfa1" y="133.046991"/>
      </g>
     </g>
     <g id="text_20">
      <!-- 0.02 -->
      <g transform="translate(441.999375 136.846209)scale(0.1 -0.1)">
       <use xlink:href="#DejaVuSans-48"/>
       <use x="63.623047" xlink:href="#DejaVuSans-46"/>
       <use x="95.410156" xlink:href="#DejaVuSans-48"/>
       <use x="159.033203" xlink:href="#DejaVuSans-50"/>
      </g>
     </g>
    </g>
    <g id="ytick_8">
     <g id="line2d_21">
      <g>
       <use style="stroke:#000000;stroke-width:0.8;" x="471.265" xlink:href="#mfd3d3cbfa1" y="101.40489"/>
      </g>
     </g>
     <g id="text_21">
      <!-- 0.04 -->
      <g transform="translate(441.999375 105.204109)scale(0.1 -0.1)">
       <use xlink:href="#DejaVuSans-48"/>
       <use x="63.623047" xlink:href="#DejaVuSans-46"/>
       <use x="95.410156" xlink:href="#DejaVuSans-48"/>
       <use x="159.033203" xlink:href="#DejaVuSans-52"/>
      </g>
     </g>
    </g>
    <g id="ytick_9">
     <g id="line2d_22">
      <g>
       <use style="stroke:#000000;stroke-width:0.8;" x="471.265" xlink:href="#mfd3d3cbfa1" y="69.76279"/>
      </g>
     </g>
     <g id="text_22">
      <!-- 0.06 -->
      <g transform="translate(441.999375 73.562009)scale(0.1 -0.1)">
       <use xlink:href="#DejaVuSans-48"/>
       <use x="63.623047" xlink:href="#DejaVuSans-46"/>
       <use x="95.410156" xlink:href="#DejaVuSans-48"/>
       <use x="159.033203" xlink:href="#DejaVuSans-54"/>
      </g>
     </g>
    </g>
    <g id="ytick_10">
     <g id="line2d_23">
      <g>
       <use style="stroke:#000000;stroke-width:0.8;" x="471.265" xlink:href="#mfd3d3cbfa1" y="38.12069"/>
      </g>
     </g>
     <g id="text_23">
      <!-- 0.08 -->
      <g transform="translate(441.999375 41.919909)scale(0.1 -0.1)">
       <use xlink:href="#DejaVuSans-48"/>
       <use x="63.623047" xlink:href="#DejaVuSans-46"/>
       <use x="95.410156" xlink:href="#DejaVuSans-48"/>
       <use x="159.033203" xlink:href="#DejaVuSans-56"/>
      </g>
     </g>
    </g>
   </g>
   <g id="line2d_24">
    <path clip-path="url(#p60364b77bc)" d="M 488.511136 164.689091 
L 491.995204 164.689091 
L 495.479272 164.689091 
L 498.96334 164.689091 
L 502.447408 164.689091 
L 505.931476 32.070909 
L 509.415544 164.689091 
L 512.899612 164.689091 
L 516.38368 164.689091 
L 519.867748 164.689091 
L 523.351816 164.689091 
L 526.835884 164.689091 
L 530.319952 164.689091 
L 533.80402 164.689091 
L 537.288088 164.689091 
L 540.772156 164.689091 
L 544.256224 90.333396 
L 547.740292 164.689091 
L 551.22436 164.689091 
L 554.708427 164.689091 
L 558.192495 164.689091 
L 561.676563 164.689091 
L 565.160631 164.689091 
L 568.644699 164.689091 
L 572.128767 98.104852 
L 575.612835 164.689091 
L 579.096903 164.689091 
L 582.580971 70.629372 
L 586.065039 105.566453 
L 589.549107 164.689091 
L 593.033175 164.689091 
L 596.517243 164.689091 
L 600.001311 164.689091 
L 603.485379 122.229009 
L 606.969447 164.689091 
L 610.453515 164.689091 
L 613.937583 164.689091 
L 617.421651 94.027647 
L 620.905719 164.689091 
L 624.389787 164.689091 
L 627.873854 164.689091 
L 631.357922 164.689091 
L 634.84199 164.689091 
L 638.326058 134.688469 
L 641.810126 164.689091 
L 645.294194 164.689091 
L 648.778262 164.689091 
L 652.26233 164.689091 
L 655.746398 164.689091 
L 659.230466 164.689091 
L 662.714534 164.689091 
L 666.198602 61.438642 
L 669.68267 139.848424 
L 673.166738 164.689091 
L 676.650806 164.689091 
L 680.134874 164.689091 
L 683.618942 164.689091 
L 687.10301 110.149921 
L 690.587078 37.208203 
L 694.071146 164.689091 
L 697.555213 164.689091 
L 701.039281 164.689091 
L 704.523349 164.689091 
L 708.007417 164.689091 
L 711.491485 164.689091 
L 714.975553 71.060211 
L 718.459621 164.689091 
L 721.943689 164.689091 
L 725.427757 151.271807 
L 728.911825 164.689091 
L 732.395893 164.689091 
L 735.879961 164.689091 
L 739.364029 164.689091 
L 742.848097 164.689091 
L 746.332165 164.689091 
L 749.816233 164.689091 
L 753.300301 164.689091 
L 756.784369 115.459998 
L 760.268437 164.689091 
L 763.752505 71.15047 
L 767.236573 164.689091 
L 770.72064 164.689091 
L 774.204708 164.689091 
L 777.688776 164.689091 
L 781.172844 164.689091 
L 784.656912 164.689091 
L 788.14098 164.689091 
L 791.625048 164.689091 
L 795.109116 164.689091 
L 798.593184 137.729959 
L 802.077252 164.689091 
L 805.56132 164.689091 
L 809.045388 164.689091 
L 812.529456 38.529142 
L 816.013524 36.765435 
L 819.497592 74.932767 
L 822.98166 164.689091 
L 826.465728 164.689091 
L 829.949796 135.129961 
L 833.433864 112.72994 
" style="fill:none;stroke:#bfbf00;stroke-linecap:square;stroke-width:1.5;"/>
   </g>
   <g id="patch_8">
    <path d="M 471.265 171.32 
L 471.265 25.44 
" style="fill:none;stroke:#000000;stroke-linecap:square;stroke-linejoin:miter;stroke-width:0.8;"/>
   </g>
   <g id="patch_9">
    <path d="M 850.68 171.32 
L 850.68 25.44 
" style="fill:none;stroke:#000000;stroke-linecap:square;stroke-linejoin:miter;stroke-width:0.8;"/>
   </g>
   <g id="patch_10">
    <path d="M 471.265 171.32 
L 850.68 171.32 
" style="fill:none;stroke:#000000;stroke-linecap:square;stroke-linejoin:miter;stroke-width:0.8;"/>
   </g>
   <g id="patch_11">
    <path d="M 471.265 25.44 
L 850.68 25.44 
" style="fill:none;stroke:#000000;stroke-linecap:square;stroke-linejoin:miter;stroke-width:0.8;"/>
   </g>
   <g id="text_24">
    <!-- Input signal 2 -->
    <g transform="translate(620.057187 19.44)scale(0.12 -0.12)">
     <use xlink:href="#DejaVuSans-73"/>
     <use x="29.492188" xlink:href="#DejaVuSans-110"/>
     <use x="92.871094" xlink:href="#DejaVuSans-112"/>
     <use x="156.347656" xlink:href="#DejaVuSans-117"/>
     <use x="219.726562" xlink:href="#DejaVuSans-116"/>
     <use x="258.935547" xlink:href="#DejaVuSans-32"/>
     <use x="290.722656" xlink:href="#DejaVuSans-115"/>
     <use x="342.822266" xlink:href="#DejaVuSans-105"/>
     <use x="370.605469" xlink:href="#DejaVuSans-103"/>
     <use x="434.082031" xlink:href="#DejaVuSans-110"/>
     <use x="497.460938" xlink:href="#DejaVuSans-97"/>
     <use x="558.740234" xlink:href="#DejaVuSans-108"/>
     <use x="586.523438" xlink:href="#DejaVuSans-32"/>
     <use x="618.310547" xlink:href="#DejaVuSans-50"/>
    </g>
   </g>
  </g>
  <g id="axes_3">
   <g id="patch_12">
    <path d="M 46.33 359.72 
L 284.1 359.72 
L 284.1 213.84 
L 46.33 213.84 
z
" style="fill:#ffffff;"/>
   </g>
   <g id="matplotlib.axis_5">
    <g id="xtick_13">
     <g id="line2d_25">
      <g>
       <use style="stroke:#000000;stroke-width:0.8;" x="57.137727" xlink:href="#m773eff557c" y="359.72"/>
      </g>
     </g>
     <g id="text_25">
      <!-- 0 -->
      <g transform="translate(53.956477 374.318438)scale(0.1 -0.1)">
       <use xlink:href="#DejaVuSans-48"/>
      </g>
     </g>
    </g>
    <g id="xtick_14">
     <g id="line2d_26">
      <g>
       <use style="stroke:#000000;stroke-width:0.8;" x="100.805312" xlink:href="#m773eff557c" y="359.72"/>
      </g>
     </g>
     <g id="text_26">
      <!-- 20 -->
      <g transform="translate(94.442812 374.318438)scale(0.1 -0.1)">
       <use xlink:href="#DejaVuSans-50"/>
       <use x="63.623047" xlink:href="#DejaVuSans-48"/>
      </g>
     </g>
    </g>
    <g id="xtick_15">
     <g id="line2d_27">
      <g>
       <use style="stroke:#000000;stroke-width:0.8;" x="144.472897" xlink:href="#m773eff557c" y="359.72"/>
      </g>
     </g>
     <g id="text_27">
      <!-- 40 -->
      <g transform="translate(138.110397 374.318438)scale(0.1 -0.1)">
       <use xlink:href="#DejaVuSans-52"/>
       <use x="63.623047" xlink:href="#DejaVuSans-48"/>
      </g>
     </g>
    </g>
    <g id="xtick_16">
     <g id="line2d_28">
      <g>
       <use style="stroke:#000000;stroke-width:0.8;" x="188.140482" xlink:href="#m773eff557c" y="359.72"/>
      </g>
     </g>
     <g id="text_28">
      <!-- 60 -->
      <g transform="translate(181.777982 374.318438)scale(0.1 -0.1)">
       <use xlink:href="#DejaVuSans-54"/>
       <use x="63.623047" xlink:href="#DejaVuSans-48"/>
      </g>
     </g>
    </g>
    <g id="xtick_17">
     <g id="line2d_29">
      <g>
       <use style="stroke:#000000;stroke-width:0.8;" x="231.808067" xlink:href="#m773eff557c" y="359.72"/>
      </g>
     </g>
     <g id="text_29">
      <!-- 80 -->
      <g transform="translate(225.445567 374.318438)scale(0.1 -0.1)">
       <use xlink:href="#DejaVuSans-56"/>
       <use x="63.623047" xlink:href="#DejaVuSans-48"/>
      </g>
     </g>
    </g>
    <g id="xtick_18">
     <g id="line2d_30">
      <g>
       <use style="stroke:#000000;stroke-width:0.8;" x="275.475652" xlink:href="#m773eff557c" y="359.72"/>
      </g>
     </g>
     <g id="text_30">
      <!-- 100 -->
      <g transform="translate(265.931902 374.318438)scale(0.1 -0.1)">
       <use xlink:href="#DejaVuSans-49"/>
       <use x="63.623047" xlink:href="#DejaVuSans-48"/>
       <use x="127.246094" xlink:href="#DejaVuSans-48"/>
      </g>
     </g>
    </g>
   </g>
   <g id="matplotlib.axis_6">
    <g id="ytick_11">
     <g id="line2d_31">
      <g>
       <use style="stroke:#000000;stroke-width:0.8;" x="46.33" xlink:href="#mfd3d3cbfa1" y="353.089091"/>
      </g>
     </g>
     <g id="text_31">
      <!-- 0.00 -->
      <g transform="translate(17.064375 356.88831)scale(0.1 -0.1)">
       <use xlink:href="#DejaVuSans-48"/>
       <use x="63.623047" xlink:href="#DejaVuSans-46"/>
       <use x="95.410156" xlink:href="#DejaVuSans-48"/>
       <use x="159.033203" xlink:href="#DejaVuSans-48"/>
      </g>
     </g>
    </g>
    <g id="ytick_12">
     <g id="line2d_32">
      <g>
       <use style="stroke:#000000;stroke-width:0.8;" x="46.33" xlink:href="#mfd3d3cbfa1" y="332.138526"/>
      </g>
     </g>
     <g id="text_32">
      <!-- 0.02 -->
      <g transform="translate(17.064375 335.937745)scale(0.1 -0.1)">
       <use xlink:href="#DejaVuSans-48"/>
       <use x="63.623047" xlink:href="#DejaVuSans-46"/>
       <use x="95.410156" xlink:href="#DejaVuSans-48"/>
       <use x="159.033203" xlink:href="#DejaVuSans-50"/>
      </g>
     </g>
    </g>
    <g id="ytick_13">
     <g id="line2d_33">
      <g>
       <use style="stroke:#000000;stroke-width:0.8;" x="46.33" xlink:href="#mfd3d3cbfa1" y="311.187961"/>
      </g>
     </g>
     <g id="text_33">
      <!-- 0.04 -->
      <g transform="translate(17.064375 314.98718)scale(0.1 -0.1)">
       <use xlink:href="#DejaVuSans-48"/>
       <use x="63.623047" xlink:href="#DejaVuSans-46"/>
       <use x="95.410156" xlink:href="#DejaVuSans-48"/>
       <use x="159.033203" xlink:href="#DejaVuSans-52"/>
      </g>
     </g>
    </g>
    <g id="ytick_14">
     <g id="line2d_34">
      <g>
       <use style="stroke:#000000;stroke-width:0.8;" x="46.33" xlink:href="#mfd3d3cbfa1" y="290.237397"/>
      </g>
     </g>
     <g id="text_34">
      <!-- 0.06 -->
      <g transform="translate(17.064375 294.036615)scale(0.1 -0.1)">
       <use xlink:href="#DejaVuSans-48"/>
       <use x="63.623047" xlink:href="#DejaVuSans-46"/>
       <use x="95.410156" xlink:href="#DejaVuSans-48"/>
       <use x="159.033203" xlink:href="#DejaVuSans-54"/>
      </g>
     </g>
    </g>
    <g id="ytick_15">
     <g id="line2d_35">
      <g>
       <use style="stroke:#000000;stroke-width:0.8;" x="46.33" xlink:href="#mfd3d3cbfa1" y="269.286832"/>
      </g>
     </g>
     <g id="text_35">
      <!-- 0.08 -->
      <g transform="translate(17.064375 273.08605)scale(0.1 -0.1)">
       <use xlink:href="#DejaVuSans-48"/>
       <use x="63.623047" xlink:href="#DejaVuSans-46"/>
       <use x="95.410156" xlink:href="#DejaVuSans-48"/>
       <use x="159.033203" xlink:href="#DejaVuSans-56"/>
      </g>
     </g>
    </g>
    <g id="ytick_16">
     <g id="line2d_36">
      <g>
       <use style="stroke:#000000;stroke-width:0.8;" x="46.33" xlink:href="#mfd3d3cbfa1" y="248.336267"/>
      </g>
     </g>
     <g id="text_36">
      <!-- 0.10 -->
      <g transform="translate(17.064375 252.135486)scale(0.1 -0.1)">
       <use xlink:href="#DejaVuSans-48"/>
       <use x="63.623047" xlink:href="#DejaVuSans-46"/>
       <use x="95.410156" xlink:href="#DejaVuSans-49"/>
       <use x="159.033203" xlink:href="#DejaVuSans-48"/>
      </g>
     </g>
    </g>
    <g id="ytick_17">
     <g id="line2d_37">
      <g>
       <use style="stroke:#000000;stroke-width:0.8;" x="46.33" xlink:href="#mfd3d3cbfa1" y="227.385702"/>
      </g>
     </g>
     <g id="text_37">
      <!-- 0.12 -->
      <g transform="translate(17.064375 231.184921)scale(0.1 -0.1)">
       <use xlink:href="#DejaVuSans-48"/>
       <use x="63.623047" xlink:href="#DejaVuSans-46"/>
       <use x="95.410156" xlink:href="#DejaVuSans-49"/>
       <use x="159.033203" xlink:href="#DejaVuSans-50"/>
      </g>
     </g>
    </g>
   </g>
   <g id="line2d_38">
    <path clip-path="url(#pfcd6caa7b7)" d="M 57.137727 353.089091 
L 59.321107 353.089091 
L 61.504486 353.089091 
L 63.687865 220.470909 
L 65.871244 353.089091 
L 68.054624 353.089091 
L 70.238003 353.089091 
L 72.421382 353.089091 
L 74.604761 353.089091 
L 76.78814 353.089091 
L 78.97152 353.089091 
L 81.154899 353.089091 
L 83.338278 276.356984 
L 85.521657 353.089091 
L 87.705037 353.089091 
L 89.888416 353.089091 
L 92.071795 353.089091 
L 94.255174 353.089091 
L 96.438554 282.159702 
L 98.621933 353.089091 
L 100.805312 353.089091 
L 102.988691 353.089091 
L 105.172071 353.089091 
L 107.35545 353.089091 
L 109.538829 353.089091 
L 111.722208 341.007802 
L 113.905588 353.089091 
L 116.088967 353.089091 
L 118.272346 353.089091 
L 120.455725 353.089091 
L 122.639105 353.089091 
L 124.822484 295.73856 
L 127.005863 353.089091 
L 129.189242 353.089091 
L 131.372622 353.089091 
L 133.556001 353.089091 
L 135.73938 353.089091 
L 137.922759 353.089091 
L 140.106139 353.089091 
L 142.289518 353.089091 
L 144.472897 353.089091 
L 146.656276 353.089091 
L 148.839656 353.089091 
L 151.023035 353.089091 
L 153.206414 353.089091 
L 155.389793 353.089091 
L 157.573173 343.986379 
L 159.756552 353.089091 
L 161.939931 353.089091 
L 164.12331 285.911749 
L 166.30669 318.959772 
L 168.490069 353.089091 
L 170.673448 353.089091 
L 172.856827 353.089091 
L 175.040207 231.652419 
L 177.223586 353.089091 
L 179.406965 353.089091 
L 181.590344 353.089091 
L 183.773724 353.089091 
L 185.957103 353.089091 
L 188.140482 353.089091 
L 190.323861 353.089091 
L 192.507241 275.908549 
L 194.69062 353.089091 
L 196.873999 353.089091 
L 199.057378 353.089091 
L 201.240758 353.089091 
L 203.424137 353.089091 
L 205.607516 353.089091 
L 207.790895 353.089091 
L 209.974275 353.089091 
L 212.157654 353.089091 
L 214.341033 353.089091 
L 216.524412 353.089091 
L 218.707792 353.089091 
L 220.891171 353.089091 
L 223.07455 284.535769 
L 225.257929 353.089091 
L 227.441309 254.481455 
L 229.624688 353.089091 
L 231.808067 353.089091 
L 233.991446 348.410886 
L 236.174826 353.089091 
L 238.358205 353.089091 
L 240.541584 353.089091 
L 242.724963 353.089091 
L 244.908343 353.089091 
L 247.091722 315.412868 
L 249.275101 293.776441 
L 251.45848 353.089091 
L 253.64186 353.089091 
L 255.825239 299.431853 
L 258.008618 286.784208 
L 260.191997 353.089091 
L 262.375376 353.089091 
L 264.558756 353.089091 
L 266.742135 353.089091 
L 268.925514 353.089091 
L 271.108893 353.089091 
L 273.292273 353.089091 
" style="fill:none;stroke:#bfbf00;stroke-linecap:square;stroke-width:1.5;"/>
   </g>
   <g id="patch_13">
    <path d="M 46.33 359.72 
L 46.33 213.84 
" style="fill:none;stroke:#000000;stroke-linecap:square;stroke-linejoin:miter;stroke-width:0.8;"/>
   </g>
   <g id="patch_14">
    <path d="M 284.1 359.72 
L 284.1 213.84 
" style="fill:none;stroke:#000000;stroke-linecap:square;stroke-linejoin:miter;stroke-width:0.8;"/>
   </g>
   <g id="patch_15">
    <path d="M 46.33 359.72 
L 284.1 359.72 
" style="fill:none;stroke:#000000;stroke-linecap:square;stroke-linejoin:miter;stroke-width:0.8;"/>
   </g>
   <g id="patch_16">
    <path d="M 46.33 213.84 
L 284.1 213.84 
" style="fill:none;stroke:#000000;stroke-linecap:square;stroke-linejoin:miter;stroke-width:0.8;"/>
   </g>
   <g id="text_38">
    <!-- Input signal 3 -->
    <defs>
     <path d="M 40.578125 39.3125 
Q 47.65625 37.796875 51.625 33 
Q 55.609375 28.21875 55.609375 21.1875 
Q 55.609375 10.40625 48.1875 4.484375 
Q 40.765625 -1.421875 27.09375 -1.421875 
Q 22.515625 -1.421875 17.65625 -0.515625 
Q 12.796875 0.390625 7.625 2.203125 
L 7.625 11.71875 
Q 11.71875 9.328125 16.59375 8.109375 
Q 21.484375 6.890625 26.8125 6.890625 
Q 36.078125 6.890625 40.9375 10.546875 
Q 45.796875 14.203125 45.796875 21.1875 
Q 45.796875 27.640625 41.28125 31.265625 
Q 36.765625 34.90625 28.71875 34.90625 
L 20.21875 34.90625 
L 20.21875 43.015625 
L 29.109375 43.015625 
Q 36.375 43.015625 40.234375 45.921875 
Q 44.09375 48.828125 44.09375 54.296875 
Q 44.09375 59.90625 40.109375 62.90625 
Q 36.140625 65.921875 28.71875 65.921875 
Q 24.65625 65.921875 20.015625 65.03125 
Q 15.375 64.15625 9.8125 62.3125 
L 9.8125 71.09375 
Q 15.4375 72.65625 20.34375 73.4375 
Q 25.25 74.21875 29.59375 74.21875 
Q 40.828125 74.21875 47.359375 69.109375 
Q 53.90625 64.015625 53.90625 55.328125 
Q 53.90625 49.265625 50.4375 45.09375 
Q 46.96875 40.921875 40.578125 39.3125 
z
" id="DejaVuSans-51"/>
    </defs>
    <g transform="translate(124.299688 207.84)scale(0.12 -0.12)">
     <use xlink:href="#DejaVuSans-73"/>
     <use x="29.492188" xlink:href="#DejaVuSans-110"/>
     <use x="92.871094" xlink:href="#DejaVuSans-112"/>
     <use x="156.347656" xlink:href="#DejaVuSans-117"/>
     <use x="219.726562" xlink:href="#DejaVuSans-116"/>
     <use x="258.935547" xlink:href="#DejaVuSans-32"/>
     <use x="290.722656" xlink:href="#DejaVuSans-115"/>
     <use x="342.822266" xlink:href="#DejaVuSans-105"/>
     <use x="370.605469" xlink:href="#DejaVuSans-103"/>
     <use x="434.082031" xlink:href="#DejaVuSans-110"/>
     <use x="497.460938" xlink:href="#DejaVuSans-97"/>
     <use x="558.740234" xlink:href="#DejaVuSans-108"/>
     <use x="586.523438" xlink:href="#DejaVuSans-32"/>
     <use x="618.310547" xlink:href="#DejaVuSans-51"/>
    </g>
   </g>
  </g>
  <g id="axes_4">
   <g id="patch_17">
    <path d="M 329.62 359.72 
L 567.39 359.72 
L 567.39 213.84 
L 329.62 213.84 
z
" style="fill:#ffffff;"/>
   </g>
   <g id="matplotlib.axis_7">
    <g id="xtick_19">
     <g id="line2d_39">
      <g>
       <use style="stroke:#000000;stroke-width:0.8;" x="340.427727" xlink:href="#m773eff557c" y="359.72"/>
      </g>
     </g>
     <g id="text_39">
      <!-- 0 -->
      <g transform="translate(337.246477 374.318438)scale(0.1 -0.1)">
       <use xlink:href="#DejaVuSans-48"/>
      </g>
     </g>
    </g>
    <g id="xtick_20">
     <g id="line2d_40">
      <g>
       <use style="stroke:#000000;stroke-width:0.8;" x="384.095312" xlink:href="#m773eff557c" y="359.72"/>
      </g>
     </g>
     <g id="text_40">
      <!-- 20 -->
      <g transform="translate(377.732812 374.318438)scale(0.1 -0.1)">
       <use xlink:href="#DejaVuSans-50"/>
       <use x="63.623047" xlink:href="#DejaVuSans-48"/>
      </g>
     </g>
    </g>
    <g id="xtick_21">
     <g id="line2d_41">
      <g>
       <use style="stroke:#000000;stroke-width:0.8;" x="427.762897" xlink:href="#m773eff557c" y="359.72"/>
      </g>
     </g>
     <g id="text_41">
      <!-- 40 -->
      <g transform="translate(421.400397 374.318438)scale(0.1 -0.1)">
       <use xlink:href="#DejaVuSans-52"/>
       <use x="63.623047" xlink:href="#DejaVuSans-48"/>
      </g>
     </g>
    </g>
    <g id="xtick_22">
     <g id="line2d_42">
      <g>
       <use style="stroke:#000000;stroke-width:0.8;" x="471.430482" xlink:href="#m773eff557c" y="359.72"/>
      </g>
     </g>
     <g id="text_42">
      <!-- 60 -->
      <g transform="translate(465.067982 374.318438)scale(0.1 -0.1)">
       <use xlink:href="#DejaVuSans-54"/>
       <use x="63.623047" xlink:href="#DejaVuSans-48"/>
      </g>
     </g>
    </g>
    <g id="xtick_23">
     <g id="line2d_43">
      <g>
       <use style="stroke:#000000;stroke-width:0.8;" x="515.098067" xlink:href="#m773eff557c" y="359.72"/>
      </g>
     </g>
     <g id="text_43">
      <!-- 80 -->
      <g transform="translate(508.735567 374.318438)scale(0.1 -0.1)">
       <use xlink:href="#DejaVuSans-56"/>
       <use x="63.623047" xlink:href="#DejaVuSans-48"/>
      </g>
     </g>
    </g>
    <g id="xtick_24">
     <g id="line2d_44">
      <g>
       <use style="stroke:#000000;stroke-width:0.8;" x="558.765652" xlink:href="#m773eff557c" y="359.72"/>
      </g>
     </g>
     <g id="text_44">
      <!-- 100 -->
      <g transform="translate(549.221902 374.318438)scale(0.1 -0.1)">
       <use xlink:href="#DejaVuSans-49"/>
       <use x="63.623047" xlink:href="#DejaVuSans-48"/>
       <use x="127.246094" xlink:href="#DejaVuSans-48"/>
      </g>
     </g>
    </g>
   </g>
   <g id="matplotlib.axis_8">
    <g id="ytick_18">
     <g id="line2d_45">
      <g>
       <use style="stroke:#000000;stroke-width:0.8;" x="329.62" xlink:href="#mfd3d3cbfa1" y="353.089091"/>
      </g>
     </g>
     <g id="text_45">
      <!-- 0.00 -->
      <g transform="translate(300.354375 356.88831)scale(0.1 -0.1)">
       <use xlink:href="#DejaVuSans-48"/>
       <use x="63.623047" xlink:href="#DejaVuSans-46"/>
       <use x="95.410156" xlink:href="#DejaVuSans-48"/>
       <use x="159.033203" xlink:href="#DejaVuSans-48"/>
      </g>
     </g>
    </g>
    <g id="ytick_19">
     <g id="line2d_46">
      <g>
       <use style="stroke:#000000;stroke-width:0.8;" x="329.62" xlink:href="#mfd3d3cbfa1" y="320.775387"/>
      </g>
     </g>
     <g id="text_46">
      <!-- 0.02 -->
      <g transform="translate(300.354375 324.574605)scale(0.1 -0.1)">
       <use xlink:href="#DejaVuSans-48"/>
       <use x="63.623047" xlink:href="#DejaVuSans-46"/>
       <use x="95.410156" xlink:href="#DejaVuSans-48"/>
       <use x="159.033203" xlink:href="#DejaVuSans-50"/>
      </g>
     </g>
    </g>
    <g id="ytick_20">
     <g id="line2d_47">
      <g>
       <use style="stroke:#000000;stroke-width:0.8;" x="329.62" xlink:href="#mfd3d3cbfa1" y="288.461682"/>
      </g>
     </g>
     <g id="text_47">
      <!-- 0.04 -->
      <g transform="translate(300.354375 292.260901)scale(0.1 -0.1)">
       <use xlink:href="#DejaVuSans-48"/>
       <use x="63.623047" xlink:href="#DejaVuSans-46"/>
       <use x="95.410156" xlink:href="#DejaVuSans-48"/>
       <use x="159.033203" xlink:href="#DejaVuSans-52"/>
      </g>
     </g>
    </g>
    <g id="ytick_21">
     <g id="line2d_48">
      <g>
       <use style="stroke:#000000;stroke-width:0.8;" x="329.62" xlink:href="#mfd3d3cbfa1" y="256.147978"/>
      </g>
     </g>
     <g id="text_48">
      <!-- 0.06 -->
      <g transform="translate(300.354375 259.947197)scale(0.1 -0.1)">
       <use xlink:href="#DejaVuSans-48"/>
       <use x="63.623047" xlink:href="#DejaVuSans-46"/>
       <use x="95.410156" xlink:href="#DejaVuSans-48"/>
       <use x="159.033203" xlink:href="#DejaVuSans-54"/>
      </g>
     </g>
    </g>
    <g id="ytick_22">
     <g id="line2d_49">
      <g>
       <use style="stroke:#000000;stroke-width:0.8;" x="329.62" xlink:href="#mfd3d3cbfa1" y="223.834274"/>
      </g>
     </g>
     <g id="text_49">
      <!-- 0.08 -->
      <g transform="translate(300.354375 227.633492)scale(0.1 -0.1)">
       <use xlink:href="#DejaVuSans-48"/>
       <use x="63.623047" xlink:href="#DejaVuSans-46"/>
       <use x="95.410156" xlink:href="#DejaVuSans-48"/>
       <use x="159.033203" xlink:href="#DejaVuSans-56"/>
      </g>
     </g>
    </g>
   </g>
   <g id="line2d_50">
    <path clip-path="url(#pd874210b64)" d="M 340.427727 353.089091 
L 342.611107 353.089091 
L 344.794486 353.089091 
L 346.977865 353.089091 
L 349.161244 237.0177 
L 351.344624 353.089091 
L 353.528003 353.089091 
L 355.711382 353.089091 
L 357.894761 353.089091 
L 360.07814 253.459439 
L 362.26152 228.133488 
L 364.444899 310.212935 
L 366.628278 353.089091 
L 368.811657 353.089091 
L 370.995037 353.089091 
L 373.178416 353.089091 
L 375.361795 353.089091 
L 377.545174 353.089091 
L 379.728554 353.089091 
L 381.911933 353.089091 
L 384.095312 260.680012 
L 386.278691 353.089091 
L 388.462071 235.887544 
L 390.64545 259.563957 
L 392.828829 353.089091 
L 395.012208 353.089091 
L 397.195588 353.089091 
L 399.378967 353.089091 
L 401.562346 353.089091 
L 403.745725 353.089091 
L 405.929105 233.534387 
L 408.112484 353.089091 
L 410.295863 353.089091 
L 412.479242 353.089091 
L 414.662622 353.089091 
L 416.846001 341.962535 
L 419.02938 353.089091 
L 421.212759 353.089091 
L 423.396139 353.089091 
L 425.579518 348.95924 
L 427.762897 353.089091 
L 429.946276 353.089091 
L 432.129656 353.089091 
L 434.313035 353.089091 
L 436.496414 353.089091 
L 438.679793 353.089091 
L 440.863173 353.089091 
L 443.046552 353.089091 
L 445.229931 308.363307 
L 447.41331 353.089091 
L 449.59669 353.089091 
L 451.780069 353.089091 
L 453.963448 353.089091 
L 456.146827 223.454928 
L 458.330207 353.089091 
L 460.513586 353.089091 
L 462.696965 288.304647 
L 464.880344 353.089091 
L 467.063724 353.089091 
L 469.247103 229.083554 
L 471.430482 353.089091 
L 473.613861 353.089091 
L 475.797241 353.089091 
L 477.98062 353.089091 
L 480.163999 353.089091 
L 482.347378 353.089091 
L 484.530758 353.089091 
L 486.714137 353.089091 
L 488.897516 353.089091 
L 491.080895 353.089091 
L 493.264275 314.503095 
L 495.447654 220.470909 
L 497.631033 257.989194 
L 499.814412 353.089091 
L 501.997792 353.089091 
L 504.181171 353.089091 
L 506.36455 353.089091 
L 508.547929 353.089091 
L 510.731309 353.089091 
L 512.914688 353.089091 
L 515.098067 353.089091 
L 517.281446 353.089091 
L 519.464826 319.533944 
L 521.648205 353.089091 
L 523.831584 244.762317 
L 526.014963 353.089091 
L 528.198343 353.089091 
L 530.381722 353.089091 
L 532.565101 353.089091 
L 534.74848 353.089091 
L 536.93186 353.089091 
L 539.115239 353.089091 
L 541.298618 353.089091 
L 543.481997 353.089091 
L 545.665376 353.089091 
L 547.848756 353.089091 
L 550.032135 330.21947 
L 552.215514 353.089091 
L 554.398893 353.089091 
L 556.582273 353.089091 
" style="fill:none;stroke:#bfbf00;stroke-linecap:square;stroke-width:1.5;"/>
   </g>
   <g id="patch_18">
    <path d="M 329.62 359.72 
L 329.62 213.84 
" style="fill:none;stroke:#000000;stroke-linecap:square;stroke-linejoin:miter;stroke-width:0.8;"/>
   </g>
   <g id="patch_19">
    <path d="M 567.39 359.72 
L 567.39 213.84 
" style="fill:none;stroke:#000000;stroke-linecap:square;stroke-linejoin:miter;stroke-width:0.8;"/>
   </g>
   <g id="patch_20">
    <path d="M 329.62 359.72 
L 567.39 359.72 
" style="fill:none;stroke:#000000;stroke-linecap:square;stroke-linejoin:miter;stroke-width:0.8;"/>
   </g>
   <g id="patch_21">
    <path d="M 329.62 213.84 
L 567.39 213.84 
" style="fill:none;stroke:#000000;stroke-linecap:square;stroke-linejoin:miter;stroke-width:0.8;"/>
   </g>
   <g id="text_50">
    <!-- Input signal 4 -->
    <g transform="translate(407.589687 207.84)scale(0.12 -0.12)">
     <use xlink:href="#DejaVuSans-73"/>
     <use x="29.492188" xlink:href="#DejaVuSans-110"/>
     <use x="92.871094" xlink:href="#DejaVuSans-112"/>
     <use x="156.347656" xlink:href="#DejaVuSans-117"/>
     <use x="219.726562" xlink:href="#DejaVuSans-116"/>
     <use x="258.935547" xlink:href="#DejaVuSans-32"/>
     <use x="290.722656" xlink:href="#DejaVuSans-115"/>
     <use x="342.822266" xlink:href="#DejaVuSans-105"/>
     <use x="370.605469" xlink:href="#DejaVuSans-103"/>
     <use x="434.082031" xlink:href="#DejaVuSans-110"/>
     <use x="497.460938" xlink:href="#DejaVuSans-97"/>
     <use x="558.740234" xlink:href="#DejaVuSans-108"/>
     <use x="586.523438" xlink:href="#DejaVuSans-32"/>
     <use x="618.310547" xlink:href="#DejaVuSans-52"/>
    </g>
   </g>
  </g>
  <g id="axes_5">
   <g id="patch_22">
    <path d="M 612.91 359.72 
L 850.68 359.72 
L 850.68 213.84 
L 612.91 213.84 
z
" style="fill:#ffffff;"/>
   </g>
   <g id="matplotlib.axis_9">
    <g id="xtick_25">
     <g id="line2d_51">
      <g>
       <use style="stroke:#000000;stroke-width:0.8;" x="623.717727" xlink:href="#m773eff557c" y="359.72"/>
      </g>
     </g>
     <g id="text_51">
      <!-- 0 -->
      <g transform="translate(620.536477 374.318438)scale(0.1 -0.1)">
       <use xlink:href="#DejaVuSans-48"/>
      </g>
     </g>
    </g>
    <g id="xtick_26">
     <g id="line2d_52">
      <g>
       <use style="stroke:#000000;stroke-width:0.8;" x="667.385312" xlink:href="#m773eff557c" y="359.72"/>
      </g>
     </g>
     <g id="text_52">
      <!-- 20 -->
      <g transform="translate(661.022812 374.318438)scale(0.1 -0.1)">
       <use xlink:href="#DejaVuSans-50"/>
       <use x="63.623047" xlink:href="#DejaVuSans-48"/>
      </g>
     </g>
    </g>
    <g id="xtick_27">
     <g id="line2d_53">
      <g>
       <use style="stroke:#000000;stroke-width:0.8;" x="711.052897" xlink:href="#m773eff557c" y="359.72"/>
      </g>
     </g>
     <g id="text_53">
      <!-- 40 -->
      <g transform="translate(704.690397 374.318438)scale(0.1 -0.1)">
       <use xlink:href="#DejaVuSans-52"/>
       <use x="63.623047" xlink:href="#DejaVuSans-48"/>
      </g>
     </g>
    </g>
    <g id="xtick_28">
     <g id="line2d_54">
      <g>
       <use style="stroke:#000000;stroke-width:0.8;" x="754.720482" xlink:href="#m773eff557c" y="359.72"/>
      </g>
     </g>
     <g id="text_54">
      <!-- 60 -->
      <g transform="translate(748.357982 374.318438)scale(0.1 -0.1)">
       <use xlink:href="#DejaVuSans-54"/>
       <use x="63.623047" xlink:href="#DejaVuSans-48"/>
      </g>
     </g>
    </g>
    <g id="xtick_29">
     <g id="line2d_55">
      <g>
       <use style="stroke:#000000;stroke-width:0.8;" x="798.388067" xlink:href="#m773eff557c" y="359.72"/>
      </g>
     </g>
     <g id="text_55">
      <!-- 80 -->
      <g transform="translate(792.025567 374.318438)scale(0.1 -0.1)">
       <use xlink:href="#DejaVuSans-56"/>
       <use x="63.623047" xlink:href="#DejaVuSans-48"/>
      </g>
     </g>
    </g>
    <g id="xtick_30">
     <g id="line2d_56">
      <g>
       <use style="stroke:#000000;stroke-width:0.8;" x="842.055652" xlink:href="#m773eff557c" y="359.72"/>
      </g>
     </g>
     <g id="text_56">
      <!-- 100 -->
      <g transform="translate(832.511902 374.318438)scale(0.1 -0.1)">
       <use xlink:href="#DejaVuSans-49"/>
       <use x="63.623047" xlink:href="#DejaVuSans-48"/>
       <use x="127.246094" xlink:href="#DejaVuSans-48"/>
      </g>
     </g>
    </g>
   </g>
   <g id="matplotlib.axis_10">
    <g id="ytick_23">
     <g id="line2d_57">
      <g>
       <use style="stroke:#000000;stroke-width:0.8;" x="612.91" xlink:href="#mfd3d3cbfa1" y="353.089091"/>
      </g>
     </g>
     <g id="text_57">
      <!-- 0.00 -->
      <g transform="translate(583.644375 356.88831)scale(0.1 -0.1)">
       <use xlink:href="#DejaVuSans-48"/>
       <use x="63.623047" xlink:href="#DejaVuSans-46"/>
       <use x="95.410156" xlink:href="#DejaVuSans-48"/>
       <use x="159.033203" xlink:href="#DejaVuSans-48"/>
      </g>
     </g>
    </g>
    <g id="ytick_24">
     <g id="line2d_58">
      <g>
       <use style="stroke:#000000;stroke-width:0.8;" x="612.91" xlink:href="#mfd3d3cbfa1" y="326.518614"/>
      </g>
     </g>
     <g id="text_58">
      <!-- 0.02 -->
      <g transform="translate(583.644375 330.317832)scale(0.1 -0.1)">
       <use xlink:href="#DejaVuSans-48"/>
       <use x="63.623047" xlink:href="#DejaVuSans-46"/>
       <use x="95.410156" xlink:href="#DejaVuSans-48"/>
       <use x="159.033203" xlink:href="#DejaVuSans-50"/>
      </g>
     </g>
    </g>
    <g id="ytick_25">
     <g id="line2d_59">
      <g>
       <use style="stroke:#000000;stroke-width:0.8;" x="612.91" xlink:href="#mfd3d3cbfa1" y="299.948136"/>
      </g>
     </g>
     <g id="text_59">
      <!-- 0.04 -->
      <g transform="translate(583.644375 303.747355)scale(0.1 -0.1)">
       <use xlink:href="#DejaVuSans-48"/>
       <use x="63.623047" xlink:href="#DejaVuSans-46"/>
       <use x="95.410156" xlink:href="#DejaVuSans-48"/>
       <use x="159.033203" xlink:href="#DejaVuSans-52"/>
      </g>
     </g>
    </g>
    <g id="ytick_26">
     <g id="line2d_60">
      <g>
       <use style="stroke:#000000;stroke-width:0.8;" x="612.91" xlink:href="#mfd3d3cbfa1" y="273.377659"/>
      </g>
     </g>
     <g id="text_60">
      <!-- 0.06 -->
      <g transform="translate(583.644375 277.176878)scale(0.1 -0.1)">
       <use xlink:href="#DejaVuSans-48"/>
       <use x="63.623047" xlink:href="#DejaVuSans-46"/>
       <use x="95.410156" xlink:href="#DejaVuSans-48"/>
       <use x="159.033203" xlink:href="#DejaVuSans-54"/>
      </g>
     </g>
    </g>
    <g id="ytick_27">
     <g id="line2d_61">
      <g>
       <use style="stroke:#000000;stroke-width:0.8;" x="612.91" xlink:href="#mfd3d3cbfa1" y="246.807182"/>
      </g>
     </g>
     <g id="text_61">
      <!-- 0.08 -->
      <g transform="translate(583.644375 250.6064)scale(0.1 -0.1)">
       <use xlink:href="#DejaVuSans-48"/>
       <use x="63.623047" xlink:href="#DejaVuSans-46"/>
       <use x="95.410156" xlink:href="#DejaVuSans-48"/>
       <use x="159.033203" xlink:href="#DejaVuSans-56"/>
      </g>
     </g>
    </g>
    <g id="ytick_28">
     <g id="line2d_62">
      <g>
       <use style="stroke:#000000;stroke-width:0.8;" x="612.91" xlink:href="#mfd3d3cbfa1" y="220.236704"/>
      </g>
     </g>
     <g id="text_62">
      <!-- 0.10 -->
      <g transform="translate(583.644375 224.035923)scale(0.1 -0.1)">
       <use xlink:href="#DejaVuSans-48"/>
       <use x="63.623047" xlink:href="#DejaVuSans-46"/>
       <use x="95.410156" xlink:href="#DejaVuSans-49"/>
       <use x="159.033203" xlink:href="#DejaVuSans-48"/>
      </g>
     </g>
    </g>
   </g>
   <g id="line2d_63">
    <path clip-path="url(#pfb00956315)" d="M 623.717727 315.316591 
L 625.901107 289.066931 
L 628.084486 231.573135 
L 630.267865 353.089091 
L 632.451244 353.089091 
L 634.634624 353.089091 
L 636.818003 353.089091 
L 639.001382 353.089091 
L 641.184761 353.089091 
L 643.36814 353.089091 
L 645.55152 353.089091 
L 647.734899 353.089091 
L 649.918278 353.089091 
L 652.101657 353.089091 
L 654.285037 353.089091 
L 656.468416 353.089091 
L 658.651795 353.089091 
L 660.835174 353.089091 
L 663.018554 353.089091 
L 665.201933 353.089091 
L 667.385312 353.089091 
L 669.568691 353.089091 
L 671.752071 353.089091 
L 673.93545 353.089091 
L 676.118829 353.089091 
L 678.302208 353.089091 
L 680.485588 353.089091 
L 682.668967 353.089091 
L 684.852346 353.089091 
L 687.035725 353.089091 
L 689.219105 353.089091 
L 691.402484 353.089091 
L 693.585863 293.747422 
L 695.769242 353.089091 
L 697.952622 353.089091 
L 700.136001 353.089091 
L 702.31938 244.856483 
L 704.502759 353.089091 
L 706.686139 303.004954 
L 708.869518 353.089091 
L 711.052897 220.470909 
L 713.236276 336.377382 
L 715.419656 353.089091 
L 717.603035 353.089091 
L 719.786414 315.599055 
L 721.969793 337.014303 
L 724.153173 353.089091 
L 726.336552 332.17004 
L 728.519931 353.089091 
L 730.70331 353.089091 
L 732.88669 353.089091 
L 735.070069 353.089091 
L 737.253448 353.089091 
L 739.436827 353.089091 
L 741.620207 353.089091 
L 743.803586 353.089091 
L 745.986965 353.089091 
L 748.170344 353.089091 
L 750.353724 353.089091 
L 752.537103 353.089091 
L 754.720482 327.022536 
L 756.903861 327.41219 
L 759.087241 353.089091 
L 761.27062 244.478236 
L 763.453999 353.089091 
L 765.637378 353.089091 
L 767.820758 289.193428 
L 770.004137 282.301427 
L 772.187516 353.089091 
L 774.370895 268.745801 
L 776.554275 353.089091 
L 778.737654 353.089091 
L 780.921033 353.089091 
L 783.104412 347.518102 
L 785.287792 252.447825 
L 787.471171 320.113142 
L 789.65455 353.089091 
L 791.837929 353.089091 
L 794.021309 353.089091 
L 796.204688 353.089091 
L 798.388067 223.91978 
L 800.571446 353.089091 
L 802.754826 353.089091 
L 804.938205 353.089091 
L 807.121584 353.089091 
L 809.304963 353.089091 
L 811.488343 337.086465 
L 813.671722 353.089091 
L 815.855101 353.089091 
L 818.03848 353.089091 
L 820.22186 353.089091 
L 822.405239 353.089091 
L 824.588618 353.089091 
L 826.771997 353.089091 
L 828.955376 353.089091 
L 831.138756 353.089091 
L 833.322135 353.089091 
L 835.505514 353.089091 
L 837.688893 353.089091 
L 839.872273 353.089091 
" style="fill:none;stroke:#bfbf00;stroke-linecap:square;stroke-width:1.5;"/>
   </g>
   <g id="patch_23">
    <path d="M 612.91 359.72 
L 612.91 213.84 
" style="fill:none;stroke:#000000;stroke-linecap:square;stroke-linejoin:miter;stroke-width:0.8;"/>
   </g>
   <g id="patch_24">
    <path d="M 850.68 359.72 
L 850.68 213.84 
" style="fill:none;stroke:#000000;stroke-linecap:square;stroke-linejoin:miter;stroke-width:0.8;"/>
   </g>
   <g id="patch_25">
    <path d="M 612.91 359.72 
L 850.68 359.72 
" style="fill:none;stroke:#000000;stroke-linecap:square;stroke-linejoin:miter;stroke-width:0.8;"/>
   </g>
   <g id="patch_26">
    <path d="M 612.91 213.84 
L 850.68 213.84 
" style="fill:none;stroke:#000000;stroke-linecap:square;stroke-linejoin:miter;stroke-width:0.8;"/>
   </g>
   <g id="text_63">
    <!-- Input signal 5 -->
    <defs>
     <path d="M 10.796875 72.90625 
L 49.515625 72.90625 
L 49.515625 64.59375 
L 19.828125 64.59375 
L 19.828125 46.734375 
Q 21.96875 47.46875 24.109375 47.828125 
Q 26.265625 48.1875 28.421875 48.1875 
Q 40.625 48.1875 47.75 41.5 
Q 54.890625 34.8125 54.890625 23.390625 
Q 54.890625 11.625 47.5625 5.09375 
Q 40.234375 -1.421875 26.90625 -1.421875 
Q 22.3125 -1.421875 17.546875 -0.640625 
Q 12.796875 0.140625 7.71875 1.703125 
L 7.71875 11.625 
Q 12.109375 9.234375 16.796875 8.0625 
Q 21.484375 6.890625 26.703125 6.890625 
Q 35.15625 6.890625 40.078125 11.328125 
Q 45.015625 15.765625 45.015625 23.390625 
Q 45.015625 31 40.078125 35.4375 
Q 35.15625 39.890625 26.703125 39.890625 
Q 22.75 39.890625 18.8125 39.015625 
Q 14.890625 38.140625 10.796875 36.28125 
z
" id="DejaVuSans-53"/>
    </defs>
    <g transform="translate(690.879687 207.84)scale(0.12 -0.12)">
     <use xlink:href="#DejaVuSans-73"/>
     <use x="29.492188" xlink:href="#DejaVuSans-110"/>
     <use x="92.871094" xlink:href="#DejaVuSans-112"/>
     <use x="156.347656" xlink:href="#DejaVuSans-117"/>
     <use x="219.726562" xlink:href="#DejaVuSans-116"/>
     <use x="258.935547" xlink:href="#DejaVuSans-32"/>
     <use x="290.722656" xlink:href="#DejaVuSans-115"/>
     <use x="342.822266" xlink:href="#DejaVuSans-105"/>
     <use x="370.605469" xlink:href="#DejaVuSans-103"/>
     <use x="434.082031" xlink:href="#DejaVuSans-110"/>
     <use x="497.460938" xlink:href="#DejaVuSans-97"/>
     <use x="558.740234" xlink:href="#DejaVuSans-108"/>
     <use x="586.523438" xlink:href="#DejaVuSans-32"/>
     <use x="618.310547" xlink:href="#DejaVuSans-53"/>
    </g>
   </g>
  </g>
  <g id="axes_6">
   <g id="patch_27">
    <path d="M 46.33 548.12 
L 284.1 548.12 
L 284.1 402.24 
L 46.33 402.24 
z
" style="fill:#ffffff;"/>
   </g>
   <g id="matplotlib.axis_11">
    <g id="xtick_31">
     <g id="line2d_64">
      <g>
       <use style="stroke:#000000;stroke-width:0.8;" x="57.137727" xlink:href="#m773eff557c" y="548.12"/>
      </g>
     </g>
     <g id="text_64">
      <!-- 0 -->
      <g transform="translate(53.956477 562.718438)scale(0.1 -0.1)">
       <use xlink:href="#DejaVuSans-48"/>
      </g>
     </g>
    </g>
    <g id="xtick_32">
     <g id="line2d_65">
      <g>
       <use style="stroke:#000000;stroke-width:0.8;" x="100.805312" xlink:href="#m773eff557c" y="548.12"/>
      </g>
     </g>
     <g id="text_65">
      <!-- 20 -->
      <g transform="translate(94.442812 562.718438)scale(0.1 -0.1)">
       <use xlink:href="#DejaVuSans-50"/>
       <use x="63.623047" xlink:href="#DejaVuSans-48"/>
      </g>
     </g>
    </g>
    <g id="xtick_33">
     <g id="line2d_66">
      <g>
       <use style="stroke:#000000;stroke-width:0.8;" x="144.472897" xlink:href="#m773eff557c" y="548.12"/>
      </g>
     </g>
     <g id="text_66">
      <!-- 40 -->
      <g transform="translate(138.110397 562.718438)scale(0.1 -0.1)">
       <use xlink:href="#DejaVuSans-52"/>
       <use x="63.623047" xlink:href="#DejaVuSans-48"/>
      </g>
     </g>
    </g>
    <g id="xtick_34">
     <g id="line2d_67">
      <g>
       <use style="stroke:#000000;stroke-width:0.8;" x="188.140482" xlink:href="#m773eff557c" y="548.12"/>
      </g>
     </g>
     <g id="text_67">
      <!-- 60 -->
      <g transform="translate(181.777982 562.718438)scale(0.1 -0.1)">
       <use xlink:href="#DejaVuSans-54"/>
       <use x="63.623047" xlink:href="#DejaVuSans-48"/>
      </g>
     </g>
    </g>
    <g id="xtick_35">
     <g id="line2d_68">
      <g>
       <use style="stroke:#000000;stroke-width:0.8;" x="231.808067" xlink:href="#m773eff557c" y="548.12"/>
      </g>
     </g>
     <g id="text_68">
      <!-- 80 -->
      <g transform="translate(225.445567 562.718438)scale(0.1 -0.1)">
       <use xlink:href="#DejaVuSans-56"/>
       <use x="63.623047" xlink:href="#DejaVuSans-48"/>
      </g>
     </g>
    </g>
    <g id="xtick_36">
     <g id="line2d_69">
      <g>
       <use style="stroke:#000000;stroke-width:0.8;" x="275.475652" xlink:href="#m773eff557c" y="548.12"/>
      </g>
     </g>
     <g id="text_69">
      <!-- 100 -->
      <g transform="translate(265.931902 562.718438)scale(0.1 -0.1)">
       <use xlink:href="#DejaVuSans-49"/>
       <use x="63.623047" xlink:href="#DejaVuSans-48"/>
       <use x="127.246094" xlink:href="#DejaVuSans-48"/>
      </g>
     </g>
    </g>
   </g>
   <g id="matplotlib.axis_12">
    <g id="ytick_29">
     <g id="line2d_70">
      <g>
       <use style="stroke:#000000;stroke-width:0.8;" x="46.33" xlink:href="#mfd3d3cbfa1" y="541.504367"/>
      </g>
     </g>
     <g id="text_70">
      <!-- 0 -->
      <g transform="translate(32.9675 545.303585)scale(0.1 -0.1)">
       <use xlink:href="#DejaVuSans-48"/>
      </g>
     </g>
    </g>
    <g id="ytick_30">
     <g id="line2d_71">
      <g>
       <use style="stroke:#000000;stroke-width:0.8;" x="46.33" xlink:href="#mfd3d3cbfa1" y="515.392543"/>
      </g>
     </g>
     <g id="text_71">
      <!-- 1000 -->
      <g transform="translate(13.88 519.191762)scale(0.1 -0.1)">
       <use xlink:href="#DejaVuSans-49"/>
       <use x="63.623047" xlink:href="#DejaVuSans-48"/>
       <use x="127.246094" xlink:href="#DejaVuSans-48"/>
       <use x="190.869141" xlink:href="#DejaVuSans-48"/>
      </g>
     </g>
    </g>
    <g id="ytick_31">
     <g id="line2d_72">
      <g>
       <use style="stroke:#000000;stroke-width:0.8;" x="46.33" xlink:href="#mfd3d3cbfa1" y="489.28072"/>
      </g>
     </g>
     <g id="text_72">
      <!-- 2000 -->
      <g transform="translate(13.88 493.079938)scale(0.1 -0.1)">
       <use xlink:href="#DejaVuSans-50"/>
       <use x="63.623047" xlink:href="#DejaVuSans-48"/>
       <use x="127.246094" xlink:href="#DejaVuSans-48"/>
       <use x="190.869141" xlink:href="#DejaVuSans-48"/>
      </g>
     </g>
    </g>
    <g id="ytick_32">
     <g id="line2d_73">
      <g>
       <use style="stroke:#000000;stroke-width:0.8;" x="46.33" xlink:href="#mfd3d3cbfa1" y="463.168896"/>
      </g>
     </g>
     <g id="text_73">
      <!-- 3000 -->
      <g transform="translate(13.88 466.968115)scale(0.1 -0.1)">
       <use xlink:href="#DejaVuSans-51"/>
       <use x="63.623047" xlink:href="#DejaVuSans-48"/>
       <use x="127.246094" xlink:href="#DejaVuSans-48"/>
       <use x="190.869141" xlink:href="#DejaVuSans-48"/>
      </g>
     </g>
    </g>
    <g id="ytick_33">
     <g id="line2d_74">
      <g>
       <use style="stroke:#000000;stroke-width:0.8;" x="46.33" xlink:href="#mfd3d3cbfa1" y="437.057073"/>
      </g>
     </g>
     <g id="text_74">
      <!-- 4000 -->
      <g transform="translate(13.88 440.856291)scale(0.1 -0.1)">
       <use xlink:href="#DejaVuSans-52"/>
       <use x="63.623047" xlink:href="#DejaVuSans-48"/>
       <use x="127.246094" xlink:href="#DejaVuSans-48"/>
       <use x="190.869141" xlink:href="#DejaVuSans-48"/>
      </g>
     </g>
    </g>
    <g id="ytick_34">
     <g id="line2d_75">
      <g>
       <use style="stroke:#000000;stroke-width:0.8;" x="46.33" xlink:href="#mfd3d3cbfa1" y="410.945249"/>
      </g>
     </g>
     <g id="text_75">
      <!-- 5000 -->
      <g transform="translate(13.88 414.744468)scale(0.1 -0.1)">
       <use xlink:href="#DejaVuSans-53"/>
       <use x="63.623047" xlink:href="#DejaVuSans-48"/>
       <use x="127.246094" xlink:href="#DejaVuSans-48"/>
       <use x="190.869141" xlink:href="#DejaVuSans-48"/>
      </g>
     </g>
    </g>
   </g>
   <g id="line2d_76">
    <path clip-path="url(#p00ed127c5b)" d="M 57.137727 541.18804 
L 59.321107 540.968211 
L 61.504486 540.486728 
L 63.687865 540.634745 
L 65.871244 541.075033 
L 68.054624 408.870909 
L 70.238003 540.28896 
L 72.421382 540.858073 
L 74.604761 540.740887 
L 76.78814 541.135849 
L 78.97152 541.042171 
L 81.154899 541.345773 
L 83.338278 541.001209 
L 85.521657 540.140082 
L 87.705037 541.010567 
L 89.888416 540.934054 
L 92.071795 467.140107 
L 94.255174 540.468526 
L 96.438554 541.039259 
L 98.621933 540.191673 
L 100.805312 541.162557 
L 102.988691 540.574037 
L 105.172071 541.070852 
L 107.35545 541.158428 
L 109.538829 474.912458 
L 111.722208 541.425146 
L 113.905588 540.081932 
L 116.088967 447.433814 
L 118.272346 482.374919 
L 120.455725 540.857072 
L 122.639105 541.062148 
L 124.822484 541.1283 
L 127.005863 541.007408 
L 129.189242 499.039394 
L 131.372622 540.904604 
L 133.556001 541.463211 
L 135.73938 540.59797 
L 137.922759 470.834783 
L 140.106139 541.084936 
L 142.289518 541.489091 
L 144.472897 540.393752 
L 146.656276 541.364414 
L 148.839656 541.348409 
L 151.023035 511.500289 
L 153.206414 541.190405 
L 155.389793 541.369748 
L 157.573173 541.444677 
L 159.756552 541.32918 
L 161.939931 541.338931 
L 164.12331 541.063862 
L 166.30669 541.280569 
L 168.490069 438.242024 
L 170.673448 516.660838 
L 172.856827 541.024865 
L 175.040207 540.708066 
L 177.223586 540.268365 
L 179.406965 541.264737 
L 181.590344 486.958915 
L 183.773724 414.008794 
L 185.957103 541.045685 
L 188.140482 541.286072 
L 190.323861 541.289335 
L 192.507241 540.998268 
L 194.69062 540.594802 
L 196.873999 540.39616 
L 199.057378 447.864702 
L 201.240758 540.969271 
L 203.424137 540.911553 
L 205.607516 528.085537 
L 207.790895 540.798032 
L 209.974275 541.361642 
L 212.157654 541.013828 
L 214.341033 541.152604 
L 216.524412 541.457712 
L 218.707792 540.661544 
L 220.891171 541.228209 
L 223.07455 541.05484 
L 225.257929 492.269604 
L 227.441309 540.857764 
L 229.624688 447.954972 
L 231.808067 540.422635 
L 233.991446 541.47369 
L 236.174826 541.38025 
L 238.358205 540.214403 
L 240.541584 541.103679 
L 242.724963 541.209309 
L 244.908343 541.370352 
L 247.091722 541.257311 
L 249.275101 541.115434 
L 251.45848 514.54213 
L 253.64186 540.663126 
L 255.825239 541.152518 
L 258.008618 541.069583 
L 260.191997 415.329886 
L 262.375376 413.565976 
L 264.558756 451.737704 
L 266.742135 541.419775 
L 268.925514 541.488797 
L 271.108893 511.941832 
L 273.292273 489.539231 
" style="fill:none;stroke:#ff0000;stroke-linecap:square;stroke-width:1.5;"/>
   </g>
   <g id="patch_28">
    <path d="M 46.33 548.12 
L 46.33 402.24 
" style="fill:none;stroke:#000000;stroke-linecap:square;stroke-linejoin:miter;stroke-width:0.8;"/>
   </g>
   <g id="patch_29">
    <path d="M 284.1 548.12 
L 284.1 402.24 
" style="fill:none;stroke:#000000;stroke-linecap:square;stroke-linejoin:miter;stroke-width:0.8;"/>
   </g>
   <g id="patch_30">
    <path d="M 46.33 548.12 
L 284.1 548.12 
" style="fill:none;stroke:#000000;stroke-linecap:square;stroke-linejoin:miter;stroke-width:0.8;"/>
   </g>
   <g id="patch_31">
    <path d="M 46.33 402.24 
L 284.1 402.24 
" style="fill:none;stroke:#000000;stroke-linecap:square;stroke-linejoin:miter;stroke-width:0.8;"/>
   </g>
   <g id="text_76">
    <!-- Output signal 1 -->
    <defs>
     <path d="M 39.40625 66.21875 
Q 28.65625 66.21875 22.328125 58.203125 
Q 16.015625 50.203125 16.015625 36.375 
Q 16.015625 22.609375 22.328125 14.59375 
Q 28.65625 6.59375 39.40625 6.59375 
Q 50.140625 6.59375 56.421875 14.59375 
Q 62.703125 22.609375 62.703125 36.375 
Q 62.703125 50.203125 56.421875 58.203125 
Q 50.140625 66.21875 39.40625 66.21875 
z
M 39.40625 74.21875 
Q 54.734375 74.21875 63.90625 63.9375 
Q 73.09375 53.65625 73.09375 36.375 
Q 73.09375 19.140625 63.90625 8.859375 
Q 54.734375 -1.421875 39.40625 -1.421875 
Q 24.03125 -1.421875 14.8125 8.828125 
Q 5.609375 19.09375 5.609375 36.375 
Q 5.609375 53.65625 14.8125 63.9375 
Q 24.03125 74.21875 39.40625 74.21875 
z
" id="DejaVuSans-79"/>
    </defs>
    <g transform="translate(118.994375 396.24)scale(0.12 -0.12)">
     <use xlink:href="#DejaVuSans-79"/>
     <use x="78.710938" xlink:href="#DejaVuSans-117"/>
     <use x="142.089844" xlink:href="#DejaVuSans-116"/>
     <use x="181.298828" xlink:href="#DejaVuSans-112"/>
     <use x="244.775391" xlink:href="#DejaVuSans-117"/>
     <use x="308.154297" xlink:href="#DejaVuSans-116"/>
     <use x="347.363281" xlink:href="#DejaVuSans-32"/>
     <use x="379.150391" xlink:href="#DejaVuSans-115"/>
     <use x="431.25" xlink:href="#DejaVuSans-105"/>
     <use x="459.033203" xlink:href="#DejaVuSans-103"/>
     <use x="522.509766" xlink:href="#DejaVuSans-110"/>
     <use x="585.888672" xlink:href="#DejaVuSans-97"/>
     <use x="647.167969" xlink:href="#DejaVuSans-108"/>
     <use x="674.951172" xlink:href="#DejaVuSans-32"/>
     <use x="706.738281" xlink:href="#DejaVuSans-49"/>
    </g>
   </g>
  </g>
  <g id="axes_7">
   <g id="patch_32">
    <path d="M 329.62 548.12 
L 567.39 548.12 
L 567.39 402.24 
L 329.62 402.24 
z
" style="fill:#ffffff;"/>
   </g>
   <g id="matplotlib.axis_13">
    <g id="xtick_37">
     <g id="line2d_77">
      <g>
       <use style="stroke:#000000;stroke-width:0.8;" x="340.427727" xlink:href="#m773eff557c" y="548.12"/>
      </g>
     </g>
     <g id="text_77">
      <!-- 0 -->
      <g transform="translate(337.246477 562.718438)scale(0.1 -0.1)">
       <use xlink:href="#DejaVuSans-48"/>
      </g>
     </g>
    </g>
    <g id="xtick_38">
     <g id="line2d_78">
      <g>
       <use style="stroke:#000000;stroke-width:0.8;" x="384.095312" xlink:href="#m773eff557c" y="548.12"/>
      </g>
     </g>
     <g id="text_78">
      <!-- 20 -->
      <g transform="translate(377.732812 562.718438)scale(0.1 -0.1)">
       <use xlink:href="#DejaVuSans-50"/>
       <use x="63.623047" xlink:href="#DejaVuSans-48"/>
      </g>
     </g>
    </g>
    <g id="xtick_39">
     <g id="line2d_79">
      <g>
       <use style="stroke:#000000;stroke-width:0.8;" x="427.762897" xlink:href="#m773eff557c" y="548.12"/>
      </g>
     </g>
     <g id="text_79">
      <!-- 40 -->
      <g transform="translate(421.400397 562.718438)scale(0.1 -0.1)">
       <use xlink:href="#DejaVuSans-52"/>
       <use x="63.623047" xlink:href="#DejaVuSans-48"/>
      </g>
     </g>
    </g>
    <g id="xtick_40">
     <g id="line2d_80">
      <g>
       <use style="stroke:#000000;stroke-width:0.8;" x="471.430482" xlink:href="#m773eff557c" y="548.12"/>
      </g>
     </g>
     <g id="text_80">
      <!-- 60 -->
      <g transform="translate(465.067982 562.718438)scale(0.1 -0.1)">
       <use xlink:href="#DejaVuSans-54"/>
       <use x="63.623047" xlink:href="#DejaVuSans-48"/>
      </g>
     </g>
    </g>
    <g id="xtick_41">
     <g id="line2d_81">
      <g>
       <use style="stroke:#000000;stroke-width:0.8;" x="515.098067" xlink:href="#m773eff557c" y="548.12"/>
      </g>
     </g>
     <g id="text_81">
      <!-- 80 -->
      <g transform="translate(508.735567 562.718438)scale(0.1 -0.1)">
       <use xlink:href="#DejaVuSans-56"/>
       <use x="63.623047" xlink:href="#DejaVuSans-48"/>
      </g>
     </g>
    </g>
    <g id="xtick_42">
     <g id="line2d_82">
      <g>
       <use style="stroke:#000000;stroke-width:0.8;" x="558.765652" xlink:href="#m773eff557c" y="548.12"/>
      </g>
     </g>
     <g id="text_82">
      <!-- 100 -->
      <g transform="translate(549.221902 562.718438)scale(0.1 -0.1)">
       <use xlink:href="#DejaVuSans-49"/>
       <use x="63.623047" xlink:href="#DejaVuSans-48"/>
       <use x="127.246094" xlink:href="#DejaVuSans-48"/>
      </g>
     </g>
    </g>
   </g>
   <g id="matplotlib.axis_14">
    <g id="ytick_35">
     <g id="line2d_83">
      <g>
       <use style="stroke:#000000;stroke-width:0.8;" x="329.62" xlink:href="#mfd3d3cbfa1" y="541.491623"/>
      </g>
     </g>
     <g id="text_83">
      <!-- 0 -->
      <g transform="translate(316.2575 545.290841)scale(0.1 -0.1)">
       <use xlink:href="#DejaVuSans-48"/>
      </g>
     </g>
    </g>
    <g id="ytick_36">
     <g id="line2d_84">
      <g>
       <use style="stroke:#000000;stroke-width:0.8;" x="329.62" xlink:href="#mfd3d3cbfa1" y="517.713497"/>
      </g>
     </g>
     <g id="text_84">
      <!-- 1000 -->
      <g transform="translate(297.17 521.512716)scale(0.1 -0.1)">
       <use xlink:href="#DejaVuSans-49"/>
       <use x="63.623047" xlink:href="#DejaVuSans-48"/>
       <use x="127.246094" xlink:href="#DejaVuSans-48"/>
       <use x="190.869141" xlink:href="#DejaVuSans-48"/>
      </g>
     </g>
    </g>
    <g id="ytick_37">
     <g id="line2d_85">
      <g>
       <use style="stroke:#000000;stroke-width:0.8;" x="329.62" xlink:href="#mfd3d3cbfa1" y="493.935371"/>
      </g>
     </g>
     <g id="text_85">
      <!-- 2000 -->
      <g transform="translate(297.17 497.73459)scale(0.1 -0.1)">
       <use xlink:href="#DejaVuSans-50"/>
       <use x="63.623047" xlink:href="#DejaVuSans-48"/>
       <use x="127.246094" xlink:href="#DejaVuSans-48"/>
       <use x="190.869141" xlink:href="#DejaVuSans-48"/>
      </g>
     </g>
    </g>
    <g id="ytick_38">
     <g id="line2d_86">
      <g>
       <use style="stroke:#000000;stroke-width:0.8;" x="329.62" xlink:href="#mfd3d3cbfa1" y="470.157245"/>
      </g>
     </g>
     <g id="text_86">
      <!-- 3000 -->
      <g transform="translate(297.17 473.956464)scale(0.1 -0.1)">
       <use xlink:href="#DejaVuSans-51"/>
       <use x="63.623047" xlink:href="#DejaVuSans-48"/>
       <use x="127.246094" xlink:href="#DejaVuSans-48"/>
       <use x="190.869141" xlink:href="#DejaVuSans-48"/>
      </g>
     </g>
    </g>
    <g id="ytick_39">
     <g id="line2d_87">
      <g>
       <use style="stroke:#000000;stroke-width:0.8;" x="329.62" xlink:href="#mfd3d3cbfa1" y="446.379119"/>
      </g>
     </g>
     <g id="text_87">
      <!-- 4000 -->
      <g transform="translate(297.17 450.178338)scale(0.1 -0.1)">
       <use xlink:href="#DejaVuSans-52"/>
       <use x="63.623047" xlink:href="#DejaVuSans-48"/>
       <use x="127.246094" xlink:href="#DejaVuSans-48"/>
       <use x="190.869141" xlink:href="#DejaVuSans-48"/>
      </g>
     </g>
    </g>
    <g id="ytick_40">
     <g id="line2d_88">
      <g>
       <use style="stroke:#000000;stroke-width:0.8;" x="329.62" xlink:href="#mfd3d3cbfa1" y="422.600994"/>
      </g>
     </g>
     <g id="text_88">
      <!-- 5000 -->
      <g transform="translate(297.17 426.400212)scale(0.1 -0.1)">
       <use xlink:href="#DejaVuSans-53"/>
       <use x="63.623047" xlink:href="#DejaVuSans-48"/>
       <use x="127.246094" xlink:href="#DejaVuSans-48"/>
       <use x="190.869141" xlink:href="#DejaVuSans-48"/>
      </g>
     </g>
    </g>
   </g>
   <g id="line2d_89">
    <path clip-path="url(#p81dde4d627)" d="M 340.427727 541.369999 
L 342.611107 541.285478 
L 344.794486 541.100354 
L 346.977865 540.839469 
L 349.161244 540.656383 
L 351.344624 408.870909 
L 353.528003 541.293983 
L 355.711382 541.386528 
L 357.894761 541.367472 
L 360.07814 540.774696 
L 362.26152 540.592453 
L 364.444899 541.18309 
L 366.628278 541.11429 
L 368.811657 541.269774 
L 370.995037 541.411325 
L 373.178416 541.398883 
L 375.361795 467.134508 
L 377.545174 541.323183 
L 379.728554 541.142825 
L 381.911933 541.278163 
L 384.095312 540.826655 
L 386.278691 541.34034 
L 388.462071 540.648251 
L 390.64545 540.818624 
L 392.828829 474.906113 
L 395.012208 541.432213 
L 397.195588 541.260318 
L 399.378967 447.430108 
L 401.562346 482.367856 
L 403.745725 541.386365 
L 405.929105 540.631317 
L 408.112484 541.2096 
L 410.295863 541.300549 
L 412.479242 499.030731 
L 414.662622 541.394094 
L 416.846001 541.411557 
L 419.02938 541.143125 
L 421.212759 470.82883 
L 423.396139 541.330357 
L 425.579518 541.461905 
L 427.762897 541.064606 
L 429.946276 541.437813 
L 432.129656 541.466262 
L 434.313035 511.490428 
L 436.496414 541.370909 
L 438.679793 541.439864 
L 440.863173 541.44686 
L 443.046552 541.424265 
L 445.229931 541.16978 
L 447.41331 541.161276 
L 449.59669 541.323791 
L 451.780069 438.239202 
L 453.963448 516.650481 
L 456.146827 540.558787 
L 458.330207 540.894454 
L 460.513586 541.290634 
L 462.696965 541.025439 
L 464.880344 486.951412 
L 467.063724 414.008301 
L 469.247103 540.59929 
L 471.430482 541.407691 
L 473.613861 541.408946 
L 475.797241 541.112085 
L 477.98062 541.141907 
L 480.163999 541.311415 
L 482.347378 447.860955 
L 484.530758 541.285885 
L 486.714137 541.263694 
L 488.897516 528.074083 
L 491.080895 541.220046 
L 493.264275 541.213961 
L 495.447654 540.537314 
L 497.631033 540.807292 
L 499.814412 541.473685 
L 501.997792 541.167568 
L 504.181171 541.385444 
L 506.36455 541.15451 
L 508.547929 492.26159 
L 510.731309 541.006717 
L 512.914688 447.951216 
L 515.098067 541.075711 
L 517.281446 541.468617 
L 519.464826 541.250163 
L 521.648205 541.281859 
L 523.831584 540.712113 
L 526.014963 541.443643 
L 528.198343 541.440096 
L 530.381722 541.306349 
L 532.565101 541.199951 
L 534.74848 514.531976 
L 536.93186 541.354827 
L 539.115239 541.227762 
L 541.298618 541.165567 
L 543.481997 415.329265 
L 545.665376 413.565524 
L 547.848756 451.733585 
L 550.032135 541.327055 
L 552.215514 541.489091 
L 554.398893 511.931928 
L 556.582273 489.53148 
" style="fill:none;stroke:#ff0000;stroke-linecap:square;stroke-width:1.5;"/>
   </g>
   <g id="patch_33">
    <path d="M 329.62 548.12 
L 329.62 402.24 
" style="fill:none;stroke:#000000;stroke-linecap:square;stroke-linejoin:miter;stroke-width:0.8;"/>
   </g>
   <g id="patch_34">
    <path d="M 567.39 548.12 
L 567.39 402.24 
" style="fill:none;stroke:#000000;stroke-linecap:square;stroke-linejoin:miter;stroke-width:0.8;"/>
   </g>
   <g id="patch_35">
    <path d="M 329.62 548.12 
L 567.39 548.12 
" style="fill:none;stroke:#000000;stroke-linecap:square;stroke-linejoin:miter;stroke-width:0.8;"/>
   </g>
   <g id="patch_36">
    <path d="M 329.62 402.24 
L 567.39 402.24 
" style="fill:none;stroke:#000000;stroke-linecap:square;stroke-linejoin:miter;stroke-width:0.8;"/>
   </g>
   <g id="text_89">
    <!-- Output signal 2 -->
    <g transform="translate(402.284375 396.24)scale(0.12 -0.12)">
     <use xlink:href="#DejaVuSans-79"/>
     <use x="78.710938" xlink:href="#DejaVuSans-117"/>
     <use x="142.089844" xlink:href="#DejaVuSans-116"/>
     <use x="181.298828" xlink:href="#DejaVuSans-112"/>
     <use x="244.775391" xlink:href="#DejaVuSans-117"/>
     <use x="308.154297" xlink:href="#DejaVuSans-116"/>
     <use x="347.363281" xlink:href="#DejaVuSans-32"/>
     <use x="379.150391" xlink:href="#DejaVuSans-115"/>
     <use x="431.25" xlink:href="#DejaVuSans-105"/>
     <use x="459.033203" xlink:href="#DejaVuSans-103"/>
     <use x="522.509766" xlink:href="#DejaVuSans-110"/>
     <use x="585.888672" xlink:href="#DejaVuSans-97"/>
     <use x="647.167969" xlink:href="#DejaVuSans-108"/>
     <use x="674.951172" xlink:href="#DejaVuSans-32"/>
     <use x="706.738281" xlink:href="#DejaVuSans-50"/>
    </g>
   </g>
  </g>
  <g id="axes_8">
   <g id="patch_37">
    <path d="M 612.91 548.12 
L 850.68 548.12 
L 850.68 402.24 
L 612.91 402.24 
z
" style="fill:#ffffff;"/>
   </g>
   <g id="matplotlib.axis_15">
    <g id="xtick_43">
     <g id="line2d_90">
      <g>
       <use style="stroke:#000000;stroke-width:0.8;" x="623.717727" xlink:href="#m773eff557c" y="548.12"/>
      </g>
     </g>
     <g id="text_90">
      <!-- 0 -->
      <g transform="translate(620.536477 562.718438)scale(0.1 -0.1)">
       <use xlink:href="#DejaVuSans-48"/>
      </g>
     </g>
    </g>
    <g id="xtick_44">
     <g id="line2d_91">
      <g>
       <use style="stroke:#000000;stroke-width:0.8;" x="667.385312" xlink:href="#m773eff557c" y="548.12"/>
      </g>
     </g>
     <g id="text_91">
      <!-- 20 -->
      <g transform="translate(661.022812 562.718438)scale(0.1 -0.1)">
       <use xlink:href="#DejaVuSans-50"/>
       <use x="63.623047" xlink:href="#DejaVuSans-48"/>
      </g>
     </g>
    </g>
    <g id="xtick_45">
     <g id="line2d_92">
      <g>
       <use style="stroke:#000000;stroke-width:0.8;" x="711.052897" xlink:href="#m773eff557c" y="548.12"/>
      </g>
     </g>
     <g id="text_92">
      <!-- 40 -->
      <g transform="translate(704.690397 562.718438)scale(0.1 -0.1)">
       <use xlink:href="#DejaVuSans-52"/>
       <use x="63.623047" xlink:href="#DejaVuSans-48"/>
      </g>
     </g>
    </g>
    <g id="xtick_46">
     <g id="line2d_93">
      <g>
       <use style="stroke:#000000;stroke-width:0.8;" x="754.720482" xlink:href="#m773eff557c" y="548.12"/>
      </g>
     </g>
     <g id="text_93">
      <!-- 60 -->
      <g transform="translate(748.357982 562.718438)scale(0.1 -0.1)">
       <use xlink:href="#DejaVuSans-54"/>
       <use x="63.623047" xlink:href="#DejaVuSans-48"/>
      </g>
     </g>
    </g>
    <g id="xtick_47">
     <g id="line2d_94">
      <g>
       <use style="stroke:#000000;stroke-width:0.8;" x="798.388067" xlink:href="#m773eff557c" y="548.12"/>
      </g>
     </g>
     <g id="text_94">
      <!-- 80 -->
      <g transform="translate(792.025567 562.718438)scale(0.1 -0.1)">
       <use xlink:href="#DejaVuSans-56"/>
       <use x="63.623047" xlink:href="#DejaVuSans-48"/>
      </g>
     </g>
    </g>
    <g id="xtick_48">
     <g id="line2d_95">
      <g>
       <use style="stroke:#000000;stroke-width:0.8;" x="842.055652" xlink:href="#m773eff557c" y="548.12"/>
      </g>
     </g>
     <g id="text_95">
      <!-- 100 -->
      <g transform="translate(832.511902 562.718438)scale(0.1 -0.1)">
       <use xlink:href="#DejaVuSans-49"/>
       <use x="63.623047" xlink:href="#DejaVuSans-48"/>
       <use x="127.246094" xlink:href="#DejaVuSans-48"/>
      </g>
     </g>
    </g>
   </g>
   <g id="matplotlib.axis_16">
    <g id="ytick_41">
     <g id="line2d_96">
      <g>
       <use style="stroke:#000000;stroke-width:0.8;" x="612.91" xlink:href="#mfd3d3cbfa1" y="541.494504"/>
      </g>
     </g>
     <g id="text_96">
      <!-- 0 -->
      <g transform="translate(599.5475 545.293723)scale(0.1 -0.1)">
       <use xlink:href="#DejaVuSans-48"/>
      </g>
     </g>
    </g>
    <g id="ytick_42">
     <g id="line2d_97">
      <g>
       <use style="stroke:#000000;stroke-width:0.8;" x="612.91" xlink:href="#mfd3d3cbfa1" y="517.283523"/>
      </g>
     </g>
     <g id="text_97">
      <!-- 1000 -->
      <g transform="translate(580.46 521.082742)scale(0.1 -0.1)">
       <use xlink:href="#DejaVuSans-49"/>
       <use x="63.623047" xlink:href="#DejaVuSans-48"/>
       <use x="127.246094" xlink:href="#DejaVuSans-48"/>
       <use x="190.869141" xlink:href="#DejaVuSans-48"/>
      </g>
     </g>
    </g>
    <g id="ytick_43">
     <g id="line2d_98">
      <g>
       <use style="stroke:#000000;stroke-width:0.8;" x="612.91" xlink:href="#mfd3d3cbfa1" y="493.072542"/>
      </g>
     </g>
     <g id="text_98">
      <!-- 2000 -->
      <g transform="translate(580.46 496.87176)scale(0.1 -0.1)">
       <use xlink:href="#DejaVuSans-50"/>
       <use x="63.623047" xlink:href="#DejaVuSans-48"/>
       <use x="127.246094" xlink:href="#DejaVuSans-48"/>
       <use x="190.869141" xlink:href="#DejaVuSans-48"/>
      </g>
     </g>
    </g>
    <g id="ytick_44">
     <g id="line2d_99">
      <g>
       <use style="stroke:#000000;stroke-width:0.8;" x="612.91" xlink:href="#mfd3d3cbfa1" y="468.86156"/>
      </g>
     </g>
     <g id="text_99">
      <!-- 3000 -->
      <g transform="translate(580.46 472.660779)scale(0.1 -0.1)">
       <use xlink:href="#DejaVuSans-51"/>
       <use x="63.623047" xlink:href="#DejaVuSans-48"/>
       <use x="127.246094" xlink:href="#DejaVuSans-48"/>
       <use x="190.869141" xlink:href="#DejaVuSans-48"/>
      </g>
     </g>
    </g>
    <g id="ytick_45">
     <g id="line2d_100">
      <g>
       <use style="stroke:#000000;stroke-width:0.8;" x="612.91" xlink:href="#mfd3d3cbfa1" y="444.650579"/>
      </g>
     </g>
     <g id="text_100">
      <!-- 4000 -->
      <g transform="translate(580.46 448.449797)scale(0.1 -0.1)">
       <use xlink:href="#DejaVuSans-52"/>
       <use x="63.623047" xlink:href="#DejaVuSans-48"/>
       <use x="127.246094" xlink:href="#DejaVuSans-48"/>
       <use x="190.869141" xlink:href="#DejaVuSans-48"/>
      </g>
     </g>
    </g>
    <g id="ytick_46">
     <g id="line2d_101">
      <g>
       <use style="stroke:#000000;stroke-width:0.8;" x="612.91" xlink:href="#mfd3d3cbfa1" y="420.439597"/>
      </g>
     </g>
     <g id="text_101">
      <!-- 5000 -->
      <g transform="translate(580.46 424.238816)scale(0.1 -0.1)">
       <use xlink:href="#DejaVuSans-53"/>
       <use x="63.623047" xlink:href="#DejaVuSans-48"/>
       <use x="127.246094" xlink:href="#DejaVuSans-48"/>
       <use x="190.869141" xlink:href="#DejaVuSans-48"/>
      </g>
     </g>
    </g>
   </g>
   <g id="line2d_102">
    <path clip-path="url(#p18491ab4b3)" d="M 623.717727 541.025225 
L 625.901107 540.699104 
L 628.084486 539.984811 
L 630.267865 540.735618 
L 632.451244 540.336453 
L 634.634624 408.870909 
L 636.818003 541.071906 
L 639.001382 541.269787 
L 641.184761 541.229041 
L 643.36814 540.500493 
L 645.55152 540.247814 
L 647.734899 541.066726 
L 649.918278 541.055417 
L 652.101657 541.020141 
L 654.285037 541.322809 
L 656.468416 541.296206 
L 658.651795 467.135774 
L 660.835174 541.134341 
L 663.018554 541.088622 
L 665.201933 541.038079 
L 667.385312 540.572533 
L 669.568691 541.171027 
L 671.752071 540.325177 
L 673.93545 540.561398 
L 676.118829 474.907548 
L 678.302208 541.425371 
L 680.485588 540.999922 
L 682.668967 447.430946 
L 684.852346 482.369453 
L 687.035725 541.269439 
L 689.219105 540.301699 
L 691.402484 541.166325 
L 693.585863 540.757254 
L 695.769242 499.03269 
L 697.952622 541.285966 
L 700.136001 541.383494 
L 702.31938 540.149841 
L 704.502759 470.830176 
L 706.686139 540.872268 
L 708.869518 541.453301 
L 711.052897 539.846879 
L 713.236276 541.286881 
L 715.419656 541.440278 
L 717.603035 511.492657 
L 719.786414 541.028735 
L 721.969793 541.294794 
L 724.153173 541.442416 
L 726.336552 541.23461 
L 728.519931 541.048272 
L 730.70331 541.110093 
L 732.88669 541.299205 
L 735.070069 438.239841 
L 737.253448 516.652823 
L 739.436827 540.201136 
L 741.620207 540.799603 
L 743.803586 541.064745 
L 745.986965 540.848146 
L 748.170344 486.953108 
L 750.353724 414.008412 
L 752.537103 540.257293 
L 754.720482 541.170658 
L 756.903861 541.175499 
L 759.087241 541.052851 
L 761.27062 540.145142 
L 763.453999 541.109179 
L 765.637378 447.861802 
L 767.820758 540.700676 
L 770.004137 540.61505 
L 772.187516 528.076673 
L 774.370895 540.446638 
L 776.554275 541.109529 
L 778.737654 540.171364 
L 780.921033 540.545687 
L 783.104412 541.425291 
L 785.287792 540.244154 
L 787.471171 541.084817 
L 789.65455 541.102219 
L 791.837929 492.263402 
L 794.021309 540.930238 
L 796.204688 447.952066 
L 798.388067 539.889727 
L 800.571446 541.467734 
L 802.754826 541.159722 
L 804.938205 541.045982 
L 807.121584 540.413721 
L 809.304963 541.391912 
L 811.488343 541.29569 
L 813.671722 541.278908 
L 815.855101 541.155097 
L 818.03848 514.534272 
L 820.22186 541.202004 
L 822.405239 541.187459 
L 824.588618 541.115085 
L 826.771997 415.329405 
L 828.955376 413.565626 
L 831.138756 451.734516 
L 833.322135 541.266333 
L 835.505514 541.489091 
L 837.688893 511.934168 
L 839.872273 489.533233 
" style="fill:none;stroke:#ff0000;stroke-linecap:square;stroke-width:1.5;"/>
   </g>
   <g id="patch_38">
    <path d="M 612.91 548.12 
L 612.91 402.24 
" style="fill:none;stroke:#000000;stroke-linecap:square;stroke-linejoin:miter;stroke-width:0.8;"/>
   </g>
   <g id="patch_39">
    <path d="M 850.68 548.12 
L 850.68 402.24 
" style="fill:none;stroke:#000000;stroke-linecap:square;stroke-linejoin:miter;stroke-width:0.8;"/>
   </g>
   <g id="patch_40">
    <path d="M 612.91 548.12 
L 850.68 548.12 
" style="fill:none;stroke:#000000;stroke-linecap:square;stroke-linejoin:miter;stroke-width:0.8;"/>
   </g>
   <g id="patch_41">
    <path d="M 612.91 402.24 
L 850.68 402.24 
" style="fill:none;stroke:#000000;stroke-linecap:square;stroke-linejoin:miter;stroke-width:0.8;"/>
   </g>
   <g id="text_102">
    <!-- Output signal 3 -->
    <g transform="translate(685.574375 396.24)scale(0.12 -0.12)">
     <use xlink:href="#DejaVuSans-79"/>
     <use x="78.710938" xlink:href="#DejaVuSans-117"/>
     <use x="142.089844" xlink:href="#DejaVuSans-116"/>
     <use x="181.298828" xlink:href="#DejaVuSans-112"/>
     <use x="244.775391" xlink:href="#DejaVuSans-117"/>
     <use x="308.154297" xlink:href="#DejaVuSans-116"/>
     <use x="347.363281" xlink:href="#DejaVuSans-32"/>
     <use x="379.150391" xlink:href="#DejaVuSans-115"/>
     <use x="431.25" xlink:href="#DejaVuSans-105"/>
     <use x="459.033203" xlink:href="#DejaVuSans-103"/>
     <use x="522.509766" xlink:href="#DejaVuSans-110"/>
     <use x="585.888672" xlink:href="#DejaVuSans-97"/>
     <use x="647.167969" xlink:href="#DejaVuSans-108"/>
     <use x="674.951172" xlink:href="#DejaVuSans-32"/>
     <use x="706.738281" xlink:href="#DejaVuSans-51"/>
    </g>
   </g>
  </g>
 </g>
 <defs>
  <clipPath id="p5e40f83793">
   <rect height="145.88" width="379.415" x="46.33" y="25.44"/>
  </clipPath>
  <clipPath id="p60364b77bc">
   <rect height="145.88" width="379.415" x="471.265" y="25.44"/>
  </clipPath>
  <clipPath id="pfcd6caa7b7">
   <rect height="145.88" width="237.77" x="46.33" y="213.84"/>
  </clipPath>
  <clipPath id="pd874210b64">
   <rect height="145.88" width="237.77" x="329.62" y="213.84"/>
  </clipPath>
  <clipPath id="pfb00956315">
   <rect height="145.88" width="237.77" x="612.91" y="213.84"/>
  </clipPath>
  <clipPath id="p00ed127c5b">
   <rect height="145.88" width="237.77" x="46.33" y="402.24"/>
  </clipPath>
  <clipPath id="p81dde4d627">
   <rect height="145.88" width="237.77" x="329.62" y="402.24"/>
  </clipPath>
  <clipPath id="p18491ab4b3">
   <rect height="145.88" width="237.77" x="612.91" y="402.24"/>
  </clipPath>
 </defs>
</svg>
