<?xml version="1.0" encoding="utf-8" standalone="no"?>
<!DOCTYPE svg PUBLIC "-//W3C//DTD SVG 1.1//EN"
  "http://www.w3.org/Graphics/SVG/1.1/DTD/svg11.dtd">
<!-- Created with matplotlib (https://matplotlib.org/) -->
<svg height="576pt" version="1.1" viewBox="0 0 864 576" width="864pt" xmlns="http://www.w3.org/2000/svg" xmlns:xlink="http://www.w3.org/1999/xlink">
 <defs>
  <style type="text/css">
*{stroke-linecap:butt;stroke-linejoin:round;}
  </style>
 </defs>
 <g id="figure_1">
  <g id="patch_1">
   <path d="M 0 576 
L 864 576 
L 864 0 
L 0 0 
z
" style="fill:#ffffff;"/>
  </g>
  <g id="axes_1">
   <g id="patch_2">
    <path d="M 108 512.64 
L 777.6 512.64 
L 777.6 69.12 
L 108 69.12 
z
" style="fill:#ffffff;"/>
   </g>
   <g id="matplotlib.axis_1">
    <g id="xtick_1">
     <g id="line2d_1">
      <defs>
       <path d="M 0 0 
L 0 3.5 
" id="md63ea441ed" style="stroke:#000000;stroke-width:0.8;"/>
      </defs>
      <g>
       <use style="stroke:#000000;stroke-width:0.8;" x="138.436364" xlink:href="#md63ea441ed" y="512.64"/>
      </g>
     </g>
     <g id="text_1">
      <!-- 0 -->
      <defs>
       <path d="M 31.78125 66.40625 
Q 24.171875 66.40625 20.328125 58.90625 
Q 16.5 51.421875 16.5 36.375 
Q 16.5 21.390625 20.328125 13.890625 
Q 24.171875 6.390625 31.78125 6.390625 
Q 39.453125 6.390625 43.28125 13.890625 
Q 47.125 21.390625 47.125 36.375 
Q 47.125 51.421875 43.28125 58.90625 
Q 39.453125 66.40625 31.78125 66.40625 
z
M 31.78125 74.21875 
Q 44.046875 74.21875 50.515625 64.515625 
Q 56.984375 54.828125 56.984375 36.375 
Q 56.984375 17.96875 50.515625 8.265625 
Q 44.046875 -1.421875 31.78125 -1.421875 
Q 19.53125 -1.421875 13.0625 8.265625 
Q 6.59375 17.96875 6.59375 36.375 
Q 6.59375 54.828125 13.0625 64.515625 
Q 19.53125 74.21875 31.78125 74.21875 
z
" id="DejaVuSans-48"/>
      </defs>
      <g transform="translate(135.255114 527.238438)scale(0.1 -0.1)">
       <use xlink:href="#DejaVuSans-48"/>
      </g>
     </g>
    </g>
    <g id="xtick_2">
     <g id="line2d_2">
      <g>
       <use style="stroke:#000000;stroke-width:0.8;" x="260.181818" xlink:href="#md63ea441ed" y="512.64"/>
      </g>
     </g>
     <g id="text_2">
      <!-- 100 -->
      <defs>
       <path d="M 12.40625 8.296875 
L 28.515625 8.296875 
L 28.515625 63.921875 
L 10.984375 60.40625 
L 10.984375 69.390625 
L 28.421875 72.90625 
L 38.28125 72.90625 
L 38.28125 8.296875 
L 54.390625 8.296875 
L 54.390625 0 
L 12.40625 0 
z
" id="DejaVuSans-49"/>
      </defs>
      <g transform="translate(250.638068 527.238438)scale(0.1 -0.1)">
       <use xlink:href="#DejaVuSans-49"/>
       <use x="63.623047" xlink:href="#DejaVuSans-48"/>
       <use x="127.246094" xlink:href="#DejaVuSans-48"/>
      </g>
     </g>
    </g>
    <g id="xtick_3">
     <g id="line2d_3">
      <g>
       <use style="stroke:#000000;stroke-width:0.8;" x="381.927273" xlink:href="#md63ea441ed" y="512.64"/>
      </g>
     </g>
     <g id="text_3">
      <!-- 200 -->
      <defs>
       <path d="M 19.1875 8.296875 
L 53.609375 8.296875 
L 53.609375 0 
L 7.328125 0 
L 7.328125 8.296875 
Q 12.9375 14.109375 22.625 23.890625 
Q 32.328125 33.6875 34.8125 36.53125 
Q 39.546875 41.84375 41.421875 45.53125 
Q 43.3125 49.21875 43.3125 52.78125 
Q 43.3125 58.59375 39.234375 62.25 
Q 35.15625 65.921875 28.609375 65.921875 
Q 23.96875 65.921875 18.8125 64.3125 
Q 13.671875 62.703125 7.8125 59.421875 
L 7.8125 69.390625 
Q 13.765625 71.78125 18.9375 73 
Q 24.125 74.21875 28.421875 74.21875 
Q 39.75 74.21875 46.484375 68.546875 
Q 53.21875 62.890625 53.21875 53.421875 
Q 53.21875 48.921875 51.53125 44.890625 
Q 49.859375 40.875 45.40625 35.40625 
Q 44.1875 33.984375 37.640625 27.21875 
Q 31.109375 20.453125 19.1875 8.296875 
z
" id="DejaVuSans-50"/>
      </defs>
      <g transform="translate(372.383523 527.238438)scale(0.1 -0.1)">
       <use xlink:href="#DejaVuSans-50"/>
       <use x="63.623047" xlink:href="#DejaVuSans-48"/>
       <use x="127.246094" xlink:href="#DejaVuSans-48"/>
      </g>
     </g>
    </g>
    <g id="xtick_4">
     <g id="line2d_4">
      <g>
       <use style="stroke:#000000;stroke-width:0.8;" x="503.672727" xlink:href="#md63ea441ed" y="512.64"/>
      </g>
     </g>
     <g id="text_4">
      <!-- 300 -->
      <defs>
       <path d="M 40.578125 39.3125 
Q 47.65625 37.796875 51.625 33 
Q 55.609375 28.21875 55.609375 21.1875 
Q 55.609375 10.40625 48.1875 4.484375 
Q 40.765625 -1.421875 27.09375 -1.421875 
Q 22.515625 -1.421875 17.65625 -0.515625 
Q 12.796875 0.390625 7.625 2.203125 
L 7.625 11.71875 
Q 11.71875 9.328125 16.59375 8.109375 
Q 21.484375 6.890625 26.8125 6.890625 
Q 36.078125 6.890625 40.9375 10.546875 
Q 45.796875 14.203125 45.796875 21.1875 
Q 45.796875 27.640625 41.28125 31.265625 
Q 36.765625 34.90625 28.71875 34.90625 
L 20.21875 34.90625 
L 20.21875 43.015625 
L 29.109375 43.015625 
Q 36.375 43.015625 40.234375 45.921875 
Q 44.09375 48.828125 44.09375 54.296875 
Q 44.09375 59.90625 40.109375 62.90625 
Q 36.140625 65.921875 28.71875 65.921875 
Q 24.65625 65.921875 20.015625 65.03125 
Q 15.375 64.15625 9.8125 62.3125 
L 9.8125 71.09375 
Q 15.4375 72.65625 20.34375 73.4375 
Q 25.25 74.21875 29.59375 74.21875 
Q 40.828125 74.21875 47.359375 69.109375 
Q 53.90625 64.015625 53.90625 55.328125 
Q 53.90625 49.265625 50.4375 45.09375 
Q 46.96875 40.921875 40.578125 39.3125 
z
" id="DejaVuSans-51"/>
      </defs>
      <g transform="translate(494.128977 527.238438)scale(0.1 -0.1)">
       <use xlink:href="#DejaVuSans-51"/>
       <use x="63.623047" xlink:href="#DejaVuSans-48"/>
       <use x="127.246094" xlink:href="#DejaVuSans-48"/>
      </g>
     </g>
    </g>
    <g id="xtick_5">
     <g id="line2d_5">
      <g>
       <use style="stroke:#000000;stroke-width:0.8;" x="625.418182" xlink:href="#md63ea441ed" y="512.64"/>
      </g>
     </g>
     <g id="text_5">
      <!-- 400 -->
      <defs>
       <path d="M 37.796875 64.3125 
L 12.890625 25.390625 
L 37.796875 25.390625 
z
M 35.203125 72.90625 
L 47.609375 72.90625 
L 47.609375 25.390625 
L 58.015625 25.390625 
L 58.015625 17.1875 
L 47.609375 17.1875 
L 47.609375 0 
L 37.796875 0 
L 37.796875 17.1875 
L 4.890625 17.1875 
L 4.890625 26.703125 
z
" id="DejaVuSans-52"/>
      </defs>
      <g transform="translate(615.874432 527.238438)scale(0.1 -0.1)">
       <use xlink:href="#DejaVuSans-52"/>
       <use x="63.623047" xlink:href="#DejaVuSans-48"/>
       <use x="127.246094" xlink:href="#DejaVuSans-48"/>
      </g>
     </g>
    </g>
    <g id="xtick_6">
     <g id="line2d_6">
      <g>
       <use style="stroke:#000000;stroke-width:0.8;" x="747.163636" xlink:href="#md63ea441ed" y="512.64"/>
      </g>
     </g>
     <g id="text_6">
      <!-- 500 -->
      <defs>
       <path d="M 10.796875 72.90625 
L 49.515625 72.90625 
L 49.515625 64.59375 
L 19.828125 64.59375 
L 19.828125 46.734375 
Q 21.96875 47.46875 24.109375 47.828125 
Q 26.265625 48.1875 28.421875 48.1875 
Q 40.625 48.1875 47.75 41.5 
Q 54.890625 34.8125 54.890625 23.390625 
Q 54.890625 11.625 47.5625 5.09375 
Q 40.234375 -1.421875 26.90625 -1.421875 
Q 22.3125 -1.421875 17.546875 -0.640625 
Q 12.796875 0.140625 7.71875 1.703125 
L 7.71875 11.625 
Q 12.109375 9.234375 16.796875 8.0625 
Q 21.484375 6.890625 26.703125 6.890625 
Q 35.15625 6.890625 40.078125 11.328125 
Q 45.015625 15.765625 45.015625 23.390625 
Q 45.015625 31 40.078125 35.4375 
Q 35.15625 39.890625 26.703125 39.890625 
Q 22.75 39.890625 18.8125 39.015625 
Q 14.890625 38.140625 10.796875 36.28125 
z
" id="DejaVuSans-53"/>
      </defs>
      <g transform="translate(737.619886 527.238438)scale(0.1 -0.1)">
       <use xlink:href="#DejaVuSans-53"/>
       <use x="63.623047" xlink:href="#DejaVuSans-48"/>
       <use x="127.246094" xlink:href="#DejaVuSans-48"/>
      </g>
     </g>
    </g>
    <g id="text_7">
     <!-- Age/year -->
     <defs>
      <path d="M 34.1875 63.1875 
L 20.796875 26.90625 
L 47.609375 26.90625 
z
M 28.609375 72.90625 
L 39.796875 72.90625 
L 67.578125 0 
L 57.328125 0 
L 50.6875 18.703125 
L 17.828125 18.703125 
L 11.1875 0 
L 0.78125 0 
z
" id="DejaVuSans-65"/>
      <path d="M 45.40625 27.984375 
Q 45.40625 37.75 41.375 43.109375 
Q 37.359375 48.484375 30.078125 48.484375 
Q 22.859375 48.484375 18.828125 43.109375 
Q 14.796875 37.75 14.796875 27.984375 
Q 14.796875 18.265625 18.828125 12.890625 
Q 22.859375 7.515625 30.078125 7.515625 
Q 37.359375 7.515625 41.375 12.890625 
Q 45.40625 18.265625 45.40625 27.984375 
z
M 54.390625 6.78125 
Q 54.390625 -7.171875 48.1875 -13.984375 
Q 42 -20.796875 29.203125 -20.796875 
Q 24.46875 -20.796875 20.265625 -20.09375 
Q 16.0625 -19.390625 12.109375 -17.921875 
L 12.109375 -9.1875 
Q 16.0625 -11.328125 19.921875 -12.34375 
Q 23.78125 -13.375 27.78125 -13.375 
Q 36.625 -13.375 41.015625 -8.765625 
Q 45.40625 -4.15625 45.40625 5.171875 
L 45.40625 9.625 
Q 42.625 4.78125 38.28125 2.390625 
Q 33.9375 0 27.875 0 
Q 17.828125 0 11.671875 7.65625 
Q 5.515625 15.328125 5.515625 27.984375 
Q 5.515625 40.671875 11.671875 48.328125 
Q 17.828125 56 27.875 56 
Q 33.9375 56 38.28125 53.609375 
Q 42.625 51.21875 45.40625 46.390625 
L 45.40625 54.6875 
L 54.390625 54.6875 
z
" id="DejaVuSans-103"/>
      <path d="M 56.203125 29.59375 
L 56.203125 25.203125 
L 14.890625 25.203125 
Q 15.484375 15.921875 20.484375 11.0625 
Q 25.484375 6.203125 34.421875 6.203125 
Q 39.59375 6.203125 44.453125 7.46875 
Q 49.3125 8.734375 54.109375 11.28125 
L 54.109375 2.78125 
Q 49.265625 0.734375 44.1875 -0.34375 
Q 39.109375 -1.421875 33.890625 -1.421875 
Q 20.796875 -1.421875 13.15625 6.1875 
Q 5.515625 13.8125 5.515625 26.8125 
Q 5.515625 40.234375 12.765625 48.109375 
Q 20.015625 56 32.328125 56 
Q 43.359375 56 49.78125 48.890625 
Q 56.203125 41.796875 56.203125 29.59375 
z
M 47.21875 32.234375 
Q 47.125 39.59375 43.09375 43.984375 
Q 39.0625 48.390625 32.421875 48.390625 
Q 24.90625 48.390625 20.390625 44.140625 
Q 15.875 39.890625 15.1875 32.171875 
z
" id="DejaVuSans-101"/>
      <path d="M 25.390625 72.90625 
L 33.6875 72.90625 
L 8.296875 -9.28125 
L 0 -9.28125 
z
" id="DejaVuSans-47"/>
      <path d="M 32.171875 -5.078125 
Q 28.375 -14.84375 24.75 -17.8125 
Q 21.140625 -20.796875 15.09375 -20.796875 
L 7.90625 -20.796875 
L 7.90625 -13.28125 
L 13.1875 -13.28125 
Q 16.890625 -13.28125 18.9375 -11.515625 
Q 21 -9.765625 23.484375 -3.21875 
L 25.09375 0.875 
L 2.984375 54.6875 
L 12.5 54.6875 
L 29.59375 11.921875 
L 46.6875 54.6875 
L 56.203125 54.6875 
z
" id="DejaVuSans-121"/>
      <path d="M 34.28125 27.484375 
Q 23.390625 27.484375 19.1875 25 
Q 14.984375 22.515625 14.984375 16.5 
Q 14.984375 11.71875 18.140625 8.90625 
Q 21.296875 6.109375 26.703125 6.109375 
Q 34.1875 6.109375 38.703125 11.40625 
Q 43.21875 16.703125 43.21875 25.484375 
L 43.21875 27.484375 
z
M 52.203125 31.203125 
L 52.203125 0 
L 43.21875 0 
L 43.21875 8.296875 
Q 40.140625 3.328125 35.546875 0.953125 
Q 30.953125 -1.421875 24.3125 -1.421875 
Q 15.921875 -1.421875 10.953125 3.296875 
Q 6 8.015625 6 15.921875 
Q 6 25.140625 12.171875 29.828125 
Q 18.359375 34.515625 30.609375 34.515625 
L 43.21875 34.515625 
L 43.21875 35.40625 
Q 43.21875 41.609375 39.140625 45 
Q 35.0625 48.390625 27.6875 48.390625 
Q 23 48.390625 18.546875 47.265625 
Q 14.109375 46.140625 10.015625 43.890625 
L 10.015625 52.203125 
Q 14.9375 54.109375 19.578125 55.046875 
Q 24.21875 56 28.609375 56 
Q 40.484375 56 46.34375 49.84375 
Q 52.203125 43.703125 52.203125 31.203125 
z
" id="DejaVuSans-97"/>
      <path d="M 41.109375 46.296875 
Q 39.59375 47.171875 37.8125 47.578125 
Q 36.03125 48 33.890625 48 
Q 26.265625 48 22.1875 43.046875 
Q 18.109375 38.09375 18.109375 28.8125 
L 18.109375 0 
L 9.078125 0 
L 9.078125 54.6875 
L 18.109375 54.6875 
L 18.109375 46.1875 
Q 20.953125 51.171875 25.484375 53.578125 
Q 30.03125 56 36.53125 56 
Q 37.453125 56 38.578125 55.875 
Q 39.703125 55.765625 41.0625 55.515625 
z
" id="DejaVuSans-114"/>
     </defs>
     <g transform="translate(420.289062 540.916563)scale(0.1 -0.1)">
      <use xlink:href="#DejaVuSans-65"/>
      <use x="68.408203" xlink:href="#DejaVuSans-103"/>
      <use x="131.884766" xlink:href="#DejaVuSans-101"/>
      <use x="193.408203" xlink:href="#DejaVuSans-47"/>
      <use x="227.099609" xlink:href="#DejaVuSans-121"/>
      <use x="286.279297" xlink:href="#DejaVuSans-101"/>
      <use x="347.802734" xlink:href="#DejaVuSans-97"/>
      <use x="409.082031" xlink:href="#DejaVuSans-114"/>
     </g>
    </g>
   </g>
   <g id="matplotlib.axis_2">
    <g id="ytick_1">
     <g id="line2d_7">
      <defs>
       <path d="M 0 0 
L -3.5 0 
" id="m6153327f34" style="stroke:#000000;stroke-width:0.8;"/>
      </defs>
      <g>
       <use style="stroke:#000000;stroke-width:0.8;" x="108" xlink:href="#m6153327f34" y="494.243269"/>
      </g>
     </g>
     <g id="text_8">
      <!-- 0 -->
      <g transform="translate(94.6375 498.042488)scale(0.1 -0.1)">
       <use xlink:href="#DejaVuSans-48"/>
      </g>
     </g>
    </g>
    <g id="ytick_2">
     <g id="line2d_8">
      <g>
       <use style="stroke:#000000;stroke-width:0.8;" x="108" xlink:href="#m6153327f34" y="400.5769"/>
      </g>
     </g>
     <g id="text_9">
      <!-- 50000 -->
      <g transform="translate(69.1875 404.376119)scale(0.1 -0.1)">
       <use xlink:href="#DejaVuSans-53"/>
       <use x="63.623047" xlink:href="#DejaVuSans-48"/>
       <use x="127.246094" xlink:href="#DejaVuSans-48"/>
       <use x="190.869141" xlink:href="#DejaVuSans-48"/>
       <use x="254.492188" xlink:href="#DejaVuSans-48"/>
      </g>
     </g>
    </g>
    <g id="ytick_3">
     <g id="line2d_9">
      <g>
       <use style="stroke:#000000;stroke-width:0.8;" x="108" xlink:href="#m6153327f34" y="306.910531"/>
      </g>
     </g>
     <g id="text_10">
      <!-- 100000 -->
      <g transform="translate(62.825 310.70975)scale(0.1 -0.1)">
       <use xlink:href="#DejaVuSans-49"/>
       <use x="63.623047" xlink:href="#DejaVuSans-48"/>
       <use x="127.246094" xlink:href="#DejaVuSans-48"/>
       <use x="190.869141" xlink:href="#DejaVuSans-48"/>
       <use x="254.492188" xlink:href="#DejaVuSans-48"/>
       <use x="318.115234" xlink:href="#DejaVuSans-48"/>
      </g>
     </g>
    </g>
    <g id="ytick_4">
     <g id="line2d_10">
      <g>
       <use style="stroke:#000000;stroke-width:0.8;" x="108" xlink:href="#m6153327f34" y="213.244161"/>
      </g>
     </g>
     <g id="text_11">
      <!-- 150000 -->
      <g transform="translate(62.825 217.04338)scale(0.1 -0.1)">
       <use xlink:href="#DejaVuSans-49"/>
       <use x="63.623047" xlink:href="#DejaVuSans-53"/>
       <use x="127.246094" xlink:href="#DejaVuSans-48"/>
       <use x="190.869141" xlink:href="#DejaVuSans-48"/>
       <use x="254.492188" xlink:href="#DejaVuSans-48"/>
       <use x="318.115234" xlink:href="#DejaVuSans-48"/>
      </g>
     </g>
    </g>
    <g id="ytick_5">
     <g id="line2d_11">
      <g>
       <use style="stroke:#000000;stroke-width:0.8;" x="108" xlink:href="#m6153327f34" y="119.577792"/>
      </g>
     </g>
     <g id="text_12">
      <!-- 200000 -->
      <g transform="translate(62.825 123.377011)scale(0.1 -0.1)">
       <use xlink:href="#DejaVuSans-50"/>
       <use x="63.623047" xlink:href="#DejaVuSans-48"/>
       <use x="127.246094" xlink:href="#DejaVuSans-48"/>
       <use x="190.869141" xlink:href="#DejaVuSans-48"/>
       <use x="254.492188" xlink:href="#DejaVuSans-48"/>
       <use x="318.115234" xlink:href="#DejaVuSans-48"/>
      </g>
     </g>
    </g>
   </g>
   <g id="line2d_12">
    <path clip-path="url(#pe389d6cdb8)" d="M 138.436364 492.48 
L 146.958545 492.48 
L 148.176 490.329888 
L 150.610909 490.329888 
L 153.045818 488.395678 
L 154.263273 486.052145 
L 155.480727 486.052145 
L 156.698182 483.902034 
L 157.915636 483.12835 
L 161.568 477.64512 
L 162.785455 474.721325 
L 164.002909 472.958055 
L 165.220364 471.797529 
L 166.437818 468.680312 
L 167.655273 467.326365 
L 168.872727 464.209148 
L 170.090182 462.059037 
L 171.307636 458.145656 
L 173.742545 454.232275 
L 174.96 450.318894 
L 176.177455 448.168782 
L 177.394909 444.255401 
L 178.612364 442.492132 
L 179.829818 439.374915 
L 181.047273 434.881271 
L 182.264727 432.537739 
L 183.482182 428.430937 
L 184.699636 426.087404 
L 185.917091 421.980602 
L 187.134545 419.443649 
L 188.352 415.143426 
L 189.569455 412.799893 
L 190.786909 409.295834 
L 192.004364 405.382453 
L 193.221818 402.265236 
L 195.656727 394.267533 
L 196.874182 391.343738 
L 198.091636 387.839679 
L 200.526545 380.012917 
L 201.744 376.8957 
L 202.961455 372.208635 
L 204.178909 369.671682 
L 205.396364 364.597774 
L 206.613818 361.8674 
L 207.831273 357.373756 
L 209.048727 355.223644 
L 210.266182 351.719585 
L 212.701091 343.33504 
L 213.918545 340.991508 
L 215.136 335.9176 
L 216.353455 332.391062 
L 217.570909 330.24095 
L 218.788364 326.714411 
L 220.005818 323.597194 
L 221.223273 320.070656 
L 222.440727 315.770433 
L 226.093091 305.019875 
L 227.310545 303.256606 
L 228.528 299.536646 
L 229.745455 296.806271 
L 230.962909 292.699469 
L 232.180364 289.775674 
L 233.397818 286.249135 
L 234.615273 284.292444 
L 237.050182 276.659103 
L 238.267636 274.702413 
L 239.485091 272.165459 
L 240.702545 267.671815 
L 243.137455 262.98475 
L 244.354909 260.060955 
L 245.572364 257.717422 
L 246.789818 253.417199 
L 248.007273 250.880245 
L 250.442182 246.773443 
L 251.659636 242.860062 
L 252.877091 241.096793 
L 255.312 236.409728 
L 256.529455 232.689768 
L 257.746909 229.765972 
L 260.181818 225.65917 
L 261.399273 222.735375 
L 262.616727 220.972105 
L 263.834182 218.435152 
L 265.051636 217.274625 
L 266.269091 215.124514 
L 267.486545 211.620455 
L 269.921455 207.513653 
L 271.138909 204.976699 
L 272.356364 202.826588 
L 273.573818 202.246325 
L 274.791273 198.719786 
L 280.878545 189.129755 
L 284.530909 183.839946 
L 285.748364 183.646525 
L 288.183273 179.539723 
L 289.400727 178.572618 
L 290.618182 175.842244 
L 291.835636 173.885553 
L 293.053091 173.692132 
L 297.922909 166.445633 
L 299.140364 166.252212 
L 300.357818 163.715259 
L 301.575273 163.521838 
L 302.792727 162.16789 
L 306.445091 156.684661 
L 307.662545 156.684661 
L 310.097455 152.77128 
L 311.314909 152.77128 
L 312.532364 150.81459 
L 313.749818 150.81459 
L 314.967273 148.471057 
L 316.184727 148.471057 
L 318.619636 144.751097 
L 319.837091 144.751097 
L 321.054545 144.170834 
L 322.272 143.203729 
L 323.489455 141.440459 
L 324.706909 141.053617 
L 325.924364 138.710085 
L 327.141818 138.710085 
L 328.359273 136.946815 
L 329.576727 136.946815 
L 330.794182 136.366552 
L 332.011636 134.02302 
L 333.229091 134.02302 
L 334.446545 132.25975 
L 335.664 132.25975 
L 336.881455 130.496481 
L 339.316364 130.496481 
L 340.533818 128.53979 
L 341.751273 128.53979 
L 342.968727 128.152948 
L 344.186182 126.196258 
L 345.403636 126.196258 
L 346.621091 126.002837 
L 347.838545 124.046146 
L 350.273455 124.046146 
L 351.490909 121.896035 
L 353.925818 121.896035 
L 355.143273 120.132765 
L 357.578182 120.132765 
L 358.795636 118.369496 
L 361.230545 118.369496 
L 362.448 117.982654 
L 363.665455 115.832542 
L 367.317818 115.832542 
L 368.535273 115.252279 
L 369.752727 113.48901 
L 373.405091 113.48901 
L 374.622545 111.338898 
L 378.274909 111.338898 
L 379.492364 109.575629 
L 384.362182 109.575629 
L 386.797091 108.801945 
L 388.014545 107.038675 
L 392.884364 107.038675 
L 395.319273 106.264991 
L 396.536727 106.07157 
L 397.754182 105.684728 
L 398.971636 105.491307 
L 401.406545 104.717623 
L 402.624 102.954353 
L 408.711273 102.954353 
L 413.581091 102.180669 
L 414.798545 100.223979 
L 423.320727 100.223979 
L 425.755636 99.837136 
L 426.973091 98.073867 
L 437.930182 98.073867 
L 440.365091 97.687025 
L 441.582545 97.687025 
L 445.234909 97.106762 
L 446.452364 97.106762 
L 448.887273 96.71992 
L 450.104727 94.95665 
L 468.366545 94.95665 
L 469.584 94.763229 
L 470.801455 94.763229 
L 472.018909 94.569808 
L 473.236364 94.569808 
L 474.453818 92.806539 
L 502.455273 92.806539 
L 503.672727 91.043269 
L 564.545455 91.043269 
L 565.762909 89.28 
L 747.163636 89.28 
L 747.163636 89.28 
" style="fill:none;stroke:#ff0000;stroke-linecap:square;stroke-width:1.5;"/>
   </g>
   <g id="patch_3">
    <path d="M 108 512.64 
L 108 69.12 
" style="fill:none;stroke:#000000;stroke-linecap:square;stroke-linejoin:miter;stroke-width:0.8;"/>
   </g>
   <g id="patch_4">
    <path d="M 777.6 512.64 
L 777.6 69.12 
" style="fill:none;stroke:#000000;stroke-linecap:square;stroke-linejoin:miter;stroke-width:0.8;"/>
   </g>
   <g id="patch_5">
    <path d="M 108 512.64 
L 777.6 512.64 
" style="fill:none;stroke:#000000;stroke-linecap:square;stroke-linejoin:miter;stroke-width:0.8;"/>
   </g>
   <g id="patch_6">
    <path d="M 108 69.12 
L 777.6 69.12 
" style="fill:none;stroke:#000000;stroke-linecap:square;stroke-linejoin:miter;stroke-width:0.8;"/>
   </g>
   <g id="text_13">
    <!-- Energy expenditures of a dragon and number of preys eaten in two days changes with age -->
    <defs>
     <path d="M 9.8125 72.90625 
L 55.90625 72.90625 
L 55.90625 64.59375 
L 19.671875 64.59375 
L 19.671875 43.015625 
L 54.390625 43.015625 
L 54.390625 34.71875 
L 19.671875 34.71875 
L 19.671875 8.296875 
L 56.78125 8.296875 
L 56.78125 0 
L 9.8125 0 
z
" id="DejaVuSans-69"/>
     <path d="M 54.890625 33.015625 
L 54.890625 0 
L 45.90625 0 
L 45.90625 32.71875 
Q 45.90625 40.484375 42.875 44.328125 
Q 39.84375 48.1875 33.796875 48.1875 
Q 26.515625 48.1875 22.3125 43.546875 
Q 18.109375 38.921875 18.109375 30.90625 
L 18.109375 0 
L 9.078125 0 
L 9.078125 54.6875 
L 18.109375 54.6875 
L 18.109375 46.1875 
Q 21.34375 51.125 25.703125 53.5625 
Q 30.078125 56 35.796875 56 
Q 45.21875 56 50.046875 50.171875 
Q 54.890625 44.34375 54.890625 33.015625 
z
" id="DejaVuSans-110"/>
     <path id="DejaVuSans-32"/>
     <path d="M 54.890625 54.6875 
L 35.109375 28.078125 
L 55.90625 0 
L 45.3125 0 
L 29.390625 21.484375 
L 13.484375 0 
L 2.875 0 
L 24.125 28.609375 
L 4.6875 54.6875 
L 15.28125 54.6875 
L 29.78125 35.203125 
L 44.28125 54.6875 
z
" id="DejaVuSans-120"/>
     <path d="M 18.109375 8.203125 
L 18.109375 -20.796875 
L 9.078125 -20.796875 
L 9.078125 54.6875 
L 18.109375 54.6875 
L 18.109375 46.390625 
Q 20.953125 51.265625 25.265625 53.625 
Q 29.59375 56 35.59375 56 
Q 45.5625 56 51.78125 48.09375 
Q 58.015625 40.1875 58.015625 27.296875 
Q 58.015625 14.40625 51.78125 6.484375 
Q 45.5625 -1.421875 35.59375 -1.421875 
Q 29.59375 -1.421875 25.265625 0.953125 
Q 20.953125 3.328125 18.109375 8.203125 
z
M 48.6875 27.296875 
Q 48.6875 37.203125 44.609375 42.84375 
Q 40.53125 48.484375 33.40625 48.484375 
Q 26.265625 48.484375 22.1875 42.84375 
Q 18.109375 37.203125 18.109375 27.296875 
Q 18.109375 17.390625 22.1875 11.75 
Q 26.265625 6.109375 33.40625 6.109375 
Q 40.53125 6.109375 44.609375 11.75 
Q 48.6875 17.390625 48.6875 27.296875 
z
" id="DejaVuSans-112"/>
     <path d="M 45.40625 46.390625 
L 45.40625 75.984375 
L 54.390625 75.984375 
L 54.390625 0 
L 45.40625 0 
L 45.40625 8.203125 
Q 42.578125 3.328125 38.25 0.953125 
Q 33.9375 -1.421875 27.875 -1.421875 
Q 17.96875 -1.421875 11.734375 6.484375 
Q 5.515625 14.40625 5.515625 27.296875 
Q 5.515625 40.1875 11.734375 48.09375 
Q 17.96875 56 27.875 56 
Q 33.9375 56 38.25 53.625 
Q 42.578125 51.265625 45.40625 46.390625 
z
M 14.796875 27.296875 
Q 14.796875 17.390625 18.875 11.75 
Q 22.953125 6.109375 30.078125 6.109375 
Q 37.203125 6.109375 41.296875 11.75 
Q 45.40625 17.390625 45.40625 27.296875 
Q 45.40625 37.203125 41.296875 42.84375 
Q 37.203125 48.484375 30.078125 48.484375 
Q 22.953125 48.484375 18.875 42.84375 
Q 14.796875 37.203125 14.796875 27.296875 
z
" id="DejaVuSans-100"/>
     <path d="M 9.421875 54.6875 
L 18.40625 54.6875 
L 18.40625 0 
L 9.421875 0 
z
M 9.421875 75.984375 
L 18.40625 75.984375 
L 18.40625 64.59375 
L 9.421875 64.59375 
z
" id="DejaVuSans-105"/>
     <path d="M 18.3125 70.21875 
L 18.3125 54.6875 
L 36.8125 54.6875 
L 36.8125 47.703125 
L 18.3125 47.703125 
L 18.3125 18.015625 
Q 18.3125 11.328125 20.140625 9.421875 
Q 21.96875 7.515625 27.59375 7.515625 
L 36.8125 7.515625 
L 36.8125 0 
L 27.59375 0 
Q 17.1875 0 13.234375 3.875 
Q 9.28125 7.765625 9.28125 18.015625 
L 9.28125 47.703125 
L 2.6875 47.703125 
L 2.6875 54.6875 
L 9.28125 54.6875 
L 9.28125 70.21875 
z
" id="DejaVuSans-116"/>
     <path d="M 8.5 21.578125 
L 8.5 54.6875 
L 17.484375 54.6875 
L 17.484375 21.921875 
Q 17.484375 14.15625 20.5 10.265625 
Q 23.53125 6.390625 29.59375 6.390625 
Q 36.859375 6.390625 41.078125 11.03125 
Q 45.3125 15.671875 45.3125 23.6875 
L 45.3125 54.6875 
L 54.296875 54.6875 
L 54.296875 0 
L 45.3125 0 
L 45.3125 8.40625 
Q 42.046875 3.421875 37.71875 1 
Q 33.40625 -1.421875 27.6875 -1.421875 
Q 18.265625 -1.421875 13.375 4.4375 
Q 8.5 10.296875 8.5 21.578125 
z
M 31.109375 56 
z
" id="DejaVuSans-117"/>
     <path d="M 44.28125 53.078125 
L 44.28125 44.578125 
Q 40.484375 46.53125 36.375 47.5 
Q 32.28125 48.484375 27.875 48.484375 
Q 21.1875 48.484375 17.84375 46.4375 
Q 14.5 44.390625 14.5 40.28125 
Q 14.5 37.15625 16.890625 35.375 
Q 19.28125 33.59375 26.515625 31.984375 
L 29.59375 31.296875 
Q 39.15625 29.25 43.1875 25.515625 
Q 47.21875 21.78125 47.21875 15.09375 
Q 47.21875 7.46875 41.1875 3.015625 
Q 35.15625 -1.421875 24.609375 -1.421875 
Q 20.21875 -1.421875 15.453125 -0.5625 
Q 10.6875 0.296875 5.421875 2 
L 5.421875 11.28125 
Q 10.40625 8.6875 15.234375 7.390625 
Q 20.0625 6.109375 24.8125 6.109375 
Q 31.15625 6.109375 34.5625 8.28125 
Q 37.984375 10.453125 37.984375 14.40625 
Q 37.984375 18.0625 35.515625 20.015625 
Q 33.0625 21.96875 24.703125 23.78125 
L 21.578125 24.515625 
Q 13.234375 26.265625 9.515625 29.90625 
Q 5.8125 33.546875 5.8125 39.890625 
Q 5.8125 47.609375 11.28125 51.796875 
Q 16.75 56 26.8125 56 
Q 31.78125 56 36.171875 55.265625 
Q 40.578125 54.546875 44.28125 53.078125 
z
" id="DejaVuSans-115"/>
     <path d="M 30.609375 48.390625 
Q 23.390625 48.390625 19.1875 42.75 
Q 14.984375 37.109375 14.984375 27.296875 
Q 14.984375 17.484375 19.15625 11.84375 
Q 23.34375 6.203125 30.609375 6.203125 
Q 37.796875 6.203125 41.984375 11.859375 
Q 46.1875 17.53125 46.1875 27.296875 
Q 46.1875 37.015625 41.984375 42.703125 
Q 37.796875 48.390625 30.609375 48.390625 
z
M 30.609375 56 
Q 42.328125 56 49.015625 48.375 
Q 55.71875 40.765625 55.71875 27.296875 
Q 55.71875 13.875 49.015625 6.21875 
Q 42.328125 -1.421875 30.609375 -1.421875 
Q 18.84375 -1.421875 12.171875 6.21875 
Q 5.515625 13.875 5.515625 27.296875 
Q 5.515625 40.765625 12.171875 48.375 
Q 18.84375 56 30.609375 56 
z
" id="DejaVuSans-111"/>
     <path d="M 37.109375 75.984375 
L 37.109375 68.5 
L 28.515625 68.5 
Q 23.6875 68.5 21.796875 66.546875 
Q 19.921875 64.59375 19.921875 59.515625 
L 19.921875 54.6875 
L 34.71875 54.6875 
L 34.71875 47.703125 
L 19.921875 47.703125 
L 19.921875 0 
L 10.890625 0 
L 10.890625 47.703125 
L 2.296875 47.703125 
L 2.296875 54.6875 
L 10.890625 54.6875 
L 10.890625 58.5 
Q 10.890625 67.625 15.140625 71.796875 
Q 19.390625 75.984375 28.609375 75.984375 
z
" id="DejaVuSans-102"/>
     <path d="M 52 44.1875 
Q 55.375 50.25 60.0625 53.125 
Q 64.75 56 71.09375 56 
Q 79.640625 56 84.28125 50.015625 
Q 88.921875 44.046875 88.921875 33.015625 
L 88.921875 0 
L 79.890625 0 
L 79.890625 32.71875 
Q 79.890625 40.578125 77.09375 44.375 
Q 74.3125 48.1875 68.609375 48.1875 
Q 61.625 48.1875 57.5625 43.546875 
Q 53.515625 38.921875 53.515625 30.90625 
L 53.515625 0 
L 44.484375 0 
L 44.484375 32.71875 
Q 44.484375 40.625 41.703125 44.40625 
Q 38.921875 48.1875 33.109375 48.1875 
Q 26.21875 48.1875 22.15625 43.53125 
Q 18.109375 38.875 18.109375 30.90625 
L 18.109375 0 
L 9.078125 0 
L 9.078125 54.6875 
L 18.109375 54.6875 
L 18.109375 46.1875 
Q 21.1875 51.21875 25.484375 53.609375 
Q 29.78125 56 35.6875 56 
Q 41.65625 56 45.828125 52.96875 
Q 50 49.953125 52 44.1875 
z
" id="DejaVuSans-109"/>
     <path d="M 48.6875 27.296875 
Q 48.6875 37.203125 44.609375 42.84375 
Q 40.53125 48.484375 33.40625 48.484375 
Q 26.265625 48.484375 22.1875 42.84375 
Q 18.109375 37.203125 18.109375 27.296875 
Q 18.109375 17.390625 22.1875 11.75 
Q 26.265625 6.109375 33.40625 6.109375 
Q 40.53125 6.109375 44.609375 11.75 
Q 48.6875 17.390625 48.6875 27.296875 
z
M 18.109375 46.390625 
Q 20.953125 51.265625 25.265625 53.625 
Q 29.59375 56 35.59375 56 
Q 45.5625 56 51.78125 48.09375 
Q 58.015625 40.1875 58.015625 27.296875 
Q 58.015625 14.40625 51.78125 6.484375 
Q 45.5625 -1.421875 35.59375 -1.421875 
Q 29.59375 -1.421875 25.265625 0.953125 
Q 20.953125 3.328125 18.109375 8.203125 
L 18.109375 0 
L 9.078125 0 
L 9.078125 75.984375 
L 18.109375 75.984375 
z
" id="DejaVuSans-98"/>
     <path d="M 4.203125 54.6875 
L 13.1875 54.6875 
L 24.421875 12.015625 
L 35.59375 54.6875 
L 46.1875 54.6875 
L 57.421875 12.015625 
L 68.609375 54.6875 
L 77.59375 54.6875 
L 63.28125 0 
L 52.6875 0 
L 40.921875 44.828125 
L 29.109375 0 
L 18.5 0 
z
" id="DejaVuSans-119"/>
     <path d="M 48.78125 52.59375 
L 48.78125 44.1875 
Q 44.96875 46.296875 41.140625 47.34375 
Q 37.3125 48.390625 33.40625 48.390625 
Q 24.65625 48.390625 19.8125 42.84375 
Q 14.984375 37.3125 14.984375 27.296875 
Q 14.984375 17.28125 19.8125 11.734375 
Q 24.65625 6.203125 33.40625 6.203125 
Q 37.3125 6.203125 41.140625 7.25 
Q 44.96875 8.296875 48.78125 10.40625 
L 48.78125 2.09375 
Q 45.015625 0.34375 40.984375 -0.53125 
Q 36.96875 -1.421875 32.421875 -1.421875 
Q 20.0625 -1.421875 12.78125 6.34375 
Q 5.515625 14.109375 5.515625 27.296875 
Q 5.515625 40.671875 12.859375 48.328125 
Q 20.21875 56 33.015625 56 
Q 37.15625 56 41.109375 55.140625 
Q 45.0625 54.296875 48.78125 52.59375 
z
" id="DejaVuSans-99"/>
     <path d="M 54.890625 33.015625 
L 54.890625 0 
L 45.90625 0 
L 45.90625 32.71875 
Q 45.90625 40.484375 42.875 44.328125 
Q 39.84375 48.1875 33.796875 48.1875 
Q 26.515625 48.1875 22.3125 43.546875 
Q 18.109375 38.921875 18.109375 30.90625 
L 18.109375 0 
L 9.078125 0 
L 9.078125 75.984375 
L 18.109375 75.984375 
L 18.109375 46.1875 
Q 21.34375 51.125 25.703125 53.5625 
Q 30.078125 56 35.796875 56 
Q 45.21875 56 50.046875 50.171875 
Q 54.890625 44.34375 54.890625 33.015625 
z
" id="DejaVuSans-104"/>
    </defs>
    <g transform="translate(168.908438 63.12)scale(0.12 -0.12)">
     <use xlink:href="#DejaVuSans-69"/>
     <use x="63.183594" xlink:href="#DejaVuSans-110"/>
     <use x="126.5625" xlink:href="#DejaVuSans-101"/>
     <use x="188.085938" xlink:href="#DejaVuSans-114"/>
     <use x="229.183594" xlink:href="#DejaVuSans-103"/>
     <use x="292.660156" xlink:href="#DejaVuSans-121"/>
     <use x="351.839844" xlink:href="#DejaVuSans-32"/>
     <use x="383.626953" xlink:href="#DejaVuSans-101"/>
     <use x="445.134766" xlink:href="#DejaVuSans-120"/>
     <use x="504.314453" xlink:href="#DejaVuSans-112"/>
     <use x="567.791016" xlink:href="#DejaVuSans-101"/>
     <use x="629.314453" xlink:href="#DejaVuSans-110"/>
     <use x="692.693359" xlink:href="#DejaVuSans-100"/>
     <use x="756.169922" xlink:href="#DejaVuSans-105"/>
     <use x="783.953125" xlink:href="#DejaVuSans-116"/>
     <use x="823.162109" xlink:href="#DejaVuSans-117"/>
     <use x="886.541016" xlink:href="#DejaVuSans-114"/>
     <use x="927.623047" xlink:href="#DejaVuSans-101"/>
     <use x="989.146484" xlink:href="#DejaVuSans-115"/>
     <use x="1041.246094" xlink:href="#DejaVuSans-32"/>
     <use x="1073.033203" xlink:href="#DejaVuSans-111"/>
     <use x="1134.214844" xlink:href="#DejaVuSans-102"/>
     <use x="1169.419922" xlink:href="#DejaVuSans-32"/>
     <use x="1201.207031" xlink:href="#DejaVuSans-97"/>
     <use x="1262.486328" xlink:href="#DejaVuSans-32"/>
     <use x="1294.273438" xlink:href="#DejaVuSans-100"/>
     <use x="1357.75" xlink:href="#DejaVuSans-114"/>
     <use x="1398.863281" xlink:href="#DejaVuSans-97"/>
     <use x="1460.142578" xlink:href="#DejaVuSans-103"/>
     <use x="1523.619141" xlink:href="#DejaVuSans-111"/>
     <use x="1584.800781" xlink:href="#DejaVuSans-110"/>
     <use x="1648.179688" xlink:href="#DejaVuSans-32"/>
     <use x="1679.966797" xlink:href="#DejaVuSans-97"/>
     <use x="1741.246094" xlink:href="#DejaVuSans-110"/>
     <use x="1804.625" xlink:href="#DejaVuSans-100"/>
     <use x="1868.101562" xlink:href="#DejaVuSans-32"/>
     <use x="1899.888672" xlink:href="#DejaVuSans-110"/>
     <use x="1963.267578" xlink:href="#DejaVuSans-117"/>
     <use x="2026.646484" xlink:href="#DejaVuSans-109"/>
     <use x="2124.058594" xlink:href="#DejaVuSans-98"/>
     <use x="2187.535156" xlink:href="#DejaVuSans-101"/>
     <use x="2249.058594" xlink:href="#DejaVuSans-114"/>
     <use x="2290.171875" xlink:href="#DejaVuSans-32"/>
     <use x="2321.958984" xlink:href="#DejaVuSans-111"/>
     <use x="2383.140625" xlink:href="#DejaVuSans-102"/>
     <use x="2418.345703" xlink:href="#DejaVuSans-32"/>
     <use x="2450.132812" xlink:href="#DejaVuSans-112"/>
     <use x="2513.609375" xlink:href="#DejaVuSans-114"/>
     <use x="2554.691406" xlink:href="#DejaVuSans-101"/>
     <use x="2616.214844" xlink:href="#DejaVuSans-121"/>
     <use x="2675.394531" xlink:href="#DejaVuSans-115"/>
     <use x="2727.494141" xlink:href="#DejaVuSans-32"/>
     <use x="2759.28125" xlink:href="#DejaVuSans-101"/>
     <use x="2820.804688" xlink:href="#DejaVuSans-97"/>
     <use x="2882.083984" xlink:href="#DejaVuSans-116"/>
     <use x="2921.292969" xlink:href="#DejaVuSans-101"/>
     <use x="2982.816406" xlink:href="#DejaVuSans-110"/>
     <use x="3046.195312" xlink:href="#DejaVuSans-32"/>
     <use x="3077.982422" xlink:href="#DejaVuSans-105"/>
     <use x="3105.765625" xlink:href="#DejaVuSans-110"/>
     <use x="3169.144531" xlink:href="#DejaVuSans-32"/>
     <use x="3200.931641" xlink:href="#DejaVuSans-116"/>
     <use x="3240.140625" xlink:href="#DejaVuSans-119"/>
     <use x="3321.927734" xlink:href="#DejaVuSans-111"/>
     <use x="3383.109375" xlink:href="#DejaVuSans-32"/>
     <use x="3414.896484" xlink:href="#DejaVuSans-100"/>
     <use x="3478.373047" xlink:href="#DejaVuSans-97"/>
     <use x="3539.652344" xlink:href="#DejaVuSans-121"/>
     <use x="3598.832031" xlink:href="#DejaVuSans-115"/>
     <use x="3650.931641" xlink:href="#DejaVuSans-32"/>
     <use x="3682.71875" xlink:href="#DejaVuSans-99"/>
     <use x="3737.699219" xlink:href="#DejaVuSans-104"/>
     <use x="3801.078125" xlink:href="#DejaVuSans-97"/>
     <use x="3862.357422" xlink:href="#DejaVuSans-110"/>
     <use x="3925.736328" xlink:href="#DejaVuSans-103"/>
     <use x="3989.212891" xlink:href="#DejaVuSans-101"/>
     <use x="4050.736328" xlink:href="#DejaVuSans-115"/>
     <use x="4102.835938" xlink:href="#DejaVuSans-32"/>
     <use x="4134.623047" xlink:href="#DejaVuSans-119"/>
     <use x="4216.410156" xlink:href="#DejaVuSans-105"/>
     <use x="4244.193359" xlink:href="#DejaVuSans-116"/>
     <use x="4283.402344" xlink:href="#DejaVuSans-104"/>
     <use x="4346.78125" xlink:href="#DejaVuSans-32"/>
     <use x="4378.568359" xlink:href="#DejaVuSans-97"/>
     <use x="4439.847656" xlink:href="#DejaVuSans-103"/>
     <use x="4503.324219" xlink:href="#DejaVuSans-101"/>
    </g>
   </g>
   <g id="text_14">
    <!-- Energy/million calories -->
    <defs>
     <path d="M 9.421875 75.984375 
L 18.40625 75.984375 
L 18.40625 0 
L 9.421875 0 
z
" id="DejaVuSans-108"/>
    </defs>
    <g style="fill:#ff0000;" transform="translate(58.571062 332.112469)rotate(-90)scale(0.15 -0.15)">
     <use xlink:href="#DejaVuSans-69"/>
     <use x="63.183594" xlink:href="#DejaVuSans-110"/>
     <use x="126.5625" xlink:href="#DejaVuSans-101"/>
     <use x="188.085938" xlink:href="#DejaVuSans-114"/>
     <use x="229.183594" xlink:href="#DejaVuSans-103"/>
     <use x="292.660156" xlink:href="#DejaVuSans-121"/>
     <use x="351.839844" xlink:href="#DejaVuSans-47"/>
     <use x="385.53125" xlink:href="#DejaVuSans-109"/>
     <use x="482.943359" xlink:href="#DejaVuSans-105"/>
     <use x="510.726562" xlink:href="#DejaVuSans-108"/>
     <use x="538.509766" xlink:href="#DejaVuSans-108"/>
     <use x="566.292969" xlink:href="#DejaVuSans-105"/>
     <use x="594.076172" xlink:href="#DejaVuSans-111"/>
     <use x="655.257812" xlink:href="#DejaVuSans-110"/>
     <use x="718.636719" xlink:href="#DejaVuSans-32"/>
     <use x="750.423828" xlink:href="#DejaVuSans-99"/>
     <use x="805.404297" xlink:href="#DejaVuSans-97"/>
     <use x="866.683594" xlink:href="#DejaVuSans-108"/>
     <use x="894.466797" xlink:href="#DejaVuSans-111"/>
     <use x="955.648438" xlink:href="#DejaVuSans-114"/>
     <use x="996.761719" xlink:href="#DejaVuSans-105"/>
     <use x="1024.544922" xlink:href="#DejaVuSans-101"/>
     <use x="1086.068359" xlink:href="#DejaVuSans-115"/>
    </g>
   </g>
  </g>
  <g id="axes_2">
   <g id="matplotlib.axis_3">
    <g id="ytick_6">
     <g id="line2d_13">
      <defs>
       <path d="M 0 0 
L 3.5 0 
" id="md9a3f20490" style="stroke:#000000;stroke-width:0.8;"/>
      </defs>
      <g>
       <use style="stroke:#000000;stroke-width:0.8;" x="777.6" xlink:href="#md9a3f20490" y="512.64"/>
      </g>
     </g>
     <g id="text_15">
      <!-- 0 -->
      <g transform="translate(784.6 516.439219)scale(0.1 -0.1)">
       <use xlink:href="#DejaVuSans-48"/>
      </g>
     </g>
    </g>
    <g id="ytick_7">
     <g id="line2d_14">
      <g>
       <use style="stroke:#000000;stroke-width:0.8;" x="777.6" xlink:href="#md9a3f20490" y="438.72"/>
      </g>
     </g>
     <g id="text_16">
      <!-- 100 -->
      <g transform="translate(784.6 442.519219)scale(0.1 -0.1)">
       <use xlink:href="#DejaVuSans-49"/>
       <use x="63.623047" xlink:href="#DejaVuSans-48"/>
       <use x="127.246094" xlink:href="#DejaVuSans-48"/>
      </g>
     </g>
    </g>
    <g id="ytick_8">
     <g id="line2d_15">
      <g>
       <use style="stroke:#000000;stroke-width:0.8;" x="777.6" xlink:href="#md9a3f20490" y="364.8"/>
      </g>
     </g>
     <g id="text_17">
      <!-- 200 -->
      <g transform="translate(784.6 368.599219)scale(0.1 -0.1)">
       <use xlink:href="#DejaVuSans-50"/>
       <use x="63.623047" xlink:href="#DejaVuSans-48"/>
       <use x="127.246094" xlink:href="#DejaVuSans-48"/>
      </g>
     </g>
    </g>
    <g id="ytick_9">
     <g id="line2d_16">
      <g>
       <use style="stroke:#000000;stroke-width:0.8;" x="777.6" xlink:href="#md9a3f20490" y="290.88"/>
      </g>
     </g>
     <g id="text_18">
      <!-- 300 -->
      <g transform="translate(784.6 294.679219)scale(0.1 -0.1)">
       <use xlink:href="#DejaVuSans-51"/>
       <use x="63.623047" xlink:href="#DejaVuSans-48"/>
       <use x="127.246094" xlink:href="#DejaVuSans-48"/>
      </g>
     </g>
    </g>
    <g id="ytick_10">
     <g id="line2d_17">
      <g>
       <use style="stroke:#000000;stroke-width:0.8;" x="777.6" xlink:href="#md9a3f20490" y="216.96"/>
      </g>
     </g>
     <g id="text_19">
      <!-- 400 -->
      <g transform="translate(784.6 220.759219)scale(0.1 -0.1)">
       <use xlink:href="#DejaVuSans-52"/>
       <use x="63.623047" xlink:href="#DejaVuSans-48"/>
       <use x="127.246094" xlink:href="#DejaVuSans-48"/>
      </g>
     </g>
    </g>
    <g id="ytick_11">
     <g id="line2d_18">
      <g>
       <use style="stroke:#000000;stroke-width:0.8;" x="777.6" xlink:href="#md9a3f20490" y="143.04"/>
      </g>
     </g>
     <g id="text_20">
      <!-- 500 -->
      <g transform="translate(784.6 146.839219)scale(0.1 -0.1)">
       <use xlink:href="#DejaVuSans-53"/>
       <use x="63.623047" xlink:href="#DejaVuSans-48"/>
       <use x="127.246094" xlink:href="#DejaVuSans-48"/>
      </g>
     </g>
    </g>
    <g id="ytick_12">
     <g id="line2d_19">
      <g>
       <use style="stroke:#000000;stroke-width:0.8;" x="777.6" xlink:href="#md9a3f20490" y="69.12"/>
      </g>
     </g>
     <g id="text_21">
      <!-- 600 -->
      <defs>
       <path d="M 33.015625 40.375 
Q 26.375 40.375 22.484375 35.828125 
Q 18.609375 31.296875 18.609375 23.390625 
Q 18.609375 15.53125 22.484375 10.953125 
Q 26.375 6.390625 33.015625 6.390625 
Q 39.65625 6.390625 43.53125 10.953125 
Q 47.40625 15.53125 47.40625 23.390625 
Q 47.40625 31.296875 43.53125 35.828125 
Q 39.65625 40.375 33.015625 40.375 
z
M 52.59375 71.296875 
L 52.59375 62.3125 
Q 48.875 64.0625 45.09375 64.984375 
Q 41.3125 65.921875 37.59375 65.921875 
Q 27.828125 65.921875 22.671875 59.328125 
Q 17.53125 52.734375 16.796875 39.40625 
Q 19.671875 43.65625 24.015625 45.921875 
Q 28.375 48.1875 33.59375 48.1875 
Q 44.578125 48.1875 50.953125 41.515625 
Q 57.328125 34.859375 57.328125 23.390625 
Q 57.328125 12.15625 50.6875 5.359375 
Q 44.046875 -1.421875 33.015625 -1.421875 
Q 20.359375 -1.421875 13.671875 8.265625 
Q 6.984375 17.96875 6.984375 36.375 
Q 6.984375 53.65625 15.1875 63.9375 
Q 23.390625 74.21875 37.203125 74.21875 
Q 40.921875 74.21875 44.703125 73.484375 
Q 48.484375 72.75 52.59375 71.296875 
z
" id="DejaVuSans-54"/>
      </defs>
      <g transform="translate(784.6 72.919219)scale(0.1 -0.1)">
       <use xlink:href="#DejaVuSans-54"/>
       <use x="63.623047" xlink:href="#DejaVuSans-48"/>
       <use x="127.246094" xlink:href="#DejaVuSans-48"/>
      </g>
     </g>
    </g>
   </g>
   <g id="line2d_20">
    <path clip-path="url(#pe389d6cdb8)" d="M 138.436364 512.64 
L 146.958545 512.64 
L 148.176 511.1616 
L 150.610909 511.1616 
L 153.045818 503.7696 
L 154.263273 501.552 
L 155.480727 501.552 
L 156.698182 500.0736 
L 157.915636 497.1168 
L 160.350545 497.1168 
L 161.568 496.3776 
L 162.785455 491.9424 
L 164.002909 491.9424 
L 165.220364 487.5072 
L 168.872727 471.984 
L 171.307636 469.0272 
L 173.742545 467.5488 
L 177.394909 463.1136 
L 178.612364 463.1136 
L 179.829818 457.9392 
L 181.047273 454.2432 
L 185.917091 445.3728 
L 188.352 439.4592 
L 189.569455 437.2416 
L 190.786909 430.5888 
L 192.004364 429.1104 
L 193.221818 423.936 
L 194.439273 421.7184 
L 195.656727 413.5872 
L 196.874182 409.152 
L 198.091636 402.4992 
L 199.309091 400.2816 
L 200.526545 399.5424 
L 201.744 394.368 
L 202.961455 389.9328 
L 204.178909 386.976 
L 205.396364 381.0624 
L 207.831273 373.6704 
L 209.048727 372.192 
L 210.266182 365.5392 
L 211.483636 363.3216 
L 212.701091 353.712 
L 213.918545 351.4944 
L 215.136 345.5808 
L 216.353455 345.5808 
L 217.570909 344.1024 
L 218.788364 344.1024 
L 220.005818 338.928 
L 221.223273 338.928 
L 222.440727 335.9712 
L 223.658182 335.9712 
L 224.875636 328.5792 
L 227.310545 328.5792 
L 228.528 327.84 
L 229.745455 324.144 
L 230.962909 321.9264 
L 232.180364 317.4912 
L 233.397818 317.4912 
L 234.615273 316.752 
L 235.832727 315.2736 
L 238.267636 313.7952 
L 239.485091 310.8384 
L 240.702545 307.1424 
L 243.137455 302.7072 
L 244.354909 298.272 
L 245.572364 296.0544 
L 248.007273 290.1408 
L 249.224727 288.6624 
L 250.442182 287.9232 
L 251.659636 286.4448 
L 252.877091 286.4448 
L 255.312 282.0096 
L 256.529455 281.2704 
L 257.746909 276.8352 
L 258.964364 276.096 
L 260.181818 274.6176 
L 261.399273 270.1824 
L 262.616727 270.1824 
L 263.834182 267.2256 
L 265.051636 262.7904 
L 266.269091 261.312 
L 267.486545 254.6592 
L 268.704 253.92 
L 269.921455 252.4416 
L 271.138909 249.4848 
L 272.356364 248.0064 
L 273.573818 245.7888 
L 274.791273 245.7888 
L 276.008727 245.0496 
L 277.226182 245.0496 
L 278.443636 243.5712 
L 279.661091 243.5712 
L 280.878545 242.832 
L 284.530909 242.832 
L 286.965818 241.3536 
L 288.183273 239.8752 
L 290.618182 232.4832 
L 293.053091 231.0048 
L 295.488 231.0048 
L 296.705455 230.2656 
L 297.922909 230.2656 
L 299.140364 229.5264 
L 300.357818 226.5696 
L 301.575273 225.8304 
L 302.792727 220.656 
L 304.010182 220.656 
L 305.227636 219.9168 
L 307.662545 219.9168 
L 310.097455 218.4384 
L 311.314909 218.4384 
L 312.532364 217.6992 
L 313.749818 217.6992 
L 314.967273 215.4816 
L 316.184727 215.4816 
L 317.402182 214.7424 
L 319.837091 214.7424 
L 321.054545 212.5248 
L 322.272 208.8288 
L 323.489455 208.8288 
L 324.706909 207.3504 
L 325.924364 205.1328 
L 329.576727 205.1328 
L 332.011636 200.6976 
L 339.316364 200.6976 
L 340.533818 199.9584 
L 341.751273 199.9584 
L 342.968727 198.48 
L 344.186182 197.7408 
L 345.403636 197.7408 
L 347.838545 196.2624 
L 350.273455 196.2624 
L 351.490909 194.784 
L 361.230545 194.784 
L 363.665455 191.8272 
L 367.317818 191.8272 
L 368.535273 189.6096 
L 373.405091 189.6096 
L 374.622545 188.1312 
L 384.362182 188.1312 
L 386.797091 185.1744 
L 392.884364 185.1744 
L 395.319273 182.2176 
L 396.536727 181.4784 
L 397.754182 180 
L 398.971636 179.2608 
L 401.406545 176.304 
L 408.711273 176.304 
L 414.798545 172.608 
L 423.320727 172.608 
L 425.755636 171.1296 
L 437.930182 171.1296 
L 440.365091 169.6512 
L 441.582545 169.6512 
L 445.234909 167.4336 
L 446.452364 167.4336 
L 448.887273 165.9552 
L 468.366545 165.9552 
L 469.584 165.216 
L 470.801455 165.216 
L 472.018909 164.4768 
L 747.163636 164.4768 
L 747.163636 164.4768 
" style="fill:none;stroke:#0000ff;stroke-linecap:square;stroke-width:1.5;"/>
   </g>
   <g id="line2d_21">
    <path clip-path="url(#pe389d6cdb8)" d="M 138.436364 511.9008 
L 146.958545 511.9008 
L 148.176 511.1616 
L 153.045818 511.1616 
L 154.263273 510.4224 
L 155.480727 510.4224 
L 156.698182 509.6832 
L 157.915636 509.6832 
L 164.002909 505.9872 
L 165.220364 505.9872 
L 166.437818 505.248 
L 167.655273 505.248 
L 170.090182 503.7696 
L 171.307636 502.2912 
L 173.742545 500.8128 
L 174.96 499.3344 
L 176.177455 498.5952 
L 177.394909 497.1168 
L 179.829818 495.6384 
L 181.047273 494.16 
L 182.264727 493.4208 
L 183.482182 491.9424 
L 184.699636 491.2032 
L 185.917091 489.7248 
L 187.134545 488.9856 
L 188.352 487.5072 
L 190.786909 486.0288 
L 192.004364 484.5504 
L 193.221818 483.8112 
L 194.439273 482.3328 
L 198.091636 480.1152 
L 200.526545 477.1584 
L 201.744 476.4192 
L 202.961455 474.9408 
L 204.178909 474.2016 
L 205.396364 472.7232 
L 206.613818 471.984 
L 207.831273 470.5056 
L 210.266182 469.0272 
L 211.483636 467.5488 
L 213.918545 466.0704 
L 216.353455 463.1136 
L 217.570909 462.3744 
L 218.788364 460.896 
L 220.005818 460.1568 
L 223.658182 455.7216 
L 224.875636 454.9824 
L 226.093091 453.504 
L 227.310545 452.7648 
L 228.528 451.2864 
L 229.745455 450.5472 
L 230.962909 449.0688 
L 232.180364 448.3296 
L 233.397818 446.8512 
L 234.615273 446.112 
L 237.050182 443.1552 
L 239.485091 441.6768 
L 240.702545 440.1984 
L 245.572364 437.2416 
L 246.789818 435.7632 
L 250.442182 433.5456 
L 251.659636 432.0672 
L 255.312 429.8496 
L 256.529455 428.3712 
L 263.834182 423.936 
L 265.051636 423.936 
L 272.356364 419.5008 
L 273.573818 419.5008 
L 274.791273 418.0224 
L 284.530909 412.1088 
L 285.748364 412.1088 
L 288.183273 410.6304 
L 289.400727 410.6304 
L 291.835636 409.152 
L 293.053091 409.152 
L 297.922909 406.1952 
L 299.140364 406.1952 
L 300.357818 405.456 
L 302.792727 405.456 
L 306.445091 403.2384 
L 307.662545 403.2384 
L 310.097455 401.76 
L 311.314909 401.76 
L 312.532364 401.0208 
L 313.749818 401.0208 
L 314.967273 400.2816 
L 316.184727 400.2816 
L 318.619636 398.8032 
L 322.272 398.8032 
L 323.489455 398.064 
L 324.706909 398.064 
L 325.924364 397.3248 
L 327.141818 397.3248 
L 328.359273 396.5856 
L 330.794182 396.5856 
L 332.011636 395.8464 
L 333.229091 395.8464 
L 334.446545 395.1072 
L 335.664 395.1072 
L 336.881455 394.368 
L 339.316364 394.368 
L 340.533818 393.6288 
L 342.968727 393.6288 
L 344.186182 392.8896 
L 346.621091 392.8896 
L 347.838545 392.1504 
L 350.273455 392.1504 
L 351.490909 391.4112 
L 353.925818 391.4112 
L 355.143273 390.672 
L 357.578182 390.672 
L 358.795636 389.9328 
L 362.448 389.9328 
L 363.665455 389.1936 
L 368.535273 389.1936 
L 369.752727 388.4544 
L 373.405091 388.4544 
L 374.622545 387.7152 
L 378.274909 387.7152 
L 379.492364 386.976 
L 386.797091 386.976 
L 388.014545 386.2368 
L 401.406545 386.2368 
L 402.624 385.4976 
L 413.581091 385.4976 
L 414.798545 384.7584 
L 425.755636 384.7584 
L 426.973091 384.0192 
L 448.887273 384.0192 
L 450.104727 383.28 
L 473.236364 383.28 
L 474.453818 382.5408 
L 502.455273 382.5408 
L 503.672727 381.8016 
L 564.545455 381.8016 
L 565.762909 381.0624 
L 747.163636 381.0624 
L 747.163636 381.0624 
" style="fill:none;stroke:#008000;stroke-linecap:square;stroke-width:1.5;"/>
   </g>
   <g id="patch_7">
    <path d="M 108 512.64 
L 108 69.12 
" style="fill:none;stroke:#000000;stroke-linecap:square;stroke-linejoin:miter;stroke-width:0.8;"/>
   </g>
   <g id="patch_8">
    <path d="M 777.6 512.64 
L 777.6 69.12 
" style="fill:none;stroke:#000000;stroke-linecap:square;stroke-linejoin:miter;stroke-width:0.8;"/>
   </g>
   <g id="patch_9">
    <path d="M 108 512.64 
L 777.6 512.64 
" style="fill:none;stroke:#000000;stroke-linecap:square;stroke-linejoin:miter;stroke-width:0.8;"/>
   </g>
   <g id="patch_10">
    <path d="M 108 69.12 
L 777.6 69.12 
" style="fill:none;stroke:#000000;stroke-linecap:square;stroke-linejoin:miter;stroke-width:0.8;"/>
   </g>
   <g id="text_22">
    <!-- Number of cattles -->
    <defs>
     <path d="M 9.8125 72.90625 
L 23.09375 72.90625 
L 55.421875 11.921875 
L 55.421875 72.90625 
L 64.984375 72.90625 
L 64.984375 0 
L 51.703125 0 
L 19.390625 60.984375 
L 19.390625 0 
L 9.8125 0 
z
" id="DejaVuSans-78"/>
    </defs>
    <g style="fill:#008000;" transform="translate(848.699062 332.112469)rotate(-90)scale(0.15 -0.15)">
     <use xlink:href="#DejaVuSans-78"/>
     <use x="74.804688" xlink:href="#DejaVuSans-117"/>
     <use x="138.183594" xlink:href="#DejaVuSans-109"/>
     <use x="235.595703" xlink:href="#DejaVuSans-98"/>
     <use x="299.072266" xlink:href="#DejaVuSans-101"/>
     <use x="360.595703" xlink:href="#DejaVuSans-114"/>
     <use x="401.708984" xlink:href="#DejaVuSans-32"/>
     <use x="433.496094" xlink:href="#DejaVuSans-111"/>
     <use x="494.677734" xlink:href="#DejaVuSans-102"/>
     <use x="529.882812" xlink:href="#DejaVuSans-32"/>
     <use x="561.669922" xlink:href="#DejaVuSans-99"/>
     <use x="616.650391" xlink:href="#DejaVuSans-97"/>
     <use x="677.929688" xlink:href="#DejaVuSans-116"/>
     <use x="717.138672" xlink:href="#DejaVuSans-116"/>
     <use x="756.347656" xlink:href="#DejaVuSans-108"/>
     <use x="784.130859" xlink:href="#DejaVuSans-101"/>
     <use x="845.654297" xlink:href="#DejaVuSans-115"/>
    </g>
   </g>
   <g id="text_23">
    <!-- Number of sheep -->
    <g style="fill:#0000ff;" transform="translate(835.307063 332.112469)rotate(-90)scale(0.15 -0.15)">
     <use xlink:href="#DejaVuSans-78"/>
     <use x="74.804688" xlink:href="#DejaVuSans-117"/>
     <use x="138.183594" xlink:href="#DejaVuSans-109"/>
     <use x="235.595703" xlink:href="#DejaVuSans-98"/>
     <use x="299.072266" xlink:href="#DejaVuSans-101"/>
     <use x="360.595703" xlink:href="#DejaVuSans-114"/>
     <use x="401.708984" xlink:href="#DejaVuSans-32"/>
     <use x="433.496094" xlink:href="#DejaVuSans-111"/>
     <use x="494.677734" xlink:href="#DejaVuSans-102"/>
     <use x="529.882812" xlink:href="#DejaVuSans-32"/>
     <use x="561.669922" xlink:href="#DejaVuSans-115"/>
     <use x="613.769531" xlink:href="#DejaVuSans-104"/>
     <use x="677.148438" xlink:href="#DejaVuSans-101"/>
     <use x="738.671875" xlink:href="#DejaVuSans-101"/>
     <use x="800.195312" xlink:href="#DejaVuSans-112"/>
    </g>
   </g>
   <g id="legend_1">
    <g id="patch_11">
     <path d="M 115 106.47625 
L 178.340625 106.47625 
Q 180.340625 106.47625 180.340625 104.47625 
L 180.340625 76.12 
Q 180.340625 74.12 178.340625 74.12 
L 115 74.12 
Q 113 74.12 113 76.12 
L 113 104.47625 
Q 113 106.47625 115 106.47625 
z
" style="fill:#ffffff;opacity:0.8;stroke:#cccccc;stroke-linejoin:miter;"/>
    </g>
    <g id="line2d_22">
     <path d="M 117 82.218438 
L 137 82.218438 
" style="fill:none;stroke:#0000ff;stroke-linecap:square;stroke-width:1.5;"/>
    </g>
    <g id="line2d_23"/>
    <g id="text_24">
     <!-- Sheep -->
     <defs>
      <path d="M 53.515625 70.515625 
L 53.515625 60.890625 
Q 47.90625 63.578125 42.921875 64.890625 
Q 37.9375 66.21875 33.296875 66.21875 
Q 25.25 66.21875 20.875 63.09375 
Q 16.5 59.96875 16.5 54.203125 
Q 16.5 49.359375 19.40625 46.890625 
Q 22.3125 44.4375 30.421875 42.921875 
L 36.375 41.703125 
Q 47.40625 39.59375 52.65625 34.296875 
Q 57.90625 29 57.90625 20.125 
Q 57.90625 9.515625 50.796875 4.046875 
Q 43.703125 -1.421875 29.984375 -1.421875 
Q 24.8125 -1.421875 18.96875 -0.25 
Q 13.140625 0.921875 6.890625 3.21875 
L 6.890625 13.375 
Q 12.890625 10.015625 18.65625 8.296875 
Q 24.421875 6.59375 29.984375 6.59375 
Q 38.421875 6.59375 43.015625 9.90625 
Q 47.609375 13.234375 47.609375 19.390625 
Q 47.609375 24.75 44.3125 27.78125 
Q 41.015625 30.8125 33.5 32.328125 
L 27.484375 33.5 
Q 16.453125 35.6875 11.515625 40.375 
Q 6.59375 45.0625 6.59375 53.421875 
Q 6.59375 63.09375 13.40625 68.65625 
Q 20.21875 74.21875 32.171875 74.21875 
Q 37.3125 74.21875 42.625 73.28125 
Q 47.953125 72.359375 53.515625 70.515625 
z
" id="DejaVuSans-83"/>
     </defs>
     <g transform="translate(145 85.718438)scale(0.1 -0.1)">
      <use xlink:href="#DejaVuSans-83"/>
      <use x="63.476562" xlink:href="#DejaVuSans-104"/>
      <use x="126.855469" xlink:href="#DejaVuSans-101"/>
      <use x="188.378906" xlink:href="#DejaVuSans-101"/>
      <use x="249.902344" xlink:href="#DejaVuSans-112"/>
     </g>
    </g>
    <g id="line2d_24">
     <path d="M 117 96.896563 
L 137 96.896563 
" style="fill:none;stroke:#008000;stroke-linecap:square;stroke-width:1.5;"/>
    </g>
    <g id="line2d_25"/>
    <g id="text_25">
     <!-- Cattle -->
     <defs>
      <path d="M 64.40625 67.28125 
L 64.40625 56.890625 
Q 59.421875 61.53125 53.78125 63.8125 
Q 48.140625 66.109375 41.796875 66.109375 
Q 29.296875 66.109375 22.65625 58.46875 
Q 16.015625 50.828125 16.015625 36.375 
Q 16.015625 21.96875 22.65625 14.328125 
Q 29.296875 6.6875 41.796875 6.6875 
Q 48.140625 6.6875 53.78125 8.984375 
Q 59.421875 11.28125 64.40625 15.921875 
L 64.40625 5.609375 
Q 59.234375 2.09375 53.4375 0.328125 
Q 47.65625 -1.421875 41.21875 -1.421875 
Q 24.65625 -1.421875 15.125 8.703125 
Q 5.609375 18.84375 5.609375 36.375 
Q 5.609375 53.953125 15.125 64.078125 
Q 24.65625 74.21875 41.21875 74.21875 
Q 47.75 74.21875 53.53125 72.484375 
Q 59.328125 70.75 64.40625 67.28125 
z
" id="DejaVuSans-67"/>
     </defs>
     <g transform="translate(145 100.396563)scale(0.1 -0.1)">
      <use xlink:href="#DejaVuSans-67"/>
      <use x="69.824219" xlink:href="#DejaVuSans-97"/>
      <use x="131.103516" xlink:href="#DejaVuSans-116"/>
      <use x="170.3125" xlink:href="#DejaVuSans-116"/>
      <use x="209.521484" xlink:href="#DejaVuSans-108"/>
      <use x="237.304688" xlink:href="#DejaVuSans-101"/>
     </g>
    </g>
   </g>
  </g>
 </g>
 <defs>
  <clipPath id="pe389d6cdb8">
   <rect height="443.52" width="669.6" x="108" y="69.12"/>
  </clipPath>
 </defs>
</svg>
